<!-- Generated by IcoMoon.io -->
<svg version="1.1" xmlns="http://www.w3.org/2000/svg" width="32" height="32" viewBox="0 0 32 32">
<title>activity</title>
<path d="M23.15 7.182c-0.948 0.308-1.713 0.603-2.291 0.885-0.46 0.224-1.038 0.554-1.732 0.991 0.053 1.158 0.052 2.131-0.006 2.926-0.058 0.802-0.21 1.953-0.459 3.465l-0.001 0.002c1.732 1.248 2.983 2.191 3.76 2.833 0.1 0.083 0.39 0.359 0.527 0.482l2.673-1.12 0.017-0.046c0.386-0.829 0.705-1.961 0.948-3.389 0.198-1.169 0.231-2.455 0.098-3.862l-3.535-3.166zM22.22 5.545l-0.052-0.186c-1.762-1.047-3.886-1.666-6.154-1.666-0.005 0-0.010 0-0.015 0h0.001c-1.208 0-2.375 0.175-3.479 0.502l-0.020 0.474c-0.001 0.337 0.004 0.721 0.015 1.151 1.040 0.146 1.914 0.338 2.63 0.579 0.718 0.243 1.632 0.658 2.756 1.249 0.855-0.546 1.569-0.959 2.148-1.241 0.582-0.284 1.305-0.57 2.17-0.862zM13.64 26.431c2.226-0.233 3.738-0.453 4.503-0.652 0.874-0.228 1.662-0.446 2.357-0.649 0.529-1.257 0.867-2.201 1.014-2.831 0.118-0.505 0.244-1.183 0.379-2.037-0.236-0.208-0.452-0.394-0.65-0.558-0.774-0.64-2.081-1.623-3.915-2.94-0.85 0.498-1.588 0.841-2.228 1.031-0.689 0.204-1.757 0.372-3.234 0.514-0.542 1.155-0.89 2.064-1.044 2.716-0.156 0.663-0.303 1.585-0.437 2.758 0.541 0.626 0.998 1.092 1.372 1.398 0.386 0.316 1.014 0.732 1.883 1.249zM5.805 22.988h2.817c0.123-0.972 0.258-1.766 0.404-2.386 0.168-0.714 0.503-1.618 1.006-2.722-0.649-0.75-1.463-1.696-1.838-2.278-0.322-0.499-0.809-1.048-1.364-2.399-0.291 0.033-0.556 0.096-0.808 0.185l0.025-0.008c-0.694 0.242-1.45 0.643-2.267 1.205-0.055 0.442-0.087 0.953-0.087 1.472 0 0.002 0 0.003 0 0.005v0c0 2.566 0.779 4.95 2.113 6.926zM27.894 19.249c0.263-0.954 0.414-2.050 0.414-3.181 0-0.302-0.011-0.601-0.032-0.897l0.002 0.040c-0.205 1.031-0.455 1.921-0.754 2.673 0.092 0.156 0.169 0.33 0.228 0.522 0.062 0.203 0.11 0.484 0.142 0.843zM6.505 11.385l0.080-0.132c0.87-1.422 1.54-2.415 2.034-3.004 0.455-0.543 1.14-1.2 2.065-1.985-0.015-0.388-0.025-0.858-0.028-1.33v-0.014c-2.974 1.473-5.232 4.016-6.298 7.114l-0.026 0.087c0.31-0.164 0.687-0.329 1.075-0.469l0.065-0.021c0.296-0.107 0.644-0.194 1.004-0.245l0.028-0.003zM22.864 26.326c-1.051 0.361-2.468 0.771-4.254 1.238-0.866 0.226-2.415 0.454-4.678 0.692 0.672 0.114 1.363 0.174 2.068 0.174 2.54 0 4.902-0.775 6.864-2.105zM30.769 16.062c0 8.185-6.618 14.831-14.769 14.831s-14.769-6.646-14.769-14.831 6.618-14.831 14.769-14.831 14.769 6.646 14.769 14.831z"></path>
</svg>
