<!-- Generated by IcoMoon.io -->
<svg version="1.1" xmlns="http://www.w3.org/2000/svg" width="32" height="32" viewBox="0 0 32 32">
<title>add-user</title>
<path d="M13.477 22.769c0-1.662 0.554-3.569 1.415-5.046 1.046-1.846 2.215-2.585 3.138-3.938 1.538-2.277 1.846-5.538 0.862-8-0.985-2.523-3.323-4-6.031-3.938s-4.923 1.723-5.785 4.246c-0.985 2.769-0.554 6.092 1.662 8.185 0.923 0.862 1.785 2.215 1.292 3.508-0.431 1.231-1.908 1.785-2.954 2.277-2.4 1.046-5.292 2.523-5.785 5.354-0.492 2.338 1.108 4.738 3.631 4.738h10.462c0.492 0 0.8-0.615 0.492-0.985-1.538-1.785-2.4-4.062-2.4-6.4z"></path>
<path d="M23.323 15.385c-4.062 0-7.385 3.323-7.385 7.385s3.323 7.385 7.385 7.385 7.385-3.323 7.385-7.385-3.323-7.385-7.385-7.385zM27.077 23.385c0 0.369-0.308 0.615-0.677 0.615h-1.785v1.846c0 0.369-0.308 0.615-0.677 0.615h-1.231c-0.369 0-0.554-0.246-0.554-0.615v-1.846h-1.908c-0.369 0-0.554-0.246-0.554-0.615v-1.231c0-0.369 0.185-0.615 0.554-0.615h1.908v-1.846c0-0.369 0.185-0.615 0.554-0.615h1.231c0.369 0 0.677 0.246 0.677 0.615v1.846h1.785c0.369 0 0.677 0.246 0.677 0.615v1.231z"></path>
</svg>
