<!-- Generated by IcoMoon.io -->
<svg version="1.1" xmlns="http://www.w3.org/2000/svg" width="32" height="32" viewBox="0 0 32 32">
<title>advanced-function</title>
<path d="M26.462 4.246v-1.785c0-0.492-0.431-0.923-0.923-0.923h-18.277c-0.492 0-0.923 0.431-0.923 0.923v1.908c0 0.185 0 0.431 0.185 0.615l8.985 11.015-8.985 11.015c-0.123 0.185-0.185 0.369-0.185 0.615v1.908c0 0.492 0.431 0.923 0.923 0.923h18.277c0.492 0 0.923-0.431 0.923-0.923v-1.785c0-0.492-0.431-0.923-0.923-0.923h-14.215l8.185-10.031c0.185-0.246 0.246-0.492 0.246-0.862 0-0.308-0.123-0.615-0.308-0.862l-8.123-9.908h14.215c0.492 0 0.923-0.431 0.923-0.923z"></path>
</svg>
