<!-- Generated by IcoMoon.io -->
<svg version="1.1" xmlns="http://www.w3.org/2000/svg" width="32" height="32" viewBox="0 0 32 32">
<title>advertising</title>
<path d="M14.154 16.738h0.246c0.123-1.662 0.738-3.138 1.662-4.308-0.492-0.492-1.108-0.8-1.908-0.8-1.477 0-2.585 1.108-2.585 2.585 0 1.415 1.108 2.523 2.585 2.523z"></path>
<path d="M14.892 21.662c0.308 0 0.615-0.062 0.738-0.062-0.492-0.8-0.862-1.662-1.046-2.462h-0.431c-2.769 0-5.169-2.215-5.169-5.169 0-2.769 2.215-5.169 5.169-5.169 1.538 0 3.015 0.677 3.938 1.785 0.738-0.431 1.538-0.677 2.4-0.8-1.415-2.031-3.754-3.323-6.4-3.323-4.431 0-7.754 3.508-7.754 7.754s3.508 7.754 7.938 7.569c0.246-0.062 0.431-0.062 0.615-0.123z"></path>
<path d="M30.708 28v0.862c0 0.985-0.862 1.846-1.846 1.846h-14.831c-0.985 0-1.846-0.862-1.846-1.846v-0.862c0-2.215 2.646-3.631 5.108-4.738l0.246-0.123c0.185-0.062 0.369-0.062 0.554 0.062 0.985 0.677 2.154 0.985 3.323 0.985s2.338-0.369 3.323-0.985c0.185-0.123 0.369-0.123 0.554-0.062l0.246 0.123c2.585 1.108 5.169 2.462 5.169 4.738zM21.415 12.185c2.585 0 4.615 2.277 4.615 5.108s-2.031 5.108-4.615 5.108-4.615-2.277-4.615-5.108 2.092-5.108 4.615-5.108z"></path>
<path d="M11.385 24.123c-4.246-1.231-7.508-5.231-7.508-9.908 0-5.723 4.615-10.338 10.338-10.338 4.246 0 8.062 2.523 9.6 6.277 1.231 0.492 2.338 1.292 3.138 2.338-0.923-6.462-6.277-11.2-12.8-11.2-7.2 0-12.862 5.662-12.862 12.862 0 5.662 3.569 10.462 8.738 12.123 0.246-0.862 0.738-1.538 1.354-2.154z"></path>
</svg>
