<!-- Generated by IcoMoon.io -->
<svg version="1.1" xmlns="http://www.w3.org/2000/svg" width="32" height="32" viewBox="0 0 32 32">
<title>anchor</title>
<path d="M29.538 21.969l-1.477-6.277c-0.185-0.677-1.046-0.923-1.538-0.492l-4.738 4.369c-0.554 0.492-0.308 1.354 0.369 1.538l2.031 0.615c-0.185 0.431-0.369 0.862-0.615 1.231-1.108 1.846-2.892 3.015-5.723 3.385v-15.385c1.6-0.677 2.708-2.277 2.708-4.123 0-2.462-2.031-4.492-4.492-4.492-2.523 0-4.492 2.031-4.492 4.492 0 1.846 1.108 3.385 2.708 4.123v15.385c-2.831-0.369-4.615-1.538-5.723-3.385-0.246-0.431-0.431-0.8-0.615-1.231l2.031-0.615c0.677-0.185 0.862-1.108 0.369-1.538l-4.8-4.308c-0.554-0.492-1.354-0.246-1.538 0.492l-1.538 6.215c-0.185 0.677 0.492 1.292 1.169 1.108l1.6-0.492c0.246 0.677 0.492 1.292 0.862 1.908 1.785 3.015 5.046 4.8 9.846 4.8s8-1.785 9.846-4.8c0.369-0.615 0.677-1.292 0.862-1.908l1.6 0.492c0.8 0.185 1.415-0.431 1.292-1.108zM16 8.738c-0.985 0-1.785-0.8-1.785-1.785s0.8-1.785 1.785-1.785 1.785 0.8 1.785 1.785-0.8 1.785-1.785 1.785z"></path>
</svg>
