<!-- Generated by IcoMoon.io -->
<svg version="1.1" xmlns="http://www.w3.org/2000/svg" width="32" height="32" viewBox="0 0 32 32">
<title>announcement</title>
<path d="M13.969 27.938l-0.8-0.615c-0.862-0.615-0.862-1.846-0.862-2.462v-1.785c0-0.492-0.431-0.923-0.923-0.923h-3.692c-0.492 0-0.923 0.431-0.923 0.923v4.738c0 1.662 0.985 2.954 2.523 2.954h3.015c1.785 0 1.908-1.231 1.908-1.231s0.308-1.108-0.246-1.6zM27.692 11.077v-8.431c0-1.477-1.846-1.908-2.831-0.923l-5.477 5.169c-0.862 0.738-1.969 1.046-3.077 1.046h-9.354c-3.2 0.062-5.723 2.831-5.723 6.031v0.123c0 3.2 2.523 5.6 5.723 5.6h9.354c1.169 0 2.277 0.492 3.138 1.231l5.415 5.292c0.985 0.985 2.831 0.615 2.831-0.862v-8.369c1.846 0 2.954-1.292 2.954-2.954s-1.108-2.954-2.954-2.954z"></path>
</svg>
