<!-- Generated by IcoMoon.io -->
<svg version="1.1" xmlns="http://www.w3.org/2000/svg" width="32" height="32" viewBox="0 0 32 32">
<title>answer</title>
<path d="M16 2.462c-8.185 0-14.769 6.031-14.769 13.538 0 2.4 0.677 4.615 1.846 6.646 0.123 0.246 0.185 0.554 0.123 0.8l-1.354 4.246c-0.246 0.8 0.492 1.477 1.292 1.231l4.308-1.477c0.308-0.123 0.615-0.062 0.862 0.123 2.277 1.292 4.923 2.031 7.754 2.031 8.185 0 14.769-6.031 14.769-13.538-0.123-7.569-6.708-13.6-14.831-13.6zM23.077 12.985l-7.508 7.385c-0.308 0.308-0.615 0.431-1.046 0.431-0.369 0-0.738-0.123-1.046-0.431l-3.631-3.569c-0.308-0.308-0.308-0.738 0-0.985l1.046-0.985c0.308-0.308 0.738-0.308 1.046 0l2.585 2.585 6.462-6.4c0.308-0.308 0.738-0.308 1.046 0l1.046 0.985c0.246 0.246 0.246 0.738 0 0.985z"></path>
</svg>
