<!-- Generated by IcoMoon.io -->
<svg version="1.1" xmlns="http://www.w3.org/2000/svg" width="32" height="32" viewBox="0 0 32 32">
<title>apex_plugin</title>
<path d="M16.123 11.138l6.831-6.831c0.369-0.369 0.369-0.923 0-1.292l-1.477-1.477c-0.369-0.369-0.923-0.369-1.292 0l-6.831 6.831 2.769 2.769zM23.631 18.892l6.831-6.831c0.369-0.369 0.369-0.923 0-1.292l-1.477-1.477c-0.369-0.369-0.923-0.369-1.292 0l-6.831 6.831 2.769 2.769zM22.646 24.554c0.123-0.123 0.185-0.308 0.246-0.492 0.062-0.246 0-0.492-0.123-0.677-0.062-0.062-0.062-0.123-0.123-0.123l-13.846-13.846c-0.123-0.185-0.431-0.246-0.677-0.246s-0.492 0.123-0.677 0.308c-0.123 0.123-0.246 0.185-0.369 0.308-0.062 0.062-0.123 0.185-0.185 0.246-0.062 0.123-0.185 0.185-0.246 0.308s-0.185 0.246-0.246 0.369c-0.123 0.123-0.185 0.308-0.246 0.492-0.123 0.185-0.185 0.369-0.246 0.554-0.123 0.185-0.185 0.431-0.246 0.677-0.123 0.246-0.185 0.492-0.246 0.738-0.062 0.308-0.185 0.554-0.246 0.862s-0.123 0.615-0.185 0.985c-0.062 0.369-0.123 0.738-0.185 1.046-0.062 0.369-0.123 0.8-0.123 1.169-0.062 0.431-0.062 0.862-0.062 1.354v1.477c0 0.554 0 1.046 0.062 1.6 0 0.554 0.062 1.169 0.123 1.723 0 0.185 0.062 0.308 0.062 0.492h0.062l-3.2 3.2c-0.492 0.246-0.492 0.862-0.185 1.231l2.277 2.277c0.369 0.369 0.923 0.369 1.292 0l3.2-3.2c1.169 0.123 2.277 0.185 3.446 0.185 0.985 0 1.908 0 2.892-0.062 0.8-0.062 1.6-0.123 2.338-0.308 0.615-0.123 1.231-0.246 1.846-0.431 0.492-0.123 0.985-0.308 1.415-0.554 0.369-0.185 0.738-0.369 1.046-0.554 0.431-0.246 0.862-0.615 1.231-0.985l0.123-0.123z"></path>
</svg>
