<!-- Generated by IcoMoon.io -->
<svg version="1.1" xmlns="http://www.w3.org/2000/svg" width="32" height="32" viewBox="0 0 32 32">
<title>apex</title>
<path d="M29.846 24.615h-16.615c-0.492 0-0.923 0.431-0.923 0.923v1.846c0 0.492 0.431 0.923 0.923 0.923h16.615c0.492 0 0.923-0.431 0.923-0.923v-1.846c0-0.492-0.431-0.923-0.923-0.923zM15.631 13.415l-11.938-9.538c-0.369-0.308-0.923-0.246-1.231 0.185l-1.046 1.477c-0.308 0.431-0.185 0.985 0.185 1.292l8.492 6.769c0.308 0.246 0.308 0.738 0 0.985l-8.492 6.769c-0.369 0.308-0.492 0.923-0.185 1.292l1.046 1.6c0.308 0.431 0.862 0.492 1.231 0.185l11.938-9.538c0.492-0.369 0.492-1.108 0-1.477z"></path>
</svg>
