<!-- Generated by IcoMoon.io -->
<svg version="1.1" xmlns="http://www.w3.org/2000/svg" width="32" height="32" viewBox="0 0 32 32">
<title>approval</title>
<path d="M27.815 17.969h-5.415c-1.6 0-2.954-1.354-2.954-2.954 0.246-4.369 2.277-4.615 2.462-7.446 0.185-2.954-1.662-5.6-4.554-6.215-3.815-0.8-7.262 2.092-7.262 5.785 0 3.262 2.215 3.262 2.462 7.877 0 1.6-1.354 2.954-2.954 2.954h-5.415c-1.6 0-2.954 1.292-2.954 2.954v1.969c0 0.554 0.431 0.985 0.985 0.985h27.569c0.554 0 0.985-0.431 0.985-0.985v-1.969c0-1.662-1.354-2.954-2.954-2.954zM27.877 26.831h-23.754c-0.554 0-0.923 0.431-0.923 0.923v0.062c0 1.6 1.354 2.954 2.954 2.954h19.754c1.6 0 2.892-1.354 2.892-2.954v-0.062c0-0.492-0.431-0.923-0.923-0.923z"></path>
</svg>
