<!-- Generated by IcoMoon.io -->
<svg version="1.1" xmlns="http://www.w3.org/2000/svg" width="32" height="32" viewBox="0 0 32 32">
<title>apps</title>
<path d="M8 2.462h-3.692c-1.046 0-1.846 0.8-1.846 1.846v3.692c0 1.046 0.8 1.846 1.846 1.846h3.692c1.046 0 1.846-0.8 1.846-1.846v-3.692c0-1.046-0.8-1.846-1.846-1.846zM8 22.154h-3.692c-1.046 0-1.846 0.8-1.846 1.846v3.692c0 1.046 0.8 1.846 1.846 1.846h3.692c1.046 0 1.846-0.8 1.846-1.846v-3.692c0-1.046-0.8-1.846-1.846-1.846zM8 12.308h-3.692c-1.046 0-1.846 0.8-1.846 1.846v3.692c0 1.046 0.8 1.846 1.846 1.846h3.692c1.046 0 1.846-0.8 1.846-1.846v-3.692c0-1.046-0.8-1.846-1.846-1.846zM17.846 2.462h-3.692c-1.046 0-1.846 0.8-1.846 1.846v3.692c0 1.046 0.8 1.846 1.846 1.846h3.692c1.046 0 1.846-0.8 1.846-1.846v-3.692c0-1.046-0.8-1.846-1.846-1.846zM17.846 22.154h-3.692c-1.046 0-1.846 0.8-1.846 1.846v3.692c0 1.046 0.8 1.846 1.846 1.846h3.692c1.046 0 1.846-0.8 1.846-1.846v-3.692c0-1.046-0.8-1.846-1.846-1.846zM17.846 12.308h-3.692c-1.046 0-1.846 0.8-1.846 1.846v3.692c0 1.046 0.8 1.846 1.846 1.846h3.692c1.046 0 1.846-0.8 1.846-1.846v-3.692c0-1.046-0.8-1.846-1.846-1.846zM27.692 2.462h-3.692c-1.046 0-1.846 0.8-1.846 1.846v3.692c0 1.046 0.8 1.846 1.846 1.846h3.692c1.046 0 1.846-0.8 1.846-1.846v-3.692c0-1.046-0.8-1.846-1.846-1.846zM27.692 22.154h-3.692c-1.046 0-1.846 0.8-1.846 1.846v3.692c0 1.046 0.8 1.846 1.846 1.846h3.692c1.046 0 1.846-0.8 1.846-1.846v-3.692c0-1.046-0.8-1.846-1.846-1.846zM27.692 12.308h-3.692c-1.046 0-1.846 0.8-1.846 1.846v3.692c0 1.046 0.8 1.846 1.846 1.846h3.692c1.046 0 1.846-0.8 1.846-1.846v-3.692c0-1.046-0.8-1.846-1.846-1.846z"></path>
</svg>
