<!-- Generated by IcoMoon.io -->
<svg version="1.1" xmlns="http://www.w3.org/2000/svg" width="32" height="32" viewBox="0 0 32 32">
<title>arrowup</title>
<path d="M25.477 12.923c0.492-0.492 0.492-1.169 0-1.662l-9.231-9.046c-0.492-0.492-1.231-0.492-1.723 0l-9.231 9.046c-0.492 0.492-0.492 1.169 0 1.662l1.723 1.662c0.492 0.492 1.231 0.492 1.723 0l2.892-2.831c0.492-0.492 1.354-0.123 1.354 0.554v16.615c0 0.615 0.554 1.231 1.231 1.231h2.462c0.677 0 1.231-0.677 1.231-1.231v-16.615c0-0.738 0.862-1.046 1.354-0.554l2.892 2.831c0.492 0.492 1.231 0.492 1.723 0l1.6-1.662z"></path>
</svg>
