<!-- Generated by IcoMoon.io -->
<svg version="1.1" xmlns="http://www.w3.org/2000/svg" width="32" height="32" viewBox="0 0 32 32">
<title>assignment</title>
<path d="M2.215 18.338h27.446c0.554 0 0.985 0.431 0.985 0.985v1.969c0 0.554-0.431 0.985-0.985 0.985h-27.446c-0.554 0-0.985-0.431-0.985-0.985v-1.969c0-0.554 0.431-0.985 0.985-0.985zM2.215 9.6h27.446c0.554 0 0.985 0.431 0.985 0.985v1.969c0 0.554-0.431 0.985-0.985 0.985h-27.446c-0.554 0-0.985-0.431-0.985-0.985v-1.969c0-0.492 0.431-0.985 0.985-0.985z"></path>
</svg>
