<!-- Generated by IcoMoon.io -->
<svg version="1.1" xmlns="http://www.w3.org/2000/svg" width="32" height="32" viewBox="0 0 32 32">
<title>bold</title>
<path d="M25.231 11.692c0-3.692-2.954-6.769-6.462-6.769h-10.154c-0.677 0-1.231 0.554-1.231 1.231v20.308c0 0.677 0.554 1.231 1.231 1.231h10.154c3.508 0 6.462-3.077 6.462-6.769 0-1.785-0.677-3.385-1.785-4.615 1.108-1.231 1.785-2.831 1.785-4.615zM18.769 23.385h-7.077v-4.923h7.077c1.169 0 2.215 1.169 2.215 2.462s-1.046 2.462-2.215 2.462zM18.769 14.154h-7.077v-4.923h7.077c1.169 0 2.215 1.169 2.215 2.462s-1.046 2.462-2.215 2.462z"></path>
</svg>
