<!-- Generated by IcoMoon.io -->
<svg version="1.1" xmlns="http://www.w3.org/2000/svg" width="32" height="32" viewBox="0 0 32 32">
<title>brush</title>
<path d="M30.4 1.662c-2.092-2.154-13.785 4.492-20.923 15.938-0.308 0.554-0.123 1.231 0.431 1.477 1.6 0.738 2.892 2.092 3.569 3.754 0.246 0.615 0.923 0.8 1.477 0.431 11.077-7.323 17.538-19.446 15.446-21.6zM7.323 21.662c-0.923 0-1.785 0.492-2.4 1.108h-0.062c-0.308 0-0.615 0.492-0.862 0.923-0.985 1.662-1.169 3.631-2.646 5.785-0.246 0.369-0.185 0.923 0.246 1.046 2.092 0.677 5.846 0.062 7.692-1.292v0.062c0.615-0.123 0.431-0.369 0.615-0.369 0.677-1.231 1.231-1.846 1.231-3.015-0.062-2.277-1.662-4.246-3.815-4.246z"></path>
</svg>
