<!-- Generated by IcoMoon.io -->
<svg version="1.1" xmlns="http://www.w3.org/2000/svg" width="32" height="32" viewBox="0 0 32 32">
<title>button-choice</title>
<path d="M19.691 7.385c0.903-0.001 1.846 0.697 1.846 2.545v6.071c0 0.931 0.849 1.299 1.218 1.422l4.198 1.532c1.785 0.677 2.892 2.585 2.4 4.554l-1.969 6.4c-0.123 0.492-0.554 0.862-1.108 0.862h-9.908c-0.492 0-0.923-0.246-1.108-0.677l-3.96-9.194c-0.259-0.602-0.088-1.086 0.514-1.453 1.108-0.8 2.769 0.025 3.446 1.194l0.994 1.356c0.391 0.743 1.59 0.743 1.59-0.364v-11.702c0-1.847 0.942-2.545 1.845-2.545zM28.308 1.231c1.354 0 2.462 1.108 2.462 2.462v9.231c0 1.158-1.119 2.463-2.462 2.462h-3.686c-0.622 0-0.622-0.5-0.622-0.578v-5.268c0-2.366-1.219-4.615-4.308-4.615s-4.308 1.962-4.308 4.615v5.268c-0.006 0.321-0.268 0.579-0.591 0.579-0.011 0-0.023 0-0.034-0.001h-11.068c-1.354 0-2.462-1.108-2.462-2.462v-9.231c0-1.354 1.108-2.462 2.462-2.462z"></path>
</svg>
