<!-- Generated by IcoMoon.io -->
<svg version="1.1" xmlns="http://www.w3.org/2000/svg" width="32" height="32" viewBox="0 0 32 32">
<title>cancel-file-request</title>
<path d="M17.6 7.015h3.138c0.369 0 0.677-0.308 0.677-0.677 0-0.185-0.062-0.308-0.185-0.492l-4.431-4.369c-0.123-0.123-0.246-0.185-0.431-0.185-0.369 0-0.677 0.308-0.677 0.677v3.138c0 1.046 0.862 1.908 1.908 1.908z"></path>
<path d="M15.138 24.985c0-4.185 2.585-7.754 6.277-9.169v-4.985c0-0.554-0.431-0.985-0.985-0.985h-4.8c-1.6 0-2.892-1.292-2.892-2.831v-4.8c0.062-0.492-0.369-0.923-0.923-0.923h-7.631c-1.6 0-2.892 1.292-2.892 2.831v18.092c0 1.6 1.292 2.831 2.892 2.831h10.954v-0.062zM19.569 21.292l3.692 3.692-3.692 3.692c-0.369 0.369-0.369 0.985 0 1.292l0.431 0.431c0.369 0.369 0.985 0.369 1.292 0l3.692-3.692 3.692 3.692c0.369 0.369 0.985 0.369 1.292 0l0.431-0.431c0.369-0.369 0.369-0.985 0-1.292l-3.692-3.692 3.692-3.692c0.369-0.369 0.369-0.985 0-1.292l-0.431-0.431c-0.369-0.369-0.985-0.369-1.292 0l-3.692 3.692-3.692-3.692c-0.369-0.369-0.985-0.369-1.292 0l-0.431 0.431c-0.369 0.308-0.369 0.923 0 1.292z"></path>
</svg>
