<!-- Generated by IcoMoon.io -->
<svg version="1.1" xmlns="http://www.w3.org/2000/svg" width="32" height="32" viewBox="0 0 32 32">
<title>case</title>
<path d="M10.585 6.954h1.785c0.246 0 0.431-0.185 0.431-0.431v-1.354h6.338v1.354c0 0.246 0.185 0.431 0.431 0.431h1.785c0.246 0 0.431-0.185 0.431-0.431v-1.354c0-1.477-1.231-2.708-2.708-2.708h-6.215c-1.477 0-2.708 1.231-2.708 2.708v1.354c0 0.246 0.123 0.431 0.431 0.431zM26.831 9.662h-21.662c-1.477 0-2.708 1.231-2.708 2.708v14.462c0 1.477 1.231 2.708 2.708 2.708h21.662c1.477 0 2.708-1.231 2.708-2.708v-14.462c0-1.477-1.231-2.708-2.708-2.708z"></path>
</svg>
