<!-- Generated by IcoMoon.io -->
<svg version="1.1" xmlns="http://www.w3.org/2000/svg" width="32" height="32" viewBox="0 0 32 32">
<title>change-owner</title>
<path d="M16.8 23.138c-1.846-0.738-2.154-1.415-2.154-2.154s0.492-1.415 1.108-1.969c1.108-0.923 1.6-2.4 1.6-3.938 0-2.892-1.785-5.231-5.108-5.231s-5.108 2.338-5.108 5.231c0 1.538 0.492 3.015 1.6 3.938 0.615 0.554 1.108 1.231 1.108 1.969s-0.308 1.415-2.154 2.154c-2.708 1.108-5.292 2.338-5.354 4.677 0.123 1.6 1.354 2.954 2.892 2.954h14.154c1.538 0 2.769-1.354 2.769-2.892-0.062-2.338-2.646-3.631-5.354-4.738zM27.385 11.692c0-4.554-3.754-8.308-8.308-8.308v-2.154l-4.185 3.385c-0.185 0.185-0.123 0.492 0.062 0.677l4.123 3.323v-2.154c2.892 0 5.231 2.338 5.231 5.231h-2.154l3.385 4.185c0.185 0.185 0.492 0.185 0.677 0l3.323-4.185h-2.154z"></path>
</svg>
