<!-- Generated by IcoMoon.io -->
<svg version="1.1" xmlns="http://www.w3.org/2000/svg" width="32" height="32" viewBox="0 0 32 32">
<title>classic-interface</title>
<path d="M15.692 21.969v-5.231s-2.338 3.508-3.815 5.908-1.292 4.308-1.292 4.308c0 1.908 1.415 3.508 3.138 3.508 1.046 0 1.969-0.554 2.523-1.477 0.554 0.8 1.415 1.231 2.4 1.231 1.723 0 3.138-1.538 3.138-3.508 0-0.185-0.062-0.369-0.062-0.554 0-2.585-5.662-9.538-5.662-9.538v5.354l0.738 1.785c0 0.062 0.062 0.123 0.062 0.246 0 0.431-0.369 0.8-0.8 0.8s-0.8-0.369-0.8-0.8c0-0.062 0-0.185 0.062-0.246l0.369-1.785zM9.785 17.415l4.923-1.846s-4.062-0.985-6.892-1.538c-2.831-0.554-4.492 0.308-4.492 0.308-1.785 0.677-2.769 2.523-2.215 4.123 0.369 0.985 1.231 1.662 2.277 1.908-0.554 0.8-0.677 1.785-0.369 2.708 0.615 1.6 2.523 2.4 4.369 1.723 0.185-0.062 0.369-0.185 0.492-0.246 2.462-0.862 6.954-8.615 6.954-8.615l-4.8 1.785-0.185 0.062-1.415 1.292c-0.062 0.062-0.123 0.062-0.185 0.123-0.431 0.185-0.923-0.062-1.046-0.492-0.185-0.431 0.062-0.923 0.492-1.046 0.062 0 0.185-0.062 0.246-0.062l1.846-0.185zM12.246 10.092l3.138 4.246s-0.246-4.185-0.492-7.015c-0.246-2.831-1.538-4.246-1.538-4.246-1.169-1.538-3.2-1.969-4.554-0.923-0.862 0.615-1.231 1.662-1.169 2.708-0.923-0.308-1.908-0.185-2.708 0.369-1.354 1.046-1.538 3.138-0.431 4.677 0.123 0.123 0.246 0.308 0.369 0.431 1.538 2.092 10.277 4.246 10.277 4.246l-3.077-4.123-0.123-0.123-1.662-0.985-0.185-0.185c-0.246-0.369-0.185-0.862 0.185-1.169 0.369-0.246 0.862-0.185 1.169 0.185 0.062 0.062 0.062 0.123 0.123 0.185l0.677 1.723zM22.215 17.415l-4.923-1.846s4.062-0.985 6.892-1.538c2.831-0.554 4.492 0.308 4.492 0.308 1.785 0.677 2.769 2.523 2.215 4.123-0.369 0.985-1.231 1.662-2.277 1.908 0.554 0.8 0.677 1.785 0.369 2.708-0.615 1.6-2.523 2.4-4.369 1.723-0.185-0.062-0.369-0.185-0.492-0.246-2.462-0.862-6.954-8.615-6.954-8.615l4.8 1.785 0.185 0.062 1.415 1.292c0.062 0.062 0.123 0.062 0.185 0.123 0.431 0.185 0.923-0.062 1.046-0.492 0.185-0.431-0.062-0.923-0.492-1.046-0.062 0-0.185-0.062-0.246-0.062l-1.846-0.185zM19.508 10.092l-3.138 4.246s0.246-4.185 0.492-7.015 1.538-4.246 1.538-4.246c1.169-1.538 3.2-1.969 4.554-0.923 0.862 0.615 1.231 1.662 1.169 2.708 0.923-0.246 1.908-0.123 2.646 0.431 1.354 1.046 1.538 3.138 0.431 4.677-0.123 0.123-0.246 0.308-0.369 0.431-1.477 2.031-10.215 4.123-10.215 4.123l3.077-4.123 0.123-0.123 1.662-0.985 0.185-0.185c0.246-0.369 0.185-0.862-0.185-1.169-0.369-0.246-0.862-0.185-1.169 0.185-0.062 0.062-0.062 0.123-0.123 0.185l-0.677 1.785z"></path>
</svg>
