<!-- Generated by IcoMoon.io -->
<svg version="1.1" xmlns="http://www.w3.org/2000/svg" width="32" height="32" viewBox="0 0 32 32">
<title>collection-variable</title>
<path d="M27.692 1.231h-23.385c-1.723 0-3.077 1.354-3.077 3.077v23.385c0 1.662 1.354 3.077 3.077 3.077h23.385c1.662 0 3.077-1.354 3.077-3.077v-23.385c0-1.723-1.354-3.077-3.077-3.077zM26.215 25.477c-0.062 0.369-0.431 0.677-0.862 0.677h-19.077c-0.369 0-0.677-0.369-0.677-0.8v-18.831c0-0.369 0.369-0.677 0.8-0.677h19.077c0.369 0 0.677 0.369 0.677 0.8v18.831z"></path>
<path d="M20.308 13.785c0.615 0 1.908-0.492 1.908-2.215s-1.231-1.785-1.6-1.785c-0.738 0-1.477 0.554-2.154 1.662-0.677 1.169-1.415 2.4-1.415 2.4-0.185-0.8-0.308-1.477-0.369-1.785-0.123-0.677-0.923-2.215-2.646-2.215-1.662 0-3.2 0.985-3.2 0.985-0.308 0.185-0.492 0.492-0.492 0.862 0 0.554 0.431 1.046 1.046 1.046 0.185 0 0.308-0.062 0.431-0.123 0 0 1.292-0.738 1.538 0 0.062 0.185 0.123 0.431 0.246 0.677 0.308 1.108 0.615 2.4 0.862 3.569l-1.108 1.6s-1.231-0.431-1.908-0.431-1.908 0.492-1.908 2.215 1.231 1.785 1.6 1.785c0.738 0 1.477-0.554 2.154-1.662 0.677-1.169 1.415-2.4 1.415-2.4 0.246 1.046 0.369 1.908 0.492 2.215 0.431 1.169 1.354 1.908 2.646 1.908 0 0 1.292 0 2.892-0.862 0.369-0.123 0.615-0.492 0.615-0.923 0-0.554-0.431-1.046-1.046-1.046-0.185 0-0.308 0.062-0.431 0.123 0 0-1.108 0.615-1.477 0.123-0.246-0.492-0.492-1.231-0.677-2.031-0.185-0.738-0.369-1.662-0.492-2.523l1.108-1.6c0.123 0 1.354 0.431 1.969 0.431z"></path>
</svg>
