<!-- Generated by IcoMoon.io -->
<svg version="1.1" xmlns="http://www.w3.org/2000/svg" width="32" height="32" viewBox="0 0 32 32">
<title>comments</title>
<path d="M29.415 19.077c-0.062-0.246-0.062-0.492 0.062-0.738 0.8-1.415 1.292-3.015 1.292-4.738 0-5.415-4.677-9.846-10.462-9.846-2.708 0-5.169 0.985-7.015 2.585 6.338 0.738 11.323 5.908 11.323 12.185 0 1.538-0.308 3.015-0.862 4.369 0.677-0.246 1.354-0.554 1.969-0.862 0.246-0.123 0.492-0.185 0.738-0.062l3.754 1.477c0.369 0.123 0.677-0.185 0.554-0.554l-1.354-3.815z"></path>
<path d="M11.692 8.677c-5.785 0-10.462 4.431-10.462 9.846 0 1.723 0.492 3.323 1.292 4.738 0.123 0.246 0.185 0.492 0.062 0.738l-1.354 3.754c-0.123 0.369 0.185 0.677 0.554 0.554l3.754-1.477c0.246-0.062 0.492-0.062 0.738 0.062 1.6 0.923 3.446 1.415 5.415 1.415 5.785 0 10.462-4.431 10.462-9.846 0-5.354-4.677-9.785-10.462-9.785z"></path>
</svg>
