<!-- Generated by IcoMoon.io -->
<svg version="1.1" xmlns="http://www.w3.org/2000/svg" width="32" height="32" viewBox="0 0 32 32">
<title>company</title>
<path d="M12.923 2.462h-8.615c-1.046 0-1.846 0.8-1.846 1.846v24.615c0 0.308 0.308 0.615 0.615 0.615h2.462c0.369 0 0.615-0.246 0.615-0.615v-3.692c0-0.369 0.246-0.615 0.615-0.615h3.692c0.369 0 0.615 0.246 0.615 0.615v3.692c0 0.369 0.246 0.615 0.615 0.615h1.846c0.677 0 1.231-0.554 1.231-1.231v-24c0-1.046-0.8-1.846-1.846-1.846zM7.385 21.846c0 0.185-0.123 0.308-0.308 0.308h-1.846c-0.185 0-0.308-0.123-0.308-0.308v-3.077c0-0.185 0.123-0.308 0.308-0.308h1.846c0.185 0 0.308 0.123 0.308 0.308v3.077zM7.385 15.692c0 0.185-0.123 0.308-0.308 0.308h-1.846c-0.185 0-0.308-0.123-0.308-0.308v-3.077c0-0.185 0.123-0.308 0.308-0.308h1.846c0.185 0 0.308 0.123 0.308 0.308v3.077zM7.385 9.538c0 0.185-0.123 0.308-0.308 0.308h-1.846c-0.185 0-0.308-0.123-0.308-0.308v-3.077c0-0.185 0.123-0.308 0.308-0.308h1.846c0.185 0 0.308 0.123 0.308 0.308v3.077zM12.308 21.846c0 0.185-0.123 0.308-0.308 0.308h-1.846c-0.185 0-0.308-0.123-0.308-0.308v-3.077c0-0.185 0.123-0.308 0.308-0.308h1.846c0.185 0 0.308 0.123 0.308 0.308v3.077zM12.308 15.692c0 0.185-0.123 0.308-0.308 0.308h-1.846c-0.185 0-0.308-0.123-0.308-0.308v-3.077c0-0.185 0.123-0.308 0.308-0.308h1.846c0.185 0 0.308 0.123 0.308 0.308v3.077zM12.308 9.538c0 0.185-0.123 0.308-0.308 0.308h-1.846c-0.185 0-0.308-0.123-0.308-0.308v-3.077c0-0.185 0.123-0.308 0.308-0.308h1.846c0.185 0 0.308 0.123 0.308 0.308v3.077zM27.692 8.615h-8.615c-1.046 0-1.846 0.8-1.846 1.846v18.462c0 0.308 0.308 0.615 0.615 0.615h2.462c0.369 0 0.615-0.246 0.615-0.615v-3.692c0-0.369 0.246-0.615 0.615-0.615h3.692c0.369 0 0.615 0.246 0.615 0.615v3.692c0 0.369 0.246 0.615 0.615 0.615h1.846c0.677 0 1.231-0.554 1.231-1.231v-17.846c0-1.046-0.8-1.846-1.846-1.846zM22.154 21.846c0 0.185-0.123 0.308-0.308 0.308h-1.846c-0.185 0-0.308-0.123-0.308-0.308v-3.077c0-0.185 0.123-0.308 0.308-0.308h1.846c0.185 0 0.308 0.123 0.308 0.308v3.077zM22.154 15.692c0 0.185-0.123 0.308-0.308 0.308h-1.846c-0.185 0-0.308-0.123-0.308-0.308v-3.077c0-0.185 0.123-0.308 0.308-0.308h1.846c0.185 0 0.308 0.123 0.308 0.308v3.077zM27.077 21.846c0 0.185-0.123 0.308-0.308 0.308h-1.846c-0.185 0-0.308-0.123-0.308-0.308v-3.077c0-0.185 0.123-0.308 0.308-0.308h1.846c0.185 0 0.308 0.123 0.308 0.308v3.077zM27.077 15.692c0 0.185-0.123 0.308-0.308 0.308h-1.846c-0.185 0-0.308-0.123-0.308-0.308v-3.077c0-0.185 0.123-0.308 0.308-0.308h1.846c0.185 0 0.308 0.123 0.308 0.308v3.077z"></path>
</svg>
