<!-- Generated by IcoMoon.io -->
<svg version="1.1" xmlns="http://www.w3.org/2000/svg" width="32" height="32" viewBox="0 0 32 32">
<title>constant</title>
<path d="M30.215 4.738c-0.185-0.185-0.369-0.246-0.615-0.246-2.338-0.123-4.738 0.062-7.077 0.123h-8.308c-2.523 0-4.554 0.554-6.462 2.277-1.231 1.108-2.4 2.708-3.323 4.123-0.062 0.185-0.123 0.308-0.123 0.554 0 0.492 0.431 0.923 0.923 0.923 0.554 0 0.677-0.369 0.923-0.738 0.246-0.431 0.554-0.8 0.923-1.108 1.292-1.169 3.015-1.846 4.738-1.662-1.477 4.062-3.508 8.738-6.462 11.938-1.231 1.354-3.323 2.708-3.754 4.554-0.492 1.908 1.477 2.4 2.892 1.846 1.846-0.738 3.015-2.646 3.938-4.308 1.169-2.031 2.215-4.185 3.077-6.338 0.923-2.154 1.785-4.246 2.708-6.4 0.554-1.292 0.677-1.292 2.031-1.292h3.631c-1.354 2.954-2.646 5.969-3.815 8.985-0.923 2.277-2.585 5.662-1.415 8.123s4.431 1.538 6.215 0.308c1.785-1.292 3.015-3.323 4-5.292 0.185-0.369 0.369-0.738 0.246-1.169-0.123-0.369-0.492-0.554-0.862-0.554-0.862 0-0.985 0.985-1.292 1.6-0.492 1.046-1.6 1.969-2.769 1.785-2.708-0.369-0.308-5.292 0.185-6.585 0.492-1.354 1.046-2.708 1.662-4 0.308-0.738 0.615-1.538 1.046-2.277 0.492-0.923 0.492-0.923 1.6-0.985 0.923-0.062 3.631 0.431 4.431-0.062 0.677-0.431 1.046-2.031 1.354-3.2 0.062-0.369-0.062-0.677-0.246-0.923z"></path>
</svg>
