<!-- Generated by IcoMoon.io -->
<svg version="1.1" xmlns="http://www.w3.org/2000/svg" width="32" height="32" viewBox="0 0 32 32">
<title>copy</title>
<path d="M27.077 1.231h-16c-1.354 0-2.462 1.108-2.462 2.462v1.231h14.769c1.354 0 2.462 1.108 2.462 2.462v17.231h1.231c1.354 0 2.462-1.108 2.462-2.462v-18.462c0-1.354-1.108-2.462-2.462-2.462z"></path>
<path d="M23.385 9.846c0-1.354-1.108-2.462-2.462-2.462h-16c-1.354 0-2.462 1.108-2.462 2.462v18.462c0 1.354 1.108 2.462 2.462 2.462h16c1.354 0 2.462-1.108 2.462-2.462v-18.462zM12.308 14.154c0 0.369-0.246 0.615-0.615 0.615h-4.923c-0.369 0-0.615-0.246-0.615-0.615v-1.231c0-0.369 0.246-0.615 0.615-0.615h4.923c0.369 0 0.615 0.246 0.615 0.615v1.231zM17.231 24c0 0.369-0.246 0.615-0.615 0.615h-9.846c-0.369 0-0.615-0.246-0.615-0.615v-1.231c0-0.369 0.246-0.615 0.615-0.615h9.846c0.369 0 0.615 0.246 0.615 0.615v1.231zM19.692 19.077c0 0.369-0.246 0.615-0.615 0.615h-12.308c-0.369 0-0.615-0.246-0.615-0.615v-1.231c0-0.369 0.246-0.615 0.615-0.615h12.308c0.369 0 0.615 0.246 0.615 0.615v1.231z"></path>
</svg>
