<!-- Generated by IcoMoon.io -->
<svg version="1.1" xmlns="http://www.w3.org/2000/svg" width="32" height="32" viewBox="0 0 32 32">
<title>cross-filter</title>
<path d="M21.538 5.538c-1.046 0-2.031 0.123-2.954 0.431 1.108 0.923 2.092 2.031 2.892 3.262h0.062c3.754 0 6.769 3.015 6.769 6.769s-3.015 6.769-6.769 6.769c-0.923 0-1.846-0.185-2.646-0.554 0.492-0.677 0.923-1.415 1.231-2.154 0.123-0.308 0.246-0.554 0.308-0.862 0.308-0.985 0.492-2.092 0.492-3.2 0-5.785-4.677-10.462-10.462-10.462s-10.462 4.677-10.462 10.462 4.677 10.462 10.462 10.462c1.046 0 2.031-0.123 2.954-0.431-1.108-0.923-2.092-2.031-2.892-3.262h-0.062c-3.754 0-6.769-3.015-6.769-6.769s3.015-6.769 6.769-6.769c0.923 0 1.846 0.185 2.708 0.554-1.292 1.723-2.092 3.877-2.092 6.215 0 5.785 4.677 10.462 10.462 10.462s10.462-4.677 10.462-10.462-4.677-10.462-10.462-10.462z"></path>
</svg>
