<!-- Generated by IcoMoon.io -->
<svg version="1.1" xmlns="http://www.w3.org/2000/svg" width="32" height="32" viewBox="0 0 32 32">
<title>custom-apps</title>
<path d="M30.4 7.508c-0.123-0.369-0.554-0.431-0.862-0.185l-4.985 4.985c-0.369 0.369-0.985 0.369-1.354 0l-3.508-3.508c-0.369-0.369-0.369-0.985 0-1.354l5.046-4.985c0.246-0.246 0.123-0.677-0.185-0.862-0.862-0.246-1.785-0.369-2.646-0.369-5.231 0-9.415 4.492-8.8 9.846 0.123 0.862 0.308 1.6 0.615 2.338l-11.508 11.446c-1.354 1.354-1.354 3.569 0 4.862 0.677 0.677 1.6 1.046 2.462 1.046s1.785-0.369 2.462-1.046l11.446-11.446c0.738 0.308 1.538 0.492 2.338 0.615 5.354 0.615 9.846-3.569 9.846-8.8 0-0.923-0.123-1.785-0.369-2.585z"></path>
</svg>
