<!-- Generated by IcoMoon.io -->
<svg version="1.1" xmlns="http://www.w3.org/2000/svg" width="32" height="32" viewBox="0 0 32 32">
<title>database</title>
<path d="M27.938 5.538c0-2.338-5.354-4.246-11.938-4.246s-11.938 1.908-11.938 4.246v1.477c0 2.338 5.354 4.246 11.938 4.246s11.938-1.908 11.938-4.246v-1.477z"></path>
<path d="M4.062 10.462c0 1.846 5.354 3.323 11.938 3.323s11.938-1.477 11.938-3.323v3.015c0 2.338-5.354 4.246-11.938 4.246s-11.938-1.908-11.938-4.246v-3.015z"></path>
<path d="M4.062 16.923c0 1.846 5.354 3.323 11.938 3.323s11.938-1.477 11.938-3.323v3.015c0 2.338-5.354 4.246-11.938 4.246s-11.938-1.846-11.938-4.185v-3.077z"></path>
<path d="M4.062 23.446c0 1.846 5.354 3.323 11.938 3.323s11.938-1.477 11.938-3.323v3.015c0 2.338-5.354 4.246-11.938 4.246s-11.938-1.908-11.938-4.246v-3.015z"></path>
</svg>
