<!-- Generated by IcoMoon.io -->
<svg version="1.1" xmlns="http://www.w3.org/2000/svg" width="32" height="32" viewBox="0 0 32 32">
<title>date-input</title>
<path d="M28.492 12.123h-24.985c-0.554 0-0.985 0.431-0.985 0.985v14.462c0 1.6 1.292 2.892 2.892 2.892h21.169c1.6 0 2.892-1.292 2.892-2.892v-14.462c0-0.554-0.431-0.985-0.985-0.985zM11.2 25.6c0 0.554-0.431 0.985-0.985 0.985h-1.908c-0.554 0-0.985-0.431-0.985-0.985v-1.908c0-0.554 0.431-0.985 0.985-0.985h1.908c0.554 0 0.985 0.431 0.985 0.985v1.908zM17.908 25.6c0 0.554-0.431 0.985-0.985 0.985h-1.908c-0.554 0-0.985-0.431-0.985-0.985v-1.908c0-0.554 0.431-0.985 0.985-0.985h1.908c0.554 0 0.985 0.431 0.985 0.985v1.908zM17.908 18.892c0 0.554-0.431 0.985-0.985 0.985h-1.908c-0.554 0-0.985-0.431-0.985-0.985v-1.908c0-0.554 0.431-0.985 0.985-0.985h1.908c0.554 0 0.985 0.431 0.985 0.985v1.908zM24.677 18.892c0 0.554-0.431 0.985-0.985 0.985h-1.908c-0.554 0-0.985-0.431-0.985-0.985v-1.908c0-0.554 0.431-0.985 0.985-0.985h1.908c0.554 0 0.985 0.431 0.985 0.985v1.908zM26.585 4.431h-2.4v-0.985c0-1.046-0.862-1.908-1.908-1.908s-1.908 0.862-1.908 1.908v0.985h-8.677v-0.985c0-1.046-0.862-1.908-1.908-1.908s-1.908 0.862-1.908 1.908v0.985h-2.462c-1.6 0-2.892 1.292-2.892 2.892v0.985c0 0.554 0.431 0.985 0.985 0.985h25.046c0.554 0 0.985-0.431 0.985-0.985v-0.985c-0.062-1.6-1.354-2.892-2.954-2.892z"></path>
</svg>
