<!-- Generated by IcoMoon.io -->
<svg version="1.1" xmlns="http://www.w3.org/2000/svg" width="32" height="32" viewBox="0 0 32 32">
<title>delete</title>
<path d="M28 6.154h-7.692v-2.462c0-1.354-1.108-2.462-2.462-2.462h-3.692c-1.354 0-2.462 1.108-2.462 2.462v2.462h-7.692c-0.492 0-0.923 0.431-0.923 0.923v1.846c0 0.492 0.431 0.923 0.923 0.923h24c0.492 0 0.923-0.431 0.923-0.923v-1.846c0-0.492-0.431-0.923-0.923-0.923zM14.154 4.308c0-0.369 0.246-0.615 0.615-0.615h2.462c0.369 0 0.615 0.246 0.615 0.615v1.846h-3.692v-1.846zM25.538 12.308h-19.077c-0.492 0-0.923 0.431-0.923 0.923v14.462c0 1.723 1.354 3.077 3.077 3.077h14.769c1.723 0 3.077-1.354 3.077-3.077v-14.462c0-0.492-0.431-0.923-0.923-0.923zM14.154 25.846c0 0.369-0.246 0.615-0.615 0.615h-1.231c-0.369 0-0.615-0.246-0.615-0.615v-8.615c0-0.369 0.246-0.615 0.615-0.615h1.231c0.369 0 0.615 0.246 0.615 0.615v8.615zM20.308 25.846c0 0.369-0.246 0.615-0.615 0.615h-1.231c-0.369 0-0.615-0.246-0.615-0.615v-8.615c0-0.369 0.246-0.615 0.615-0.615h1.231c0.369 0 0.615 0.246 0.615 0.615v8.615z"></path>
</svg>
