<!-- Generated by IcoMoon.io -->
<svg version="1.1" xmlns="http://www.w3.org/2000/svg" width="32" height="32" viewBox="0 0 32 32">
<title>desktop-console</title>
<path d="M20.308 27.077h-1.846c-0.369 0-0.615-0.246-0.615-0.615v-1.231c0-0.369-0.246-0.615-0.615-0.615h-2.462c-0.369 0-0.615 0.246-0.615 0.615v1.231c0 0.369-0.246 0.615-0.615 0.615h-1.846c-1.354 0-2.462 1.108-2.462 2.462v0.308c0 0.492 0.431 0.923 0.923 0.923h11.692c0.492 0 0.923-0.431 0.923-0.923v-0.308c0-1.354-1.108-2.462-2.462-2.462zM28.308 1.231h-24.615c-1.354 0-2.462 1.108-2.462 2.462v16c0 1.354 1.108 2.462 2.462 2.462h24.615c1.354 0 2.462-1.108 2.462-2.462v-16c0-1.354-1.108-2.462-2.462-2.462zM4.923 17.538v-11.692c0-0.492 0.431-0.923 0.923-0.923h3.692v13.538h-3.692c-0.492 0-0.923-0.431-0.923-0.923zM27.077 17.538c0 0.492-0.431 0.923-0.923 0.923h-12.923v-13.538h12.923c0.492 0 0.923 0.431 0.923 0.923v11.692z"></path>
</svg>
