<!-- Generated by IcoMoon.io -->
<svg version="1.1" xmlns="http://www.w3.org/2000/svg" width="32" height="32" viewBox="0 0 32 32">
<title>dialing</title>
<path d="M29.846 23.323l-3.754-3.015c-0.862-0.677-2.092-0.738-2.954-0.062l-3.2 2.338c-0.369 0.308-0.923 0.246-1.292-0.123l-4.8-4.308-4.308-4.8c-0.369-0.369-0.369-0.862-0.123-1.292l2.338-3.2c0.677-0.862 0.615-2.092-0.062-2.954l-3.015-3.754c-0.923-1.108-2.585-1.231-3.631-0.185l-3.2 3.2c-0.492 0.492-0.738 1.169-0.738 1.846 0.308 6.277 3.138 12.246 7.323 16.431s10.154 7.015 16.431 7.323c0.677 0.062 1.354-0.246 1.846-0.738l3.2-3.2c1.169-0.923 1.108-2.646-0.062-3.508z"></path>
<path d="M23.323 11.323c0 1.529-1.24 2.769-2.769 2.769s-2.769-1.24-2.769-2.769c0-1.529 1.24-2.769 2.769-2.769s2.769 1.24 2.769 2.769z"></path>
<path d="M25.846 15.077c0.738-1.046 1.169-2.338 1.169-3.692-0.062-3.569-2.954-6.462-6.523-6.462-1.354 0-2.646 0.431-3.692 1.169l-2.646-2.708c1.723-1.354 3.938-2.154 6.338-2.154 5.6 0 10.215 4.554 10.215 10.215 0 2.4-0.8 4.615-2.215 6.338l-2.646-2.708z"></path>
</svg>
