<!-- Generated by IcoMoon.io -->
<svg version="1.1" xmlns="http://www.w3.org/2000/svg" width="32" height="32" viewBox="0 0 32 32">
<title>display-text</title>
<path d="M26.769 1.538h-21.477c-2.092 0-3.754 1.662-3.754 3.754v21.354c0 2.092 1.662 3.754 3.754 3.754h21.415c2.092 0 3.754-1.662 3.754-3.754v-21.354c0.062-2.092-1.662-3.754-3.692-3.754zM6.523 7.815c0-0.677 0.554-1.231 1.231-1.231h14.092c0.677 0 1.231 0.554 1.231 1.231v1.292c0 0.677-0.554 1.231-1.231 1.231h-14.154c-0.677 0-1.231-0.554-1.231-1.231v-1.292zM21.354 24.185c0 0.677-0.554 1.231-1.231 1.231h-12.308c-0.677 0-1.231-0.554-1.231-1.231v-1.231c0-0.677 0.554-1.231 1.231-1.231h12.308c0.677 0 1.231 0.554 1.231 1.231v1.231zM25.477 16.615c0 0.677-0.554 1.231-1.231 1.231h-16.431c-0.677 0-1.231-0.554-1.231-1.231v-1.231c0-0.677 0.554-1.231 1.231-1.231h16.369c0.677 0 1.231 0.554 1.231 1.231v1.231z"></path>
</svg>
