<!-- Generated by IcoMoon.io -->
<svg version="1.1" xmlns="http://www.w3.org/2000/svg" width="32" height="32" viewBox="0 0 32 32">
<title>dock-panel</title>
<path d="M1.174 21.538v-16c0-2.4 1.908-4.308 4.308-4.308h16c2.4 0 4.308 1.908 4.308 4.308v1.846h-3.692v-1.846c0-0.37-0.246-0.615-0.615-0.615h-16c-0.369 0-0.615 0.246-0.615 0.615v16c0 0.369 0.246 0.615 0.615 0.615h1.846v3.692h-1.846c-2.4 0-4.308-1.908-4.308-4.308z"></path>
<path d="M28.251 9.846h-16c-1.354 0-2.462 1.107-2.462 2.462v16c0 1.353 1.108 2.462 2.462 2.462h16c1.353 0 2.462-1.108 2.462-2.462v-16c0-1.354-1.108-2.462-2.462-2.462zM25.78 25.344c0 0.302-0.189 0.489-0.527 0.489h-7.154c-0.3 0-0.639-0.263-0.639-0.565v-1.091c0-0.302 0.339-0.602 0.639-0.602h2.975c0.339 0 0.489-0.377 0.263-0.602l-6.4-6.402c-0.104-0.1-0.169-0.24-0.169-0.395s0.065-0.296 0.169-0.395v0l0.791-0.79c0.1-0.105 0.24-0.17 0.395-0.17s0.296 0.065 0.395 0.169l6.4 6.4c0.226 0.265 0.602 0.076 0.602-0.262v-2.975c0-0.34 0.339-0.602 0.641-0.602h1.13c0.3 0 0.489 0.3 0.489 0.602v7.192z"></path>
</svg>
