<!-- Generated by IcoMoon.io -->
<svg version="1.1" xmlns="http://www.w3.org/2000/svg" width="32" height="32" viewBox="0 0 32 32">
<title>download</title>
<path d="M29.846 19.077h-1.846c-0.492 0-0.923 0.431-0.923 0.923v6.154c0 0.492-0.431 0.923-0.923 0.923h-20.308c-0.492 0-0.923-0.431-0.923-0.923v-6.154c0-0.492-0.431-0.923-0.923-0.923h-1.846c-0.492 0-0.923 0.431-0.923 0.923v8.308c0 1.354 1.108 2.462 2.462 2.462h24.615c1.354 0 2.462-1.108 2.462-2.462v-8.308c0-0.492-0.431-0.923-0.923-0.923z"></path>
<path d="M15.385 23.138c0.369 0.369 0.923 0.369 1.292 0l8.308-8.308c0.369-0.369 0.369-0.923 0-1.292l-1.292-1.292c-0.369-0.369-0.923-0.369-1.292 0l-3.446 3.446c-0.369 0.369-1.046 0.123-1.046-0.431v-13.108c-0.062-0.492-0.554-0.923-0.985-0.923h-1.846c-0.492 0-0.923 0.431-0.923 0.923v13.046c0 0.554-0.677 0.8-1.046 0.431l-3.446-3.446c-0.369-0.369-0.923-0.369-1.292 0l-1.292 1.354c-0.369 0.369-0.369 0.923 0 1.292l8.308 8.308z"></path>
</svg>
