<!-- Generated by IcoMoon.io -->
<svg version="1.1" xmlns="http://www.w3.org/2000/svg" width="32" height="32" viewBox="0 0 32 32">
<title>drag-and-drop</title>
<path d="M12.308 2.462c1.354 0 2.462 1.108 2.462 2.462s-1.108 2.462-2.462 2.462-2.462-1.108-2.462-2.462 1.108-2.462 2.462-2.462zM19.692 2.462c1.354 0 2.462 1.108 2.462 2.462s-1.108 2.462-2.462 2.462-2.462-1.108-2.462-2.462 1.108-2.462 2.462-2.462zM12.308 9.846c1.354 0 2.462 1.108 2.462 2.462s-1.108 2.462-2.462 2.462-2.462-1.108-2.462-2.462 1.108-2.462 2.462-2.462zM19.692 9.846c1.354 0 2.462 1.108 2.462 2.462s-1.108 2.462-2.462 2.462-2.462-1.108-2.462-2.462 1.108-2.462 2.462-2.462zM12.308 17.231c1.354 0 2.462 1.108 2.462 2.462s-1.108 2.462-2.462 2.462-2.462-1.108-2.462-2.462 1.108-2.462 2.462-2.462zM19.692 17.231c1.354 0 2.462 1.108 2.462 2.462s-1.108 2.462-2.462 2.462-2.462-1.108-2.462-2.462 1.108-2.462 2.462-2.462zM12.308 24.615c1.354 0 2.462 1.108 2.462 2.462s-1.108 2.462-2.462 2.462-2.462-1.108-2.462-2.462 1.108-2.462 2.462-2.462zM19.692 24.615c1.354 0 2.462 1.108 2.462 2.462s-1.108 2.462-2.462 2.462-2.462-1.108-2.462-2.462 1.108-2.462 2.462-2.462z"></path>
</svg>
