<!-- Generated by IcoMoon.io -->
<svg version="1.1" xmlns="http://www.w3.org/2000/svg" width="32" height="32" viewBox="0 0 32 32">
<title>drag</title>
<path d="M19.015 21.108c0 1.108-1.354 1.538-1.969 0.615l-1.231-2.646c-0.677-1.169-2.154-1.415-3.262-0.677l-0.8 0.615 4.123 9.785c0.185 0.431 0.615 0.677 1.108 0.677h10.831c0.554 0 0.985-0.369 1.108-0.862l1.908-6.831c0.492-1.908-0.615-3.754-2.338-4.431l-4.923-1.662c-6.954-2.523-4.677 5.169-4.554 5.415zM1.108 17.538h3.569v3.569h-3.569zM8.862 2.462h3.569v3.569h-3.569zM8.862 25.846h3.569v3.569h-3.569zM1.108 9.723h3.569v3.569h-3.569zM1.108 2.523h3.569v3.569h-3.569zM16.677 2.462h3.569v3.569h-3.569zM24.492 2.462h3.569v3.569h-3.569zM1.108 25.908h3.569v3.569h-3.569zM24.492 10.338h3.569v3.569h-3.569z"></path>
</svg>
