<!-- Generated by IcoMoon.io -->
<svg version="1.1" xmlns="http://www.w3.org/2000/svg" width="32" height="32" viewBox="0 0 32 32">
<title>edit</title>
<path d="M5.846 20.554l5.477 5.477c0.246 0.246 0.615 0.246 0.862 0l13.662-13.723c0.246-0.246 0.246-0.615 0-0.862l-5.415-5.415c-0.246-0.246-0.615-0.246-0.862 0l-13.723 13.723c-0.246 0.246-0.246 0.615 0 0.8zM22.215 3.508c-0.246 0.246-0.246 0.615 0 0.862l5.415 5.415c0.246 0.246 0.615 0.246 0.862 0l1.538-1.538c0.985-0.923 0.985-2.4 0-3.385l-2.892-2.892c-0.985-0.985-2.523-0.985-3.508 0l-1.415 1.538zM1.292 29.662c-0.123 0.615 0.431 1.169 1.046 1.046l6.708-1.6c0.246-0.062 0.431-0.185 0.554-0.308l0.123-0.123c0.123-0.123 0.185-0.554-0.062-0.8l-5.538-5.538c-0.246-0.246-0.677-0.185-0.8-0.062l-0.123 0.123c-0.185 0.185-0.246 0.369-0.308 0.554l-1.6 6.708z"></path>
</svg>
