<!-- Generated by IcoMoon.io -->
<svg version="1.1" xmlns="http://www.w3.org/2000/svg" width="32" height="32" viewBox="0 0 32 32">
<title>edit-form</title>
<path d="M19.323 9.415h5.046c0.369 0 0.677-0.308 0.677-0.677 0-0.185-0.062-0.308-0.185-0.492l-6.277-6.215c-0.185-0.123-0.308-0.185-0.492-0.185-0.369 0-0.677 0.308-0.677 0.677v4.985c0 1.046 0.862 1.908 1.908 1.908zM30.462 15.815l-0.554-0.554c-0.369-0.369-0.923-0.369-1.354 0l-7.323 7.323c-0.062 0.062 0 0.123 0 0.185v1.538c0 0.123 0 0.246 0.123 0.246h1.6c0.062 0 0.123-0.062 0.185-0.062l7.323-7.262c0.431-0.492 0.431-1.046 0-1.415z"></path>
<path d="M24.554 27.323h-4.369c-0.985 0-1.785-0.8-1.785-1.785v-3.323c0-0.492 0.123-0.985 0.554-1.292l5.846-5.846c0.185-0.185 0.308-0.431 0.308-0.677v-1.231c0-0.492-0.431-0.923-0.923-0.923h-6.769c-1.6 0-2.831-1.292-2.831-2.831v-6.646c0-0.492-0.431-0.923-0.985-0.923h-9.538c-1.538 0-2.831 1.292-2.831 2.831v22.646c0 1.538 1.292 2.831 2.831 2.831h18.092c1.354 0 2.585-0.985 2.831-2.277 0.062-0.246-0.185-0.554-0.431-0.554zM5.046 10.338c0-0.492 0.431-0.923 0.923-0.923h3.815c0.554 0 0.923 0.431 0.923 0.923v0.923c0 0.492-0.431 0.923-0.923 0.923h-3.815c-0.554 0-0.923-0.431-0.923-0.923v-0.923zM14.585 22.585c0 0.492-0.431 0.923-0.923 0.923h-7.692c-0.554 0-0.923-0.431-0.923-0.923v-0.923c0-0.492 0.431-0.923 0.923-0.923h7.631c0.554 0 0.923 0.431 0.923 0.923v0.923zM16.492 16.923c0 0.492-0.431 0.923-0.923 0.923h-9.6c-0.554 0-0.923-0.431-0.923-0.923v-0.923c0-0.492 0.431-0.923 0.923-0.923h9.538c0.554 0 0.923 0.431 0.923 0.923v0.923z"></path>
</svg>
