<!-- Generated by IcoMoon.io -->
<svg version="1.1" xmlns="http://www.w3.org/2000/svg" width="32" height="32" viewBox="0 0 32 32">
<title>education</title>
<path d="M15.877 16.431c-0.738 0.062-1.415-0.246-2.154-0.492-3.877-1.292-7.815-2.585-11.692-3.877-0.246-0.123-0.431-0.185-0.615-0.369-0.246-0.185-0.246-0.431 0-0.615 0.185-0.123 0.431-0.308 0.677-0.369 4.185-1.231 8.308-2.462 12.492-3.754 0.923-0.308 1.908-0.308 2.892 0l12.369 3.692c0.246 0.123 0.492 0.185 0.738 0.369 0.308 0.185 0.308 0.492 0 0.677-0.185 0.123-0.369 0.246-0.615 0.308-4.123 1.354-8.246 2.769-12.431 4.123-0.554 0.246-1.046 0.308-1.662 0.308zM7.692 16.615c-0.615-0.123-0.738 0.246-0.738 0.554v4.677c0 0.554 0.185 0.862 0.554 1.231 0.123 0.123 0.308 0.246 0.431 0.369 0.985 0.677 2.154 1.108 3.323 1.415 2.338 0.615 4.677 0.738 7.077 0.431 1.538-0.185 3.077-0.615 4.492-1.231 0.615-0.308 1.231-0.615 1.662-1.108 0.308-0.308 0.431-0.615 0.369-1.046 0.062-1.477 0.062-3.015 0.062-4.554 0-0.862-0.615-0.738-0.862-0.677-2.154 0.738-4.431 1.415-6.585 2.154-1.108 0.369-2.154 0.369-3.2 0l-6.585-2.215zM28.246 15.2c-0.185 0.062-0.246 0.123-0.246 0.369v4.185c0 0.123-0.062 0.308-0.123 0.431-0.308 0.738-0.615 1.477-0.862 2.215-0.246 0.677-0.123 1.415 0.369 1.908 0.123 0.185 0.369 0.369 0.554 0.492 0.185 0.185 0.492 0.246 0.738 0.308 0.431 0.062 0.8-0.185 1.108-0.431 0.123-0.123 0.308-0.246 0.431-0.431 0.369-0.492 0.431-1.108 0.308-1.662-0.185-0.862-0.554-1.6-0.923-2.338-0.123-0.123-0.123-0.369-0.123-0.492v-4.554c0-0.308-0.246-0.246-0.369-0.185l-0.862 0.185z"></path>
</svg>
