<!-- Generated by IcoMoon.io -->
<svg version="1.1" xmlns="http://www.w3.org/2000/svg" width="32" height="32" viewBox="0 0 32 32">
<title>einstein</title>
<path d="M17.662 25.908c4.431 0.123 4.554 0.985 4.554 4.431v0.431c-1.723 0-1.723-1.415-2.462-1.415 0 0.492-0.431 0.923-1.231 1.415-0.492-0.923-0.862-1.415-1.231-1.415 0 0.431-0.369 0.862-1.108 1.354l-0.185 0.062c-0.8-0.492-1.231-0.923-1.231-1.415-0.369 0-0.8 0.492-1.231 1.415-0.8-0.492-1.231-0.923-1.231-1.415-0.8 0-0.8 1.415-2.462 1.415v-0.554c0-3.262 0.246-4.123 4.246-4.308v0.246c0 1.020 0.827 1.846 1.846 1.846s1.846-0.827 1.846-1.846v0c-0.075-0.045-0.125-0.125-0.125-0.218 0-0.010 0.001-0.020 0.002-0.030v0.001zM18.585 4.185c1.846 2.215 1.477 3.262 1.538 3.938 0.509-0.126 1.093-0.198 1.694-0.198 1.128 0 2.196 0.255 3.15 0.71l-0.044-0.019c1.108 0.554 1.785 1.415 1.846 2.031-0.735 0.074-1.379 0.414-1.844 0.921l-0.002 0.002c1.481 0.507 2.742 1.331 3.75 2.396l0.004 0.004c0.862 0.97 1.551 2.116 2.008 3.373l0.023 0.073c0.043 0.070 0.069 0.155 0.069 0.246s-0.026 0.176-0.070 0.248l0.001-0.002c-0.578 0.626-1.202 1.191-1.872 1.697l-0.035 0.026c-0.723 0.547-1.547 1.096-2.403 1.596l-0.121 0.065c0.985 0.615 1.477 1.169 1.538 1.785-1.046 0.308-1.662 0.554-2.338 0.8-0.308 0.123-0.923 0.308-1.6 0.554 0.985-6.462-3.077-7.077-4.923-7.077-1.292 0-2.031 1.046-3.138 1.046s-1.785-1.046-3.138-1.046-5.169 1.108-4.492 6.646c-0.435-0.133-0.802-0.279-1.154-0.451l0.046 0.020c-0.906-0.29-1.955-0.487-3.041-0.552l-0.036-0.002c-0.016 0.003-0.034 0.004-0.052 0.004-0.153 0-0.282-0.106-0.317-0.248v-0.002c-0.003-0.014-0.005-0.030-0.005-0.046s0.002-0.032 0.005-0.048v0.002-0.185c0.281-1.034 0.793-1.925 1.48-2.649l-0.003 0.003c0.431-0.431 1.231-0.985 1.538-0.923-0.518-0.812-1.226-1.46-2.063-1.894l-0.030-0.014c-0.856-0.366-1.852-0.646-2.89-0.793l-0.064-0.007c-0.308-0.062-0.492-0.062-0.308-0.615 1.046-2.646 2.277-4.308 3.754-5.046 0.993-0.583 2.188-0.927 3.462-0.927 0.081 0 0.162 0.001 0.242 0.004h-0.012c-0.139-0.582-0.351-1.095-0.629-1.564l0.014 0.025c-0.231-0.459-0.477-0.852-0.753-1.221l0.015 0.021c-0.055-0.076-0.088-0.17-0.088-0.273 0-0.135 0.057-0.257 0.149-0.342v0c0.062 0 0.123-0.062 0.185-0.062 0.21-0.038 0.451-0.060 0.698-0.060 0.432 0 0.848 0.067 1.239 0.191l-0.029-0.008c0.975 0.316 1.791 0.894 2.392 1.651l0.008 0.010c0-0.039 0-0.086 0-0.132 0-2.189-0.315-4.304-0.902-6.302l0.040 0.158c-0.062-1.354 5.662 0.246 7.508 2.462zM13.969 20.985c0.492 0 0.923 0.677 0.923 1.538s-0.431 1.538-0.923 1.538-0.923-0.677-0.923-1.538 0.431-1.538 0.923-1.538zM18.031 20.985c0.492 0 0.923 0.677 0.923 1.538s-0.431 1.538-0.923 1.538-0.923-0.677-0.923-1.538 0.369-1.538 0.923-1.538z"></path>
</svg>
