<!-- Generated by IcoMoon.io -->
<svg version="1.1" xmlns="http://www.w3.org/2000/svg" width="32" height="32" viewBox="0 0 32 32">
<title>emoji</title>
<path d="M30.831 16c0 8.185-6.646 14.831-14.831 14.831s-14.831-6.646-14.831-14.831 6.646-14.831 14.831-14.831 14.831 6.646 14.831 14.831zM11.262 9.723c-1.477 0-2.646 1.169-2.646 2.646s1.169 2.646 2.646 2.646 2.646-1.169 2.646-2.646-1.169-2.646-2.646-2.646zM20.8 9.723c-1.477 0-2.646 1.169-2.646 2.646s1.169 2.646 2.646 2.646 2.646-1.169 2.646-2.646-1.169-2.646-2.646-2.646zM20.677 20c-1.231 1.108-2.892 1.723-4.677 1.723-1.723 0-3.323-0.615-4.615-1.662l-0.554-0.492c-0.185-0.123-0.308-0.185-0.677-0.185-0.677 0-1.169 0.554-1.169 1.169 0 0.308 0.123 0.615 0.369 0.862l0.431 0.369c1.662 1.477 3.877 2.338 6.215 2.338 2.4 0 4.615-0.923 6.277-2.4l0.308-0.308c0.246-0.246 0.369-0.554 0.369-0.862 0-0.677-0.554-1.169-1.169-1.169-0.308 0-0.554 0.123-0.738 0.246l-0.369 0.369z"></path>
</svg>
