<!-- Generated by IcoMoon.io -->
<svg version="1.1" xmlns="http://www.w3.org/2000/svg" width="32" height="32" viewBox="0 0 32 32">
<title>end-messaging-session</title>
<path d="M15.138 24.985c0-1.723 0.431-3.323 1.231-4.738h-1.415c-0.308 0-0.492-0.185-0.492-0.492v-5.662c0-0.308 0.185-0.492 0.492-0.492h5.662c0.308 0 0.492 0.185 0.492 0.492v1.846c1.169-0.492 2.523-0.8 3.877-0.8 0.923 0 1.785 0.123 2.585 0.369 0.123-0.677 0.185-1.354 0.185-2.031-0.062-6.769-5.908-12.185-13.231-12.185s-13.169 5.415-13.169 12.062c0 2.092 0.615 4.062 1.6 5.846 0.185 0.246 0.246 0.615 0.123 0.923l-1.723 4.677c-0.185 0.431 0.246 0.8 0.738 0.738l4.738-1.846c0.246-0.123 0.615-0.062 0.923 0.123 1.969 1.108 4.369 1.785 6.892 1.785h0.492v-0.615zM7.877 7.508c0-0.308 0.185-0.492 0.492-0.492h12.246c0.308 0 0.492 0.185 0.492 0.492v2.831c0 0.308-0.246 0.492-0.554 0.492h-12.185c-0.308 0-0.492-0.185-0.492-0.492v-2.831zM11.692 19.754c0 0.308-0.246 0.492-0.554 0.492h-2.831c-0.308 0-0.492-0.185-0.492-0.492v-5.662c0-0.308 0.185-0.492 0.492-0.492h2.892c0.308 0 0.492 0.185 0.492 0.492v5.662z"></path>
<path d="M19.569 21.292l3.692 3.692-3.692 3.692c-0.369 0.369-0.369 0.985 0 1.292l0.431 0.431c0.369 0.369 0.985 0.369 1.292 0l3.692-3.692 3.692 3.692c0.369 0.369 0.985 0.369 1.292 0l0.431-0.431c0.369-0.369 0.369-0.985 0-1.292l-3.692-3.692 3.692-3.692c0.369-0.369 0.369-0.985 0-1.292l-0.431-0.431c-0.369-0.369-0.985-0.369-1.292 0l-3.692 3.692-3.692-3.692c-0.369-0.369-0.985-0.369-1.292 0l-0.431 0.431c-0.369 0.369-0.369 0.985 0 1.292z"></path>
</svg>
