<!-- Generated by IcoMoon.io -->
<svg version="1.1" xmlns="http://www.w3.org/2000/svg" width="32" height="32" viewBox="0 0 32 32">
<title>events</title>
<path d="M5.415 5.538c-2.708 2.769-4.185 6.4-4.185 10.215 0 0.862 0.677 1.477 1.477 1.477s1.477-0.677 1.477-1.477c-0.062-3.015 1.169-5.908 3.323-8.062s5.108-3.323 8.062-3.323c0.862 0 1.477-0.677 1.477-1.477 0-0.862-0.677-1.477-1.477-1.477-3.754-0.062-7.446 1.415-10.154 4.123zM7.2 15.754c0 0.862 0.615 1.477 1.477 1.477s1.477-0.677 1.477-1.477c0-1.415 0.554-2.831 1.6-3.815 1.046-1.046 2.4-1.538 3.815-1.6 0.862 0 1.477-0.677 1.477-1.477 0-0.862-0.615-1.477-1.477-1.477-2.215 0-4.369 0.862-5.969 2.4-0.246 0.308-2.523 2.585-2.4 5.969zM28 9.354c-0.554-0.738-1.292-1.6-1.415-1.723-0.185-0.123-0.431-0.246-0.677-0.246s-0.492 0.062-0.615 0.246l-6.215 6.154c-1.477-1.231-3.692-1.169-5.108 0.246s-1.477 3.631-0.246 5.108l-5.969 5.969c-0.185 0.185-0.308 0.431-0.308 0.677 0 0.308 0.123 0.615 0.369 0.8l1.662 1.231c2.277 1.785 5.108 2.769 8.123 2.769 7.262 0 13.169-5.908 13.169-13.169 0-2.954-1.046-5.785-2.769-8.062z"></path>
</svg>
