<!-- Generated by IcoMoon.io -->
<svg version="1.1" xmlns="http://www.w3.org/2000/svg" width="32" height="32" viewBox="0 0 32 32">
<title>expand-alt</title>
<path d="M30.031 1.231h-9.538c-0.615 0-0.8 0.554-0.308 1.046l3.015 3.015-5.538 5.538c-0.308 0.308-0.308 0.8 0 1.169l2.277 2.277c0.308 0.308 0.8 0.308 1.169 0l5.6-5.6 3.015 3.015c0.492 0.492 1.046 0.308 1.046-0.308v-9.477c0-0.369-0.369-0.677-0.738-0.677zM2.154 30.769h9.477c0.615 0 0.8-0.677 0.308-1.169l-3.015-3.077 5.538-5.6c0.308-0.308 0.308-0.862 0-1.169l-2.277-2.277c-0.308-0.308-0.8-0.308-1.169 0l-5.538 5.538-3.077-3.015c-0.554-0.492-1.169-0.308-1.169 0.308v9.477c0 0.431 0.492 0.985 0.923 0.985z"></path>
</svg>
