<!-- Generated by IcoMoon.io -->
<svg version="1.1" xmlns="http://www.w3.org/2000/svg" width="32" height="32" viewBox="0 0 32 32">
<title>feed</title>
<path d="M15.508 26.462c-0.185 0-0.431-0.062-0.677-0.185-0.369-0.185-0.677-0.615-0.738-0.985l-3.508-14.215-3.015 6.769c-0.185 0.554-0.677 0.862-1.231 0.862h-4.185c-0.492 0-0.923-0.369-0.923-0.862v-0.923c0-0.492 0.431-0.923 0.923-0.923h3.2l4.246-9.662c0.246-0.492 0.8-0.862 1.415-0.8s1.108 0.431 1.231 1.046l3.631 14.4 4.862-10.523c0.246-0.554 0.8-0.862 1.354-0.8 0.492 0.062 0.985 0.431 1.231 0.923l2.4 5.477h4.185c0.492 0 0.923 0.431 0.923 0.923v0.862c0 0.492-0.431 0.923-0.923 0.923h-5.046c-0.554 0-1.046-0.308-1.292-0.8l-1.538-3.508-5.169 11.262c-0.308 0.431-0.738 0.738-1.354 0.738z"></path>
</svg>
