<!-- Generated by IcoMoon.io -->
<svg version="1.1" xmlns="http://www.w3.org/2000/svg" width="32" height="32" viewBox="0 0 32 32">
<title>flow</title>
<path d="M30.708 6.523c-1.292-2.523-4.554-7.2-10.585-4.431-3.754 1.723-5.846 2.708-5.846 2.708l-5.415 2.338c-1.538 0.738-4.862-0.308-6.769-0.985-0.554-0.185-1.046 0.369-0.8 0.923 1.292 2.523 4.554 7.2 10.585 4.431 3.754-1.723 11.262-4.985 11.262-4.985 1.538-0.738 4.862 0.308 6.769 0.985 0.554 0.123 1.046-0.431 0.8-0.985zM17.723 14.4c-0.677 0.369-3.385 1.6-3.385 1.6l-2.708 1.169c-1.354 0.738-4.246-0.246-5.969-0.923-0.492-0.246-0.923 0.369-0.677 0.862 1.108 2.462 4 6.892 9.292 4.185 3.323-1.662 6.092-2.769 6.092-2.769 1.354-0.738 4.246 0.246 5.969 0.923 0.492 0.185 0.923-0.369 0.677-0.923-1.108-2.4-4-6.831-9.292-4.123zM15.754 25.292c-0.554 0.308-1.477 0.862-1.477 0.862-1.046 0.677-3.2-0.185-4.492-0.8-0.369-0.185-0.677 0.369-0.492 0.862 0.8 2.215 2.954 6.215 6.954 3.754 1.477-0.923 1.477-0.862 1.477-0.862 1.108-0.554 3.2 0.185 4.492 0.8 0.369 0.185 0.677-0.369 0.492-0.862-0.8-2.215-2.831-6.031-6.954-3.754z"></path>
</svg>
