<!-- Generated by IcoMoon.io -->
<svg version="1.1" xmlns="http://www.w3.org/2000/svg" width="32" height="32" viewBox="0 0 32 32">
<title>food-and-drink</title>
<path d="M25.158 14.769c-0.581 4.84-4.526 8-7.927 8h-7.383c-3.69 0-8-3.686-8-9.231v-8.615c0-0.68 0.551-1.231 1.231-1.231v0h23.999c2.039 0 3.692 1.653 3.692 3.692v0 3.692c0 2.039-1.653 3.692-3.692 3.692v0h-1.919zM24.98 24.615c0.455 0 0.866 0.415 0.866 0.877v0.046c0 1.523-1.231 2.769-2.735 2.769h-19.146c-1.504 0-2.735-1.246-2.735-2.769v-0.046c0-0.462 0.41-0.877 0.866-0.877h22.884zM25.231 6.769v4.923h1.231c0.68 0 1.231-0.551 1.231-1.231v0-2.462c0-0.68-0.551-1.231-1.231-1.231v0h-1.231z"></path>
</svg>
