<!-- Generated by IcoMoon.io -->
<svg version="1.1" xmlns="http://www.w3.org/2000/svg" width="32" height="32" viewBox="0 0 32 32">
<title>formula</title>
<path d="M18.585 1.969c-0.492-0.369-1.169-0.554-1.969-0.554-0.185 0-0.369 0-0.554 0.062-2.154 0.308-3.569 2.338-4.431 4.185-0.369 0.862-0.738 1.785-1.046 2.708-0.185 0.431-0.308 0.862-0.492 1.292 0 0.062-0.246 0.923-0.308 0.923h-2.215c-0.308 0-0.554 0.246-0.554 0.554s0.246 0.554 0.554 0.554h1.908l-1.108 4.615c-0.985 5.046-2.4 10.892-2.769 11.938s-0.862 1.6-1.538 1.6c-0.123 0-0.246 0-0.308-0.062s-0.123-0.123-0.123-0.246c0-0.062 0.062-0.246 0.185-0.431s0.185-0.431 0.185-0.615c0-0.431-0.123-0.738-0.431-0.985-0.246-0.246-0.554-0.369-0.923-0.369s-0.677 0.123-0.985 0.369c-0.308 0.246-0.431 0.615-0.431 1.046 0 0.615 0.246 1.108 0.738 1.538s1.108 0.615 1.908 0.615c1.292 0 2.523-0.615 3.385-1.6 0.554-0.615 0.923-1.354 1.292-2.154 1.108-2.4 1.662-5.046 2.277-7.569 0.615-2.585 1.231-5.169 1.785-7.815h2.154c0.308 0 0.554-0.246 0.554-0.554s-0.246-0.554-0.554-0.554h-1.908c1.046-4.062 2.277-6.831 2.523-7.262 0.431-0.677 0.862-1.046 1.292-1.046 0.185 0 0.308 0.062 0.369 0.123 0.062 0.123 0.062 0.185 0.062 0.246s-0.062 0.185-0.185 0.431c-0.123 0.246-0.185 0.492-0.185 0.738 0 0.369 0.123 0.615 0.369 0.862s0.554 0.369 0.923 0.369 0.677-0.123 0.923-0.369c0.246-0.246 0.369-0.615 0.369-1.046 0.062-0.677-0.185-1.169-0.738-1.538zM28.369 14.277c0.8 0 2.338-0.615 2.338-2.708 0-2.031-1.477-2.154-1.908-2.154-0.923 0-1.785 0.677-2.585 2.031-0.8 1.415-1.662 2.892-1.662 2.892-0.185-0.985-0.369-1.785-0.431-2.154-0.185-0.862-1.169-2.708-3.2-2.708s-3.877 1.169-3.877 1.169c-0.369 0.246-0.554 0.615-0.554 1.046 0 0.677 0.554 1.231 1.231 1.231 0.185 0 0.369-0.062 0.554-0.123 0 0 1.538-0.862 1.846 0 0.123 0.246 0.185 0.554 0.246 0.862 0.369 1.354 0.738 2.892 1.046 4.308l-1.354 1.908s-1.477-0.554-2.277-0.554-2.338 0.615-2.338 2.708 1.477 2.154 1.908 2.154c0.923 0 1.785-0.677 2.585-2.031 0.8-1.415 1.662-2.892 1.662-2.892 0.246 1.231 0.492 2.277 0.615 2.708 0.492 1.415 1.662 2.277 3.262 2.277 0 0 1.6 0 3.508-1.046 0.431-0.185 0.8-0.615 0.8-1.169 0-0.677-0.554-1.231-1.231-1.231-0.185 0-0.369 0.062-0.554 0.123 0 0-1.354 0.738-1.785 0.185-0.308-0.615-0.615-1.477-0.8-2.462-0.185-0.923-0.431-1.969-0.615-3.015l1.354-1.969c-0.062 0.062 1.477 0.615 2.215 0.615z"></path>
</svg>
