<!-- Generated by IcoMoon.io -->
<svg version="1.1" xmlns="http://www.w3.org/2000/svg" width="32" height="32" viewBox="0 0 32 32">
<title>forward-up</title>
<path d="M5.046 30.523l19.385-19.385c0.554-0.554 1.415-0.123 1.415 0.554v11.2c0 0.677 0.554 1.231 1.231 1.231h2.585c0.677 0 1.231-0.554 1.231-1.231l-0.123-20.369c0-0.677-0.554-1.231-1.231-1.231h-20.431c-0.677 0-1.231 0.554-1.231 1.231v2.462c0 0.677 0.554 1.231 1.231 1.231h11.2c0.738 0.062 1.169 0.923 0.615 1.477l-19.323 19.323c-0.492 0.492-0.554 1.231-0.062 1.662l1.723 1.723c0.492 0.492 1.292 0.615 1.785 0.123z"></path>
</svg>
