<!-- Generated by IcoMoon.io -->
<svg version="1.1" xmlns="http://www.w3.org/2000/svg" width="32" height="32" viewBox="0 0 32 32">
<title>frozen</title>
<path d="M16.615 1.846c0.369 0 0.615 0.246 0.615 0.615v28.246c0 0.369-0.246 0.615-0.615 0.615h-1.231c-0.369 0-0.615-0.246-0.615-0.615v-28.246c0-0.369 0.246-0.615 0.615-0.615h1.231z"></path>
<path d="M16 10.585l-4.985-4.985c-0.246-0.246-0.246-0.615 0-0.862l0.862-0.862c0.246-0.246 0.615-0.246 0.862 0l3.262 3.262 3.262-3.262c0.246-0.246 0.615-0.246 0.862 0l0.862 0.862c0.246 0.246 0.246 0.615 0 0.862l-4.985 4.985zM16 22.585l4.985 4.985c0.246 0.246 0.246 0.615 0 0.862l-0.862 0.862c-0.246 0.246-0.615 0.246-0.862 0l-3.262-3.262-3.262 3.262c-0.246 0.246-0.615 0.246-0.862 0l-0.862-0.862c-0.246-0.246-0.246-0.615 0-0.862l4.985-4.985zM28.985 9.6c0.185 0.308 0.123 0.677-0.246 0.862l-24.308 14.338c-0.308 0.185-0.677 0.123-0.862-0.246l-0.615-1.046c-0.185-0.308-0.123-0.677 0.246-0.862l24.308-14.4c0.308-0.185 0.677-0.123 0.862 0.246l0.615 1.108z"></path>
<path d="M21.169 13.538l1.723-6.831c0.062-0.369 0.369-0.554 0.738-0.431l1.169 0.308c0.369 0.062 0.554 0.369 0.431 0.738l-1.169 4.492 4.492 1.169c0.369 0.062 0.554 0.369 0.431 0.738l-0.308 1.169c-0.062 0.369-0.369 0.554-0.738 0.431l-6.769-1.785zM10.831 19.631l-1.723 6.831c-0.062 0.369-0.369 0.554-0.738 0.431l-1.169-0.308c-0.369-0.062-0.554-0.369-0.431-0.738l1.169-4.492-4.492-1.169c-0.369-0.062-0.554-0.369-0.431-0.738l0.308-1.169c0.062-0.369 0.369-0.554 0.738-0.431l6.769 1.785zM3.631 8.554c0.185-0.308 0.554-0.431 0.862-0.246l24.308 14.4c0.308 0.185 0.431 0.554 0.246 0.862l-0.615 1.046c-0.185 0.308-0.554 0.431-0.862 0.246l-24.369-14.4c-0.308-0.185-0.431-0.554-0.246-0.862l0.677-1.046z"></path>
<path d="M10.831 13.538l-6.831 1.785c-0.369 0.062-0.677-0.062-0.738-0.431l-0.308-1.169c-0.062-0.369 0.062-0.677 0.431-0.738l4.492-1.169-1.169-4.492c-0.062-0.369 0.062-0.677 0.431-0.738l1.169-0.308c0.369-0.062 0.677 0.062 0.738 0.431l1.785 6.831zM21.108 19.631l6.831-1.785c0.369-0.062 0.677 0.062 0.738 0.431l0.308 1.169c0.062 0.369-0.062 0.677-0.431 0.738l-4.492 1.169 1.169 4.492c0.062 0.369-0.062 0.677-0.431 0.738l-1.169 0.308c-0.369 0.062-0.677-0.062-0.738-0.431l-1.785-6.831z"></path>
</svg>
