<!-- Generated by IcoMoon.io -->
<svg version="1.1" xmlns="http://www.w3.org/2000/svg" width="32" height="32" viewBox="0 0 32 32">
<title>full-width-view</title>
<path d="M29.846 2.462h-27.692c-0.492 0-0.923 0.431-0.923 0.923v3.077c0 0.492 0.431 0.923 0.923 0.923h27.692c0.492 0 0.923-0.431 0.923-0.923v-3.077c-0.062-0.492-0.431-0.923-0.923-0.923zM6.585 9.846h-4.308c-0.492 0-0.923 0.431-0.923 0.923v18.338c0 0.492 0.431 0.923 0.923 0.923h4.308c0.492 0 0.923-0.431 0.923-0.923v-18.338c0-0.492-0.431-0.923-0.923-0.923zM29.846 9.846h-4.308c-0.492 0-0.923 0.431-0.923 0.923v18.338c0 0.492 0.431 0.923 0.923 0.923h4.308c0.492 0 0.923-0.431 0.923-0.923v-18.338c0-0.492-0.431-0.923-0.923-0.923zM21.231 9.846h-10.338c-0.492 0-0.923 0.431-0.923 0.923v18.338c0 0.492 0.431 0.923 0.923 0.923h10.338c0.492 0 0.923-0.431 0.923-0.923v-18.338c0-0.492-0.431-0.923-0.923-0.923z"></path>
</svg>
