<!-- Generated by IcoMoon.io -->
<svg version="1.1" xmlns="http://www.w3.org/2000/svg" width="32" height="32" viewBox="0 0 32 32">
<title>graph</title>
<path d="M1.231 28c0 1.354 1.108 2.462 2.462 2.462h26.092c0.554 0 0.985-0.431 0.985-0.985v-1.723c0-0.554-0.431-0.985-0.985-0.985h-23.938c-0.492 0-0.923-0.431-0.923-0.923v-23.323c0-0.554-0.431-0.985-0.985-0.985h-1.723c-0.554 0-0.985 0.431-0.985 0.985v25.477z"></path>
<path d="M30.585 8.677c0-1.046-0.8-1.846-1.846-1.846-0.554 0-0.985 0.246-1.354 0.554l-5.292 5.292-3.692-3.508-0.123-0.123c-0.062 0-0.062-0.062-0.123-0.062-0.062-0.062-0.123-0.062-0.185-0.123-0.062 0-0.062-0.062-0.123-0.062s-0.123-0.062-0.246-0.062c-0.062 0-0.062 0-0.123-0.062-0.123 0-0.246-0.062-0.369-0.062s-0.246 0-0.369 0.062c-0.062 0-0.062 0-0.123 0.062-0.062 0-0.185 0.062-0.246 0.062s-0.062 0.062-0.123 0.062-0.123 0.062-0.185 0.123c-0.062 0-0.062 0.062-0.123 0.123s-0.123 0.062-0.185 0.123l-7.015 7.077c-0.369 0.369-0.615 0.8-0.615 1.354 0 1.046 0.8 1.846 1.846 1.846 0.431 0 0.862-0.185 1.169-0.431l6.031-5.969 3.508 3.446c0.062 0.062 0.123 0.062 0.185 0.123l0.123 0.123c0.062 0.062 0.123 0.062 0.185 0.123 0.062 0 0.062 0.062 0.123 0.062 0.062 0.062 0.185 0.062 0.246 0.062s0.062 0 0.123 0.062c0.123 0 0.246 0.062 0.369 0.062s0.246 0 0.369-0.062h0.123c0.062 0 0.123-0.062 0.246-0.062 0.062 0 0.062-0.062 0.123-0.062s0.123-0.062 0.185-0.123c0.062 0 0.062-0.062 0.123-0.062l0.185-0.185 6.646-6.585c0.308-0.369 0.554-0.8 0.554-1.354z"></path>
</svg>
