<!-- Generated by IcoMoon.io -->
<svg version="1.1" xmlns="http://www.w3.org/2000/svg" width="32" height="32" viewBox="0 0 32 32">
<title>groups</title>
<path d="M9.785 17.231c-0.862-1.292-1.292-2.769-1.292-4.431 0-2.831 1.169-5.169 3.015-6.585-0.615-1.108-1.846-1.908-3.446-1.908-2.708 0-4.246 2.215-4.246 4.738 0 1.354 0.431 2.523 1.354 3.323 0.492 0.492 0.923 1.108 0.923 1.723s-0.246 1.231-1.785 1.908c-2.215 0.985-4.246 2.338-4.308 4.369 0.062 1.354 0.923 2.4 2.215 2.4h2.031c0.308 0 0.615-0.185 0.8-0.492 0.985-1.785 2.831-2.892 4.369-3.692 0.554-0.246 0.677-0.923 0.369-1.354zM27.754 16c-1.538-0.677-1.785-1.231-1.785-1.908s0.431-1.292 0.923-1.723c0.923-0.862 1.354-1.969 1.354-3.323 0-2.523-1.477-4.738-4.246-4.738-1.6 0-2.831 0.8-3.508 1.908 1.846 1.415 3.015 3.754 3.015 6.585 0 1.662-0.431 3.138-1.292 4.431-0.308 0.492-0.123 1.108 0.369 1.354 1.538 0.738 3.385 1.908 4.369 3.692 0.185 0.308 0.492 0.492 0.8 0.492h2.031c1.292 0 2.154-1.046 2.154-2.4 0.062-2.031-1.969-3.385-4.185-4.369z"></path>
<path d="M20.123 20.492c-1.662-0.738-1.969-1.415-1.969-2.092 0-0.738 0.492-1.415 1.046-1.908 0.985-0.923 1.538-2.215 1.538-3.692 0-2.769-1.662-5.169-4.677-5.169s-4.677 2.4-4.677 5.169c0 1.477 0.554 2.769 1.538 3.692 0.554 0.554 1.046 1.231 1.046 1.908 0 0.738-0.246 1.354-1.969 2.092-2.462 1.046-4.8 2.215-4.862 4.431 0 1.477 1.108 2.708 2.523 2.708h12.8c1.415 0 2.523-1.231 2.523-2.708-0.062-2.154-2.4-3.323-4.862-4.431z"></path>
</svg>
