<!-- Generated by IcoMoon.io -->
<svg version="1.1" xmlns="http://www.w3.org/2000/svg" width="32" height="32" viewBox="0 0 32 32">
<title>help-center</title>
<path d="M15.815 1.231c-8.185 0.123-14.646 6.831-14.585 14.954 0.123 8.185 6.831 14.646 14.954 14.585 8.185-0.123 14.646-6.831 14.585-14.954-0.123-8.185-6.831-14.646-14.954-14.585zM15.815 3.2c2.215-0.062 4.308 0.492 6.092 1.415l-1.969 3.323c-1.169-0.615-2.523-0.923-3.938-0.923s-2.769 0.308-3.938 0.923l-1.969-3.323c1.723-0.862 3.631-1.415 5.723-1.415zM7.938 19.938l-3.323 1.969c-0.862-1.723-1.415-3.692-1.415-5.785-0.062-2.215 0.492-4.308 1.415-6.092l3.323 1.969c-0.615 1.169-0.923 2.523-0.923 3.938s0.308 2.831 0.923 4zM16.185 28.8c-2.215 0.062-4.308-0.492-6.092-1.415l1.969-3.323c1.169 0.615 2.523 0.923 3.938 0.923s2.769-0.308 3.938-0.923l1.969 3.323c-1.723 0.862-3.631 1.415-5.723 1.415zM16 23.077c-3.938 0-7.077-3.2-7.077-7.077 0-3.938 3.2-7.077 7.077-7.077 3.938 0 7.077 3.2 7.077 7.077 0 3.938-3.138 7.077-7.077 7.077zM24.062 19.938c0.615-1.169 0.923-2.523 0.923-3.938s-0.308-2.769-0.923-3.938l3.323-1.969c0.862 1.723 1.415 3.692 1.415 5.785 0.062 2.215-0.492 4.308-1.415 6.092l-3.323-2.031z"></path>
</svg>
