<!-- Generated by IcoMoon.io -->
<svg version="1.1" xmlns="http://www.w3.org/2000/svg" width="32" height="32" viewBox="0 0 32 32">
<title>hierarchy</title>
<path d="M14.215 14.154h-7.569c-0.431 0-0.862 0.369-0.862 0.8v6.462h-2.523c-0.431 0-0.862 0.431-0.862 0.862v6.154c0 0.431 0.431 0.862 0.862 0.862h8.431c0.431 0 0.862-0.431 0.862-0.862v-6.154c0-0.431-0.431-0.862-0.862-0.862h-2.523v-3.938h13.477v3.938h-2.523c-0.431 0-0.862 0.431-0.862 0.862v6.154c0 0.431 0.431 0.862 0.862 0.862h8.431c0.431 0 0.8-0.431 0.8-0.862v-6.154c0-0.431-0.369-0.862-0.8-0.862h-2.585v-6.462c0-0.431-0.431-0.8-0.862-0.8h-7.508v-3.938h2.523c0.431 0 0.8-0.431 0.8-0.862v-6.154c0-0.431-0.369-0.862-0.8-0.862h-8.431c-0.431 0-0.862 0.431-0.862 0.862v6.154c0 0.431 0.431 0.862 0.862 0.862h2.585v3.938z"></path>
</svg>
