<!-- Generated by IcoMoon.io -->
<svg version="1.1" xmlns="http://www.w3.org/2000/svg" width="32" height="32" viewBox="0 0 32 32">
<title>inbox</title>
<path d="M30.769 4.923c0-1.354-1.108-2.462-2.462-2.462h-24.615c-1.354 0-2.462 1.108-2.462 2.462v22.154c0 1.354 1.108 2.462 2.462 2.462h24.615c1.354 0 2.462-1.108 2.462-2.462v-22.154zM11.692 21.538c0 0.369-0.246 0.615-0.615 0.615h-5.538c-0.369 0-0.615-0.246-0.615-0.615v-2.462c0-0.369 0.246-0.615 0.615-0.615h5.538c0.369 0 0.615 0.246 0.615 0.615v2.462zM11.692 15.385c0 0.369-0.246 0.615-0.615 0.615h-5.538c-0.369 0-0.615-0.246-0.615-0.615v-2.462c0-0.369 0.246-0.615 0.615-0.615h5.538c0.369 0 0.615 0.246 0.615 0.615v2.462zM11.692 9.231c0 0.369-0.246 0.615-0.615 0.615h-5.538c-0.369 0-0.615-0.246-0.615-0.615v-2.462c0-0.369 0.246-0.615 0.615-0.615h5.538c0.369 0 0.615 0.246 0.615 0.615v2.462zM27.077 25.231c0 0.369-0.246 0.615-0.615 0.615h-11.692c-0.369 0-0.615-0.246-0.615-0.615v-18.462c0-0.369 0.246-0.615 0.615-0.615h11.692c0.369 0 0.615 0.246 0.615 0.615v18.462z"></path>
</svg>
