<!-- Generated by IcoMoon.io -->
<svg version="1.1" xmlns="http://www.w3.org/2000/svg" width="32" height="32" viewBox="0 0 32 32">
<title>info-alt</title>
<path d="M16 1.231c-8.185 0-14.769 6.585-14.769 14.769s6.585 14.769 14.769 14.769 14.769-6.585 14.769-14.769-6.585-14.769-14.769-14.769zM16 27.077c-6.154 0-11.077-4.923-11.077-11.077s4.923-11.077 11.077-11.077 11.077 4.923 11.077 11.077-4.923 11.077-11.077 11.077z"></path>
<path d="M16 8.677c1.046 0 1.846 0.8 1.846 1.846s-0.8 1.846-1.846 1.846-1.846-0.8-1.846-1.846 0.8-1.846 1.846-1.846zM19.077 21.6c0 0.308-0.246 0.554-0.615 0.554h-4.923c-0.308 0-0.615-0.185-0.615-0.554v-1.231c0-0.308 0.246-0.677 0.615-0.677 0.308 0 0.615-0.185 0.615-0.554v-2.462c0-0.308-0.246-0.677-0.615-0.677-0.308 0-0.615-0.185-0.615-0.554v-1.231c0-0.308 0.246-0.677 0.615-0.677h3.692c0.308 0 0.615 0.308 0.615 0.677v4.923c0 0.308 0.246 0.554 0.615 0.554 0.308 0 0.615 0.308 0.615 0.677v1.231z"></path>
</svg>
