<!-- Generated by IcoMoon.io -->
<svg version="1.1" xmlns="http://www.w3.org/2000/svg" width="32" height="32" viewBox="0 0 32 32">
<title>insert-template</title>
<path d="M29.846 23.385h-2.769v-2.769c0-0.492-0.431-0.923-0.923-0.923h-1.846c-0.492 0-0.923 0.431-0.923 0.923v2.769h-2.769c-0.492 0-0.923 0.431-0.923 0.923v1.846c0 0.492 0.431 0.923 0.923 0.923h2.769v2.769c0 0.492 0.431 0.923 0.923 0.923h1.846c0.492 0 0.923-0.431 0.923-0.923v-2.769h2.769c0.492 0 0.923-0.431 0.923-0.923v-1.846c0-0.492-0.431-0.923-0.923-0.923zM20.923 18.154c0-0.492 0.431-0.923 0.923-0.923h1.538v-13.538c0-1.354-1.108-2.462-2.462-2.462h-17.231c-1.354 0-2.462 1.108-2.462 2.462v17.231c0 1.354 1.108 2.462 2.462 2.462h13.538v-1.538c0-0.492 0.431-0.923 0.923-0.923h2.769v-2.769zM9.846 6.769c0 0.369-0.246 0.615-0.615 0.615h-3.692c-0.369 0-0.615-0.246-0.615-0.615v-1.231c0-0.369 0.246-0.615 0.615-0.615h3.692c0.369 0 0.615 0.246 0.615 0.615v1.231zM17.231 16.615c0 0.369-0.246 0.615-0.615 0.615h-11.077c-0.369 0-0.615-0.246-0.615-0.615v-1.231c0-0.369 0.246-0.615 0.615-0.615h11.077c0.369 0 0.615 0.246 0.615 0.615v1.231zM19.692 11.692c0 0.369-0.246 0.615-0.615 0.615h-13.538c-0.369 0-0.615-0.246-0.615-0.615v-1.231c0-0.369 0.246-0.615 0.615-0.615h13.538c0.369 0 0.615 0.246 0.615 0.615v1.231z"></path>
</svg>
