<!-- Generated by IcoMoon.io -->
<svg version="1.1" xmlns="http://www.w3.org/2000/svg" width="32" height="32" viewBox="0 0 32 32">
<title>insert-tag-field</title>
<path d="M10.031 7.508l-1.415-1.169c-0.431-0.308-0.923-0.246-1.292 0.123l-7.138 8.985c-0.246 0.308-0.246 0.8 0 1.169l7.2 8.923c0.308 0.369 0.862 0.492 1.292 0.123l1.415-1.169c0.431-0.308 0.492-0.923 0.123-1.292l-5.785-7.2 5.846-7.2c0.246-0.369 0.185-0.923-0.246-1.292zM31.815 15.446l-7.2-8.923c-0.308-0.369-0.862-0.492-1.292-0.123l-1.415 1.169c-0.431 0.308-0.492 0.923-0.123 1.292l5.846 7.2-5.846 7.2c-0.308 0.369-0.246 0.985 0.123 1.292l1.415 1.169c0.431 0.308 0.923 0.246 1.292-0.123l7.2-8.985c0.246-0.431 0.246-0.862 0-1.169zM19.446 6.646l-1.846-0.431c-0.492-0.123-1.046 0.185-1.169 0.677l-4.554 17.477c-0.123 0.492 0.185 0.985 0.677 1.108l1.846 0.431c0.492 0.123 1.046-0.185 1.169-0.677l4.554-17.477c0.123-0.554-0.185-0.985-0.677-1.108z"></path>
</svg>
