<!-- Generated by IcoMoon.io -->
<svg version="1.1" xmlns="http://www.w3.org/2000/svg" width="32" height="32" viewBox="0 0 32 32">
<title>inspector-panel</title>
<path d="M2.338 27.877h27.692c0.492 0 0.923-0.431 0.923-0.923v-5.108c0-0.492-0.431-0.923-0.923-0.923h-27.692c-0.492 0-0.923 0.431-0.923 0.923v5.108c0 0.492 0.431 0.923 0.923 0.923zM2.338 4.123c-0.492 0-0.985 0.431-0.985 0.923v12.554c0 0.431 0.492 0.862 0.985 0.862h27.569c0.492 0 0.923-0.431 0.923-0.923v-12.492c0-0.492-0.431-0.923-0.923-0.923h-27.569z"></path>
</svg>
