<!-- Generated by IcoMoon.io -->
<svg version="1.1" xmlns="http://www.w3.org/2000/svg" width="32" height="32" viewBox="0 0 32 32">
<title>internal-share</title>
<path d="M1.415 23.323v0.123c0 0.492 0.369 0.862 0.862 0.862 0.246 0 0.431-0.062 0.615-0.246 0 0 6.215-6.708 13.846-4.677v6.769c0 0.492 0.369 0.862 0.862 0.862 0.185 0 0.308-0.062 0.431-0.123l12.369-10.523c0.185-0.185 0.308-0.431 0.308-0.677s-0.123-0.492-0.246-0.615l-12.369-10.031c-0.123-0.062-0.308-0.123-0.492-0.123-0.492 0-0.862 0.369-0.862 0.862v6.338c-0.062 0-12.246-1.846-15.323 11.2z"></path>
</svg>
