<!-- Generated by IcoMoon.io -->
<svg version="1.1" xmlns="http://www.w3.org/2000/svg" width="32" height="32" viewBox="0 0 32 32">
<title>italic</title>
<path d="M23.385 7.569v-0.8c0-0.677-0.554-1.231-1.231-1.231h-8.615c-0.677 0-1.231 0.554-1.231 1.231v1.231c0 0.677 0.554 1.231 1.231 1.231 1.046 0 1.846 0.985 1.6 1.969l-2.215 10.831c-0.185 0.8-0.862 1.354-1.6 1.354h-1.477c-0.677 0-1.231 0.554-1.231 1.231v1.231c0 0.677 0.554 1.231 1.231 1.231h8.615c0.677 0 1.231-0.554 1.231-1.231v-1.231c0-0.677-0.554-1.231-1.231-1.231-1.046 0-1.846-0.985-1.6-1.969l2.215-10.831c0.185-0.8 0.862-1.354 1.6-1.354h1.046c0.923 0 1.662-0.738 1.662-1.662z"></path>
</svg>
