<!-- Generated by IcoMoon.io -->
<svg version="1.1" xmlns="http://www.w3.org/2000/svg" width="32" height="32" viewBox="0 0 32 32">
<title>knowledge-base</title>
<path d="M5.846 21.538h8c0.492 0 0.923-0.431 0.923-0.923v-14.462c0-1.046-1.108-1.846-1.969-1.846h-6.954c-0.492 0-0.923 0.431-0.923 0.923v15.385c0 0.492 0.431 0.923 0.923 0.923z"></path>
<path d="M30.277 7.138c-0.369-0.123-0.738 0.185-0.738 0.615v15.323c0 0.492-0.431 0.923-0.923 0.923h-25.231c-0.492 0-0.923-0.431-0.923-0.923v-15.262c0-0.431-0.492-0.738-0.862-0.554-0.923 0.431-1.6 1.415-1.6 2.585v14.154c0 1.354 1.108 2.462 2.462 2.462h10.154c0.492 0 0.923 0.431 0.923 0.923s0.431 0.923 0.923 0.923h3.077c0.492 0 0.923-0.431 0.923-0.923s0.431-0.923 0.923-0.923h10.154c1.354 0 2.462-1.108 2.462-2.462v-14.154c0-1.292-0.431-2.4-1.723-2.708z"></path>
<path d="M18.154 21.538h8c0.492 0 0.923-0.431 0.923-0.923v-15.385c0-0.492-0.431-0.923-0.923-0.923h-6.954c-0.923 0-1.969 0.8-1.969 1.846v14.462c0 0.492 0.431 0.923 0.923 0.923z"></path>
</svg>
