<!-- Generated by IcoMoon.io -->
<svg version="1.1" xmlns="http://www.w3.org/2000/svg" width="32" height="32" viewBox="0 0 32 32">
<title>layout</title>
<path d="M29.538 30.769h-27.077c-0.677 0-1.231-0.554-1.231-1.231v-27.077c0-0.677 0.554-1.231 1.231-1.231h27.077c0.677 0 1.231 0.554 1.231 1.231v27.077c0 0.677-0.554 1.231-1.231 1.231zM3.692 28.308h24.615v-24.615h-24.615v24.615z"></path>
<path d="M24 12.308h-16c-0.369 0-0.615-0.246-0.615-0.615v-3.692c0-0.369 0.246-0.615 0.615-0.615h16c0.369 0 0.615 0.246 0.615 0.615v3.692c0 0.369-0.246 0.615-0.615 0.615zM11.692 24.615h-3.692c-0.369 0-0.615-0.246-0.615-0.615v-7.385c0-0.369 0.246-0.615 0.615-0.615h3.692c0.369 0 0.615 0.246 0.615 0.615v7.385c0 0.369-0.246 0.615-0.615 0.615zM24 24.615h-7.385c-0.369 0-0.615-0.246-0.615-0.615v-7.385c0-0.369 0.246-0.615 0.615-0.615h7.385c0.369 0 0.615 0.246 0.615 0.615v7.385c0 0.369-0.246 0.615-0.615 0.615z"></path>
</svg>
