<!-- Generated by IcoMoon.io -->
<svg version="1.1" xmlns="http://www.w3.org/2000/svg" width="32" height="32" viewBox="0 0 32 32">
<title>leave-conference</title>
<path d="M15.815 13.785c-0.308 0.431-0.123 1.046 0.369 1.354 0.985 0.554 2.092 1.169 3.015 2.031 1.538-1.169 3.385-1.846 5.415-1.969-0.677-1.169-2.092-1.969-3.569-2.646-1.415-0.615-1.723-1.169-1.723-1.846 0-0.615 0.431-1.169 0.862-1.723 0.862-0.8 1.292-1.908 1.292-3.262 0.062-2.462-1.354-4.615-3.938-4.615-1.538 0-2.585 0.8-3.323 1.908 1.785 1.354 2.831 3.692 2.831 6.338-0.062 1.723-0.492 3.2-1.231 4.431zM19.569 21.354l3.692 3.692-3.692 3.692c-0.369 0.369-0.369 0.985 0 1.292l0.431 0.431c0.369 0.369 0.985 0.369 1.292 0l3.692-3.692 3.692 3.692c0.369 0.369 0.985 0.369 1.292 0l0.431-0.431c0.369-0.369 0.369-0.985 0-1.292l-3.692-3.692 3.692-3.692c0.369-0.369 0.369-0.985 0-1.292l-0.431-0.431c-0.369-0.369-0.985-0.369-1.292 0l-3.692 3.692-3.692-3.692c-0.369-0.369-0.985-0.369-1.292 0l-0.431 0.431c-0.308 0.308-0.308 0.923 0 1.292z"></path>
<path d="M17.354 18.892c-0.862-0.862-2.154-1.415-3.446-2.031-1.6-0.677-1.846-1.354-1.846-2.031s0.431-1.415 0.985-1.908c0.923-0.923 1.415-2.215 1.415-3.692 0-2.769-1.6-5.169-4.431-5.169h-0.308c-2.831 0-4.431 2.4-4.431 5.169 0 1.477 0.492 2.769 1.415 3.692 0.554 0.492 0.985 1.169 0.985 1.908 0 0.677-0.185 1.354-1.846 2.031-2.338 1.046-4.492 2.092-4.615 4.308 0.123 1.538 1.169 2.708 2.523 2.708h11.446c0.308-1.908 1.046-3.631 2.154-4.985z"></path>
</svg>
