<!-- Generated by IcoMoon.io -->
<svg version="1.1" xmlns="http://www.w3.org/2000/svg" width="32" height="32" viewBox="0 0 32 32">
<title>level-up</title>
<path d="M2.154 27.077c-0.431 0-0.923 0.431-0.923 0.923v1.846c0 0.492 0.492 0.923 0.923 0.923h14.708c0.492 0 0.985-0.492 0.985-0.923v-20.431c0-0.554 0.615-0.8 1.046-0.431l3.446 3.446c0.369 0.369 0.923 0.369 1.292 0l1.292-1.292c0.369-0.369 0.369-0.923 0-1.292l-8.308-8.369c-0.369-0.369-0.923-0.369-1.292 0l-8.308 8.308c-0.369 0.369-0.369 0.923 0 1.292l1.292 1.292c0.369 0.369 0.923 0.369 1.292 0l3.446-3.446c0.369-0.369 1.108-0.123 1.108 0.431v16.8c0 0.985-0.985 0.923-0.985 0.923h-11.015z"></path>
</svg>
