<!-- Generated by IcoMoon.io -->
<svg version="1.1" xmlns="http://www.w3.org/2000/svg" width="32" height="32" viewBox="0 0 32 32">
<title>lightning-extension</title>
<path d="M29.292 23.138c-0.308-0.062-0.677-0.062-0.985-0.123-0.062 0-0.123-0.062-0.123-0.123-0.123-0.369-0.308-0.738-0.431-1.046v-0.185c0.185-0.246 0.431-0.554 0.615-0.8 0.123-0.185 0.123-0.369-0.062-0.554l-1.108-1.108c-0.062-0.062-0.185-0.123-0.246-0.123s-0.185 0.062-0.246 0.123c-0.246 0.185-0.554 0.431-0.8 0.615-0.062 0-0.062 0.062-0.062 0.062h-0.062c-0.369-0.123-0.677-0.308-1.046-0.431-0.062 0-0.123-0.062-0.123-0.123-0.062-0.308-0.062-0.615-0.123-0.923 0-0.185-0.062-0.308-0.246-0.431-0.062-0.062-0.123-0.062-0.123-0.062h-1.6c-0.123 0-0.185 0-0.246 0.062-0.123 0.123-0.246 0.246-0.246 0.431 0 0.308-0.062 0.615-0.123 0.923 0 0.062-0.062 0.123-0.123 0.123-0.369 0.123-0.677 0.308-1.046 0.431h-0.062c-0.062 0-0.062 0-0.123-0.062-0.246-0.185-0.492-0.431-0.8-0.615-0.062-0.062-0.123-0.123-0.246-0.123s-0.185 0.062-0.308 0.123l-1.108 1.108c-0.185 0.185-0.185 0.369-0.062 0.554 0.185 0.246 0.431 0.492 0.615 0.8 0.062 0.062 0.062 0.123 0 0.185-0.123 0.369-0.308 0.677-0.431 1.046 0 0.062-0.062 0.123-0.123 0.123-0.308 0.062-0.615 0.062-0.923 0.123-0.185 0-0.369 0.123-0.431 0.308v1.846c0.123 0.185 0.246 0.246 0.431 0.308 0.308 0 0.615 0.062 0.923 0.123 0.062 0 0.123 0.062 0.123 0.123 0.123 0.369 0.308 0.677 0.431 1.046 0 0.062 0.062 0.123 0 0.185-0.185 0.246-0.431 0.554-0.615 0.8-0.123 0.185-0.123 0.369 0.062 0.554l1.108 1.108c0.123 0.123 0.185 0.123 0.308 0.123 0.062 0 0.185-0.062 0.246-0.123 0.246-0.185 0.492-0.431 0.8-0.615 0.062 0 0.062-0.062 0.123-0.062h0.062c0.369 0.123 0.677 0.308 1.046 0.431 0.062 0 0.123 0.062 0.123 0.123 0.062 0.308 0.062 0.677 0.123 0.985 0 0.246 0.185 0.369 0.431 0.369h1.538c0.246 0 0.369-0.123 0.431-0.369 0.062-0.308 0.062-0.677 0.123-0.985 0-0.062 0.062-0.123 0.123-0.123 0.369-0.123 0.738-0.308 1.046-0.431h0.062s0.062 0 0.062 0.062c0.246 0.185 0.554 0.431 0.8 0.615 0.062 0.062 0.185 0.123 0.246 0.123 0.123 0 0.185-0.062 0.308-0.123l1.108-1.108c0.185-0.185 0.185-0.369 0.062-0.554-0.185-0.246-0.431-0.492-0.615-0.8-0.062-0.062-0.062-0.123 0-0.185 0.123-0.369 0.308-0.677 0.431-1.046 0-0.062 0.062-0.123 0.123-0.123 0.308-0.062 0.677-0.062 0.985-0.123 0.246 0 0.369-0.185 0.369-0.431v-1.538c0-0.308-0.123-0.431-0.369-0.492zM23.262 26.831s-0.062 0 0 0c-1.415 0-2.462-1.108-2.462-2.462s1.108-2.462 2.462-2.462 2.462 1.108 2.462 2.462c-0.062 1.354-1.169 2.462-2.462 2.462zM23.815 12.738c-0.123-0.492-0.492-0.8-0.985-0.8h-5.908c-0.738 0-0.369-0.615-0.369-0.615 0.123-0.246 0.246-0.431 0.308-0.677 1.354-2.646 2.646-5.292 4-7.938 0.492-0.738 0-1.477-0.862-1.477h-11.015c-0.554 0-0.8 0.185-1.046 0.677-1.846 4.677-3.692 9.292-5.477 13.969 0 0.123-0.062 0.246-0.062 0.308-0.062 0.615 0.369 1.046 1.046 1.046h5.969c0.431 0.062 1.292 0.246 0.862 1.354-0.738 1.908-1.477 3.754-2.215 5.662-0.738 1.723-1.415 3.446-2.092 5.169-0.246 0.615 0 1.169 0.615 1.354 0.431 0.123 0.738-0.062 1.046-0.369 2.462-2.585 4.923-5.169 7.385-7.815 0.308-0.308 0.554-0.615 0.862-0.923 0.369-0.369 0.308-0.985 0.308-0.985 0-0.615 0.185-1.169 0.677-1.662l1.108-1.108c0.431-0.431 0.985-0.677 1.6-0.677 0.431 0 0.677-0.185 0.8-0.246l0.062-0.062c1.046-1.108 2.154-2.277 3.2-3.385 0.185-0.185 0.308-0.492 0.185-0.8z"></path>
</svg>
