<!-- Generated by IcoMoon.io -->
<svg version="1.1" xmlns="http://www.w3.org/2000/svg" width="32" height="32" viewBox="0 0 32 32">
<title>link</title>
<path d="M16.738 25.662l-1.292-0.185c-0.431-0.062-0.862-0.185-1.292-0.369-0.246-0.062-0.554 0-0.738 0.185l-0.308 0.308c-1.785 1.785-4.677 1.969-6.523 0.369-2.092-1.785-2.154-4.985-0.246-6.892l4.677-4.677c0.615-0.615 1.354-0.985 2.092-1.231 0.985-0.246 2.031-0.185 2.954 0.185 0.554 0.246 1.108 0.554 1.6 1.046 0.246 0.246 0.431 0.492 0.615 0.8 0.246 0.431 0.8 0.492 1.108 0.123l1.723-1.723c0.246-0.246 0.246-0.615 0.062-0.923-0.246-0.369-0.554-0.677-0.862-0.985-0.431-0.431-0.923-0.862-1.477-1.169-0.862-0.554-1.846-0.923-2.892-1.108-1.908-0.369-4-0.062-5.723 0.862-0.677 0.369-1.354 0.862-1.908 1.415l-4.492 4.492c-3.262 3.262-3.508 8.554-0.369 11.877 3.262 3.569 8.8 3.631 12.185 0.246l1.538-1.538c0.431-0.308 0.123-1.046-0.431-1.108z"></path>
<path d="M28.062 3.569c-3.385-3.138-8.677-2.892-11.877 0.369l-1.415 1.354c-0.431 0.431-0.123 1.169 0.431 1.231 0.862 0.062 1.723 0.246 2.585 0.492 0.246 0.062 0.554 0 0.738-0.185l0.308-0.308c1.785-1.785 4.677-1.969 6.523-0.369 2.092 1.785 2.154 4.985 0.246 6.892l-4.677 4.677c-0.615 0.615-1.354 0.985-2.092 1.231-0.985 0.246-2.031 0.185-2.954-0.185-0.554-0.246-1.108-0.554-1.6-1.046-0.246-0.246-0.431-0.492-0.615-0.8-0.246-0.431-0.8-0.492-1.108-0.123l-1.723 1.723c-0.246 0.246-0.246 0.615-0.062 0.923 0.246 0.369 0.554 0.677 0.862 0.985 0.431 0.431 0.985 0.862 1.477 1.169 0.862 0.554 1.846 0.923 2.831 1.108 1.908 0.369 4 0.062 5.723-0.862 0.677-0.369 1.354-0.862 1.908-1.415l4.677-4.677c3.446-3.385 3.323-8.923-0.185-12.185z"></path>
</svg>
