<!-- Generated by IcoMoon.io -->
<svg version="1.1" xmlns="http://www.w3.org/2000/svg" width="32" height="32" viewBox="0 0 32 32">
<title>listen</title>
<path d="M31.138 18.585c0-8.862-6.708-16.123-15.015-16.123s-15.077 7.262-15.077 16.123c0 2.092 0.369 4.185 1.108 6.154 0.862 2.4 3.015 4.123 5.6 4.185 0.738 0 1.354-0.615 1.354-1.354v-7.692c0-0.738-0.615-1.354-1.354-1.354-1.354 0-2.646 0.492-3.631 1.231-0.062-0.431-0.062-0.8-0.062-1.231 0-7.262 5.415-13.108 12.062-13.108s12.062 5.908 12.062 13.108c0 0.431 0 0.862-0.062 1.231-0.985-0.8-2.215-1.292-3.631-1.292-0.738 0-1.354 0.615-1.354 1.354v7.631c0 0.738 0.615 1.354 1.354 1.354 1.477 0 3.015-0.554 4-1.662 1.046-1.108 1.538-2.338 1.969-3.815s0.677-3.077 0.677-4.738z"></path>
</svg>
