<!-- Generated by IcoMoon.io -->
<svg version="1.1" xmlns="http://www.w3.org/2000/svg" width="32" height="32" viewBox="0 0 32 32">
<title>live-message</title>
<path d="M28.308 1.231h-14.769c-1.354 0-2.462 1.108-2.462 2.462v0.062c2.215 0.246 4.246 1.046 5.908 2.338h9.108c0.492 0 0.985 0.492 0.985 0.985v16.615c0 0.492-0.492 0.862-0.985 0.862h-10.462c-0.492 0-0.862-0.369-0.862-0.862v-0.062c0-0.062-0.062-0.185-0.123-0.185-1.046 0.492-2.215 0.8-3.385 0.923-0.123 0.123-0.185 0.246-0.185 0.554v3.323c0 1.354 1.046 2.462 2.4 2.462h14.769c1.354 0 2.523-1.108 2.523-2.462v-24.554c0-1.354-1.108-2.462-2.462-2.462zM20.923 29.538c-1.046 0-1.846-0.8-1.846-1.846s0.8-1.846 1.846-1.846 1.846 0.8 1.846 1.846-0.8 1.846-1.846 1.846z"></path>
<path d="M1.231 14.092c0 4.369 3.877 7.877 8.554 7.938 1.662 0 3.2-0.431 4.492-1.169 0.246-0.123 0.431-0.123 0.615-0.062l3.077 1.169c0.308 0.062 0.554-0.185 0.492-0.492l-1.108-3.077c-0.062-0.246-0.062-0.431 0.062-0.615 0.677-1.169 1.046-2.462 1.046-3.815 0-4.308-3.815-7.815-8.615-7.815-4.738 0-8.554 3.508-8.615 7.938z"></path>
</svg>
