<!-- Generated by IcoMoon.io -->
<svg version="1.1" xmlns="http://www.w3.org/2000/svg" width="32" height="32" viewBox="0 0 32 32">
<title>locker-service-console</title>
<path d="M29.354 5.6c-0.554-1.354-1.231-2.585-2.031-3.754-0.369-0.492-1.046-0.554-1.415-0.123-1.169 1.108-2.831 1.723-4.554 1.723-1.846 0-3.508-0.738-4.738-1.969-0.369-0.369-0.985-0.369-1.354 0-1.231 1.231-2.892 1.969-4.738 1.969-1.723 0-3.323-0.615-4.554-1.723-0.431-0.369-1.108-0.308-1.415 0.123-0.8 1.108-1.477 2.4-2.031 3.754 0 0-1.477 3.015-1.231 8v0.492c0 0.246 0.062 0.492 0.062 0.738v0.062c0.862 8.246 6.954 14.831 14.646 15.877 7.754-1.108 13.785-7.692 14.646-15.938v-0.185c0-0.123 0-0.308 0.062-0.492 0.431-5.292-1.354-8.554-1.354-8.554zM25.169 11.938l-10.215 10.4c-0.246 0.246-0.554 0.246-0.8 0l-5.969-6.031c-0.246-0.246-0.246-0.554 0-0.8l0.8-0.8c0.246-0.246 0.554-0.246 0.8 0l4.492 4.554c0.123 0.123 0.369 0.123 0.554 0l8.8-8.862c0.246-0.246 0.554-0.246 0.8 0l0.8 0.8c0.185 0.185 0.185 0.554-0.062 0.738z"></path>
</svg>
