<!-- Generated by IcoMoon.io -->
<svg version="1.1" xmlns="http://www.w3.org/2000/svg" width="32" height="32" viewBox="0 0 32 32">
<title>log-a-call</title>
<path d="M26.462 1.231h-18.154c-1.6 0-2.954 1.477-2.954 2.954v0.985h-0.985c-1.046 0-1.908 0.862-1.908 1.969s0.862 1.969 1.908 1.969h0.985v4.923h-0.985c-1.046 0-1.908 0.862-1.908 1.969s0.862 1.969 1.908 1.969h0.985v4.923h-0.985c-1.046 0-1.908 0.862-1.908 1.969s0.862 1.969 1.908 1.969h0.985v0.985c0 1.477 1.354 2.954 2.954 2.954h18.154c1.6 0 3.077-1.477 3.077-3.077v-23.631c0-1.662-1.477-2.831-3.077-2.831zM24.738 21.046l-1.354 1.415c-0.308 0.308-0.738 0.492-1.108 0.431-3.2-0.185-6.154-1.662-8.308-3.815s-3.569-5.231-3.754-8.492c0-0.431 0.123-0.862 0.431-1.108l1.354-1.354c0.615-0.615 1.662-0.615 2.215 0.123l1.231 1.6c0.431 0.554 0.431 1.292 0.062 1.846l-1.046 1.538c-0.123 0.185-0.123 0.492 0.062 0.615l2.215 2.523 2.462 2.277c0.185 0.185 0.431 0.185 0.615 0.062l1.477-1.108c0.554-0.369 1.292-0.369 1.846 0.062l1.538 1.292c0.677 0.369 0.677 1.477 0.062 2.092z"></path>
</svg>
