<!-- Generated by IcoMoon.io -->
<svg version="1.1" xmlns="http://www.w3.org/2000/svg" width="32" height="32" viewBox="0 0 32 32">
<title>loop</title>
<path d="M29.046 20.062c0 0.062 0 0.062-0.062 0.123-0.185 0.554-0.308 1.108-0.554 1.6-0.246 0.554-0.492 1.169-0.8 1.662-0.615 1.108-1.354 2.092-2.215 2.954s-1.846 1.662-2.892 2.277c-1.046 0.615-2.215 1.169-3.446 1.477-1.231 0.369-2.523 0.492-3.815 0.492-7.692 0.123-14.031-6.215-14.031-13.969s6.338-14.092 14.092-14.092c2.646 0 5.108 0.738 7.2 1.969 1.046 0.615 1.969 1.354 2.769 2.154 0.246 0.185 0.431 0.369 0.615 0.615 0.492 0.369 0.8 0.123 0.8-0.492v-4.615c0-0.492 0.492-0.985 0.985-0.985h1.969c0.554 0 0.985 0.492 1.046 0.985v12.062c0 0.492-0.369 0.862-0.862 0.862h-12.062c-0.554 0-0.923-0.369-0.923-0.923v-2.031c0-0.554 0.492-0.985 0.985-0.985h4.615c0.369 0 0.738-0.123 0.862-0.308-1.785-2.462-4.677-4.062-8-4.062-5.477 0-9.846 4.431-9.846 9.846s4.431 9.846 9.846 9.846c4.308 0 7.938-2.708 9.292-6.523 0 0 0.185-0.862 0.862-0.862h2.831c0.431 0 0.8 0.308 0.8 0.738-0.062 0.062-0.062 0.123-0.062 0.185z"></path>
</svg>
