<!-- Generated by IcoMoon.io -->
<svg version="1.1" xmlns="http://www.w3.org/2000/svg" width="32" height="32" viewBox="0 0 32 32">
<title>lower-flag</title>
<path d="M4.062 1.231h-1.846c-0.492 0-0.923 0.431-0.923 0.923v27.692c0 0.492 0.431 0.923 0.923 0.923h1.846c0.492 0 0.923-0.431 0.923-0.923v-27.692c0-0.492-0.431-0.923-0.923-0.923zM24.985 15.138c1.662 0 3.2 0.431 4.615 1.169v-12.246c0-0.431-0.492-0.738-0.923-0.492-9.846 5.169-8.738-5.415-20.615-1.292-0.369 0.123-0.615 0.492-0.615 0.862v14.338c0 0.431 0.431 0.738 0.8 0.554 4.738-1.6 7.323-0.8 9.477 0.369 1.785-2.031 4.369-3.262 7.262-3.262zM19.569 21.292l3.692 3.692-3.692 3.692c-0.369 0.369-0.369 0.985 0 1.292l0.431 0.431c0.369 0.369 0.985 0.369 1.292 0l3.692-3.692 3.692 3.692c0.369 0.369 0.985 0.369 1.292 0l0.431-0.431c0.369-0.369 0.369-0.985 0-1.292l-3.692-3.692 3.692-3.692c0.369-0.369 0.369-0.985 0-1.292l-0.431-0.431c-0.369-0.369-0.985-0.369-1.292 0l-3.692 3.692-3.692-3.692c-0.369-0.369-0.985-0.369-1.292 0l-0.431 0.431c-0.369 0.308-0.369 0.923 0 1.292z"></path>
</svg>
