<!-- Generated by IcoMoon.io -->
<svg version="1.1" xmlns="http://www.w3.org/2000/svg" width="32" height="32" viewBox="0 0 32 32">
<title>matrix</title>
<path d="M29.538 2.154c0-0.492-0.431-0.923-0.923-0.923h-19.077c-0.492 0-0.923 0.431-0.923 0.923v3.077c0 0.492 0.431 0.923 0.923 0.923h19.077c0.492 0 0.923-0.431 0.923-0.923v-3.077zM6.154 9.538c0-0.492-0.431-0.923-0.923-0.923h-1.846c-0.492 0-0.923 0.431-0.923 0.923v8c0 0.492 0.431 0.923 0.923 0.923h1.846c0.492 0 0.923-0.431 0.923-0.923v-8zM6.154 21.846c0-0.492-0.431-0.923-0.923-0.923h-1.846c-0.492 0-0.923 0.431-0.923 0.923v8c0 0.492 0.431 0.923 0.923 0.923h1.846c0.492 0 0.923-0.431 0.923-0.923v-8zM17.846 9.538c0-0.492-0.431-0.923-0.923-0.923h-7.385c-0.492 0-0.923 0.431-0.923 0.923v1.846c0 0.492 0.431 0.923 0.923 0.923h7.385c0.492 0 0.923-0.431 0.923-0.923v-1.846zM29.538 9.538c0-0.492-0.431-0.923-0.923-0.923h-7.385c-0.492 0-0.923 0.431-0.923 0.923v1.846c0 0.492 0.431 0.923 0.923 0.923h7.385c0.492 0 0.923-0.431 0.923-0.923v-1.846zM17.846 15.692c0-0.492-0.431-0.923-0.923-0.923h-7.385c-0.492 0-0.923 0.431-0.923 0.923v1.846c0 0.492 0.431 0.923 0.923 0.923h7.385c0.492 0 0.923-0.431 0.923-0.923v-1.846zM29.538 15.692c0-0.492-0.431-0.923-0.923-0.923h-7.385c-0.492 0-0.923 0.431-0.923 0.923v1.846c0 0.492 0.431 0.923 0.923 0.923h7.385c0.492 0 0.923-0.431 0.923-0.923v-1.846zM17.846 21.846c0-0.492-0.431-0.923-0.923-0.923h-7.385c-0.492 0-0.923 0.431-0.923 0.923v1.846c0 0.492 0.431 0.923 0.923 0.923h7.385c0.492 0 0.923-0.431 0.923-0.923v-1.846zM29.538 21.846c0-0.492-0.431-0.923-0.923-0.923h-7.385c-0.492 0-0.923 0.431-0.923 0.923v1.846c0 0.492 0.431 0.923 0.923 0.923h7.385c0.492 0 0.923-0.431 0.923-0.923v-1.846zM17.846 28c0-0.492-0.431-0.923-0.923-0.923h-7.385c-0.492 0-0.923 0.431-0.923 0.923v1.846c0 0.492 0.431 0.923 0.923 0.923h7.385c0.492 0 0.923-0.431 0.923-0.923v-1.846zM29.538 28c0-0.492-0.431-0.923-0.923-0.923h-7.385c-0.492 0-0.923 0.431-0.923 0.923v1.846c0 0.492 0.431 0.923 0.923 0.923h7.385c0.492 0 0.923-0.431 0.923-0.923v-1.846z"></path>
</svg>
