<!-- Generated by IcoMoon.io -->
<svg version="1.1" xmlns="http://www.w3.org/2000/svg" width="32" height="32" viewBox="0 0 32 32">
<title>merge-field</title>
<path d="M10.154 24.554h-0.431c-1.415 0-1.969-0.8-1.969-2.154 0-0.615 0.062-1.169 0.185-1.785s0.185-1.231 0.185-1.908c0-1.6-0.677-2.462-1.785-2.708 1.108-0.308 1.785-1.108 1.785-2.708 0-0.677-0.062-1.292-0.185-1.908s-0.185-1.169-0.185-1.785c0-1.354 0.492-2.154 1.969-2.154h0.431c0.369 0 0.677-0.308 0.677-0.677s-0.308-0.677-0.677-0.677h-2.338c-2.092 0-3.631 0.985-3.631 3.262 0 0.677 0.123 1.354 0.185 2.092 0.123 0.677 0.185 1.415 0.185 2.092 0 0.8-0.185 1.662-1.538 1.785h-0.062c-0.369 0-0.677 0.308-0.677 0.677s0.308 0.615 0.677 0.677h0.123c1.354 0.185 1.538 1.108 1.538 1.785s-0.123 1.354-0.185 2.031-0.185 1.354-0.185 2.031c0 2.523 1.538 3.385 3.631 3.385h2.338c0.369 0 0.677-0.308 0.677-0.677-0.062-0.369-0.369-0.677-0.738-0.677zM21.846 24.554h0.431c1.415 0 1.969-0.8 1.969-2.154 0-0.615-0.062-1.169-0.185-1.785s-0.185-1.231-0.185-1.908c0-1.6 0.677-2.462 1.785-2.708-1.108-0.308-1.785-1.108-1.785-2.708 0-0.677 0.062-1.292 0.185-1.908s0.185-1.169 0.185-1.785c0-1.354-0.492-2.154-1.969-2.154h-0.431c-0.369 0-0.677-0.308-0.677-0.677s0.308-0.677 0.677-0.677h2.338c2.092 0 3.631 0.985 3.631 3.262 0 0.677-0.123 1.354-0.185 2.092-0.123 0.677-0.185 1.415-0.185 2.092 0 0.8 0.185 1.662 1.538 1.785h0.062c0.369 0 0.677 0.308 0.677 0.677s-0.308 0.615-0.677 0.677h-0.123c-1.354 0.185-1.538 1.108-1.538 1.785s0.123 1.354 0.185 2.031 0.185 1.354 0.185 2.031c0 2.523-1.538 3.385-3.631 3.385h-2.338c-0.369 0-0.677-0.308-0.677-0.677 0.062-0.369 0.369-0.677 0.738-0.677z"></path>
</svg>
