<!-- Generated by IcoMoon.io -->
<svg version="1.1" xmlns="http://www.w3.org/2000/svg" width="32" height="32" viewBox="0 0 32 32">
<title>moneybag</title>
<path d="M12.615 5.6c0.123 0.369 0.492 0.554 0.862 0.554h4.985c0.369 0 0.738-0.185 0.862-0.554l1.969-3.631c0.123-0.369-0.123-0.738-0.492-0.738h-9.6c-0.369 0-0.615 0.369-0.431 0.677l1.846 3.692zM18.892 9.046h-5.785c-4.862 0-8.8 4-8.8 8.923v9.846c0 1.6 1.292 2.954 2.954 2.954h17.477c1.6 0 2.954-1.354 2.954-2.954v-9.846c0-4.923-4-8.923-8.8-8.923zM17.477 25.662v1.662c0 0.308-0.308 0.492-0.615 0.492h-1.969c-0.308 0-0.369-0.185-0.369-0.492v-1.6c-1.477-0.308-2.708-0.923-3.015-1.231-0.369-0.369-0.492-0.677-0.185-1.108l0.615-0.985c0.123-0.246 0.431-0.369 0.738-0.369 0.185 0 0.369 0.062 0.492 0.123h0.062c0.985 0.615 1.846 0.862 2.462 0.862 0.677 0 1.231-0.369 1.231-0.738 0-0.308-0.185-0.8-2.031-1.415-1.662-0.615-3.692-1.6-3.692-3.877 0-1.354 0.862-2.892 3.323-3.385v-1.477c0-0.308 0.123-0.492 0.369-0.492h1.969c0.308 0 0.615 0.185 0.615 0.492v1.415c0.985 0.246 2.031 0.738 2.4 0.985 0.185 0.123 0.308 0.369 0.369 0.615s-0.062 0.492-0.185 0.615l-0.862 0.862c-0.185 0.246-0.554 0.431-0.8 0.431-0.123 0-0.308-0.062-0.431-0.123-0.985-0.554-1.785-0.862-2.338-0.862-0.8 0-1.169 0.369-1.169 0.615 0 0.369 0.185 0.738 1.846 1.354 2.031 0.677 4.308 1.785 4.308 4.123 0.062 1.6-1.231 3.015-3.138 3.508z"></path>
</svg>
