<!-- Generated by IcoMoon.io -->
<svg version="1.1" xmlns="http://www.w3.org/2000/svg" width="32" height="32" viewBox="0 0 32 32">
<title>monthly-view</title>
<path d="M27.077 4.308h-3.077v-1.231c0-0.985-0.8-1.846-1.846-1.846-0.985 0-1.846 0.8-1.846 1.846v1.231h-8.615v-1.231c0-0.985-0.8-1.846-1.846-1.846-0.985 0-1.846 0.8-1.846 1.846v1.231h-3.077c-1.354 0-2.462 1.108-2.462 2.462v1.538c0 0.492 0.431 0.923 0.923 0.923h25.231c0.492 0 0.923-0.431 0.923-0.923v-1.538c0-1.354-1.108-2.462-2.462-2.462zM28.615 12.308h-25.231c-0.492 0-0.923 0.431-0.923 0.923v15.077c0 1.354 1.108 2.462 2.462 2.462h22.154c1.354 0 2.462-1.108 2.462-2.462v-15.077c0-0.492-0.431-0.923-0.923-0.923zM12.985 27.077c-1.477 0-3.138-0.554-3.631-1.354-0.062-0.123-0.123-0.246-0.123-0.431 0-0.554 0.492-0.985 0.985-0.985 0.185 0 0.369 0.062 0.554 0.123 0.677 0.369 1.477 0.615 2.154 0.615 1.231 0 1.908-0.554 1.908-1.292 0-0.8-0.615-1.169-2.031-1.169-0.8 0.123-1.354-0.246-1.354-0.985 0-0.554 0.369-0.923 0.985-0.923 1.292 0.062 2.215-0.246 2.215-1.108 0-0.8-0.8-1.169-1.846-1.169-0.677 0-1.354 0.185-1.969 0.554-0.123 0.123-0.308 0.123-0.492 0.123-0.492 0-0.923-0.369-0.923-0.923 0-0.246 0.123-0.492 0.308-0.677 0.8-0.677 1.908-1.108 3.323-1.108 2.338 0 3.815 1.046 3.815 2.769 0 1.292-1.108 2.092-2.215 2.338 1.046 0.123 2.338 0.923 2.338 2.4-0.062 1.969-1.6 3.2-4 3.2zM22.769 25.908c0 0.554-0.308 1.169-0.923 1.169-0.554 0-0.923-0.554-0.923-1.169v-6.338l-1.292 1.169c-0.185 0.185-0.431 0.246-0.677 0.246-0.492 0-0.923-0.369-0.923-0.923 0-0.246 0.062-0.431 0.246-0.615l2.338-2.338c0.246-0.246 0.554-0.431 0.923-0.431 0.677 0 1.231 0.615 1.231 1.292v7.938z"></path>
</svg>
