<!-- Generated by IcoMoon.io -->
<svg version="1.1" xmlns="http://www.w3.org/2000/svg" width="32" height="32" viewBox="0 0 32 32">
<title>multi-select-checkbox</title>
<path d="M27.077 1.538h-15.385c-1.6 0-2.892 1.292-2.892 2.892v0.492c0 0.308 0.185 0.492 0.492 0.492h13.969c1.6 0 2.892 1.292 2.892 2.892v14.954c0 0.308 0.185 0.492 0.492 0.492h0.431c1.6 0 2.892-1.292 2.892-2.892v-16.431c0-1.6-1.292-2.892-2.892-2.892z"></path>
<path d="M20.308 8.308h-15.385c-1.6 0-2.892 1.292-2.892 2.892v16.369c0 1.6 1.292 2.892 2.892 2.892h15.385c1.6 0 2.892-1.292 2.892-2.892v-16.369c0.062-1.6-1.292-2.892-2.892-2.892zM19.077 16.492l-7.385 7.385c-0.308 0.308-0.615 0.431-0.985 0.431-0.308 0-0.738-0.123-0.985-0.431l-3.569-3.569c-0.308-0.308-0.308-0.738 0-0.985l0.985-0.985c0.308-0.308 0.738-0.308 0.985 0l2.585 2.585 6.338-6.338c0.308-0.308 0.738-0.308 0.985 0l0.985 0.985c0.308 0.185 0.308 0.677 0.062 0.923z"></path>
</svg>
