<!-- Generated by IcoMoon.io -->
<svg version="1.1" xmlns="http://www.w3.org/2000/svg" width="32" height="32" viewBox="0 0 32 32">
<title>muted</title>
<path d="M29.846 3.446l-1.292-1.292c-0.369-0.369-1.046-0.308-1.477 0.185l-6.154 6.154v-2.4c0-2.708-2.154-4.862-4.862-4.862h-0.123c-2.708 0-4.862 2.154-4.862 4.862v8.923c0 0.923 0.246 1.846 0.738 2.585l-2.154 2.154c-1.046-1.292-1.662-2.954-1.662-4.738v-2.462c0-0.862-0.677-1.477-1.538-1.477s-1.538 0.615-1.538 1.477v2.462c0 2.646 0.985 5.046 2.585 6.892l-5.169 5.169c-0.431 0.431-0.492 1.108-0.185 1.477l1.292 1.292c0.369 0.369 1.046 0.308 1.477-0.185l24.738-24.738c0.492-0.431 0.554-1.108 0.185-1.477zM24 14.277v0.738c0 4.308-3.569 7.877-8 7.877h-0.554l-2.4 2.523c0.492 0.123 1.108 0.246 1.723 0.369v1.908h-2.769c-0.862 0-1.538 0.677-1.538 1.538s0.677 1.538 1.538 1.538h8.062c0.862 0 1.538-0.677 1.538-1.538s-0.738-1.538-1.6-1.538h-2.769v-1.969c5.538-0.738 9.846-5.292 9.846-10.708v-2.462c0-0.369-0.185-0.738-0.369-0.985l-2.708 2.708z"></path>
</svg>
