<!-- Generated by IcoMoon.io -->
<svg version="1.1" xmlns="http://www.w3.org/2000/svg" width="32" height="32" viewBox="0 0 32 32">
<title>new-window</title>
<path d="M29.969 1.231h-11.754c-0.492 0-0.985 0.308-0.985 0.8v1.846c0 0.492 0.431 1.046 0.985 1.046h4.862c0.554 0 0.862 0.615 0.431 0.985l-10.462 10.462c-0.369 0.369-0.369 0.923 0 1.292l1.292 1.292c0.369 0.369 0.923 0.369 1.292 0l10.462-10.462c0.369-0.369 0.985-0.123 0.985 0.431v4.862c0 0.492 0.492 1.046 0.985 1.046h1.785c0.492 0 0.923-0.554 0.923-1.046v-11.692c0-0.554-0.308-0.862-0.8-0.862z"></path>
<path d="M22.338 15.692l-2.092 2.154c-0.369 0.369-0.554 0.8-0.554 1.292v7.015c0 0.492-0.431 0.923-0.923 0.923h-12.923c-0.492 0-0.923-0.431-0.923-0.923v-12.923c0-0.492 0.431-0.923 0.923-0.923h7.077c0.492 0 0.985-0.185 1.292-0.554l2.092-2.092c0.369-0.369 0.123-1.046-0.431-1.046h-12.185c-1.354 0-2.462 1.108-2.462 2.462v17.231c0 1.354 1.108 2.462 2.462 2.462h17.231c1.354 0 2.462-1.108 2.462-2.462v-12.185c0-0.554-0.677-0.8-1.046-0.431z"></path>
</svg>
