<!-- Generated by IcoMoon.io -->
<svg version="1.1" xmlns="http://www.w3.org/2000/svg" width="32" height="32" viewBox="0 0 32 32">
<title>new-direct-message</title>
<path d="M28 10.462l-2.092 2.154c-0.369 0.369-0.554 0.8-0.554 1.292v10.708c0 0.492-0.431 0.923-0.923 0.923h-16.615c-0.492 0-0.923-0.431-0.923-0.923v-16.615c0-0.492 0.431-0.923 0.923-0.923h10.769c0.492 0 0.985-0.185 1.292-0.554l2.092-2.092c0.369-0.369 0.123-1.046-0.431-1.046h-15.877c-1.354 0-2.462 1.108-2.462 2.462v20.923c0 1.354 1.108 2.462 2.462 2.462h20.923c1.354 0 2.462-1.108 2.462-2.462v-15.877c0-0.554-0.677-0.8-1.046-0.431z"></path>
<path d="M11.631 18.892l2.277 2.277c0.123 0.123 0.246 0.123 0.369 0l11.938-12.246c0.123-0.123 0.123-0.246 0-0.369l-2.215-2.215c-0.123-0.123-0.246-0.123-0.369 0l-12 12.185c-0.123 0.123-0.123 0.246 0 0.369zM24.677 5.292c-0.123 0.123-0.123 0.246 0 0.369l2.215 2.215c0.123 0.123 0.246 0.123 0.369 0l1.538-1.538c0.431-0.369 0.431-0.985 0-1.415l-1.108-1.108c-0.431-0.431-1.046-0.431-1.477 0-0.062 0-1.538 1.477-1.538 1.477zM9.6 22.708c-0.062 0.246 0.185 0.492 0.431 0.431 0.369-0.123 0.8-0.185 1.169-0.308 0.308-0.062 0.615-0.123 0.923-0.246 0.308-0.062 0.615-0.123 0.862-0.246 0.123-0.062 0.369-0.308 0.185-0.492l-2.338-2.338c-0.185-0.185-0.369 0-0.431 0.123-0.185 0.246-0.246 0.615-0.308 0.862-0.062 0.308-0.185 0.615-0.246 0.923-0.062 0.554-0.123 0.923-0.246 1.292z"></path>
</svg>
