<!-- Generated by IcoMoon.io -->
<svg version="1.1" xmlns="http://www.w3.org/2000/svg" width="32" height="32" viewBox="0 0 32 32">
<title>new</title>
<path d="M26.462 5.538c-5.785-5.723-15.138-5.723-20.923 0-5.723 5.785-5.723 15.138 0 20.923 5.785 5.785 15.138 5.785 20.862 0 5.785-5.785 5.785-15.138 0.062-20.923zM25.846 17.231c0 0.369-0.246 0.615-0.615 0.615h-6.769c-0.308 0-0.615 0.308-0.615 0.615v6.769c0 0.308-0.308 0.615-0.615 0.615h-2.462c-0.369 0-0.615-0.246-0.615-0.615v-6.769c0-0.369-0.246-0.615-0.615-0.615h-6.769c-0.369 0-0.615-0.246-0.615-0.615v-2.462c0-0.308 0.308-0.615 0.615-0.615h6.769c0.369 0 0.615-0.246 0.615-0.615v-6.769c0-0.308 0.308-0.615 0.615-0.615h2.462c0.308 0 0.615 0.246 0.615 0.615v6.769c0 0.369 0.246 0.615 0.615 0.615h6.769c0.308 0 0.615 0.308 0.615 0.615v2.462z"></path>
</svg>
