<!-- Generated by IcoMoon.io -->
<svg version="1.1" xmlns="http://www.w3.org/2000/svg" width="32" height="32" viewBox="0 0 32 32">
<title>news</title>
<path d="M31.077 3.692h-25.231c-0.492 0-0.923 0.431-0.923 0.923v18.769c0 0.738-0.677 1.354-1.415 1.231-0.615-0.123-1.046-0.677-1.046-1.292v-13.477c0-0.369-0.246-0.615-0.615-0.615h-0.923c-0.492 0-0.923 0.431-0.923 0.923v15.692c0 1.354 1.108 2.462 2.462 2.462h27.077c1.354 0 2.462-1.108 2.462-2.462v-21.231c0-0.492-0.431-0.923-0.923-0.923zM17.231 21.538c0 0.369-0.246 0.615-0.615 0.615h-7.385c-0.369 0-0.615-0.246-0.615-0.615v-1.231c0-0.369 0.246-0.615 0.615-0.615h7.385c0.369 0 0.615 0.246 0.615 0.615v1.231zM17.231 16.615c0 0.369-0.246 0.615-0.615 0.615h-7.385c-0.369 0-0.615-0.246-0.615-0.615v-1.231c0-0.369 0.246-0.615 0.615-0.615h7.385c0.369 0 0.615 0.246 0.615 0.615v1.231zM28.308 21.538c0 0.369-0.246 0.615-0.615 0.615h-7.385c-0.369 0-0.615-0.246-0.615-0.615v-1.231c0-0.369 0.246-0.615 0.615-0.615h7.385c0.369 0 0.615 0.246 0.615 0.615v1.231zM28.308 16.615c0 0.369-0.246 0.615-0.615 0.615h-7.385c-0.369 0-0.615-0.246-0.615-0.615v-1.231c0-0.369 0.246-0.615 0.615-0.615h7.385c0.369 0 0.615 0.246 0.615 0.615v1.231zM28.308 11.692c0 0.369-0.246 0.615-0.615 0.615h-18.462c-0.369 0-0.615-0.246-0.615-0.615v-3.692c0-0.369 0.246-0.615 0.615-0.615h18.462c0.369 0 0.615 0.246 0.615 0.615v3.692z"></path>
</svg>
