<!-- Generated by IcoMoon.io -->
<svg version="1.1" xmlns="http://www.w3.org/2000/svg" width="32" height="32" viewBox="0 0 32 32">
<title>notebook</title>
<path d="M27.077 1.231h-18.462c-1.354 0-2.462 1.108-2.462 2.462v1.846h-1.846c-1.046 0-1.846 0.8-1.846 1.846s0.8 1.846 1.846 1.846h1.846v4.923h-1.846c-1.046 0-1.846 0.8-1.846 1.846s0.8 1.846 1.846 1.846h1.846v4.923h-1.846c-1.046 0-1.846 0.8-1.846 1.846s0.8 1.846 1.846 1.846h1.846v1.846c0 1.354 1.108 2.462 2.462 2.462h18.462c1.354 0 2.462-1.108 2.462-2.462v-24.615c0-1.354-1.108-2.462-2.462-2.462zM22.769 22.154c0 0.369-0.246 0.615-0.615 0.615h-8.615c-0.369 0-0.615-0.246-0.615-0.615v-1.231c0-0.369 0.246-0.615 0.615-0.615h8.615c0.369 0 0.615 0.246 0.615 0.615v1.231zM24 17.231c0 0.369-0.246 0.615-0.615 0.615h-11.077c-0.369 0-0.615-0.246-0.615-0.615v-1.231c0-0.369 0.246-0.615 0.615-0.615h11.077c0.369 0 0.615 0.246 0.615 0.615v1.231zM25.231 11.077c0 0.369-0.246 0.615-0.615 0.615h-13.538c-0.369 0-0.615-0.246-0.615-0.615v-3.692c0-0.369 0.246-0.615 0.615-0.615h13.538c0.369 0 0.615 0.246 0.615 0.615v3.692z"></path>
</svg>
