<!-- Generated by IcoMoon.io -->
<svg version="1.1" xmlns="http://www.w3.org/2000/svg" width="32" height="32" viewBox="0 0 32 32">
<title>note</title>
<path d="M25.477 24.431l-0.554 0.554c-0.615 0.615-1.415 0.923-2.277 0.923h-1.6c-1.477 0-3.077-1.169-3.077-3.2v-1.538c0-1.231 0.554-1.969 0.862-2.4l6.646-6.769c0.185-0.185 0.369-0.615 0.369-0.862v-5.108c0-1.6-1.354-2.954-2.954-2.954h-15.754c-1.6 0-2.954 1.477-2.954 2.954h-0.985c-1.108 0-1.969 0.923-1.969 2.031s0.862 1.969 1.969 1.969h0.985v4h-0.985c-1.108 0-1.969 0.862-1.969 1.969s0.862 1.969 1.969 1.969h0.985v4h-0.985c-1.108 0-1.969 0.923-1.969 1.969 0 1.108 0.862 1.969 1.969 1.969h0.985c0 1.969 1.354 2.954 2.954 2.954h15.754c1.6 0 2.954-1.354 2.954-2.954v-1.292c0-0.308-0.123-0.369-0.369-0.185zM20.431 10.523c0 0.554-0.431 0.985-0.985 0.985h-9.846c-0.554 0-0.985-0.431-0.985-0.985v-0.985c0-0.554 0.431-0.985 0.985-0.985h9.846c0.554 0 0.985 0.431 0.985 0.985v0.985zM16 22.462c0 0.554-0.431 0.985-0.985 0.985h-5.415c-0.554 0-0.985-0.431-0.985-0.985v-0.985c0-0.554 0.431-0.985 0.985-0.985h5.415c0.554 0 0.985 0.431 0.985 0.985v0.985zM17.477 16.492c0 0.554-0.431 0.985-0.985 0.985h-6.892c-0.554 0-0.985-0.431-0.985-0.985v-0.985c0-0.554 0.431-0.985 0.985-0.985h6.892c0.554 0 0.985 0.431 0.985 0.985v0.985z"></path>
<path d="M30.462 13.785l-0.615-0.615c-0.369-0.369-0.985-0.369-1.354 0l-7.508 7.754c-0.062 0-0.062 0.123-0.062 0.123v1.662c0 0.123 0 0.246 0.123 0.246h1.6c0.062 0 0.123-0.062 0.185-0.062l7.569-7.631c0.492-0.431 0.492-1.046 0.062-1.477z"></path>
</svg>
