<!-- Generated by IcoMoon.io -->
<svg version="1.1" xmlns="http://www.w3.org/2000/svg" width="32" height="32" viewBox="0 0 32 32">
<title>offline-cached</title>
<path d="M23.754 12.554c-0.615-4-4.123-7.077-8.308-7.077-4.677 0-8.431 3.754-8.431 8.431 0 0.185 0 0.431 0.062 0.615-3.077 0.246-5.477 2.831-5.477 5.908 0 3.323 2.646 5.969 5.969 5.969h7.077l-4.985-4.985c-0.246-0.246-0.246-0.554 0-0.8l0.8-0.8c0.246-0.246 0.554-0.246 0.8 0l2.154 2.154c0.246 0.246 0.677 0.062 0.677-0.246v-8.308c0-0.246 0.308-0.554 0.615-0.554h1.169c0.308 0 0.554 0.246 0.554 0.554v8.246c0 0.369 0.492 0.492 0.677 0.246l2.154-2.154c0.246-0.246 0.554-0.246 0.8 0l0.8 0.8c0.246 0.246 0.246 0.554 0 0.8l-4.862 5.046h7.569c3.754-0.062 6.769-3.138 6.769-6.954 0.062-3.754-2.892-6.769-6.585-6.892z"></path>
</svg>
