<!-- Generated by IcoMoon.io -->
<svg version="1.1" xmlns="http://www.w3.org/2000/svg" width="32" height="32" viewBox="0 0 32 32">
<title>omni-channel</title>
<path d="M29.046 1.662h-7.754c-0.492 0-0.677 0.431-0.246 0.862l2.769 2.769-4.615 4.554c-0.369 0.369-0.369 0.985-0.062 1.354 0 0 3.138 3.2 2.831 6.831 0 5.169-3.754 9.292-8.923 9.292-3.815 0.369-6.831-3.138-6.831-3.138-0.369-0.369-0.923-0.369-1.292 0l-2.277 2.277c-0.369 0.369-0.369 0.923 0 1.292l0.738 0.738c0.369 0.369 0.923 0.369 1.292 0l0.862-0.8c2.092 1.662 4.738 2.585 7.569 2.585 6.769 0 12.246-5.477 12.246-12.246 0-2.831-0.985-5.477-2.585-7.569l3.138-3.138 2.892 2.892c0.369 0.431 0.862 0.246 0.862-0.246v-7.754c-0.062-0.308-0.308-0.554-0.615-0.554z"></path>
<path d="M19.077 18.154c0 3.365-2.728 6.092-6.092 6.092s-6.092-2.728-6.092-6.092c0-3.365 2.728-6.092 6.092-6.092s6.092 2.728 6.092 6.092z"></path>
</svg>
