<!-- Generated by IcoMoon.io -->
<svg version="1.1" xmlns="http://www.w3.org/2000/svg" width="32" height="32" viewBox="0 0 32 32">
<title>opened-folder</title>
<path d="M27.077 9.231c0-1.354-1.108-2.462-2.462-2.462h-9.046c-1.108 0-2.154-1.231-2.154-1.231l-1.538-1.846s-0.738-1.231-2.154-1.231h-2.338c-1.354 0-2.462 1.108-2.462 2.462v5.538h22.154v-1.231zM28.862 12.923h-25.723c-1.231 0-2.154 1.169-1.846 2.338l3.508 12.923c0.246 0.8 0.985 1.354 1.846 1.354h18.769c0.862 0 1.662-0.554 1.846-1.354l3.508-12.923c0.246-1.169-0.677-2.338-1.908-2.338z"></path>
</svg>
