<!-- Generated by IcoMoon.io -->
<svg version="1.1" xmlns="http://www.w3.org/2000/svg" width="32" height="32" viewBox="0 0 32 32">
<title>open</title>
<path d="M4.923 21.538v0z"></path>
<path d="M28.308 1.231h-24.615c-1.354 0-2.462 1.108-2.462 2.462v22.154c0 1.354 1.108 2.462 2.462 2.462h7.385c0.369 0 0.615-0.246 0.615-0.615v-2.462c0-0.369-0.246-0.615-0.615-0.615h-5.231c-0.492 0-0.923-0.431-0.923-0.923v-15.385c0-0.492 0.431-0.923 0.923-0.923h20.308c0.492 0 0.923 0.431 0.923 0.923v15.385c0 0.492-0.431 0.923-0.923 0.923h-5.231c-0.369 0-0.615 0.246-0.615 0.615v2.462c0 0.369 0.246 0.615 0.615 0.615h7.385c1.354 0 2.462-1.108 2.462-2.462v-22.154c0-1.354-1.108-2.462-2.462-2.462z"></path>
<path d="M23.077 21.292l1.292-1.292c0.369-0.369 0.369-0.923 0-1.292l-7.754-7.754c-0.369-0.369-0.923-0.369-1.292 0l-7.692 7.692c-0.369 0.369-0.369 0.923 0 1.292l1.292 1.292c0.369 0.369 0.923 0.369 1.292 0l2.831-2.831c0.369-0.369 1.108-0.123 1.108 0.431v11.015c0 0.492 0.369 0.923 0.862 0.923h1.846c0.492 0 0.985-0.431 0.985-0.923v-11.015c0-0.554 0.615-0.8 1.046-0.431l2.831 2.892c0.369 0.308 0.985 0.308 1.354 0z"></path>
</svg>
