<!-- Generated by IcoMoon.io -->
<svg version="1.1" xmlns="http://www.w3.org/2000/svg" width="32" height="32" viewBox="0 0 32 32">
<title>overflow</title>
<path d="M22.954 6.092h-13.231c-1.292 0-2.277 1.046-2.277 2.277v0.369c0 0.185 0.185 0.369 0.369 0.369h12.062c1.292 0 2.277 1.046 2.277 2.277v13.6c0 0.185 0.185 0.369 0.369 0.369h0.369c1.292 0 2.277-1.046 2.277-2.277v-14.708c0.062-1.231-0.985-2.277-2.215-2.277z"></path>
<path d="M27.877 1.231h-13.231c-1.292 0-2.277 1.046-2.277 2.277v0.369c0 0.185 0.185 0.369 0.369 0.369h12.062c1.292 0 2.277 1.046 2.277 2.277v13.6c0 0.185 0.185 0.369 0.369 0.369h0.369c1.292 0 2.277-1.046 2.277-2.277v-14.708c0.062-1.231-0.985-2.277-2.215-2.277z"></path>
<path d="M20.062 13.415c0-1.231-1.046-2.277-2.277-2.277h-13.662c-1.292 0-2.277 1.046-2.277 2.277v15.077c0 1.231 1.046 2.277 2.277 2.277h13.662c1.292 0 2.277-1.046 2.277-2.277v-15.077z"></path>
</svg>
