<!-- Generated by IcoMoon.io -->
<svg version="1.1" xmlns="http://www.w3.org/2000/svg" width="32" height="32" viewBox="0 0 32 32">
<title>package</title>
<path d="M27.323 14.769h-4.862l-2.031 2.462h6.646v3.692h-22.154v-3.692h6.585l-2.031-2.462h-4.8c-1.231 0-2.215 0.985-2.215 2.215v11.938c0 1.046 0.8 1.846 1.846 1.846h23.385c1.046 0 1.846-0.8 1.846-1.846v-11.938c0-1.231-0.985-2.215-2.215-2.215z"></path>
<path d="M14.154 2.154v7.692h-4.246c-0.615 0-0.923 0.554-0.554 0.862l6.154 7.569c0.246 0.185 0.615 0.185 0.862 0l6.154-7.569c0.369-0.369 0.062-0.862-0.554-0.862h-4.123v-7.692c0-0.492-0.431-0.923-0.923-0.923h-1.846c-0.492 0-0.923 0.431-0.923 0.923z"></path>
</svg>
