<!-- Generated by IcoMoon.io -->
<svg version="1.1" xmlns="http://www.w3.org/2000/svg" width="32" height="32" viewBox="0 0 32 32">
<title>page</title>
<path d="M27.323 11.692h-6.892c-1.6 0-2.585-0.985-2.585-2.585v-6.892c0-0.554-0.431-0.985-0.985-0.985h-10.215c-1.6 0-2.954 1.354-2.954 2.954v23.631c0 1.6 1.354 2.954 2.954 2.954h18.708c1.6 0 2.954-1.354 2.954-2.954v-15.138c0-0.554-0.431-0.985-0.985-0.985z"></path>
<path d="M28.123 7.938l-6.523-6.523c-0.123-0.123-0.369-0.185-0.554-0.185-0.369 0-0.738 0.308-0.738 0.677v5.231c0 1.108 0.985 2.092 2.092 2.092h5.231c0.369 0 0.677-0.369 0.677-0.738 0-0.185-0.062-0.431-0.185-0.554z"></path>
</svg>
