<!-- Generated by IcoMoon.io -->
<svg version="1.1" xmlns="http://www.w3.org/2000/svg" width="32" height="32" viewBox="0 0 32 32">
<title>palette</title>
<path d="M30.462 10.646c-1.415-5.846-7.569-9.415-14.338-9.415-8.246 0-14.892 6.585-14.892 14.769s6.646 14.769 14.892 14.769c11.446 0 10.523-5.785 6.892-8.062-2.154-1.354-3.323-4.492-1.169-6.708 4-4.123 10.462 2.462 8.615-5.354zM8 20.923c-1.723 0-3.077-1.354-3.077-3.077s1.354-3.077 3.077-3.077 3.077 1.354 3.077 3.077-1.354 3.077-3.077 3.077zM8.615 9.231c0-1.723 1.354-3.077 3.077-3.077s3.077 1.354 3.077 3.077-1.354 3.077-3.077 3.077-3.077-1.354-3.077-3.077zM15.385 27.077c-1.723 0-3.077-1.354-3.077-3.077s1.354-3.077 3.077-3.077 3.077 1.354 3.077 3.077-1.354 3.077-3.077 3.077zM20.923 11.077c-1.723 0-3.077-1.354-3.077-3.077s1.354-3.077 3.077-3.077 3.077 1.354 3.077 3.077-1.354 3.077-3.077 3.077z"></path>
</svg>
