<!-- Generated by IcoMoon.io -->
<svg version="1.1" xmlns="http://www.w3.org/2000/svg" width="32" height="32" viewBox="0 0 32 32">
<title>password</title>
<path d="M27.569 30.462h-23.138c-1.6 0-2.892-1.292-2.892-2.892v-23.138c0-1.6 1.292-2.892 2.892-2.892h23.138c1.6 0 2.892 1.292 2.892 2.892v23.138c0 1.538-1.292 2.892-2.892 2.892zM5.477 6.338v19.262c0 0.554 0.431 0.985 0.985 0.985h19.2c0.554 0 0.985-0.431 0.985-0.985v-19.262c0-0.554-0.431-0.985-0.985-0.985h-19.262c-0.492 0.062-0.923 0.492-0.923 0.985z"></path>
<path d="M23.877 14.646l-0.554-1.846c-0.185-0.492-0.677-0.8-1.231-0.615l-4.185 1.354v-4.123c0-0.554-0.431-0.985-0.985-0.985h-1.908c-0.554 0-0.985 0.431-0.985 0.985v4.123l-4.062-1.354c-0.492-0.185-1.046 0.123-1.231 0.615l-0.554 1.846c-0.185 0.492 0.123 1.046 0.615 1.231l3.815 1.231-2.769 3.754c-0.308 0.431-0.185 1.046 0.246 1.354l1.6 1.108c0.431 0.308 1.046 0.185 1.354-0.246l3.015-4.185 3.015 4.185c0.308 0.431 0.923 0.554 1.354 0.246l1.6-1.108c0.431-0.308 0.554-0.923 0.246-1.354l-2.769-3.815 3.754-1.231c0.492-0.123 0.738-0.615 0.615-1.169z"></path>
</svg>
