<!-- Generated by IcoMoon.io -->
<svg version="1.1" xmlns="http://www.w3.org/2000/svg" width="32" height="32" viewBox="0 0 32 32">
<title>paste</title>
<path d="M10.769 7.385h10.462c0.492 0 0.923-0.431 0.923-0.923v-2.769c0-1.354-1.108-2.462-2.462-2.462h-7.385c-1.354 0-2.462 1.108-2.462 2.462v2.769c0 0.492 0.431 0.923 0.923 0.923z"></path>
<path d="M27.077 3.692h-1.538c-0.492 0-0.923 0.431-0.923 0.923v2.769c0 1.354-1.108 2.462-2.462 2.462h-12.308c-1.354 0-2.462-1.108-2.462-2.462v-2.769c0-0.492-0.431-0.923-0.923-0.923h-1.538c-1.354 0-2.462 1.108-2.462 2.462v22.154c0 1.354 1.108 2.462 2.462 2.462h22.154c1.354 0 2.462-1.108 2.462-2.462v-22.154c0-1.354-1.108-2.462-2.462-2.462zM23.385 25.231c0 0.369-0.246 0.615-0.615 0.615h-13.538c-0.369 0-0.615-0.246-0.615-0.615v-1.231c0-0.369 0.246-0.615 0.615-0.615h13.538c0.369 0 0.615 0.246 0.615 0.615v1.231zM23.385 20.308c0 0.369-0.246 0.615-0.615 0.615h-13.538c-0.369 0-0.615-0.246-0.615-0.615v-1.231c0-0.369 0.246-0.615 0.615-0.615h13.538c0.369 0 0.615 0.246 0.615 0.615v1.231zM23.385 15.385c0 0.369-0.246 0.615-0.615 0.615h-13.538c-0.369 0-0.615-0.246-0.615-0.615v-1.231c0-0.369 0.246-0.615 0.615-0.615h13.538c0.369 0 0.615 0.246 0.615 0.615v1.231z"></path>
</svg>
