<!-- Generated by IcoMoon.io -->
<svg version="1.1" xmlns="http://www.w3.org/2000/svg" width="32" height="32" viewBox="0 0 32 32">
<title>phone-landscape</title>
<path d="M32 8c0-1.354-1.108-2.462-2.462-2.462h-27.077c-1.354 0-2.462 1.108-2.462 2.462v16c0 1.354 1.108 2.462 2.462 2.462h27.077c1.354 0 2.462-1.108 2.462-2.462v-16zM3.077 17.846c-1.046 0-1.846-0.8-1.846-1.846s0.8-1.846 1.846-1.846 1.846 0.8 1.846 1.846-0.8 1.846-1.846 1.846zM27.077 21.846c0 0.492-0.431 0.923-0.923 0.923h-19.077c-0.492 0-0.923-0.431-0.923-0.923v-11.692c0-0.492 0.431-0.923 0.923-0.923h19.077c0.492 0 0.923 0.431 0.923 0.923v11.692z"></path>
</svg>
