<!-- Generated by IcoMoon.io -->
<svg version="1.1" xmlns="http://www.w3.org/2000/svg" width="32" height="32" viewBox="0 0 32 32">
<title>picklist</title>
<path d="M29.538 25.231c0.677 0 1.231-0.554 1.231-1.231v-16c0-0.677-0.554-1.231-1.231-1.231h-27.077c-0.677 0-1.231 0.554-1.231 1.231v16c0 0.677 0.554 1.231 1.231 1.231h27.077zM3.692 22.769v-13.538h24.615v13.538h-24.615z"></path>
<path d="M20 14.154h5.723c0.185 0 0.246 0.185 0.123 0.308l-2.831 3.262c-0.123 0.123-0.308 0.123-0.431 0l-2.831-3.262c-0.062-0.123 0.062-0.308 0.246-0.308z"></path>
</svg>
