<!-- Generated by IcoMoon.io -->
<svg version="1.1" xmlns="http://www.w3.org/2000/svg" width="32" height="32" viewBox="0 0 32 32">
<title>pin</title>
<path d="M30.462 9.477l-8.308-8.308c-0.862-0.862-2.215-0.862-3.077 0s-0.862 2.215 0 3.077l0.431 0.431-9.969 6.585-0.308-0.308c-0.862-0.862-2.215-0.862-3.077 0s-0.862 2.215 0 3.077l4.431 4.431-9.108 9.108c-0.862 0.862-0.862 2.277 0 3.138s2.277 0.862 3.138 0l9.108-9.169 3.877 3.877c0.862 0.862 2.215 0.862 3.077 0s0.862-2.215 0-3.077l-0.308-0.308 6.523-10.031 0.431 0.431c0.862 0.862 2.215 0.862 3.077 0 0.862-0.738 0.862-2.092 0.062-2.954z"></path>
</svg>
