<!-- Generated by IcoMoon.io -->
<svg version="1.1" xmlns="http://www.w3.org/2000/svg" width="32" height="32" viewBox="0 0 32 32">
<title>pinned</title>
<path d="M22.708 14.585h-0.308l-2.092-9.723h0.554c0.985 0 1.785-0.8 1.785-1.785s-0.8-1.785-1.785-1.785h-9.723c-0.985 0-1.785 0.8-1.785 1.785s0.8 1.785 1.785 1.785h0.554l-2.031 9.723h-0.308c-0.985 0-1.785 0.8-1.785 1.785s0.8 1.785 1.785 1.785h5.169v10.708c0 0.985 0.8 1.846 1.846 1.846s1.846-0.8 1.846-1.846v-10.646h4.554c0.985 0 1.785-0.8 1.785-1.785s-0.862-1.846-1.846-1.846z"></path>
</svg>
