<!-- Generated by IcoMoon.io -->
<svg version="1.1" xmlns="http://www.w3.org/2000/svg" width="32" height="32" viewBox="0 0 32 32">
<title>pop-in</title>
<path d="M13.538 19.262h11.754c0.492 0 0.985-0.308 0.985-0.8v-1.846c0-0.492-0.431-1.046-0.985-1.046h-4.862c-0.554 0-0.862-0.615-0.431-0.985l10.462-10.462c0.369-0.369 0.369-0.923 0-1.292l-1.292-1.292c-0.369-0.369-0.923-0.369-1.292 0l-10.462 10.462c-0.369 0.369-0.985 0.123-0.985-0.431v-4.862c0-0.492-0.492-1.046-0.985-1.046h-1.785c-0.492 0-0.923 0.554-0.923 1.046v11.692c0.062 0.554 0.308 0.8 0.8 0.862z"></path>
<path d="M22.769 21.723h-2.462c-0.369 0-0.615 0.246-0.615 0.615v3.815c0 0.492-0.431 0.923-0.923 0.923h-12.923c-0.492 0-0.923-0.431-0.923-0.923v-12.923c0-0.492 0.431-0.923 0.862-0.923h3.877c0.369 0 0.615-0.246 0.615-0.615v-2.462c0-0.369-0.246-0.615-0.615-0.615h-5.969c-1.354 0-2.462 1.108-2.462 2.462v17.231c0 1.354 1.108 2.462 2.462 2.462h17.231c1.354 0 2.462-1.108 2.462-2.462v-5.969c0-0.369-0.246-0.615-0.615-0.615z"></path>
</svg>
