<!-- Generated by IcoMoon.io -->
<svg version="1.1" xmlns="http://www.w3.org/2000/svg" width="32" height="32" viewBox="0 0 32 32">
<title>power</title>
<path d="M21.169 4.738c-0.431-0.185-0.862 0.123-0.862 0.554v2.338c0 0.431 0.246 0.862 0.615 1.046 3.262 1.846 5.354 5.538 4.862 9.662-0.492 4.492-4.123 8.185-8.677 8.677-5.908 0.677-10.954-4-10.954-9.785 0-3.631 1.969-6.831 4.923-8.554 0.369-0.185 0.615-0.615 0.615-1.046v-2.338c0-0.431-0.431-0.738-0.862-0.554-5.231 2.154-8.862 7.569-8.308 13.723 0.554 6.338 5.6 11.508 11.938 12.246 8.123 0.862 15.077-5.477 15.077-13.477 0-5.662-3.446-10.462-8.369-12.492z"></path>
<path d="M17.846 2.154c0-0.492-0.431-0.923-0.923-0.923h-1.846c-0.492 0-0.923 0.431-0.923 0.923v10.462c0 0.492 0.431 0.923 0.923 0.923h1.846c0.492 0 0.923-0.431 0.923-0.923v-10.462z"></path>
</svg>
