<!-- Generated by IcoMoon.io -->
<svg version="1.1" xmlns="http://www.w3.org/2000/svg" width="32" height="32" viewBox="0 0 32 32">
<title>privately-shared</title>
<path d="M21.908 24.308c-0.431-2.523-3.015-3.815-5.108-4.738-0.923-0.431-2.215-0.923-2.585-2.031-0.246-0.615-0.123-1.231 0.185-1.785 0.554-0.554 1.046-1.046 1.477-1.723 0.123-0.185 0.185-0.308 0.308-0.492 1.231-1.785 1.415-4.246 0.677-6.277-0.738-2.215-2.708-3.692-5.108-3.754h-0.369c-2.4 0.062-4.369 1.538-5.108 3.754-0.738 2.092-0.554 4.492 0.677 6.277 0.062 0.185 0.185 0.308 0.308 0.492 0.431 0.677 0.985 1.169 1.477 1.723 0.246 0.554 0.369 1.169 0.185 1.785-0.369 1.108-1.662 1.6-2.585 2.031-2.092 0.923-4.677 2.215-5.108 4.738-0.431 2.092 0.985 4.185 3.2 4.185h14.523c1.969 0 3.385-2.092 2.954-4.185zM25.415 6.092c2.523-0.123 4.554 1.846 4.554 4.369 0 0.185-0.123 0.246-0.246 0.246h-1.108c-0.185 0-0.246-0.062-0.246-0.246v0.062c0-1.477-1.108-2.708-2.523-2.831-1.6-0.123-2.892 1.169-2.892 2.708 0 0.185-0.123 0.246-0.246 0.246h-1.108c-0.123 0-0.246-0.123-0.246-0.246 0-2.215 1.785-4.185 4.062-4.308z"></path>
<path d="M29.969 11.815h-8.677c-0.615 0-1.108 0.492-1.108 1.108v5.169c0 0.615 0.492 1.108 1.108 1.108h8.677c0.615 0 1.108-0.492 1.108-1.108v-5.169c0-0.615-0.492-1.108-1.108-1.108zM26.892 17.169c0.062 0.185-0.062 0.369-0.246 0.369h-2.031c-0.185 0-0.308-0.185-0.246-0.369l0.492-1.6c-0.431-0.246-0.677-0.738-0.554-1.292 0.123-0.492 0.492-0.923 1.046-1.046 0.862-0.185 1.6 0.431 1.6 1.292 0 0.431-0.246 0.862-0.554 1.046l0.492 1.6z"></path>
</svg>
