<!-- Generated by IcoMoon.io -->
<svg version="1.1" xmlns="http://www.w3.org/2000/svg" width="32" height="32" viewBox="0 0 32 32">
<title>puzzle</title>
<path d="M27.692 23.631c-0.123 1.662-0.308 3.446-0.615 5.169-0.062 0.492-0.615 1.046-1.108 1.108-3.323 0.369-6.585 0.615-9.908 0.615-3.262 0-6.585-0.185-9.846-0.615-0.492-0.062-1.046-0.554-1.108-1.108-0.431-2.708-0.677-5.477-0.677-8.246s0.246-5.538 0.677-8.246c0.062-0.492 0.615-0.985 1.108-1.108 2.031-0.246 4-0.369 5.969-0.492 0 0 1.6-0.062 1.477-1.6-0.123-1.354-2.462-2.277-2.462-4.554 0-1.846 1.846-3.323 4.862-3.323 2.954 0 4.8 1.477 4.8 3.323 0 2.338-2.277 3.2-2.4 4.554-0.123 1.477 1.477 1.6 1.477 1.6 2.031 0.062 4.062 0.246 6.031 0.492 0.492 0.062 1.046 0.554 1.108 1.108 0.308 1.908 0.492 3.692 0.615 5.6 0 0.554-0.431 1.108-0.985 1.108h-0.554c-0.554 0-1.415-0.431-1.785-0.862 0 0-1.292-1.354-2.708-1.415-2.277-0.062-4 1.908-4 4.062s1.723 4.185 3.938 4.123c1.354-0.062 2.708-1.415 2.708-1.415 0.431-0.369 1.231-0.738 1.785-0.738h0.554c0.677 0 1.108 0.369 1.046 0.862z"></path>
</svg>
