<!-- Generated by IcoMoon.io -->
<svg version="1.1" xmlns="http://www.w3.org/2000/svg" width="32" height="32" viewBox="0 0 32 32">
<title>question-mark</title>
<path d="M16.431 26.338c0.492 0 0.923 0.431 0.923 0.923v1.969c0 0.492-0.431 0.923-0.923 0.923h-1.969c-0.492 0-0.923-0.431-0.923-0.923v-1.969c0-0.492 0.431-0.923 0.923-0.923h1.969zM17.354 21.6c0-1.292 0.8-2.462 1.908-2.954h0.062c3.2-1.292 5.415-4.431 5.415-8.123 0-4.8-3.938-8.738-8.738-8.738-4.431 0-8.123 3.262-8.738 7.508v0.062c-0.062 0.554 0.369 0.985 0.923 0.985h1.969c0.492 0 0.862-0.308 0.923-0.677v-0.123c0.431-2.277 2.462-4 4.862-4 2.769 0 4.985 2.215 4.985 4.985 0 1.292-0.492 2.462-1.292 3.385l-0.062 0.062c-0.554 0.615-1.292 0.985-2.031 1.231-2.462 0.862-4.123 3.2-4.123 5.785v0.923c0 0.492 0.369 0.862 0.862 0.862h1.969c0.492 0 0.985-0.369 0.985-0.923l0.123-0.246z"></path>
</svg>
