<!-- Generated by IcoMoon.io -->
<svg version="1.1" xmlns="http://www.w3.org/2000/svg" width="32" height="32" viewBox="0 0 32 32">
<title>quick-text</title>
<path d="M16.062 2.031c-8.369 0-15.138 6.215-15.138 13.846 0 2.4 0.677 4.677 1.846 6.708 0.185 0.308 0.246 0.677 0.123 1.046l-1.969 5.354c-0.185 0.492 0.308 0.923 0.8 0.8l5.415-2.092c0.308-0.123 0.677-0.062 1.046 0.123 2.277 1.292 4.985 2.031 7.938 2.031 8.308-0.062 15.077-6.215 15.077-13.908s-6.769-13.908-15.138-13.908zM9.046 15.385c0-0.308 0.246-0.615 0.615-0.615h9.785c0.308 0 0.615 0.246 0.615 0.615v1.231c0 0.308-0.246 0.615-0.615 0.615h-9.846c-0.308 0-0.615-0.246-0.615-0.615v-1.231zM23.138 21.292c0 0.308-0.246 0.615-0.615 0.615h-12.923c-0.308 0-0.615-0.246-0.615-0.615v-1.169c0-0.308 0.246-0.615 0.615-0.615h12.923c0.308 0 0.615 0.246 0.615 0.615v1.169zM23.138 11.877c0 0.308-0.246 0.615-0.615 0.615h-12.923c-0.308 0-0.615-0.246-0.615-0.615v-1.169c0-0.308 0.246-0.615 0.615-0.615h12.923c0.308 0 0.615 0.246 0.615 0.615v1.169z"></path>
</svg>
