<!-- Generated by IcoMoon.io -->
<svg version="1.1" xmlns="http://www.w3.org/2000/svg" width="32" height="32" viewBox="0 0 32 32">
<title>quip</title>
<path d="M15.077 1.292c-7.385 0.431-13.354 6.4-13.785 13.785-0.615 8.492 6.215 15.692 14.708 15.692h14.769v-14.769c0-8.492-7.2-15.323-15.692-14.708zM8.985 9.538c0-0.554 0.431-0.985 0.985-0.985h12.062c0.554 0 0.985 0.431 0.985 0.985v0.985c0 0.554-0.431 0.985-0.985 0.985h-12.123c-0.554 0-0.985-0.431-0.985-0.985 0.062 0.062 0.062-0.985 0.062-0.985zM23.015 22.338c0 0.554-0.431 0.985-0.985 0.985h-12.123c-0.554 0-0.985-0.431-0.985-0.985v-0.985c0-0.554 0.431-0.985 0.985-0.985h12.062c0.554 0 0.985 0.431 0.985 0.985v0.985h0.062zM26.708 16.492c0 0.554-0.431 0.985-0.985 0.985h-19.508c-0.554 0-0.985-0.431-0.985-0.985v-0.985c0-0.554 0.431-0.985 0.985-0.985h19.508c0.554 0 0.985 0.431 0.985 0.985v0.985z"></path>
</svg>
