<!-- Generated by IcoMoon.io -->
<svg version="1.1" xmlns="http://www.w3.org/2000/svg" width="32" height="32" viewBox="0 0 32 32">
<title>radio-button</title>
<path d="M8.062 17.538c-3.631 0-6.523 2.892-6.523 6.462s2.892 6.523 6.523 6.523c3.569 0 6.523-2.892 6.523-6.523-0.062-3.569-2.954-6.462-6.523-6.462zM8.062 27.631c-1.969 0-3.631-1.6-3.631-3.631s1.6-3.631 3.631-3.631 3.631 1.6 3.631 3.631-1.662 3.631-3.631 3.631zM23.938 17.538c-3.569 0-6.523 2.892-6.523 6.523 0 3.569 2.892 6.523 6.523 6.523 3.569 0 6.523-2.892 6.523-6.523s-2.892-6.523-6.523-6.523zM8.062 1.538c-3.631 0-6.523 2.892-6.523 6.523 0 3.569 2.892 6.523 6.523 6.523 3.569 0 6.523-2.892 6.523-6.523-0.062-3.631-2.954-6.523-6.523-6.523zM8.062 11.631c-1.969 0-3.631-1.6-3.631-3.631s1.6-3.631 3.631-3.631 3.631 1.6 3.631 3.631-1.662 3.631-3.631 3.631zM23.938 1.538c-3.569 0-6.523 2.892-6.523 6.523 0 3.569 2.892 6.523 6.523 6.523 3.569 0 6.523-2.892 6.523-6.523s-2.892-6.523-6.523-6.523z"></path>
</svg>
