<!-- Generated by IcoMoon.io -->
<svg version="1.1" xmlns="http://www.w3.org/2000/svg" width="32" height="32" viewBox="0 0 32 32">
<title>reassign</title>
<path d="M14.277 6.277c-3.138-3.138-8.123-4.123-12.492-2.769-0.185 0-0.431 0.308-0.431 0.8v2.4c0 0.492 0.431 0.615 0.677 0.554 3.323-1.354 7.385-0.738 10.031 2.031l0.677 0.677c0.369 0.369 0.062 1.046-0.431 1.046h-4.8c-0.492 0-0.923 0.369-0.923 0.923v1.846c0 0.492 0.369 0.923 0.923 0.923l11.815 0.123c0.492 0 0.923-0.369 0.923-0.923l0.062-11.754c0-0.492-0.369-0.923-0.923-0.923h-1.846c-0.492 0-0.985 0.369-0.985 0.862l-0.062 4.862c0 0.492-0.677 0.8-1.046 0.431 0.062 0.062-1.169-1.108-1.169-1.108z"></path>
<path d="M2.154 17.108h1.846c0.492 0 0.923 0.431 0.923 0.923v8.123c0 0.492 0.431 0.923 0.923 0.923h20.308c0.492 0 0.923-0.431 0.923-0.923v-15.754c0-0.492-0.431-0.923-0.923-0.923h-2.462c-0.492 0-0.923-0.431-0.923-0.923v-1.846c0-0.492 0.431-0.923 0.923-0.923h4.615c1.354 0 2.462 1.108 2.462 2.462v20.062c0 1.354-1.108 2.462-2.462 2.462h-24.615c-1.354 0-2.462-1.108-2.462-2.462v-10.277c0-0.492 0.431-0.923 0.923-0.923z"></path>
</svg>
