<!-- Generated by IcoMoon.io -->
<svg version="1.1" xmlns="http://www.w3.org/2000/svg" width="32" height="32" viewBox="0 0 32 32">
<title>record-delete</title>
<path d="M10.585 7.138h10.831c0.554 0 0.985-0.431 0.985-0.985v-1.969c0-1.6-1.354-2.954-2.954-2.954h-6.892c-1.6 0-2.954 1.354-2.954 2.954v1.969c0 0.554 0.431 0.985 0.985 0.985z"></path>
<path d="M26.831 3.692h-0.985c-0.308 0-0.492 0.185-0.492 0.492v1.969c0 2.154-1.785 3.938-3.938 3.938h-10.831c-2.154 0-3.938-1.785-3.938-3.938v-1.969c0-0.308-0.185-0.492-0.492-0.492h-0.985c-1.6 0-2.954 1.354-2.954 2.954v21.169c0 1.6 1.354 2.954 2.954 2.954h21.662c1.6 0 2.954-1.354 2.954-2.954v-21.169c0-1.6-1.354-2.954-2.954-2.954zM21.108 26.092c0 0.862-0.677 1.477-1.477 1.477h-7.262c-0.862 0-1.477-0.677-1.477-1.477v-6.338c0-0.246 0.185-0.431 0.431-0.431h9.354c0.246 0 0.431 0.185 0.431 0.431v6.338zM22.338 16.923c0 0.246-0.185 0.431-0.431 0.431h-11.754c-0.246 0-0.431-0.185-0.431-0.431v-0.923c0-0.246 0.185-0.431 0.431-0.431h3.754v-1.231c0-0.677 0.554-1.231 1.231-1.231h1.785c0.677 0 1.231 0.554 1.231 1.231v1.231h3.754c0.246 0 0.431 0.185 0.431 0.431v0.923z"></path>
<path d="M14.769 21.415h-0.615c-0.185 0-0.308 0.123-0.308 0.308v3.508c0 0.185 0.123 0.308 0.308 0.308h0.615c0.185 0 0.308-0.123 0.308-0.308v-3.508c0-0.185-0.123-0.308-0.308-0.308zM17.785 21.415h-0.615c-0.185 0-0.308 0.123-0.308 0.308v3.508c0 0.185 0.123 0.308 0.308 0.308h0.615c0.185 0 0.308-0.123 0.308-0.308v-3.508c0-0.185-0.123-0.308-0.308-0.308zM16.615 14.4h-1.231c-0.185 0-0.308 0.123-0.308 0.308v0.923h1.785v-0.923c0.062-0.185-0.062-0.308-0.246-0.308z"></path>
</svg>
