<!-- Generated by IcoMoon.io -->
<svg version="1.1" xmlns="http://www.w3.org/2000/svg" width="32" height="32" viewBox="0 0 32 32">
<title>record-lookup</title>
<path d="M10.585 7.138h10.831c0.554 0 0.985-0.431 0.985-0.985v-1.969c0-1.6-1.354-2.954-2.954-2.954h-6.892c-1.6 0-2.954 1.354-2.954 2.954v1.969c0 0.554 0.431 0.985 0.985 0.985z"></path>
<path d="M26.831 3.692h-0.985c-0.308 0-0.492 0.185-0.492 0.492v1.969c0 2.154-1.785 3.938-3.938 3.938h-10.831c-2.154 0-3.938-1.785-3.938-3.938v-1.969c0-0.308-0.185-0.492-0.492-0.492h-0.985c-1.6 0-2.954 1.354-2.954 2.954v21.169c0 1.6 1.354 2.954 2.954 2.954h21.662c1.6 0 2.954-1.354 2.954-2.954v-21.169c0-1.6-1.354-2.954-2.954-2.954zM23.077 27.138l-0.615 0.615c-0.185 0.185-0.431 0.185-0.615 0l-4-4c-1.169 0.8-2.585 1.231-4.123 0.985-2.585-0.369-4.615-2.523-4.862-5.108-0.369-3.569 2.646-6.585 6.215-6.215 2.646 0.246 4.738 2.277 5.108 4.862 0.246 1.538-0.185 3.015-0.985 4.123l4 4c0.062 0.246 0.062 0.492-0.123 0.738z"></path>
<path d="M14.462 15.262c-2.154 0-3.877 1.785-3.877 3.877 0 2.154 1.723 3.877 3.877 3.877s3.877-1.723 3.877-3.877-1.723-3.877-3.877-3.877z"></path>
</svg>
