<!-- Generated by IcoMoon.io -->
<svg version="1.1" xmlns="http://www.w3.org/2000/svg" width="32" height="32" viewBox="0 0 32 32">
<title>recycle-bin-full</title>
<path d="M27.2 4.369l-7.385 1.169-0.369-2.338c-0.185-1.292-1.415-2.154-2.708-1.969l-3.569 0.615c-1.292 0.185-2.154 1.415-1.969 2.708l0.369 2.338-7.262 1.169c-0.492 0.062-0.8 0.554-0.738 1.046l0.308 1.723c0.062 0.492 0.554 0.8 1.046 0.738l22.831-3.692c0.492-0.062 0.8-0.554 0.738-1.046l-0.308-1.723c-0.062-0.431-0.554-0.8-0.985-0.738zM17.415 5.969l-3.446 0.554-0.308-1.723c-0.062-0.308 0.123-0.615 0.492-0.677l2.338-0.369c0.308-0.062 0.615 0.123 0.677 0.492l0.246 1.723zM25.477 12.923h-18.462c-0.492 0-0.923 0.431-0.923 0.923v13.969c0 1.662 1.292 2.954 2.954 2.954h14.277c1.662 0 2.954-1.292 2.954-2.954v-13.969c0.062-0.492-0.308-0.923-0.8-0.923zM14.646 27.754l-3.015 0.062c-0.123 0-1.231 0-1.969-1.169-0.8-1.292-0.185-2.4 0.738-3.938l-0.862-0.554c-0.123-0.062-0.123-0.123-0.123-0.246s0.062-0.123 0.185-0.185l2.338-0.554 0.185-0.062c0.123 0 0.185 0 0.308 0.185l0.062 0.185 0.492 2.4c0 0.123 0 0.185-0.123 0.246s-0.185 0.062-0.308 0l-0.738-0.492c-0.8 1.354-0.923 1.785-0.738 2.154 0.246 0.369 0.554 0.431 0.554 0.431l2.954-0.062c0.308 0 0.554 0.123 0.738 0.369 0.123 0.123 0.123 0.308 0.123 0.431 0.062 0.369-0.308 0.8-0.8 0.8zM16.8 19.077c0-0.123 0.062-0.185 0.123-0.246l0.8-0.369c-0.738-1.415-0.985-1.785-1.415-1.785-0.492 0-0.615 0.246-0.677 0.308l-1.538 2.523c-0.123 0.246-0.431 0.369-0.738 0.369-0.123 0-0.308-0.062-0.431-0.123-0.369-0.246-0.492-0.738-0.246-1.169l1.538-2.523c0.062-0.123 0.677-1.046 2.031-1.046 1.538 0 2.092 1.169 2.954 2.769l0.923-0.431c0.123-0.062 0.185 0 0.246 0.062s0.123 0.123 0.062 0.246l-0.738 2.4c0 0.062-0.062 0.123-0.123 0.123h-0.185l-2.4-0.923c-0.185 0-0.185-0.062-0.185-0.185zM23.015 26.338c-0.738 1.354-1.969 1.354-3.815 1.292l-0.062 1.046c0 0.123-0.062 0.185-0.123 0.185s-0.123 0.062-0.246-0.062l-1.785-1.846c-0.123-0.123 0-0.308 0-0.308l0.123-0.123 1.908-1.662c0.123-0.062 0.123-0.123 0.246-0.062s0.123 0.123 0.123 0.246l-0.062 0.923c1.538 0 2.031-0.062 2.215-0.431s0.123-0.677 0.062-0.738l-1.477-2.585c-0.123-0.246-0.123-0.554 0-0.8 0.123-0.123 0.185-0.246 0.308-0.308 0.369-0.246 0.923-0.123 1.169 0.308l1.477 2.585c0.062 0.185 0.615 1.108-0.062 2.338zM13.169 11.631l10.769-1.785 0.062 1.785z"></path>
</svg>
