<!-- Generated by IcoMoon.io -->
<svg version="1.1" xmlns="http://www.w3.org/2000/svg" width="32" height="32" viewBox="0 0 32 32">
<title>refresh</title>
<path d="M28.615 2.462h-1.846c-0.492 0-0.923 0.431-0.923 0.923v4.308c0 0.554-0.308 0.8-0.738 0.431-0.185-0.246-0.369-0.431-0.615-0.615-3.077-3.077-7.385-4.369-11.815-3.508-1.538 0.308-3.015 0.923-4.308 1.785-3.754 2.462-5.908 6.462-5.969 10.769-0.062 3.323 1.231 6.646 3.569 9.046 2.462 2.585 5.785 4 9.354 4 3.138 0 6.092-1.108 8.431-3.077 0.431-0.369 0.431-0.985 0.062-1.354l-1.292-1.292c-0.308-0.308-0.862-0.369-1.231-0.062-2.215 1.846-5.231 2.585-8.246 1.846-0.8-0.185-1.6-0.554-2.338-0.985-3.508-2.154-5.169-6.215-4.185-10.277 0.185-0.8 0.554-1.6 0.985-2.338 1.723-3.015 4.738-4.677 7.938-4.677 2.462 0 4.8 0.985 6.523 2.708 0.308 0.246 0.554 0.554 0.738 0.862 0.185 0.492-0.246 0.738-0.8 0.738h-4.308c-0.492 0-0.923 0.431-0.923 0.923v1.908c0 0.492 0.369 0.862 0.862 0.862h11.262c0.431 0 0.8-0.369 0.8-0.8v-11.2c-0.062-0.492-0.492-0.923-0.985-0.923z"></path>
</svg>
