<!-- Generated by IcoMoon.io -->
<svg version="1.1" xmlns="http://www.w3.org/2000/svg" width="32" height="32" viewBox="0 0 32 32">
<title>reminder</title>
<path d="M30.954 4.615c-0.369-1.846-1.908-3.385-3.815-3.631-1.354-0.185-2.585 0.246-3.569 0.985-0.308 0.246-0.246 0.677 0.123 0.862 2.277 1.231 4.246 2.954 5.785 5.046 0.185 0.308 0.677 0.308 0.862 0 0.615-0.923 0.862-2.031 0.615-3.262zM8.308 2.892c0.308-0.123 0.369-0.615 0.123-0.862-0.923-0.8-2.215-1.231-3.569-0.985-1.908 0.246-3.508 1.723-3.815 3.569-0.185 1.231 0.062 2.338 0.677 3.262 0.185 0.308 0.677 0.308 0.862 0 1.477-2.031 3.385-3.815 5.723-4.985zM16 4c-7.446 0-13.538 6.092-13.538 13.538 0 3.015 0.985 5.785 2.646 8l-2.031 2.031c-0.8 0.8-0.8 2.031 0 2.831 0.431 0.431 0.923 0.615 1.415 0.615s0.985-0.185 1.415-0.615l2.031-2.031c2.277 1.662 5.046 2.646 8.062 2.646s5.785-0.985 8-2.646l2.031 2.031c0.431 0.431 0.923 0.615 1.477 0.615 0.492 0 0.985-0.185 1.415-0.615 0.8-0.8 0.8-2.031 0-2.831l-2.031-2.031c1.662-2.215 2.646-4.985 2.646-8 0-7.508-6.031-13.538-13.538-13.538zM6.462 17.477c0-5.231 4.308-9.477 9.538-9.477s9.538 4.246 9.538 9.538-4.246 9.477-9.538 9.477-9.538-4.246-9.538-9.538zM17.538 16.923v-3.938c0-0.862-0.677-1.477-1.477-1.477s-1.477 0.677-1.477 1.477v4.492c0 0.431 0.123 0.8 0.431 1.046l3.508 3.508c0.308 0.308 0.677 0.431 1.046 0.431s0.738-0.123 1.046-0.431c0.615-0.615 0.615-1.538 0-2.092l-3.077-3.015z"></path>
</svg>
