<!-- Generated by IcoMoon.io -->
<svg version="1.1" xmlns="http://www.w3.org/2000/svg" width="32" height="32" viewBox="0 0 32 32">
<title>replace</title>
<path d="M12.308 23.077c0-0.492-0.431-0.923-0.923-0.923h-9.231c-0.492 0-0.923 0.431-0.923 0.923v6.769c0 0.492 0.431 0.923 0.923 0.923h9.231c0.492 0 0.923-0.431 0.923-0.923v-6.769zM4.985 13.538h-3.015c-0.615 0-0.923 0.554-0.554 0.862l4.923 5.108c0.246 0.185 0.615 0.185 0.862 0l4.923-5.108c0.369-0.369 0.062-0.862-0.554-0.862h-2.892c0-3.077 3.015-6.154 6.092-6.154v-3.692c-5.538 0-9.785 4.308-9.785 9.846zM25.723 12.492c-0.246-0.185-0.615-0.185-0.862 0l-4.923 5.108c-0.369 0.369-0.062 0.862 0.554 0.862h2.954c0 3.692-2.523 6.154-6.215 6.154v3.692c5.538 0 9.908-4.308 9.908-9.846h3.015c0.615 0 0.923-0.554 0.554-0.862l-4.985-5.108zM30.769 2.154c0-0.492-0.431-0.923-0.923-0.923h-9.231c-0.492 0-0.923 0.431-0.923 0.923v6.769c0 0.492 0.431 0.923 0.923 0.923h9.231c0.492 0 0.923-0.431 0.923-0.923v-6.769z"></path>
</svg>
