<!-- Generated by IcoMoon.io -->
<svg version="1.1" xmlns="http://www.w3.org/2000/svg" width="32" height="32" viewBox="0 0 32 32">
<title>reply-all</title>
<path d="M15.015 11.138s-0.677-0.677-0.308-1.046l3.446-3.446c0.369-0.369 0.369-0.923 0-1.292l-1.292-1.354c-0.369-0.369-0.923-0.369-1.292 0l-8.308 8.308c-0.369 0.369-0.369 0.923 0 1.292l8.308 8.308c0.369 0.369 0.923 0.369 1.292 0l1.292-1.292c0.369-0.369 0.369-0.923 0-1.292l-3.385-3.446c-0.369-0.369-0.123-0.923 0.308-1.046 6.831 0.246 12.369 5.723 12.8 12.677 0 0.492 0.431 0.862 0.923 0.862h1.846c0.554 0 0.862-0.431 0.8-0.985-0.431-8.923-7.2-15.938-16.431-16.246z"></path>
<path d="M3.323 12.554l7.138-7.138c0.369-0.369 0.369-0.923 0-1.292l-0.062-0.123c-0.369-0.369-0.923-0.369-1.292 0l-8.308 8.308c-0.369 0.369-0.369 0.923 0 1.292l8.308 8.308c0.369 0.369 0.923 0.369 1.292 0l0.062-0.062c0.369-0.369 0.369-0.923 0-1.292l-7.077-7.138s-0.431-0.369-0.062-0.862z"></path>
</svg>
