<!-- Generated by IcoMoon.io -->
<svg version="1.1" xmlns="http://www.w3.org/2000/svg" width="32" height="32" viewBox="0 0 32 32">
<title>reset-password</title>
<path d="M25.846 14.154h-19.692c-1.354 0-2.462 1.108-2.462 2.462v11.692c0 1.354 1.108 2.462 2.462 2.462h19.692c1.354 0 2.462-1.108 2.462-2.462v-11.692c0-1.354-1.108-2.462-2.462-2.462zM19.077 27.385c-0.923 0.615-1.969 0.923-3.077 0.923-0.369 0-0.738-0.062-1.108-0.123-1.477-0.308-2.708-1.108-3.508-2.338l2.031-1.354c0.431 0.677 1.169 1.169 1.969 1.292 0.8 0.185 1.6 0 2.338-0.492 1.415-0.923 1.785-2.892 0.862-4.246-0.431-0.677-1.169-1.169-1.969-1.292-0.8-0.185-1.6 0-2.338 0.492-0.185 0.123-0.308 0.246-0.431 0.369l2.154 2.154h-5.538v-5.538l1.6 1.6c0.246-0.246 0.554-0.492 0.8-0.677 1.231-0.8 2.708-1.108 4.185-0.862 1.477 0.308 2.708 1.108 3.508 2.338 1.723 2.585 1.046 6.031-1.477 7.754zM6.154 11.138v0zM6.769 11.692h2.462c0.369 0 0.615-0.185 0.615-0.554v-0.062c0-3.508 3.015-6.4 6.585-6.154 3.262 0.246 5.723 3.077 5.723 6.4v-0.185c0 0.369 0.246 0.554 0.615 0.554h2.462c0.369 0 0.615-0.185 0.615-0.554v-0.062c0-5.6-4.677-10.092-10.338-9.846-5.231 0.246-9.231 4.677-9.354 9.908 0.062 0.308 0.308 0.554 0.615 0.554z"></path>
</svg>
