<!-- Generated by IcoMoon.io -->
<svg version="1.1" xmlns="http://www.w3.org/2000/svg" width="32" height="32" viewBox="0 0 32 32">
<title>resource-territory</title>
<path d="M16.431 17.846c1.231-1.785 2.523-2.646 3.385-4 1.538-2.277 1.846-5.538 0.862-8-0.985-2.523-3.323-4-6.031-3.938s-4.923 1.723-5.785 4.246c-0.985 2.769-0.554 6.092 1.662 8.185 0.923 0.862 1.785 2.215 1.292 3.508-0.431 1.231-1.908 1.785-2.954 2.277-2.4 1.046-5.292 2.523-5.785 5.354-0.492 2.338 1.108 4.738 3.631 4.738h11.077c0.492 0 0.923-0.554 0.615-0.923-1.538-1.785-3.138-4.123-3.138-6.462-0.123-1.662 0.369-3.508 1.169-4.985z"></path>
<path d="M23.2 24.246c-1.292 0-2.4-1.046-2.4-2.338s1.046-2.338 2.4-2.338c1.292 0 2.4 1.046 2.4 2.338s-1.108 2.338-2.4 2.338zM23.2 16.246c-3.138 0-5.662 2.523-5.662 5.662 0 3.877 4.062 7.508 5.292 8.431 0.185 0.185 0.492 0.185 0.738 0 1.231-0.985 5.292-4.554 5.292-8.431 0-3.138-2.523-5.662-5.662-5.662z"></path>
</svg>
