<!-- Generated by IcoMoon.io -->
<svg version="1.1" xmlns="http://www.w3.org/2000/svg" width="32" height="32" viewBox="0 0 32 32">
<title>resource-capacity</title>
<path d="M23.323 15.385c-4.123 0-7.446 3.385-7.446 7.508s3.323 7.446 7.446 7.446 7.446-3.385 7.446-7.446-3.323-7.508-7.446-7.508zM28.554 23.631h-5.415v-5.723s2.031-0.123 3.877 1.785 1.538 3.938 1.538 3.938z"></path>
<path d="M13.662 22.954c0-1.662 0.554-3.631 1.415-5.108 1.046-1.846 2.215-2.585 3.138-4 1.538-2.277 1.846-5.6 0.862-8.062-0.985-2.523-3.323-4-6.092-3.938-2.708 0.062-4.985 1.723-5.846 4.308-0.985 2.769-0.554 6.154 1.662 8.246 0.923 0.862 1.785 2.215 1.292 3.569-0.431 1.231-1.908 1.785-2.954 2.277-2.4 1.046-5.354 2.523-5.846 5.415-0.492 2.338 1.108 4.8 3.631 4.8h10.523c0.492 0 0.8-0.615 0.492-0.985-1.415-1.846-2.277-4.123-2.277-6.523z"></path>
</svg>
