<!-- Generated by IcoMoon.io -->
<svg version="1.1" xmlns="http://www.w3.org/2000/svg" width="32" height="32" viewBox="0 0 32 32">
<title>ribbon</title>
<path d="M14.831 22.585l-5.785 8.185-1.477-3.938h-3.938l5.046-6.831c0.985 0.615 2.031 0.677 2.769 0.862 0.246 0.062 0.554 0.123 0.677 0.123 0.123 0.062 0.369 0.246 0.492 0.369 0.554 0.369 1.292 0.923 2.215 1.231zM24.185 20c-0.985 0.615-2.031 0.677-2.769 0.862-0.246 0.062-0.615 0.123-0.738 0.123-0.123 0.062-0.369 0.246-0.492 0.369-0.554 0.369-1.231 0.985-2.154 1.292l5.785 8.123 1.477-3.938h3.938l-5.046-6.831zM16.431 7.138c-1.908 0-3.446 1.538-3.446 3.446s1.538 3.446 3.446 3.446 3.446-1.538 3.446-3.446-1.538-3.446-3.446-3.446zM25.785 10.585c0 1.169-1.292 2.092-1.723 3.138-0.431 1.108-0.185 2.646-1.046 3.446-0.8 0.8-2.338 0.615-3.446 1.046-1.046 0.431-1.969 1.723-3.138 1.723s-2.092-1.292-3.138-1.723c-1.108-0.431-2.646-0.185-3.446-1.046-0.8-0.8-0.615-2.338-1.046-3.446-0.431-1.046-1.723-1.969-1.723-3.138s1.292-2.092 1.723-3.138c0.431-1.108 0.185-2.646 1.046-3.446 0.8-0.8 2.338-0.615 3.446-1.046 1.046-0.431 1.969-1.723 3.138-1.723s2.092 1.292 3.138 1.723c1.108 0.431 2.646 0.185 3.446 1.046 0.8 0.8 0.615 2.338 1.046 3.446 0.431 1.046 1.723 1.969 1.723 3.138zM22.831 10.585c0-3.569-2.831-6.4-6.4-6.4s-6.4 2.831-6.4 6.4 2.831 6.4 6.4 6.4 6.4-2.831 6.4-6.4z"></path>
</svg>
