<!-- Generated by IcoMoon.io -->
<svg version="1.1" xmlns="http://www.w3.org/2000/svg" width="32" height="32" viewBox="0 0 32 32">
<title>richtextindent</title>
<path d="M32 7.077c0-0.492-0.431-0.923-0.923-0.923h-10.462c-0.492 0-0.923 0.431-0.923 0.923v1.846c0 0.492 0.431 0.923 0.923 0.923h10.462c0.492 0 0.923-0.431 0.923-0.923v-1.846zM29.538 21.846c0-0.492-0.431-0.923-0.923-0.923h-8c-0.492 0-0.923 0.431-0.923 0.923v1.846c0 0.492 0.431 0.923 0.923 0.923h8c0.492 0 0.923-0.431 0.923-0.923v-1.846zM32 14.462c0-0.492-0.431-0.923-0.923-0.923h-10.462c-0.492 0-0.923 0.431-0.923 0.923v1.846c0 0.492 0.431 0.923 0.923 0.923h10.462c0.492 0 0.923-0.431 0.923-0.923v-1.846zM17.231 3.385c0-0.492-0.431-0.923-0.923-0.923h-1.846c-0.492 0-0.923 0.431-0.923 0.923v25.231c0 0.492 0.431 0.923 0.923 0.923h1.846c0.492 0 0.923-0.431 0.923-0.923v-25.231zM5.785 9.415c-0.369-0.369-0.862-0.062-0.862 0.554v3.569h-4c-0.492 0-0.923 0.431-0.923 0.923v1.846c0 0.492 0.431 0.923 0.923 0.923h4v3.631c0 0.615 0.554 0.923 0.862 0.554l5.108-5.538c0.185-0.246 0.185-0.615 0-0.862l-5.108-5.6z"></path>
</svg>
