<!-- Generated by IcoMoon.io -->
<svg version="1.1" xmlns="http://www.w3.org/2000/svg" width="32" height="32" viewBox="0 0 32 32">
<title>richtextbulletedlist</title>
<path d="M4.923 8.308c0 0.492-0.431 0.923-0.923 0.923h-1.846c-0.492 0-0.923-0.431-0.923-0.923v-1.846c0-0.492 0.431-0.923 0.923-0.923h1.846c0.492 0 0.923 0.431 0.923 0.923v1.846zM30.769 6.462c0-0.492-0.431-0.923-0.923-0.923h-21.538c-0.492 0-0.923 0.431-0.923 0.923v1.846c0 0.492 0.431 0.923 0.923 0.923h21.538c0.492 0 0.923-0.431 0.923-0.923v-1.846zM4.923 15.077c0-0.492-0.431-0.923-0.923-0.923h-1.846c-0.492 0-0.923 0.431-0.923 0.923v1.846c0 0.492 0.431 0.923 0.923 0.923h1.846c0.492 0 0.923-0.431 0.923-0.923v-1.846zM28.308 15.077c0-0.492-0.431-0.923-0.923-0.923h-19.077c-0.492 0-0.923 0.431-0.923 0.923v1.846c0 0.492 0.431 0.923 0.923 0.923h19.077c0.492 0 0.923-0.431 0.923-0.923v-1.846zM4.923 23.692c0-0.492-0.431-0.923-0.923-0.923h-1.846c-0.492 0-0.923 0.431-0.923 0.923v1.846c0 0.492 0.431 0.923 0.923 0.923h1.846c0.492 0 0.923-0.431 0.923-0.923v-1.846zM30.769 23.692c0-0.492-0.431-0.923-0.923-0.923h-21.538c-0.492 0-0.923 0.431-0.923 0.923v1.846c0 0.492 0.431 0.923 0.923 0.923h21.538c0.492 0 0.923-0.431 0.923-0.923v-1.846z"></path>
</svg>
