<!-- Generated by IcoMoon.io -->
<svg version="1.1" xmlns="http://www.w3.org/2000/svg" width="32" height="32" viewBox="0 0 32 32">
<title>richtextnumberedlist</title>
<path d="M30.769 4v1.846c0 0.492-0.431 0.923-0.923 0.923h-16.615c-0.492 0-0.923-0.431-0.923-0.923v-1.846c0-0.492 0.431-0.923 0.923-0.923h16.615c0.492 0 0.923 0.431 0.923 0.923zM13.231 12.923h11.077c0.492 0 0.923-0.431 0.923-0.923v-1.846c0-0.492-0.431-0.923-0.923-0.923h-11.077c-0.492 0-0.923 0.431-0.923 0.923v1.846c0 0.492 0.431 0.923 0.923 0.923zM29.846 18.462h-16.615c-0.492 0-0.923 0.431-0.923 0.923v1.846c0 0.492 0.431 0.923 0.923 0.923h16.615c0.492 0 0.923-0.431 0.923-0.923v-1.846c0-0.492-0.431-0.923-0.923-0.923zM24.308 24.615h-11.077c-0.492 0-0.923 0.431-0.923 0.923v1.846c0 0.492 0.431 0.923 0.923 0.923h11.077c0.492 0 0.923-0.431 0.923-0.923v-1.846c0-0.492-0.431-0.923-0.923-0.923zM2.154 4.923h1.538v7.692c0 0.492 0.431 0.923 0.923 0.923h0.615c0.492 0 0.923-0.431 0.923-0.923v-8.923c0-0.677-0.554-1.231-1.231-1.231h-2.769c-0.492 0-0.923 0.431-0.923 0.923v0.615c0 0.492 0.431 0.923 0.923 0.923zM7.385 17.231h-5.231c-0.492 0-0.923 0.431-0.923 0.923v0.615c0 0.492 0.431 0.923 0.923 0.923h4v2.462h-3.692c-0.677 0-1.231 0.554-1.231 1.231v4.923c0 0.677 0.554 1.231 1.231 1.231h5.231c0.492 0 0.923-0.431 0.923-0.923v-0.615c0-0.492-0.431-0.923-0.923-0.923h-4v-2.462h3.692c0.677 0 1.231-0.554 1.231-1.231v-4.923c0-0.677-0.554-1.231-1.231-1.231z"></path>
</svg>
