<!-- Generated by IcoMoon.io -->
<svg version="1.1" xmlns="http://www.w3.org/2000/svg" width="32" height="32" viewBox="0 0 32 32">
<title>rules</title>
<path d="M30.831 15.631l-4.985-4.985c-0.246-0.246-0.677-0.246-0.923 0l-0.923 0.923c-0.246 0.246-0.246 0.677 0 0.923l1.538 1.538c0.246 0.246 0.062 0.738-0.308 0.738h-13.6l8.123-8.062c0.246-0.246 0.738-0.062 0.738 0.308v2.215c0 0.369 0.246 0.615 0.615 0.615h1.292c0.369 0 0.615-0.246 0.615-0.615v-7.138c0-0.369-0.246-0.615-0.615-0.615h-7.015c-0.308 0-0.615 0.308-0.615 0.677v1.231c0 0.369 0.246 0.615 0.615 0.615h2.215c0.369 0 0.554 0.431 0.308 0.738l-9.969 9.969h-6.092c-0.369 0-0.615 0.308-0.615 0.677v1.292c0 0.369 0.369 0.677 0.677 0.677h6.154l9.908 9.908c0.246 0.246 0.062 0.738-0.308 0.738h-2.215c-0.369 0-0.615 0.246-0.615 0.615v1.231c0 0.308 0.246 0.615 0.615 0.677h7.015c0.369 0 0.615-0.246 0.615-0.615v-7.077c0-0.369-0.246-0.615-0.615-0.615h-1.292c-0.369 0-0.615 0.246-0.615 0.615v2.215c0 0.369-0.431 0.554-0.738 0.308l-8.123-8h13.6c0.369 0 0.554 0.492 0.308 0.738l-1.6 1.538c-0.246 0.246-0.246 0.677 0 0.923l0.923 0.923c0.246 0.246 0.677 0.246 0.923 0l4.985-4.923c0.246-0.308 0.246-0.677 0-0.923z"></path>
</svg>
