<!-- Generated by IcoMoon.io -->
<svg version="1.1" xmlns="http://www.w3.org/2000/svg" width="32" height="32" viewBox="0 0 32 32">
<title>search</title>
<path d="M30.522 27.876l-8.246-8.185c1.662-2.338 2.523-5.292 2.092-8.431-0.738-5.292-5.046-9.477-10.4-9.969-7.262-0.738-13.415 5.415-12.677 12.738 0.492 5.292 4.677 9.662 9.969 10.4 3.138 0.431 6.092-0.431 8.431-2.092l8.185 8.185c0.369 0.369 0.923 0.369 1.292 0l1.292-1.292c0.369-0.369 0.369-0.985 0.062-1.354zM4.922 12.86c0-4.369 3.569-7.938 7.938-7.938s7.938 3.569 7.938 7.938c0 4.369-3.569 7.938-7.938 7.938s-7.938-3.508-7.938-7.938z"></path>
</svg>
