<!-- Generated by IcoMoon.io -->
<svg version="1.1" xmlns="http://www.w3.org/2000/svg" width="32" height="32" viewBox="0 0 32 32">
<title>section</title>
<path d="M29.292 17.969h-4.923c-0.8 0-1.477-0.677-1.477-1.477v-0.985c0-0.8 0.677-1.477 1.477-1.477h4.923c0.8 0 1.477 0.677 1.477 1.477v0.985c0 0.8-0.677 1.477-1.477 1.477zM18.462 17.969h-4.923c-0.8 0-1.477-0.677-1.477-1.477v-0.985c0-0.8 0.677-1.477 1.477-1.477h4.923c0.8 0 1.477 0.677 1.477 1.477v0.985c0 0.8-0.677 1.477-1.477 1.477zM7.631 17.969h-4.923c-0.862 0-1.477-0.677-1.477-1.477v-0.985c0-0.8 0.677-1.477 1.477-1.477h4.923c0.8 0 1.477 0.677 1.477 1.477v0.985c0 0.8-0.677 1.477-1.477 1.477zM26.831 20.923h-21.662c-1.108 0-1.969 0.862-1.969 1.969v4.923c0 1.108 0.862 1.969 1.969 1.969h21.662c1.108 0 1.969-0.862 1.969-1.969v-4.923c0-1.108-0.923-1.969-1.969-1.969zM25.846 26.338c0 0.246-0.246 0.492-0.492 0.492h-18.708c-0.246 0-0.492-0.246-0.492-0.492v-1.969c0-0.246 0.246-0.492 0.492-0.492h18.708c0.246 0 0.492 0.246 0.492 0.492v1.969zM26.831 2.215h-21.662c-1.108 0-1.969 0.862-1.969 1.969v4.923c0 1.108 0.862 1.969 1.969 1.969h21.662c1.108 0 1.969-0.862 1.969-1.969v-4.923c0-1.108-0.923-1.969-1.969-1.969zM25.846 7.631c0 0.246-0.246 0.492-0.492 0.492h-18.708c-0.246 0-0.492-0.246-0.492-0.492v-1.969c0-0.246 0.246-0.492 0.492-0.492h18.708c0.246 0 0.492 0.246 0.492 0.492v1.969z"></path>
</svg>
