<!-- Generated by IcoMoon.io -->
<svg version="1.1" xmlns="http://www.w3.org/2000/svg" width="32" height="32" viewBox="0 0 32 32">
<title>send</title>
<path d="M1.292 27.385l2.708-10.031h11.446c0.308 0 0.615-0.308 0.615-0.615v-1.231c0-0.308-0.308-0.615-0.615-0.615h-11.446l-2.646-9.846c-0.062-0.123-0.123-0.308-0.123-0.492 0-0.431 0.431-0.862 0.923-0.8 0.123 0 0.185 0.062 0.308 0.062l27.692 11.385c0.369 0.123 0.615 0.492 0.615 0.862s-0.246 0.677-0.554 0.8l-27.754 11.692c-0.123 0.062-0.246 0.062-0.369 0.062-0.492-0.062-0.862-0.431-0.862-0.923 0-0.123 0-0.185 0.062-0.308z"></path>
</svg>
