<!-- Generated by IcoMoon.io -->
<svg version="1.1" xmlns="http://www.w3.org/2000/svg" width="32" height="32" viewBox="0 0 32 32">
<title>share</title>
<path d="M29.846 18.462h-1.846c-0.492 0-0.923 0.431-0.923 0.923v6.769c0 0.492-0.431 0.923-0.923 0.923h-20.308c-0.492 0-0.923-0.431-0.923-0.923v-12.923c0-0.492 0.431-0.923 0.923-0.923h2.462c0.492 0 0.923-0.431 0.923-0.923v-1.846c0-0.492-0.431-0.923-0.923-0.923h-4.615c-1.354 0-2.462 1.108-2.462 2.462v17.231c0 1.354 1.108 2.462 2.462 2.462h24.615c1.354 0 2.462-1.108 2.462-2.462v-8.923c0-0.492-0.431-0.923-0.923-0.923zM20.923 8.615c-6.154 0-11.754 5.477-12.246 11.938-0.062 0.492 0.369 0.985 0.923 0.985h1.846c0.492 0 0.862-0.369 0.923-0.8 0.431-4.615 4.369-8.431 9.169-8.431h0.985c0.554 0 0.8 0.677 0.431 1.046l-3.385 3.446c-0.369 0.369-0.369 0.923 0 1.292l1.292 1.292c0.369 0.369 0.923 0.369 1.292 0l8.369-8.308c0.369-0.369 0.369-0.923 0-1.292l-8.308-8.308c-0.369-0.369-0.923-0.369-1.292 0l-1.292 1.292c-0.369 0.369-0.431 0.923-0.062 1.292l3.446 3.446c0.369 0.369 0.123 1.046-0.431 1.046l-1.662 0.062z"></path>
</svg>
