<!-- Generated by IcoMoon.io -->
<svg version="1.1" xmlns="http://www.w3.org/2000/svg" width="32" height="32" viewBox="0 0 32 32">
<title>shield</title>
<path d="M2.954 8.615h26.092c0.615 0 1.108-0.615 0.923-1.231-0.615-2.031-1.477-3.877-2.646-5.538-0.369-0.492-1.046-0.554-1.415-0.123-1.169 1.108-2.831 1.723-4.554 1.723-1.846 0-3.508-0.738-4.738-1.969-0.369-0.369-0.985-0.369-1.354 0-1.231 1.231-2.892 1.969-4.738 1.969-1.723 0-3.323-0.615-4.554-1.723-0.431-0.369-1.108-0.308-1.415 0.123-1.169 1.6-2.092 3.508-2.646 5.538-0.062 0.615 0.431 1.231 1.046 1.231zM30.769 12.554c0-0.554-0.431-0.862-0.985-0.862h-27.569c-0.554 0-0.985 0.308-0.985 0.862v0.185c0 9.231 6.4 16.862 14.769 18.031 8.369-1.169 14.769-8.8 14.769-17.969v-0.246z"></path>
</svg>
