<!-- Generated by IcoMoon.io -->
<svg version="1.1" xmlns="http://www.w3.org/2000/svg" width="32" height="32" viewBox="0 0 32 32">
<title>shift-pattern</title>
<path d="M26.831 4.185h-2.462v-0.985c0-1.088-0.882-1.969-1.969-1.969s-1.969 0.882-1.969 1.969v0 0.985h-8.862v-0.985c0-1.088-0.882-1.969-1.969-1.969s-1.969 0.882-1.969 1.969v0 0.985h-2.462c-1.63 0.003-2.95 1.324-2.954 2.954v0.985c0 0.544 0.441 0.985 0.985 0.985v0h25.6c0.544 0 0.985-0.441 0.985-0.985v0-0.985c-0.003-1.63-1.324-2.95-2.953-2.954v0zM28.8 12.062c0.544 0 0.985 0.441 0.985 0.985v0 14.769c-0.003 1.63-1.324 2.95-2.954 2.954h-21.662c-1.63-0.003-2.95-1.324-2.954-2.953v-14.77c0-0.544 0.441-0.985 0.985-0.985h25.6zM22.154 25.514h-5.778c-0.316 0-0.572 0.256-0.572 0.572v0 1.606c0 0.316 0.256 0.572 0.572 0.572v0h5.778c0.316 0 0.572-0.256 0.572-0.572v0-1.606c0-0.316-0.256-0.572-0.572-0.572v0zM22.154 18.874h-12.591c-0.316 0-0.572 0.256-0.572 0.572v0 3.889c0 0.316 0.256 0.572 0.572 0.572v0h12.591c0.316 0 0.572-0.256 0.572-0.572v0-3.889c0-0.316-0.256-0.572-0.572-0.572v0zM15.342 14.523h-5.778c-0.316 0-0.572 0.256-0.572 0.572v0 1.631c0 0.316 0.256 0.572 0.572 0.572v0h5.778c0.316 0 0.572-0.256 0.572-0.572v0-1.631c0-0.316-0.256-0.572-0.572-0.572v0z"></path>
</svg>
