<!-- Generated by IcoMoon.io -->
<svg version="1.1" xmlns="http://www.w3.org/2000/svg" width="32" height="32" viewBox="0 0 32 32">
<title>shopping-bag</title>
<path d="M27.077 12.062c0-1.354-1.108-2.462-2.462-2.462h-0.431c-0.308-4.185-3.815-7.508-8.123-7.508s-7.754 3.323-8.123 7.508h-0.554c-1.354 0-2.462 1.108-2.462 2.462l-1.231 15.385c0 1.354 1.108 2.462 2.462 2.462h19.692c1.354 0 2.462-1.108 2.462-2.462l-1.231-15.385zM16.062 5.785c2.277 0 4.123 1.662 4.431 3.815h-8.862c0.369-2.154 2.215-3.815 4.431-3.815zM19.569 16.985h-7.138c-1.046 0-1.846-0.862-1.846-1.846s0.862-1.846 1.846-1.846h7.2c1.046 0 1.846 0.862 1.846 1.846s-0.862 1.846-1.908 1.846z"></path>
</svg>
