<!-- Generated by IcoMoon.io -->
<svg version="1.1" xmlns="http://www.w3.org/2000/svg" width="32" height="32" viewBox="0 0 32 32">
<title>shortcuts</title>
<path d="M7.446 1.662h16.308c0.554 0 0.985 0.431 0.985 0.985 0 0.308-0.123 0.554-0.308 0.738l-4.431 4.431c2.708 2.4 10.277 10.769 1.415 21.477l-0.123 0.123c0 0.062-0.062 0.062-0.123 0.123-0.185 0.246-0.492 0.431-0.862 0.431-0.554 0-0.985-0.431-0.985-0.985v-0.185c0-0.062 0-0.123 0.062-0.123 0.308-1.354 2.215-10.585-5.908-14.4l-5.354 5.354c-0.185 0.185-0.431 0.308-0.677 0.308-0.554 0-0.985-0.431-0.985-0.985v-16.246c-0.062-0.554 0.431-1.046 0.985-1.046z"></path>
</svg>
