<!-- Generated by IcoMoon.io -->
<svg version="1.1" xmlns="http://www.w3.org/2000/svg" width="32" height="32" viewBox="0 0 32 32">
<title>side-list</title>
<path d="M29.846 2.462h-16.615c-0.492 0-0.923 0.431-0.923 0.923v25.231c0 0.492 0.431 0.923 0.923 0.923h16.615c0.492 0 0.923-0.431 0.923-0.923v-25.231c0-0.492-0.431-0.923-0.923-0.923zM8.923 2.462h-6.769c-0.492 0-0.923 0.431-0.923 0.923v3.077c0 0.492 0.431 0.923 0.923 0.923h6.769c0.492 0 0.923-0.431 0.923-0.923v-3.077c0-0.492-0.431-0.923-0.923-0.923zM8.923 9.846h-6.769c-0.492 0-0.923 0.431-0.923 0.923v3.077c0 0.492 0.431 0.923 0.923 0.923h6.769c0.492 0 0.923-0.431 0.923-0.923v-3.077c0-0.492-0.431-0.923-0.923-0.923zM8.923 17.231h-6.769c-0.492 0-0.923 0.431-0.923 0.923v3.077c0 0.492 0.431 0.923 0.923 0.923h6.769c0.492 0 0.923-0.431 0.923-0.923v-3.077c0-0.492-0.431-0.923-0.923-0.923zM8.923 24.615h-6.769c-0.492 0-0.923 0.431-0.923 0.923v3.077c0 0.492 0.431 0.923 0.923 0.923h6.769c0.492 0 0.923-0.431 0.923-0.923v-3.077c0-0.492-0.431-0.923-0.923-0.923z"></path>
</svg>
