<!-- Generated by IcoMoon.io -->
<svg version="1.1" xmlns="http://www.w3.org/2000/svg" width="32" height="32" viewBox="0 0 32 32">
<title>signpost</title>
<path d="M30.462 5.538l-2.585-1.908c-0.369-0.246-0.738-0.369-1.169-0.369h-8.738v-1.046c0-0.554-0.431-0.985-0.985-0.985h-1.969c-0.554 0-0.985 0.431-0.985 0.985v0.985h-9.846c-0.554 0-0.985 0.431-0.985 0.985v3.938c0 0.554 0.431 0.985 0.985 0.985h22.523c0.431 0 0.862-0.123 1.169-0.369l2.585-1.908c0.431-0.369 0.431-0.985 0-1.292zM27.815 14.031h-9.846v-1.477c0-0.308-0.185-0.492-0.492-0.492h-2.954c-0.308 0-0.492 0.185-0.492 0.492v1.477h-8.738c-0.431 0-0.862 0.123-1.169 0.369l-2.585 1.908c-0.431 0.308-0.431 0.923 0 1.292l2.585 1.908c0.369 0.246 0.738 0.369 1.169 0.369h22.523c0.554 0 0.985-0.431 0.985-0.985v-3.938c0-0.492-0.431-0.923-0.985-0.923zM17.969 26.646v-3.262c0-0.308-0.185-0.492-0.492-0.492h-2.954c-0.308 0-0.492 0.185-0.492 0.492v3.262c-1.969 0.554-3.077 1.723-3.385 3.2-0.123 0.431 0.246 0.923 0.738 0.923h9.292c0.492 0 0.862-0.431 0.738-0.923-0.369-1.477-1.477-2.646-3.446-3.2z"></path>
</svg>
