<!-- Generated by IcoMoon.io -->
<svg version="1.1" xmlns="http://www.w3.org/2000/svg" width="32" height="32" viewBox="0 0 32 32">
<title>slider</title>
<path d="M26.462 14.215h3.077c0.677 0 1.231 0.554 1.231 1.231v1.231c0 0.677-0.554 1.231-1.231 1.231h-3.077c-0.369 0-0.554-0.308-0.492-0.615 0 0 0.185-0.615 0.185-1.231s-0.185-1.292-0.185-1.292c-0.062-0.369 0.185-0.615 0.492-0.554zM6.646 25.231h-4.185c-0.677 0-1.231 0.554-1.231 1.231v1.231c0 0.677 0.554 1.231 1.231 1.231h4.185c0.615 1.108 1.846 1.846 3.2 1.846 2.031 0 3.692-1.662 3.692-3.692s-1.662-3.692-3.692-3.692c-1.354 0-2.585 0.738-3.2 1.846zM16.123 25.846s0.185 0.677 0.185 1.292-0.185 1.231-0.185 1.231c-0.062 0.308 0.123 0.615 0.492 0.615h12.923c0.677 0 1.231-0.554 1.231-1.231v-1.231c0-0.677-0.554-1.231-1.231-1.231h-12.923c-0.369-0.062-0.554 0.185-0.492 0.554zM18.585 3.692s0.185 0.677 0.185 1.292-0.185 1.231-0.185 1.231c-0.062 0.308 0.123 0.615 0.492 0.615h10.462c0.677 0 1.231-0.554 1.231-1.231v-1.231c0-0.677-0.554-1.231-1.231-1.231h-10.462c-0.308-0.062-0.554 0.185-0.492 0.554zM9.108 3.077h-6.646c-0.677 0-1.231 0.554-1.231 1.231v1.231c0 0.677 0.554 1.231 1.231 1.231h6.646c0.615 1.108 1.846 1.846 3.2 1.846 2.031 0 3.692-1.662 3.692-3.692s-1.662-3.692-3.692-3.692c-1.354 0-2.585 0.738-3.2 1.846zM16.492 14.154h-14.031c-0.677 0-1.231 0.554-1.231 1.231v1.231c0 0.677 0.554 1.231 1.231 1.231h14.031c0.615 1.108 1.846 1.846 3.2 1.846 2.031 0 3.692-1.662 3.692-3.692s-1.662-3.692-3.692-3.692c-1.354 0-2.585 0.738-3.2 1.846z"></path>
</svg>
