<!-- Generated by IcoMoon.io -->
<svg version="1.1" xmlns="http://www.w3.org/2000/svg" width="32" height="32" viewBox="0 0 32 32">
<title>sms</title>
<path d="M16 2.462c-8.185 0-14.708 6.031-14.708 13.477 0 2.338 0.677 4.554 1.785 6.523 0.185 0.308 0.246 0.677 0.123 1.046l-1.908 5.231c-0.185 0.492 0.308 0.923 0.8 0.8l5.292-2.031c0.308-0.123 0.677-0.062 1.046 0.123 2.215 1.231 4.862 1.969 7.692 1.969 8.062-0.062 14.646-6.092 14.646-13.538-0.062-7.569-6.646-13.6-14.769-13.6zM10.092 18.215c-0.185 0.308-0.369 0.615-0.615 0.8s-0.554 0.369-0.923 0.492c-0.308 0.123-0.677 0.123-1.046 0.123-0.492 0-0.923-0.062-1.354-0.246s-0.862-0.431-1.169-0.8l-0.123-0.123c-0.062-0.062 0-0.185 0.123-0.308l0.985-0.923c0.123-0.123 0.246-0.123 0.308-0.062s0.123 0.185 0.123 0.185c0.123 0.185 0.308 0.308 0.492 0.431 0.308 0.185 0.615 0.185 0.985 0.123 0.123 0 0.185-0.062 0.308-0.123l0.185-0.185c0.062-0.062 0.062-0.185 0.062-0.246 0-0.246-0.062-0.308-0.123-0.369-0.123-0.123-0.308-0.246-0.554-0.308s-0.492-0.185-0.8-0.246c-0.308-0.123-0.615-0.246-0.862-0.369-0.308-0.185-0.492-0.431-0.677-0.677-0.185-0.308-0.308-0.677-0.308-1.169 0-0.431 0.062-0.8 0.246-1.108s0.369-0.554 0.677-0.738c0.246-0.185 0.554-0.369 0.923-0.431 0.738-0.185 1.477-0.185 2.215 0.062 0.369 0.123 0.738 0.369 0.923 0.492l0.185 0.123c0.123 0.062 0.062 0.246-0.062 0.369l-0.923 0.923c-0.123 0.123-0.308 0.123-0.431 0-0.123-0.062-0.185-0.185-0.246-0.185-0.308-0.185-0.738-0.246-1.108-0.185-0.123 0-0.185 0.062-0.246 0.123l-0.185 0.185c-0.062 0.062-0.062 0.123-0.062 0.246 0 0.185 0.062 0.246 0.123 0.308 0.123 0.123 0.308 0.185 0.554 0.308 0.246 0.062 0.492 0.185 0.8 0.246 0.308 0.123 0.615 0.246 0.862 0.369 0.308 0.185 0.492 0.431 0.677 0.677 0.185 0.308 0.308 0.677 0.308 1.169 0 0.369-0.062 0.738-0.246 1.046zM20.308 19.077c0 0.369-0.308 0.615-0.677 0.615h-0.615c-0.369 0-0.554-0.246-0.554-0.615v-3.631c0-0.369-0.492-0.431-0.615-0.123l-1.046 2.769c-0.062 0.246-0.308 0.369-0.554 0.369h-0.431c-0.246 0-0.492-0.185-0.554-0.369l-1.108-2.769c-0.123-0.308-0.615-0.246-0.615 0.123v3.631c0 0.369-0.308 0.615-0.677 0.615h-0.615c-0.369 0-0.554-0.246-0.554-0.615v-6.769c0-0.369 0.246-0.615 0.554-0.615h1.6c0.246 0 0.492 0.185 0.554 0.369l1.231 3.2c0.123 0.246 0.492 0.246 0.554 0l1.231-3.2c0.062-0.246 0.308-0.369 0.554-0.369h1.662c0.369 0 0.677 0.246 0.677 0.615v6.769zM26.769 18.277c-0.185 0.308-0.369 0.615-0.677 0.8-0.246 0.185-0.554 0.369-0.923 0.492s-0.677 0.123-1.046 0.123c-0.492 0-0.923-0.062-1.354-0.246s-0.862-0.431-1.169-0.8l-0.123-0.123c-0.062-0.062 0-0.185 0.123-0.308l0.985-0.923c0.123-0.123 0.246-0.123 0.308-0.062s0.123 0.185 0.123 0.185c0.123 0.185 0.308 0.308 0.492 0.431 0.308 0.185 0.677 0.185 0.985 0.123 0.123-0.062 0.246-0.062 0.308-0.123l0.185-0.185c0.062-0.062 0.062-0.185 0.062-0.246 0-0.246-0.062-0.308-0.123-0.369-0.123-0.123-0.308-0.246-0.554-0.308s-0.492-0.185-0.8-0.246c-0.308-0.123-0.615-0.246-0.862-0.369-0.308-0.185-0.554-0.431-0.738-0.677-0.185-0.308-0.308-0.677-0.308-1.169 0-0.431 0.062-0.8 0.246-1.108s0.369-0.554 0.677-0.738c0.246-0.185 0.615-0.369 0.923-0.431 0.738-0.185 1.477-0.185 2.215 0.062 0.369 0.123 0.738 0.369 0.923 0.554l0.185 0.185c0.123 0.062 0.062 0.246-0.062 0.369l-0.923 0.923c-0.123 0.123-0.308 0.123-0.431 0-0.123-0.062-0.185-0.185-0.246-0.185-0.308-0.185-0.738-0.246-1.108-0.185-0.123 0-0.185 0.062-0.246 0.123l-0.185 0.185c-0.062 0.062-0.062 0.185-0.062 0.246 0 0.185 0.062 0.246 0.123 0.308 0.123 0.123 0.308 0.185 0.554 0.308 0.246 0.062 0.492 0.185 0.8 0.246 0.308 0.123 0.615 0.246 0.862 0.369 0.308 0.185 0.492 0.431 0.738 0.677 0.185 0.308 0.308 0.677 0.308 1.169 0.062 0.185 0 0.615-0.185 0.923z"></path>
</svg>
