<!-- Generated by IcoMoon.io -->
<svg version="1.1" xmlns="http://www.w3.org/2000/svg" width="32" height="32" viewBox="0 0 32 32">
<title>snippet</title>
<path d="M8.923 3.692h-6.769c-0.492 0-0.923 0.431-0.923 0.923v8c0 0.492 0.431 0.923 0.923 0.923h6.769c0.492 0 0.923-0.431 0.923-0.923v-8c0-0.492-0.431-0.923-0.923-0.923zM29.846 3.692h-16.615c-0.492 0-0.923 0.431-0.923 0.923v1.846c0 0.492 0.431 0.923 0.923 0.923h16.615c0.492 0 0.923-0.431 0.923-0.923v-1.846c0-0.492-0.431-0.923-0.923-0.923zM13.231 13.538h10.462c0.492 0 0.923-0.431 0.923-0.923v-1.846c0-0.492-0.431-0.923-0.923-0.923h-10.462c-0.492 0-0.923 0.431-0.923 0.923v1.846c0 0.492 0.431 0.923 0.923 0.923zM8.923 18.462h-6.769c-0.492 0-0.923 0.431-0.923 0.923v8c0 0.492 0.431 0.923 0.923 0.923h6.769c0.492 0 0.923-0.431 0.923-0.923v-8c0-0.492-0.431-0.923-0.923-0.923zM29.846 18.462h-16.615c-0.492 0-0.923 0.431-0.923 0.923v1.846c0 0.492 0.431 0.923 0.923 0.923h16.615c0.492 0 0.923-0.431 0.923-0.923v-1.846c0-0.492-0.431-0.923-0.923-0.923zM23.692 24.615h-10.462c-0.492 0-0.923 0.431-0.923 0.923v1.846c0 0.492 0.431 0.923 0.923 0.923h10.462c0.492 0 0.923-0.431 0.923-0.923v-1.846c0-0.492-0.431-0.923-0.923-0.923z"></path>
</svg>
