<!-- Generated by IcoMoon.io -->
<svg version="1.1" xmlns="http://www.w3.org/2000/svg" width="32" height="32" viewBox="0 0 32 32">
<title>sobject-collection</title>
<path d="M8.369 9.292c-2.092 4.615-2.092 6.462 0 11.138h1.538c-1.846-4.062-1.846-7.077-0.062-11.138h-1.477zM22.708 18.092c0.308-0.062 0.615-0.123 0.923-0.123 0.246 0 0.431 0 0.677 0.062 1.046-3.138 0.8-4.985-0.923-8.8h-1.538c1.477 3.323 1.785 5.908 0.862 8.862z"></path>
<path d="M13.723 23.631h-8.738c-0.677 0-1.231-0.554-1.231-1.231v-16.123h24.246v12.862c0.923 0.123 1.723 0.431 2.462 0.862v-16.246c0-1.354-1.108-2.462-2.462-2.462h-24.185c-1.354 0-2.462 1.108-2.462 2.462v19.877c0 1.354 1.108 2.462 2.462 2.462h9.108c0.062-0.862 0.308-1.723 0.8-2.462z"></path>
<path d="M21.723 21.292c0.492-0.492 1.169-0.8 1.969-0.8 1.046 0 1.908 0.554 2.4 1.354 0.369-0.123 0.862-0.308 1.354-0.308 1.785 0 3.323 1.477 3.323 3.262s-1.477 3.262-3.323 3.262c-0.185 0-0.431 0-0.615-0.062-0.369 0.738-1.231 1.231-2.092 1.231-0.369 0-0.738-0.123-1.046-0.246-0.431 0.985-1.415 1.662-2.523 1.662-1.231 0-2.215-0.738-2.585-1.723-0.123 0-0.369 0.062-0.554 0.062-1.415 0-2.585-1.108-2.585-2.523 0-0.923 0.492-1.723 1.292-2.215-0.123-0.369-0.246-0.738-0.246-1.169 0-1.6 1.354-2.892 2.954-2.892 0.923-0.062 1.723 0.431 2.277 1.108zM14.154 17.785c0.431-0.738 0.923-1.538 0.923-1.538 0.123 0.677 0.246 1.231 0.369 1.477 0.123 0.431 0.431 0.8 0.8 1.046 0.862-0.615 1.969-0.985 3.138-0.985h0.123c0-0.369-0.308-0.677-0.677-0.677-0.123 0-0.185 0.062-0.308 0.062 0 0-0.738 0.369-0.985 0.123-0.185-0.369-0.369-0.8-0.431-1.354-0.123-0.492-0.246-1.046-0.369-1.662l0.738-1.046s0.8 0.308 1.231 0.308 1.292-0.369 1.292-1.477-0.8-1.169-1.046-1.169c-0.492 0-0.985 0.369-1.415 1.046-0.431 0.738-0.923 1.538-0.923 1.538-0.123-0.554-0.185-0.985-0.246-1.169-0.123-0.431-0.615-1.477-1.723-1.477s-2.092 0.615-2.092 0.615c-0.185 0.123-0.308 0.369-0.308 0.554 0 0.369 0.308 0.677 0.677 0.677 0.123 0 0.185-0.062 0.308-0.062 0 0 0.8-0.492 1.046 0 0.062 0.123 0.123 0.308 0.123 0.492 0.185 0.738 0.369 1.538 0.554 2.338l-0.738 1.046s-0.8-0.308-1.231-0.308-1.292 0.369-1.292 1.477 0.8 1.169 1.046 1.169c0.554 0.062 1.046-0.308 1.415-1.046z"></path>
</svg>
