<!-- Generated by IcoMoon.io -->
<svg version="1.1" xmlns="http://www.w3.org/2000/svg" width="32" height="32" viewBox="0 0 32 32">
<title>sobject</title>
<path d="M3.877 2.646h2.462c-2.954 6.523-2.954 11.446 0 17.969h-2.462c-3.446-7.508-3.385-10.462 0-17.969zM14.585 13.785c0.246 1.108 0.431 2.031 0.554 2.4 0.185 0.554 0.492 0.985 0.862 1.292 0.923-0.738 2.092-1.169 3.323-1.169 0.8 0 1.538 0.185 2.215 0.492 0.123-0.185 0.185-0.369 0.185-0.554 0-0.615-0.492-1.108-1.108-1.108-0.185 0-0.308 0.062-0.492 0.123 0 0-1.169 0.677-1.6 0.123-0.308-0.554-0.554-1.292-0.738-2.154-0.185-0.8-0.369-1.723-0.554-2.646l1.169-1.723s1.354 0.492 2.031 0.492 2.031-0.554 2.031-2.338-1.292-1.908-1.723-1.908c-0.8 0-1.6 0.554-2.277 1.785s-1.477 2.585-1.477 2.585c-0.185-0.862-0.308-1.538-0.369-1.846-0.123-0.738-0.985-2.4-2.769-2.4s-3.446 1.046-3.446 1.046c-0.308 0.185-0.492 0.554-0.492 0.923 0 0.615 0.492 1.108 1.108 1.108 0.185 0 0.308-0.062 0.492-0.123 0 0 1.354-0.738 1.662 0 0.062 0.246 0.185 0.492 0.246 0.738 0.369 1.169 0.677 2.523 0.923 3.815l-1.169 1.662s-1.354-0.492-2.031-0.492c-0.677 0-2.031 0.554-2.031 2.338s1.292 1.908 1.723 1.908c0.8 0 1.6-0.554 2.277-1.785s1.477-2.585 1.477-2.585zM26.769 17.723c0.062 0 0.062 0.062 0.123 0.062h0.554c0.615 0 1.231 0.123 1.785 0.308 2.215-5.785 1.846-8.862-1.169-15.446h-2.462c2.523 5.538 2.892 9.908 1.169 15.077zM21.723 19.938c0.492-0.492 1.169-0.8 1.969-0.8 0.985 0 1.908 0.554 2.4 1.354 0.431-0.185 0.862-0.308 1.354-0.308 1.846 0 3.323 1.477 3.323 3.323s-1.477 3.323-3.323 3.323c-0.246 0-0.431 0-0.677-0.062-0.431 0.738-1.231 1.231-2.092 1.231-0.369 0-0.738-0.123-1.046-0.246-0.431 0.985-1.415 1.662-2.523 1.662-1.231 0-2.215-0.738-2.585-1.785-0.185 0-0.308 0.062-0.554 0.062-1.415 0-2.585-1.108-2.585-2.523 0-0.923 0.492-1.785 1.292-2.215-0.185-0.369-0.246-0.738-0.246-1.169 0-1.6 1.354-2.954 2.954-2.954 0.923-0.062 1.785 0.431 2.338 1.108z"></path>
</svg>
