<!-- Generated by IcoMoon.io -->
<svg version="1.1" xmlns="http://www.w3.org/2000/svg" width="32" height="32" viewBox="0 0 32 32">
<title>spinner</title>
<path d="M9.846 16.923v-1.846c0-0.492-0.431-0.923-0.923-0.923h-6.769c-0.492 0-0.923 0.431-0.923 0.923v1.846c0 0.492 0.431 0.923 0.923 0.923h6.769c0.492 0 0.923-0.431 0.923-0.923zM11.015 19.692c-0.369-0.369-0.923-0.369-1.292 0l-4.8 4.8c-0.369 0.369-0.369 0.923 0 1.292l1.292 1.292c0.369 0.369 0.923 0.369 1.292 0l4.8-4.8c0.369-0.369 0.369-0.923 0-1.292l-1.292-1.292zM20.985 12.308c0.369 0.369 0.923 0.369 1.292 0l4.8-4.8c0.369-0.369 0.369-0.923 0-1.292l-1.292-1.292c-0.369-0.369-0.923-0.369-1.292 0l-4.8 4.738c-0.369 0.369-0.369 0.923 0 1.292l1.292 1.354zM7.508 4.923c-0.369-0.369-0.923-0.369-1.292 0l-1.292 1.292c-0.369 0.369-0.369 0.923 0 1.292l4.8 4.8c0.369 0.369 0.923 0.369 1.292 0l1.292-1.292c0.369-0.369 0.369-0.923 0-1.292l-4.8-4.8zM22.338 19.692c-0.369-0.369-0.923-0.369-1.292 0l-1.354 1.292c-0.369 0.369-0.369 0.923 0 1.292l4.8 4.8c0.369 0.369 0.923 0.369 1.292 0l1.292-1.292c0.369-0.369 0.369-0.923 0-1.292l-4.738-4.8zM16.923 22.154h-1.846c-0.492 0-0.923 0.431-0.923 0.923v6.769c0 0.492 0.431 0.923 0.923 0.923h1.846c0.492 0 0.923-0.431 0.923-0.923v-6.769c0-0.492-0.431-0.923-0.923-0.923zM29.846 14.154h-6.769c-0.492 0-0.923 0.431-0.923 0.923v1.846c0 0.492 0.431 0.923 0.923 0.923h6.769c0.492 0 0.923-0.431 0.923-0.923v-1.846c0-0.492-0.431-0.923-0.923-0.923zM16.923 1.231h-1.846c-0.492 0-0.923 0.431-0.923 0.923v6.769c0 0.492 0.431 0.923 0.923 0.923h1.846c0.492 0 0.923-0.431 0.923-0.923v-6.769c0-0.492-0.431-0.923-0.923-0.923z"></path>
</svg>
