<!-- Generated by IcoMoon.io -->
<svg version="1.1" xmlns="http://www.w3.org/2000/svg" width="32" height="32" viewBox="0 0 32 32">
<title>store</title>
<path d="M26.523 18.154h-0.123c-0.985-0.123-1.785-0.369-2.523-0.923-0.062-0.062-0.062-0.062-0.123-0.062-0.369-0.308-0.677-0.123-0.862-0.062l-0.062 0.062c-0.923 0.677-1.969 1.046-3.2 1.046-1.292 0-2.338-0.369-3.323-1.108-0.369-0.246-0.615 0-0.615 0-0.985 0.8-2.092 1.169-3.385 1.169-1.231 0-2.338-0.369-3.262-1.108-0.062-0.062-0.123-0.062-0.123-0.123-0.308-0.246-0.615 0-0.615 0-0.923 0.738-1.969 1.108-3.138 1.169 0 0-0.369 0-0.369 0.431v9.169c0 0.185 0.123 0.615 0.677 0.738h11.385c0.615-0.123 0.677-0.554 0.677-0.738v-6.523c0.062-0.185 0.123-0.369 0.615-0.369h5.477c0.185 0.062 0.369 0.185 0.369 0.615v6.154c0 0.677 0.492 0.8 0.615 0.8h1.723c0.123 0 0.615-0.123 0.615-0.8v-8.862c0.062-0.492-0.185-0.615-0.431-0.677zM14.277 25.231v0.185c0 0.246-0.123 0.615-0.738 0.615h-4.985c-0.554 0-0.677-0.246-0.738-0.492v-3.754c0-0.862 0.492-0.923 0.677-0.923h5.231c0.185 0 0.615 0.123 0.615 0.8-0.062 1.231-0.062 2.4-0.062 3.569zM26.031 15.692c1.354 0.369 2.523 0.123 3.508-0.862 0.615-0.615 1.046-1.354 1.169-2.154v-0.123c-0.123-0.308-0.246-0.615-0.369-0.862-1.477-2.646-2.892-5.292-4.308-7.938-0.185-0.369-0.615-0.369-0.738-0.369h-18.769s-0.554 0-0.738 0.369c-1.477 2.646-2.892 5.354-4.308 7.938-0.123 0.246-0.246 0.615-0.246 0.985v0.123c0.123 0.862 0.492 1.6 1.108 2.154 1.108 0.985 2.338 1.231 3.815 0.738 0.8-0.308 1.354-0.8 1.846-1.538l0.185-0.185c0.308-0.185 0.677-0.123 0.923 0.185 0.246 0.369 0.554 0.738 0.923 0.985 1.046 0.8 2.215 0.923 3.446 0.554 0.8-0.246 1.415-0.8 1.846-1.538 0.246-0.369 0.862-0.431 1.108 0 0.123 0.123 0.185 0.308 0.308 0.431 0.615 0.738 1.415 1.169 2.338 1.292 0.862 0.123 1.723-0.123 2.523-0.615 0.431-0.308 0.8-0.677 1.046-1.108 0.308-0.369 0.862-0.369 1.108 0 0.492 0.8 1.108 1.292 2.031 1.538h0.246z"></path>
</svg>
