<!-- Generated by IcoMoon.io -->
<svg version="1.1" xmlns="http://www.w3.org/2000/svg" width="32" height="32" viewBox="0 0 32 32">
<title>strategy</title>
<path d="M28.862 11.508h-4.985c-1.108 0-1.969 0.862-1.969 1.969v1.231h-4.615v-9.723c0-0.308-0.308-0.615-0.615-0.615h-6.462v-1.169c0-1.108-0.862-1.969-1.969-1.969h-4.985c-1.046 0-1.969 0.862-1.969 1.969v4.985c0 1.108 0.862 1.969 1.969 1.969h4.985c1.108 0 1.969-0.862 1.969-1.969v-1.169h4.554v7.692h-4.554v-1.169c0-1.108-0.862-1.969-1.969-1.969h-4.985c-1.108 0-1.969 0.862-1.969 1.969v4.923c0 1.108 0.862 1.969 1.969 1.969h4.985c1.108 0 1.969-0.862 1.969-1.969v-1.169h4.554v7.692h-4.554v-1.108c0-1.108-0.862-1.969-1.969-1.969h-4.985c-1.108 0-1.969 0.862-1.969 1.969v4.985c0 1.108 0.862 1.969 1.969 1.969h4.985c1.108 0 1.969-0.862 1.969-1.969v-1.169h6.523c0.369 0 0.615-0.369 0.615-0.615v-9.723h4.615v1.108c0 1.108 0.862 1.969 1.969 1.969h4.985c1.108 0 1.969-0.862 1.969-1.969v-4.985c-0.062-1.108-0.923-1.969-2.031-1.969zM7.692 7.631h-3.877v-3.938h3.877v3.938zM7.692 14.031v3.877h-3.877v-3.877h3.877zM7.692 28.308h-3.877v-3.877h3.877v3.877zM28.369 14.031v3.877h-3.877v-3.877h3.877z"></path>
</svg>
