<!-- Generated by IcoMoon.io -->
<svg version="1.1" xmlns="http://www.w3.org/2000/svg" width="32" height="32" viewBox="0 0 32 32">
<title>sync</title>
<path d="M29.477 18.031c0-0.492-0.431-0.923-0.923-0.923h-2.154c-0.492 0-0.862 0.369-0.862 0.862 0 0.123 0 0.308-0.062 0.431-0.185 0.8-0.492 1.538-0.923 2.277-1.723 3.015-4.738 4.677-7.938 4.677-2.462 0-4.8-0.985-6.523-2.708-0.308-0.246-0.554-0.554-0.738-0.862-0.185-0.492 0.246-0.738 0.8-0.738h4.308c0.492 0 0.923-0.431 0.923-0.923v-1.908c0-0.492-0.369-0.862-0.862-0.862h-11.262c-0.431 0-0.8 0.369-0.8 0.8v11.2c0.062 0.492 0.492 0.923 0.985 0.923h1.846c0.492 0 0.923-0.431 0.923-0.923v-4.308c0-0.554 0.308-0.8 0.738-0.431 0.185 0.246 0.369 0.431 0.615 0.615 3.077 3.077 7.385 4.369 11.815 3.508 1.538-0.308 3.015-0.923 4.308-1.785 3.2-2.092 5.231-5.292 5.785-8.8v-0.123zM2.523 13.969c0 0.492 0.431 0.923 0.923 0.923h2.154c0.492 0 0.862-0.369 0.862-0.862 0-0.123 0-0.308 0.062-0.431 0.185-0.8 0.492-1.538 0.923-2.277 1.723-3.015 4.738-4.677 7.938-4.677 2.462 0 4.8 0.985 6.523 2.708 0.308 0.246 0.554 0.554 0.738 0.862 0.185 0.492-0.246 0.738-0.8 0.738h-4.308c-0.492 0-0.923 0.431-0.923 0.923v1.908c0 0.492 0.369 0.862 0.862 0.862h11.262c0.431 0 0.8-0.369 0.8-0.8v-11.2c-0.062-0.492-0.492-0.923-0.985-0.923h-1.846c-0.492 0-0.923 0.431-0.923 0.923v4.308c0 0.554-0.308 0.8-0.738 0.431-0.185-0.246-0.369-0.431-0.615-0.615-3.077-3.077-7.385-4.369-11.815-3.508-1.538 0.308-3.015 0.923-4.308 1.785-3.2 2.092-5.231 5.292-5.785 8.8v0.123z"></path>
</svg>
