<!-- Generated by IcoMoon.io -->
<svg version="1.1" xmlns="http://www.w3.org/2000/svg" width="32" height="32" viewBox="0 0 32 32">
<title>tablet-portrait</title>
<path d="M28.308 3.692c0-1.354-1.108-2.462-2.462-2.462h-19.692c-1.354 0-2.462 1.108-2.462 2.462v24.615c0 1.354 1.108 2.462 2.462 2.462h19.692c1.354 0 2.462-1.108 2.462-2.462v-24.615zM15.938 29.538c-1.046 0-1.846-0.8-1.846-1.846s0.8-1.846 1.846-1.846 1.846 0.8 1.846 1.846-0.862 1.846-1.846 1.846zM24.615 23.692c0 0.492-0.431 0.923-0.923 0.923h-15.385c-0.492 0-0.923-0.431-0.923-0.923v-17.846c0-0.492 0.431-0.923 0.923-0.923h15.385c0.492 0 0.923 0.431 0.923 0.923v17.846z"></path>
</svg>
