<!-- Generated by IcoMoon.io -->
<svg version="1.1" xmlns="http://www.w3.org/2000/svg" width="32" height="32" viewBox="0 0 32 32">
<title>tablet-landscape</title>
<path d="M30.769 6.154c0-1.354-1.108-2.462-2.462-2.462h-24.615c-1.354 0-2.462 1.108-2.462 2.462v19.692c0 1.354 1.108 2.462 2.462 2.462h24.615c1.354 0 2.462-1.108 2.462-2.462v-19.692zM4.246 17.846c-1.046 0-1.846-0.8-1.846-1.846s0.8-1.846 1.846-1.846 1.846 0.8 1.846 1.846-0.862 1.846-1.846 1.846zM27.077 23.692c0 0.492-0.431 0.923-0.923 0.923h-17.846c-0.492 0-0.923-0.431-0.923-0.923v-15.385c0-0.492 0.431-0.923 0.923-0.923h17.846c0.492 0 0.923 0.431 0.923 0.923v15.385z"></path>
</svg>
