<!-- Generated by IcoMoon.io -->
<svg version="1.1" xmlns="http://www.w3.org/2000/svg" width="32" height="32" viewBox="0 0 32 32">
<title>target</title>
<path d="M16.123 1.415h-0.123c-6.35 0.014-11.494 5.158-11.508 11.506v0.124c0 8 8.246 15.385 10.831 17.292 0.209 0.168 0.477 0.27 0.769 0.27s0.561-0.102 0.772-0.272l-0.002 0.002c2.585-2.031 10.769-9.292 10.769-17.292-0.034-6.367-5.151-11.527-11.498-11.631h-0.010zM16 4.615c4.59 0.011 8.307 3.734 8.307 8.326 0 1.953-0.672 3.748-1.798 5.168l0.013-0.017c-0.677-0.985-2.092-1.723-3.446-2.277-0.041-0.039-0.096-0.063-0.157-0.063-0.010 0-0.019 0.001-0.028 0.002h0.001c-0.063-0.029-0.137-0.046-0.215-0.046s-0.152 0.017-0.219 0.048l0.003-0.001c-0.701 0.438-1.547 0.709-2.454 0.738h-0.008c-0.015 0-0.032 0-0.049 0-0.9 0-1.736-0.276-2.427-0.748l0.015 0.010c-0.063-0.029-0.137-0.046-0.215-0.046s-0.152 0.017-0.219 0.048l0.003-0.001c-0.041 0.039-0.096 0.063-0.157 0.063-0.010 0-0.019-0.001-0.028-0.002h0.001c-1.354 0.615-2.769 1.292-3.446 2.338-1.114-1.408-1.787-3.21-1.787-5.169 0-4.602 3.714-8.336 8.307-8.369h0.003z"></path>
<path d="M19.446 11.262c0 2.107-1.543 3.815-3.446 3.815s-3.446-1.708-3.446-3.815c0-2.107 1.543-3.815 3.446-3.815s3.446 1.708 3.446 3.815z"></path>
</svg>
