<!-- Generated by IcoMoon.io -->
<svg version="1.1" xmlns="http://www.w3.org/2000/svg" width="32" height="32" viewBox="0 0 32 32">
<title>task</title>
<path d="M14.769 4.308l-1.046-1.046c-0.308-0.308-0.738-0.308-1.046 0l-6.523 6.462-2.646-2.585c-0.308-0.308-0.738-0.308-1.046 0l-1.046 1.046c-0.308 0.308-0.308 0.738 0 1.046l3.631 3.631c0.308 0.308 0.677 0.431 1.046 0.431s0.738-0.123 1.046-0.431l7.631-7.508c0.246-0.246 0.246-0.738 0-1.046zM29.785 11.323h-12.862c-0.554 0-0.985-0.431-0.985-0.985v-1.969c0-0.554 0.431-0.985 0.985-0.985h12.862c0.554 0 0.985 0.431 0.985 0.985v1.969c0 0.554-0.431 0.985-0.985 0.985zM29.785 20.123h-15.815c-0.554 0-0.985-0.431-0.985-0.985v-1.969c0-0.554 0.431-0.985 0.985-0.985h15.815c0.554 0 0.985 0.431 0.985 0.985v1.969c0 0.554-0.431 0.985-0.985 0.985zM8 20.123h-1.969c-0.554 0-0.985-0.431-0.985-0.985v-1.969c0-0.554 0.431-0.985 0.985-0.985h1.969c0.554 0 0.985 0.431 0.985 0.985v1.969c0.062 0.554-0.431 0.985-0.985 0.985zM8 28.923h-1.969c-0.554 0-0.985-0.431-0.985-0.985v-1.969c0-0.554 0.431-0.985 0.985-0.985h1.969c0.554 0 0.985 0.431 0.985 0.985v1.969c0.062 0.554-0.431 0.985-0.985 0.985zM29.785 28.923h-15.815c-0.554 0-0.985-0.431-0.985-0.985v-1.969c0-0.554 0.431-0.985 0.985-0.985h15.815c0.554 0 0.985 0.431 0.985 0.985v1.969c0 0.554-0.431 0.985-0.985 0.985z"></path>
</svg>
