<!-- Generated by IcoMoon.io -->
<svg version="1.1" xmlns="http://www.w3.org/2000/svg" width="32" height="32" viewBox="0 0 32 32">
<title>text-color</title>
<path d="M6.4 22.154h2.523c0.369 0 0.738-0.308 0.862-0.677l1.969-5.477h8.246l2.154 5.477c0.123 0.369 0.492 0.677 0.862 0.677h2.523c0.431 0 0.738-0.431 0.554-0.8l-7.385-18.277c-0.123-0.369-0.431-0.615-0.8-0.615h-4.369c-0.369 0-0.738 0.246-0.862 0.615l-6.769 18.277c-0.185 0.369 0.123 0.8 0.492 0.8zM15.446 6.154h0.554l2.646 6.154h-5.538l2.338-6.154zM29.846 25.846h-27.692c-0.492 0-0.923 0.431-0.923 0.923v1.846c0 0.492 0.431 0.923 0.923 0.923h27.692c0.492 0 0.923-0.431 0.923-0.923v-1.846c0-0.492-0.431-0.923-0.923-0.923z"></path>
</svg>
