<!-- Generated by IcoMoon.io -->
<svg version="1.1" xmlns="http://www.w3.org/2000/svg" width="32" height="32" viewBox="0 0 32 32">
<title>text-template</title>
<path d="M12.369 22.892v-0.123c0.123-1.662 1.477-3.015 3.2-3.015h4.123c-0.677-1.169-0.554-2.708 0.431-3.815l0.123-0.123 0.985-0.923c0.554-0.615 1.354-0.923 2.092-0.985v-10.154c0-1.354-1.108-2.462-2.462-2.462h-17.108c-1.354 0-2.462 1.108-2.462 2.462v17.169c0 1.354 1.108 2.462 2.462 2.462h8.554v-0.492zM4.985 5.108c0-0.369 0.246-0.615 0.615-0.615h3.692c0.369 0 0.615 0.246 0.615 0.615v1.723c0 0.369-0.246 0.615-0.615 0.615h-3.692c-0.369 0-0.615-0.246-0.615-0.615v-1.723zM4.985 10.462c0-0.369 0.246-0.615 0.615-0.615h13.477c0.369 0 0.615 0.246 0.615 0.615v1.723c0 0.369-0.246 0.615-0.615 0.615h-13.415c-0.369 0-0.615-0.246-0.615-0.615l-0.062-1.723zM4.985 17.6v-1.723c0-0.369 0.246-0.615 0.615-0.615h11.077c0.369 0 0.615 0.246 0.615 0.615v1.723c0 0.369-0.246 0.615-0.615 0.615h-11.015c-0.431 0-0.677-0.246-0.677-0.615z"></path>
<path d="M24.123 16.615c-0.369-0.308-0.8-0.308-1.046 0l-1.046 0.985c-0.246 0.308-0.246 0.738 0 0.985l2.708 2.708c0.123 0.123 0.123 0.185 0.123 0.369 0 0.308-0.185 0.492-0.492 0.492h-8.8c-0.369 0-0.677 0.308-0.738 0.677v1.477c0.062 0.369 0.369 0.677 0.738 0.8h8.8c0.123 0 0.185 0.062 0.246 0.123 0.185 0.123 0.246 0.492 0.123 0.677l-2.708 2.708c-0.246 0.308-0.246 0.738 0 0.985l0.985 1.046c0.308 0.246 0.738 0.246 0.985 0l6.523-6.523c0.246-0.308 0.246-0.738 0-0.985l-6.4-6.523z"></path>
</svg>
