<!-- Generated by IcoMoon.io -->
<svg version="1.1" xmlns="http://www.w3.org/2000/svg" width="32" height="32" viewBox="0 0 32 32">
<title>text</title>
<path d="M30.4 29.477c-0.123-1.969-0.185-4-0.185-5.969 0-0.985 0-1.969 0.062-3.015 0-0.923 0.123-1.846-0.246-2.708-0.8-1.969-3.385-2.338-5.231-2.338-0.923 0-1.908 0.123-2.892 0.369-0.677 0.185-1.354 0.431-1.908 0.738l0.615 1.538c0.123 0.308 0.185 0.615 0.246 0.923 1.231-0.615 2.462-0.923 3.754-0.923 1.969 0 2.954 0.8 2.954 2.338v0.738h-1.354c-2.523 0-4.431 0.369-5.723 1.108-1.415 0.677-2.031 1.969-2.031 3.877 0 1.415 0.431 2.523 1.292 3.262s1.969 1.169 3.323 1.169c1.169 0 2.092-0.185 2.831-0.492s1.354-0.862 1.846-1.538h0.062c0.062 0.308 0.123 0.862 0.246 1.6 0 0.062 2.215 0 2.4 0 0-0.246-0.062-0.431-0.062-0.677zM27.569 24.615c0 0.369-0.062 0.677-0.185 0.985-0.062 0.246-0.185 0.492-0.369 0.677-0.615 0.862-1.6 1.292-2.585 1.415-0.615 0.123-1.231 0.062-1.846-0.062-0.492-0.062-0.923-0.308-1.231-0.738-0.431-0.677-0.308-1.723 0.123-2.338 0.308-0.369 0.738-0.615 1.169-0.8 1.169-0.369 2.585-0.369 3.815-0.369h1.046v1.231zM18.4 19.077l-6.892-16.985c-0.123-0.308-0.369-0.554-0.738-0.554h-2.154c-0.308 0-0.677 0.246-0.8 0.554l-6.215 16.985c-0.185 0.308 0.123 0.738 0.431 0.738h2.4c0.308 0 0.677-0.246 0.8-0.615l1.538-4.431h6.154l1.785 4.431c0.123 0.308 0.431 0.615 0.8 0.615h2.4c0.369 0 0.615-0.431 0.492-0.738zM8.062 11.385l1.785-4.615 1.969 4.615h-3.754z"></path>
</svg>
