<!-- Generated by IcoMoon.io -->
<svg version="1.1" xmlns="http://www.w3.org/2000/svg" width="32" height="32" viewBox="0 0 32 32">
<title>textbox</title>
<path d="M27.508 30.4h-23.015c-1.6 0-2.892-1.292-2.892-2.892v-23.015c0-1.6 1.292-2.892 2.892-2.892h23.077c1.6 0 2.892 1.292 2.892 2.892v23.077c-0.062 1.538-1.354 2.831-2.954 2.831zM5.477 6.4v19.2c0 0.554 0.431 0.985 0.985 0.985h19.2c0.554 0 0.985-0.431 0.985-0.985v-19.2c0-0.554-0.431-0.985-0.985-0.985h-19.2c-0.554 0-0.985 0.431-0.985 0.985z"></path>
<path d="M9.354 21.723v-11.446c0-0.554 0.431-0.985 0.985-0.985h1.908c0.554 0 0.985 0.431 0.985 0.985v11.446c0 0.554-0.431 0.985-0.985 0.985h-1.908c-0.554 0-0.985-0.431-0.985-0.985z"></path>
</svg>
