<!-- Generated by IcoMoon.io -->
<svg version="1.1" xmlns="http://www.w3.org/2000/svg" width="32" height="32" viewBox="0 0 32 32">
<title>toggle</title>
<path d="M24.123 1.231h-16.492c-3.569 0.123-6.4 3.015-6.4 6.646s2.831 6.523 6.4 6.646h16.492c3.631 0 6.646-2.954 6.646-6.646s-2.954-6.646-6.646-6.646zM7.815 11.569c-2.031 0-3.692-1.662-3.692-3.692s1.662-3.692 3.692-3.692 3.692 1.662 3.692 3.692-1.662 3.692-3.692 3.692zM24.123 17.538h-16.492c-3.569 0.123-6.4 3.015-6.4 6.585s2.831 6.523 6.4 6.646h16.492c3.692 0 6.646-2.954 6.646-6.646s-2.954-6.585-6.646-6.585zM24.369 28.862h-16.8c-2.462-0.123-4.431-2.154-4.431-4.677s1.969-4.554 4.431-4.677h16.8c2.462 0.123 4.431 2.154 4.431 4.677s-1.969 4.554-4.431 4.677z"></path>
<path d="M27.323 24.123c0 1.767-1.433 3.2-3.2 3.2s-3.2-1.433-3.2-3.2c0-1.767 1.433-3.2 3.2-3.2s3.2 1.433 3.2 3.2z"></path>
</svg>
