<!-- Generated by IcoMoon.io -->
<svg version="1.1" xmlns="http://www.w3.org/2000/svg" width="32" height="32" viewBox="0 0 32 32">
<title>topic2</title>
<path d="M30.277 8.185h-4l1.723-6.585v-0.123c0-0.246-0.185-0.492-0.492-0.492h-3.2c-0.246 0-0.431 0.185-0.492 0.431l-1.723 6.831h-8l1.723-6.585v-0.185c0-0.246-0.185-0.492-0.492-0.492h-3.2c-0.246 0-0.431 0.185-0.492 0.431l-1.785 6.769h-4.431c-0.246 0-0.431 0.123-0.492 0.369l-0.8 3.015v0.123c0 0.246 0.185 0.492 0.492 0.492h4.185l-1.969 7.692h-4.308c-0.246 0-0.431 0.123-0.492 0.369l-0.8 2.892v0.123c0 0.246 0.185 0.492 0.492 0.492h4.062l-1.723 6.708v0.123c0 0.246 0.185 0.492 0.492 0.492h3.2c0.246 0 0.431-0.123 0.492-0.431l1.785-6.892h7.938l-1.723 6.646v0.123c0 0.246 0.185 0.492 0.492 0.492h3.2c0.246 0 0.431-0.123 0.492-0.431l1.723-6.892h4.369c0.246 0 0.431-0.123 0.492-0.431l0.8-3.015v-0.123c0-0.246-0.185-0.492-0.492-0.492h-4.123l2.031-7.692h4.246c0.246 0 0.431-0.123 0.492-0.431l0.8-3.015v-0.123s-0.246-0.185-0.492-0.185zM19.015 19.877h-7.938l1.969-7.692h7.938l-1.969 7.692z"></path>
</svg>
