<!-- Generated by IcoMoon.io -->
<svg version="1.1" xmlns="http://www.w3.org/2000/svg" width="32" height="32" viewBox="0 0 32 32">
<title>touch-action</title>
<path d="M23.262 18.338l-5.046-1.723c-0.369-0.123-0.677-0.492-0.677-0.923v-6.708c0-1.046-0.862-1.846-1.908-1.846h-0.185c-1.046 0-1.908 0.862-1.908 1.846v13.231c0 1.108-1.415 1.6-2.031 0.615l-1.292-2.708c-0.677-1.169-2.215-1.477-3.323-0.677l-0.8 0.615 4.246 10.031c0.185 0.431 0.615 0.677 1.108 0.677h11.138c0.554 0 0.985-0.369 1.108-0.862l1.969-7.015c0.492-1.969-0.615-3.877-2.4-4.554z"></path>
<path d="M10.585 14.154v-5.292c0.123-2.523 2.154-4.554 4.677-4.677h0.492c2.523 0.123 4.554 2.154 4.677 4.677v5.292c0 0.431 0.554 0.615 0.862 0.369 1.354-1.415 2.154-3.323 2.154-5.354 0-4.554-3.938-8.246-8.615-7.815-3.569 0.369-6.523 3.077-7.077 6.585-0.369 2.462 0.369 4.862 2.031 6.585 0.246 0.246 0.8 0.062 0.8-0.369z"></path>
</svg>
