<!-- Generated by IcoMoon.io -->
<svg version="1.1" xmlns="http://www.w3.org/2000/svg" width="32" height="32" viewBox="0 0 32 32">
<title>tracker</title>
<path d="M9.354 17.477v-2.708c3.138-0.554 5.538-3.323 5.538-6.646 0-3.754-3.015-6.769-6.769-6.769s-6.769 3.015-6.769 6.769c0 3.323 2.4 6.092 5.538 6.646v2.708c-3.138 0.554-5.538 3.323-5.538 6.646 0 3.754 3.015 6.769 6.769 6.769s6.769-3.015 6.769-6.769c0-3.323-2.4-6.031-5.538-6.646zM3.815 8.123c0-2.4 1.908-4.308 4.308-4.308s4.308 1.908 4.308 4.308-1.908 4.308-4.308 4.308-4.308-1.846-4.308-4.308zM18.646 5.662h11.015c0.677 0 1.231 0.554 1.231 1.231v2.462c0 0.677-0.554 1.231-1.231 1.231h-11.015c-0.677 0-1.231-0.554-1.231-1.231v-2.462c0-0.677 0.554-1.231 1.231-1.231zM18.646 21.662h11.015c0.677 0 1.231 0.554 1.231 1.231v2.462c0 0.677-0.554 1.231-1.231 1.231h-11.015c-0.677 0-1.231-0.554-1.231-1.231v-2.462c0-0.615 0.554-1.231 1.231-1.231z"></path>
</svg>
