<!-- Generated by IcoMoon.io -->
<svg version="1.1" xmlns="http://www.w3.org/2000/svg" width="32" height="32" viewBox="0 0 32 32">
<title>trainer</title>
<path d="M17.108 1.231c2.031 0 3.631 1.6 3.631 3.631s-1.662 3.631-3.631 3.631-3.631-1.6-3.631-3.631 1.6-3.631 3.631-3.631zM26.462 11.138c-0.738-0.062-1.415 0.431-1.477 1.108l-0.369 3.569c-0.123 0-0.185 0.185-0.308 0.185h-3.385l-2.338-4.123c-0.185-0.369-0.554-0.677-0.985-0.738l-3.569-0.492c-0.615-0.062-1.231 0.246-1.477 0.862l-2.708 6.954c-0.185 0.554 0.062 1.108 0.554 1.415l6.646 4.554 0.554 5.169c0.062 0.677 0.677 1.169 1.354 1.169 0.8 0 1.415-0.615 1.354-1.354l-0.615-6.338c0-0.308-0.185-0.615-0.492-0.862l-3.631-4.062 1.354-3.323 1.6 2.769c0.246 0.369 0.677 0.8 1.169 0.8h4.677l-1.354 11.077c-0.062 0.677 0.431 1.231 1.169 1.292 0.062 0 0.123-0.062 0.123-0.062 0.677 0 1.231-0.492 1.354-1.169l2.031-17.108c0.062-0.615-0.492-1.231-1.231-1.292zM7.508 17.046l2.277-5.846c0.123-0.369 0.308-0.738 0.554-1.108l-0.308-0.062c-1.969-0.246-3.815 0.923-4.431 2.708l-1.231 3.2c-0.246 0.677 0.123 1.477 0.862 1.662l0.554 0.123c0.738 0.308 1.477-0.062 1.723-0.677zM8.369 21.662l-2.769 8.246c-0.123 0.431 0.185 0.8 0.615 0.8h1.538c0.554 0 1.108-0.369 1.292-0.862l2.708-5.969-3.077-1.908c-0.062-0.123-0.185-0.246-0.308-0.308z"></path>
</svg>
