<!-- Generated by IcoMoon.io -->
<svg version="1.1" xmlns="http://www.w3.org/2000/svg" width="32" height="32" viewBox="0 0 32 32">
<title>trailhead</title>
<path d="M7.569 22.769l-1.6 1.846h3.138zM9.046 26.523h3.138l-1.6-1.785zM21.662 25.231l1.538-1.785 1.6 1.785z"></path>
<path d="M16.492 1.354c-0.246-0.123-0.554-0.123-0.862 0-8.8 3.692-14.462 12.431-14.277 22.031v2.092c0 0.308 0.123 0.615 0.431 0.862 4.246 2.831 9.231 4.369 14.338 4.431h0.554c4.862-0.185 9.662-1.662 13.723-4.431 0.246-0.185 0.431-0.492 0.431-0.862v-2.092c0.185-9.6-5.477-18.338-14.338-22.031zM8.554 9.108c3.569-4.246 7.569-5.662 7.569-5.662 0.862 0.369 10.4 4.123 12.431 16.246h-2.523l-4.8-6.954c-0.308-0.431-0.985-0.554-1.477-0.246-0.123 0.062-0.185 0.185-0.246 0.246l-1.231 1.723-3.385-4.862c-0.308-0.431-0.985-0.554-1.477-0.246-0.123 0.062-0.185 0.185-0.246 0.246l-6.892 10.031-2.523 0.062c0.738-4.615 2.646-8 4.8-10.585zM23.446 19.692h-6.215l1.6-2.338 1.477-2.215 3.138 4.554zM14.585 12.862l2.462 3.508-2.338 3.262h-5.908l5.169-7.692 0.615 0.923zM16.923 27.077l-0.923 1.6c-1.785 0-3.446-0.246-5.415-0.677-2.523-0.615-4.923-1.662-7.138-3.015v-1.538c0-0.492 0-1.046 0.062-1.6h10.831c-0.862 1.292-0.431 3.015 0.923 3.815 0.123 0.062 0.246 0.123 0.308 0.185l0.985 0.431c0.369 0.123 0.492 0.492 0.369 0.8zM28.8 24.923c-1.6 0.985-3.262 1.785-4.985 2.4 0 0-0.308 0.123-0.431 0.123-0.985 0.308-1.969 0.554-3.015 0.8-0.554 0.123-1.169 0.185-1.723 0.246l0.185-0.308c0.8-1.354 0.308-3.015-1.046-3.815-0.062-0.062-0.185-0.062-0.246-0.123l-0.985-0.431c-0.308-0.123-0.492-0.492-0.308-0.862 0-0.062 0.062-0.123 0.062-0.123l0.923-1.046h11.508c0 0.492 0.062 1.046 0.062 1.6v1.538z"></path>
</svg>
