<!-- Generated by IcoMoon.io -->
<svg version="1.1" xmlns="http://www.w3.org/2000/svg" width="32" height="32" viewBox="0 0 32 32">
<title>trending</title>
<path d="M30.831 18.806c0 0.004 0 0.008 0 0.012 0 0.394-0.32 0.714-0.714 0.714-0.203 0-0.387-0.085-0.517-0.221v0l-3.305-3.311-7.637 6.554c-0.381 0.401-0.918 0.651-1.514 0.651s-1.133-0.25-1.513-0.65l-0.001-0.001-4.609-5.255-8.209 7.2c-0.127 0.134-0.306 0.217-0.505 0.217s-0.378-0.083-0.504-0.217v0l-0.363-0.363c-0.134-0.127-0.217-0.306-0.217-0.505s0.083-0.378 0.217-0.504v0l8.074-11.015c0.381-0.401 0.918-0.651 1.514-0.651s1.133 0.25 1.513 0.65l4.61 4.61 4.683-5.403-3.028-2.738c-0.127-0.138-0.206-0.323-0.206-0.526 0-0.405 0.311-0.738 0.707-0.772h10.083c0.77 0.036 1.38 0.669 1.38 1.445 0 0.027-0.001 0.053-0.002 0.079v-0.004z"></path>
</svg>
