<!-- Generated by IcoMoon.io -->
<svg version="1.1" xmlns="http://www.w3.org/2000/svg" width="32" height="32" viewBox="0 0 32 32">
<title>type-tool</title>
<path d="M30.997 29.286l-10.849-26.825c-0.23-0.533-0.748-0.9-1.353-0.905h-6.419c-0.58 0.009-1.071 0.379-1.259 0.895l-0.003 0.009-9.945 26.825c-0.032 0.088-0.051 0.19-0.051 0.296 0 0.48 0.385 0.871 0.863 0.88h3.693c0.594-0.048 1.084-0.446 1.265-0.987l0.003-0.010 2.905-8.043h12.111l3.163 8.043c0.184 0.551 0.674 0.949 1.263 0.997h3.697c0.004 0 0.008 0 0.013 0 0.517 0 0.935-0.419 0.935-0.935 0-0.085-0.011-0.168-0.033-0.247l0.002 0.007zM11.742 16l3.526-9.040h0.732l3.877 9.040z"></path>
</svg>
