<!-- Generated by IcoMoon.io -->
<svg version="1.1" xmlns="http://www.w3.org/2000/svg" width="32" height="32" viewBox="0 0 32 32">
<title>unlinked</title>
<path d="M11.138 22.708l6.215-6.277 9.969-9.969c0.431-0.369 0.492-0.923 0.185-1.231l-1.108-1.108c-0.246-0.246-0.677-0.246-1.046-0.062l-21.231 21.108v0.062c-0.369 0.369-0.431 0.923-0.185 1.231l1.108 1.108c0.308 0.308 0.862 0.246 1.231-0.185l2.462-2.462c0 0.062 2.4-2.215 2.4-2.215zM11.323 14.215c-0.308 0-0.492 0.246-0.615 0.492-0.062 0.369-0.062 0.738-0.062 1.108 0 0.246 0 0.492 0.062 0.738l2.338-2.338h-1.723z"></path>
<path d="M5.108 22.154l2.462-2.462c-1.723-0.369-3.077-1.846-3.2-3.569-0.185-2.338 1.723-4.246 4-4.246h5.6c0.431 0 0.862 0.062 1.292 0.246l2.4-2.4c-0.554-0.308-1.108-0.615-1.662-0.738-0.615-0.185-1.354-0.308-1.969-0.308h-5.354c-4.062-0.062-7.385 2.954-7.508 6.831-0.123 2.892 1.477 5.415 3.938 6.646zM26.523 9.415l-2.462 2.462c1.785 0.308 3.2 1.785 3.323 3.631 0.185 2.338-1.723 4.246-4 4.246h-5.538c-0.492 0-0.985-0.123-1.415-0.246l-2.4 2.4c0.554 0.369 1.108 0.615 1.723 0.8s1.354 0.308 1.969 0.308h5.662c4.062 0.062 7.323-3.323 7.2-7.385-0.123-2.831-1.785-5.108-4.062-6.215z"></path>
<path d="M18.523 17.415h1.846c0.308 0 0.492-0.246 0.615-0.492 0.062-0.369 0.062-0.738 0.062-1.108 0-0.308 0-0.554-0.062-0.862l-2.462 2.462z"></path>
</svg>
