<!-- Generated by IcoMoon.io -->
<svg version="1.1" xmlns="http://www.w3.org/2000/svg" width="32" height="32" viewBox="0 0 32 32">
<title>unmuted</title>
<path d="M25.538 11.077c-0.862 0-1.538 0.615-1.538 1.477v2.462c0 4.308-3.631 7.877-8.062 7.877s-8.062-3.569-8.062-7.877v-2.462c0-0.862-0.677-1.477-1.538-1.477s-1.415 0.615-1.415 1.477v2.462c0 5.477 4.185 9.969 9.538 10.708v2.092h-2.523c-0.862 0-1.538 0.615-1.538 1.477s0.677 1.477 1.538 1.477h8.062c0.862 0 1.538-0.615 1.538-1.477s-0.677-1.477-1.538-1.477h-2.523v-2.092c5.415-0.738 9.6-5.231 9.6-10.708v-2.462c0-0.862-0.677-1.477-1.538-1.477z"></path>
<path d="M16 19.938c2.708 0 4.923-2.215 4.923-4.923v-8.923c0-2.708-2.154-4.862-4.862-4.862h-0.123c-2.708 0-4.862 2.154-4.862 4.862v8.923c0 2.708 2.215 4.923 4.923 4.923z"></path>
</svg>
