<!-- Generated by IcoMoon.io -->
<svg version="1.1" xmlns="http://www.w3.org/2000/svg" width="32" height="32" viewBox="0 0 32 32">
<title>upload</title>
<path d="M29.846 19.077h-1.846c-0.492 0-0.923 0.492-0.923 0.923v6.154c0 0.492-0.431 0.923-0.923 0.923h-20.308c-0.492 0-0.923-0.431-0.923-0.923v-6.154c0-0.431-0.431-0.923-0.923-0.923h-1.846c-0.492 0-0.923 0.492-0.923 0.923v8.308c0 1.354 1.108 2.462 2.462 2.462h24.615c1.354 0 2.462-1.108 2.462-2.462v-8.308c0-0.431-0.431-0.923-0.923-0.923z"></path>
<path d="M16.615 1.477c-0.369-0.369-0.923-0.369-1.292 0l-8.308 8.308c-0.369 0.369-0.369 0.923 0 1.292l1.292 1.292c0.369 0.369 0.923 0.369 1.292 0l3.446-3.446c0.369-0.369 1.108-0.123 1.108 0.431v13.046c0 0.492 0.369 0.923 0.862 0.923h1.846c0.492 0 0.985-0.492 0.985-0.923v-12.985c0-0.554 0.615-0.8 1.046-0.431l3.446 3.446c0.369 0.369 0.923 0.369 1.292 0l1.292-1.292c0.369-0.369 0.369-0.923 0-1.292l-8.308-8.369z"></path>
</svg>
