<!-- Generated by IcoMoon.io -->
<svg version="1.1" xmlns="http://www.w3.org/2000/svg" width="32" height="32" viewBox="0 0 32 32">
<title>variation-products</title>
<path d="M27.692 17.354c0.258-0.105 0.437-0.355 0.437-0.646 0-0.033-0.002-0.065-0.007-0.096v0.004-13.538c0.001-0.017 0.002-0.037 0.002-0.057 0-0.445-0.361-0.806-0.806-0.806-0.020 0-0.040 0.001-0.060 0.002h-1.72c-0.017-0.001-0.037-0.002-0.057-0.002-0.445 0-0.806 0.361-0.806 0.806 0 0.020 0.001 0.040 0.002 0.060v-0.003 10.338c1.677 0.596 2.881 2.111 3.015 3.924l0.001 0.015zM18.031 17.415h0.677c0.107-2.045 1.555-3.724 3.477-4.178l0.031-0.006v-10.154c0.001-0.017 0.002-0.037 0.002-0.057 0-0.445-0.361-0.806-0.806-0.806-0.020 0-0.040 0.001-0.060 0.002h-3.32c-0.017-0.001-0.037-0.002-0.057-0.002-0.445 0-0.806 0.361-0.806 0.806 0 0.020 0.001 0.040 0.002 0.060v-0.003 13.538c-0.001 0.013-0.001 0.028-0.001 0.043 0 0.421 0.342 0.763 0.763 0.763 0.035 0 0.070-0.002 0.104-0.007h-0.004zM10.215 2.277h-0.862c-0.017-0.001-0.037-0.002-0.057-0.002-0.445 0-0.806 0.361-0.806 0.806 0 0.020 0.001 0.040 0.002 0.060v-0.003 13.538c-0.003 0.027-0.005 0.059-0.005 0.092 0 0.428 0.347 0.775 0.775 0.775 0.032 0 0.064-0.002 0.095-0.006h0.858c0.017 0.001 0.037 0.002 0.057 0.002 0.445 0 0.806-0.361 0.806-0.806 0-0.020-0.001-0.040-0.002-0.060v0.003-13.6c-0.036-0.448-0.408-0.798-0.861-0.8v0zM5.477 2.277h-3.323c-0.030-0.004-0.065-0.007-0.1-0.007-0.421 0-0.763 0.342-0.763 0.763 0 0.015 0 0.030 0.001 0.046v-0.002 13.538c0 0.006 0 0.012 0 0.019 0 0.466 0.377 0.843 0.843 0.843 0.007 0 0.013 0 0.020 0h3.322c0.017 0.001 0.037 0.002 0.057 0.002 0.445 0 0.806-0.361 0.806-0.806 0-0.020-0.001-0.040-0.002-0.060v0.003-13.538c-0.013-0.445-0.377-0.801-0.824-0.801-0.013 0-0.026 0-0.039 0.001h0.002zM14.215 2.215h-0.062c-0.017-0.001-0.037-0.002-0.057-0.002-0.445 0-0.806 0.361-0.806 0.806 0 0.020 0.001 0.040 0.002 0.060v-0.003 13.538c-0.062 0.492 0.308 0.8 0.923 0.8 0.017 0.001 0.037 0.002 0.057 0.002 0.445 0 0.806-0.361 0.806-0.806 0-0.020-0.001-0.040-0.002-0.060v0.003-13.477c0.001-0.017 0.002-0.037 0.002-0.057 0-0.445-0.361-0.806-0.806-0.806-0.020 0-0.040 0.001-0.060 0.002h0.003zM28.246 24.246c-0.001 0-0.001 0-0.002 0-1.216 0-2.229 0.866-2.457 2.015l-0.003 0.016h-3.323c-0.14 0.018-0.247 0.137-0.247 0.281 0 0.009 0 0.019 0.001 0.028v-0.001 0.246c-0.012 0.246-0.056 0.477-0.128 0.695l0.005-0.018c-0.062 0.123 0.123 0.308 0.246 0.308h3.569c0.36 0.874 1.205 1.478 2.191 1.478 0.030 0 0.060-0.001 0.090-0.002h-0.004c1.381-0.030 2.493-1.142 2.523-2.52v-0.003c0 0 0 0 0-0.001 0-1.372-1.095-2.488-2.458-2.522h-0.003zM20.677 17.723c0 0.003 0 0.007 0 0.011 0 1.359 1.102 2.462 2.462 2.462 0.287 0 0.562-0.049 0.817-0.139l-0.017 0.005 1.723 3.2c0.123 0.123 0.246 0.185 0.369 0.123 0.238-0.192 0.531-0.323 0.852-0.368l0.009-0.001c0.088-0.052 0.146-0.147 0.146-0.255 0-0.041-0.008-0.081-0.024-0.116l0.001 0.002-1.846-3.385c0.345-0.394 0.555-0.912 0.555-1.48 0-0.021 0-0.041-0.001-0.061v0.003c0-1.393-1.13-2.523-2.523-2.523s-2.523 1.13-2.523 2.523v0zM21.6 21.292c-0.333-0.157-0.615-0.321-0.882-0.506l0.021 0.013c-0.123-0.123-0.308-0.062-0.369 0.123l-1.723 3.323c-0.091-0.040-0.198-0.064-0.309-0.064-0.021 0-0.042 0.001-0.063 0.002h0.003c-1.388 0.003-2.511 1.129-2.511 2.517 0 1.39 1.127 2.517 2.517 2.517s2.517-1.127 2.517-2.517c0-0.726-0.307-1.379-0.798-1.839l-0.001-0.001 1.723-3.2c0.001-0.009 0.001-0.020 0.001-0.031 0-0.129-0.047-0.248-0.125-0.339l0.001 0.001z"></path>
</svg>
