<!-- Generated by IcoMoon.io -->
<svg version="1.1" xmlns="http://www.w3.org/2000/svg" width="32" height="32" viewBox="0 0 32 32">
<title>variation-attribute-setup</title>
<path d="M14.523 2.215c-0.020-0.002-0.044-0.003-0.068-0.003-0.472 0-0.855 0.383-0.855 0.855 0 0.003 0 0.006 0 0.009v0 13.908c-0.003 0.027-0.005 0.059-0.005 0.092 0 0.428 0.347 0.775 0.775 0.775 0.032 0 0.064-0.002 0.095-0.006h0.058c0.017 0.001 0.037 0.002 0.057 0.002 0.445 0 0.806-0.361 0.806-0.806 0-0.020-0.001-0.040-0.002-0.060v0.003-13.969c0-0.003 0-0.006 0-0.009 0-0.438-0.355-0.794-0.794-0.794-0.024 0-0.047 0.001-0.071 0.003h0.003zM5.6 2.215h-3.446c-0.017-0.001-0.037-0.002-0.057-0.002-0.445 0-0.806 0.361-0.806 0.806 0 0.020 0.001 0.040 0.002 0.060v-0.003 13.908c0 0.006 0 0.012 0 0.019 0 0.466 0.377 0.843 0.843 0.843 0.007 0 0.013 0 0.020 0h3.445c0.017 0.001 0.037 0.002 0.057 0.002 0.445 0 0.806-0.361 0.806-0.806 0-0.020-0.001-0.040-0.002-0.060v0.003-13.969c-0.036-0.448-0.408-0.798-0.861-0.8v0zM10.4 2.215h-0.862c-0.017-0.001-0.037-0.002-0.057-0.002-0.445 0-0.806 0.361-0.806 0.806 0 0.020 0.001 0.040 0.002 0.060v-0.003 13.908c-0.003 0.027-0.005 0.059-0.005 0.092 0 0.428 0.347 0.775 0.775 0.775 0.032 0 0.064-0.002 0.095-0.006h0.858c0.017 0.001 0.037 0.002 0.057 0.002 0.445 0 0.806-0.361 0.806-0.806 0-0.020-0.001-0.040-0.002-0.060v0.003-13.969c0.001-0.013 0.001-0.028 0.001-0.043 0-0.421-0.342-0.763-0.763-0.763-0.035 0-0.070 0.002-0.104 0.007h0.004zM27.323 15.015v0.123l0.062 0.431c0.123 0.062 0.185 0.123 0.308 0.185l0.431-0.308 0.369-0.123 0.308-0.123v-12.185c0.001-0.017 0.002-0.037 0.002-0.057 0-0.445-0.361-0.806-0.806-0.806-0.020 0-0.040 0.001-0.060 0.002h-1.72c-0.017-0.001-0.037-0.002-0.057-0.002-0.445 0-0.806 0.361-0.806 0.806 0 0.020 0.001 0.040 0.002 0.060v-0.003 9.723c1.026 0.332 1.788 1.197 1.967 2.26l0.002 0.017zM19.508 15.385l0.308 0.123c0.106-0.068 0.227-0.13 0.355-0.18l0.014-0.005 0.062-0.369v-0.123c0.276-1.225 1.27-2.156 2.507-2.336l0.016-0.002v-9.477c-0.013-0.445-0.377-0.801-0.824-0.801-0.013 0-0.026 0-0.039 0.001h-3.444c-0.017-0.001-0.037-0.002-0.057-0.002-0.445 0-0.806 0.361-0.806 0.806 0 0.020 0.001 0.040 0.002 0.060v-0.003 12.246c0.22-0.072 0.473-0.117 0.735-0.123h0.003c0.037-0.002 0.080-0.003 0.123-0.003 0.375 0 0.735 0.069 1.067 0.194l-0.021-0.007zM29.169 23.262c0.063-0.306 0.107-0.665 0.123-1.032v-0.014c-0.008-0.375-0.052-0.735-0.13-1.082l0.007 0.036 1.169-0.985c0.231-0.204 0.377-0.501 0.377-0.832 0-0.191-0.048-0.371-0.133-0.527l0.003 0.006-0.492-0.923c-0.196-0.298-0.529-0.492-0.908-0.492-0.005 0-0.011 0-0.016 0h0.001c-0.123 0-0.246 0.062-0.369 0.062l-1.415 0.554c-0.515-0.459-1.132-0.817-1.81-1.036l-0.036-0.010-0.246-1.477c-0.119-0.431-0.507-0.741-0.968-0.741-0.027 0-0.055 0.001-0.081 0.003h-1.042c-0.019-0.001-0.041-0.002-0.064-0.002-0.464 0-0.856 0.309-0.98 0.733l-0.002 0.007-0.246 1.415c-0.737 0.226-1.374 0.584-1.914 1.052l0.007-0.006-1.354-0.554c-0.085-0.042-0.184-0.066-0.289-0.066-0.028 0-0.056 0.002-0.083 0.005h0.003c-0.005 0-0.010 0-0.015 0-0.378 0-0.712 0.194-0.905 0.488l-0.003 0.004-0.492 0.862c-0.079 0.15-0.126 0.328-0.126 0.517 0 0.331 0.143 0.629 0.371 0.836l0.001 0.001 1.169 0.985c-0.063 0.306-0.107 0.665-0.123 1.032v0.014c0.008 0.375 0.052 0.735 0.13 1.082l-0.007-0.036-1.169 1.046c-0.231 0.204-0.377 0.501-0.377 0.832 0 0.191 0.048 0.371 0.133 0.527l-0.003-0.006 0.492 0.985c0.196 0.298 0.529 0.492 0.908 0.492 0.005 0 0.011 0 0.016 0h-0.001c0.123 0 0.246-0.062 0.369-0.062l1.415-0.554c0.515 0.459 1.132 0.817 1.81 1.036l0.036 0.010 0.246 1.538c0.096 0.494 0.525 0.862 1.040 0.862 0.002 0 0.004 0 0.006 0h1.046c0.002 0 0.004 0 0.006 0 0.515 0 0.944-0.368 1.039-0.855l0.001-0.007 0.246-1.538c0.765-0.26 1.422-0.659 1.972-1.172l-0.003 0.003 1.354 0.554c0.091 0.040 0.198 0.064 0.309 0.064 0.021 0 0.042-0.001 0.063-0.002h-0.003c0.005 0 0.010 0 0.015 0 0.378 0 0.712-0.194 0.905-0.488l0.003-0.004 0.431-0.8c0.079-0.15 0.126-0.328 0.126-0.517 0-0.331-0.143-0.629-0.371-0.836l-0.001-0.001zM23.754 25.785c-1.903 0-3.446-1.543-3.446-3.446s1.543-3.446 3.446-3.446c1.903 0 3.446 1.543 3.446 3.446v0c0 0.002 0 0.004 0 0.006 0 1.9-1.54 3.44-3.44 3.44-0.002 0-0.004 0-0.006 0v0z"></path>
<path d="M23.692 20.369c-1.054 0-1.908 0.854-1.908 1.908s0.854 1.908 1.908 1.908c1.054 0 1.908-0.854 1.908-1.908v0c0-1.054-0.854-1.908-1.908-1.908v0z"></path>
</svg>
