<!-- Generated by IcoMoon.io -->
<svg version="1.1" xmlns="http://www.w3.org/2000/svg" width="32" height="32" viewBox="0 0 32 32">
<title>voicemail-drop</title>
<path d="M24 9.108c-3.754 0-6.892 3.077-6.892 6.892 0 1.354 0.431 2.646 1.108 3.754h-4.431c0.738-1.108 1.108-2.338 1.108-3.754 0-3.754-3.077-6.892-6.892-6.892-3.754 0-6.892 3.077-6.892 6.892 0 3.754 3.077 6.892 6.892 6.892h15.938c3.754 0 6.892-3.077 6.892-6.892 0.062-3.815-3.015-6.892-6.831-6.892zM4.431 15.938c0-2.031 1.662-3.692 3.631-3.692 2.031 0 3.631 1.662 3.631 3.692s-1.662 3.692-3.631 3.692-3.631-1.6-3.631-3.692zM24 19.692c-2.031 0-3.631-1.662-3.631-3.692s1.662-3.692 3.631-3.692c2.031 0 3.631 1.662 3.631 3.692 0.062 2.031-1.6 3.692-3.631 3.692z"></path>
</svg>
