<!-- Generated by IcoMoon.io -->
<svg version="1.1" xmlns="http://www.w3.org/2000/svg" width="32" height="32" viewBox="0 0 32 32">
<title>volume-off</title>
<path d="M15.138 1.6l-7.754 9.477h-3.692c-1.354 0-2.462 1.108-2.462 2.462v4.923c0 1.354 1.108 2.462 2.462 2.462h3.692l7.754 9.477c0.8 0.8 2.092 0.246 2.092-0.862v-27.077c0-1.108-1.354-1.662-2.092-0.862zM27.569 16l3.015-3.015c0.246-0.246 0.246-0.615 0-0.862l-0.862-0.862c-0.246-0.246-0.615-0.246-0.862 0l-3.015 3.015-3.015-3.015c-0.246-0.246-0.615-0.246-0.862 0l-0.862 0.862c-0.246 0.246-0.246 0.615 0 0.862l3.015 3.015-3.015 3.015c-0.246 0.246-0.246 0.615 0 0.862l0.862 0.862c0.246 0.246 0.615 0.246 0.862 0l3.015-3.015 3.015 3.015c0.246 0.246 0.615 0.246 0.862 0l0.862-0.862c0.246-0.246 0.246-0.615 0-0.862l-3.015-3.015z"></path>
</svg>
