<!-- Generated by IcoMoon.io -->
<svg version="1.1" xmlns="http://www.w3.org/2000/svg" width="32" height="32" viewBox="0 0 32 32">
<title>volume-high</title>
<path d="M15.138 1.6l-7.754 9.477h-3.692c-1.354 0-2.462 1.108-2.462 2.462v4.923c0 1.354 1.108 2.462 2.462 2.462h3.692l7.754 9.477c0.8 0.8 2.092 0.246 2.092-0.862v-27.077c0-1.108-1.354-1.662-2.092-0.862zM26.215 5.354c-0.246-0.246-0.615-0.246-0.862 0l-0.862 0.862c-0.246 0.246-0.246 0.677 0 0.862 2.338 2.277 3.815 5.415 3.815 8.923s-1.477 6.646-3.815 8.923c-0.246 0.246-0.246 0.615 0 0.862l0.862 0.862c0.246 0.246 0.615 0.246 0.862 0 2.769-2.646 4.554-6.462 4.554-10.646s-1.723-8-4.554-10.646z"></path>
<path d="M22.338 9.292c-0.246-0.246-0.615-0.246-0.862 0l-0.862 0.862c-0.246 0.246-0.246 0.615 0 0.862 1.354 1.231 2.154 3.015 2.154 4.985s-0.862 3.754-2.215 4.985c-0.246 0.246-0.246 0.615 0 0.862l0.862 0.862c0.246 0.246 0.615 0.246 0.862 0 1.785-1.662 2.954-4.062 2.954-6.769 0-2.585-1.108-4.985-2.892-6.646z"></path>
</svg>
