<!-- Generated by IcoMoon.io -->
<svg version="1.1" xmlns="http://www.w3.org/2000/svg" width="32" height="32" viewBox="0 0 32 32">
<title>warning</title>
<path d="M31.631 26.154l-14.092-22.769c-0.738-1.231-2.338-1.231-3.077 0l-14.092 22.769c-0.862 1.415 0 3.385 1.538 3.385h28.185c1.538 0 2.462-1.969 1.538-3.385zM16 24.615c-1.046 0-1.846-0.8-1.846-1.846s0.8-1.846 1.846-1.846 1.846 0.8 1.846 1.846-0.8 1.846-1.846 1.846zM17.846 19.077c0 0.369-0.246 0.615-0.615 0.615h-2.462c-0.369 0-0.615-0.246-0.615-0.615v-8c0-0.369 0.246-0.615 0.615-0.615h2.462c0.369 0 0.615 0.246 0.615 0.615v8z"></path>
</svg>
