<!-- Generated by IcoMoon.io -->
<svg version="1.1" xmlns="http://www.w3.org/2000/svg" width="32" height="32" viewBox="0 0 32 32">
<title>warranty-term</title>
<path d="M16 1.231c1.846 0 3.342 2.025 4.978 2.72s4.197 0.314 5.44 1.631 0.929 3.735 1.631 5.44 2.72 3.132 2.72 4.978-2.025 3.342-2.72 4.978-0.314 4.197-1.631 5.44-3.735 0.942-5.44 1.631-3.132 2.72-4.978 2.72-3.342-2.025-4.978-2.72-4.197-0.314-5.44-1.631-0.942-3.735-1.631-5.44-2.72-3.132-2.72-4.978 2.025-3.342 2.72-4.978 0.314-4.197 1.631-5.44 3.735-0.942 5.44-1.631 3.132-2.72 4.978-2.72zM16 5.895c-5.581 0-10.105 4.524-10.105 10.105s4.524 10.105 10.105 10.105c5.581 0 10.105-4.524 10.105-10.105v0c-0.017-5.574-4.531-10.087-10.103-10.105h-0.002zM20.689 11.526l0.991 0.935c0.097 0.128 0.156 0.289 0.156 0.465s-0.059 0.337-0.158 0.466l0.001-0.002-6.246 6.96c-0.235 0.265-0.576 0.431-0.955 0.431-0.012 0-0.025 0-0.037-0.001h0.002c-0.39-0.002-0.742-0.167-0.99-0.43l-0.001-0.001-3.378-3.366c-0.132-0.114-0.215-0.281-0.215-0.467 0-0.156 0.058-0.299 0.154-0.407l-0.001 0.001 0.062-0.068 1.003-0.929c0.124-0.133 0.3-0.216 0.496-0.216 0.174 0 0.333 0.066 0.453 0.174l0.042 0.042 2.394 2.462 5.286-6.031c0.123-0.123 0.293-0.2 0.48-0.2 0.178 0 0.341 0.069 0.462 0.182v0z"></path>
</svg>
