<!-- Generated by IcoMoon.io -->
<svg version="1.1" xmlns="http://www.w3.org/2000/svg" width="32" height="32" viewBox="0 0 32 32">
<title>wifi</title>
<path d="M29.354 9.723c-3.385-3.754-8.185-5.846-13.292-5.846s-9.908 2.092-13.292 5.846c-0.246 0.246-0.185 0.677 0.062 0.862l1.846 1.6c0.246 0.246 0.615 0.185 0.862-0.062 2.708-2.892 6.523-4.554 10.523-4.554s7.815 1.662 10.523 4.554c0.246 0.246 0.615 0.246 0.862 0.062l1.846-1.6c0.246-0.246 0.308-0.615 0.062-0.862zM16.062 12.492c-2.585 0-5.046 1.108-6.769 3.077-0.246 0.246-0.185 0.677 0.062 0.923l1.969 1.477c0.246 0.185 0.615 0.185 0.8-0.062 1.046-1.108 2.462-1.723 3.938-1.723s2.892 0.615 3.877 1.662c0.185 0.246 0.554 0.246 0.8 0.062l1.969-1.477c0.308-0.246 0.308-0.615 0.062-0.923-1.662-1.908-4.123-3.015-6.708-3.015zM16.123 21.046c1.662 0 3.077 1.354 3.077 3.077s-1.354 3.077-3.077 3.077-3.077-1.354-3.077-3.077 1.415-3.077 3.077-3.077z"></path>
</svg>
