<!-- Generated by IcoMoon.io -->
<svg version="1.1" xmlns="http://www.w3.org/2000/svg" width="32" height="32" viewBox="0 0 32 32">
<title>ad_set</title>
<path d="M13.846 3.138h-10.462c-0.492 0-0.923 0.431-0.923 0.923v9.785c0 0.492 0.431 0.923 0.923 0.923h10.462c0.492 0 0.923-0.431 0.923-0.923v-9.785c0-0.492-0.431-0.923-0.923-0.923zM12.246 8.185h-7.262v-2.523h7.262v2.523zM28.615 3.138h-10.462c-0.492 0-0.923 0.431-0.923 0.923v9.785c0 0.492 0.431 0.923 0.923 0.923h10.462c0.492 0 0.923-0.431 0.923-0.923v-9.785c0-0.492-0.431-0.923-0.923-0.923zM27.015 8.185h-7.262v-2.523h7.262v2.523z"></path>
<path d="M13.846 17.231h-10.462c-0.492 0-0.923 0.431-0.923 0.923v9.785c0 0.492 0.431 0.923 0.923 0.923h10.462c0.492 0 0.923-0.431 0.923-0.923v-9.785c0-0.492-0.431-0.923-0.923-0.923zM12.246 22.277h-7.262v-2.523h7.262v2.523zM28.615 17.231h-10.462c-0.492 0-0.923 0.431-0.923 0.923v9.785c0 0.492 0.431 0.923 0.923 0.923h10.462c0.492 0 0.923-0.431 0.923-0.923v-9.785c0-0.492-0.431-0.923-0.923-0.923zM27.015 22.277h-7.262v-2.523h7.262v2.523z"></path>
</svg>
