<!-- Generated by IcoMoon.io -->
<svg version="1.1" xmlns="http://www.w3.org/2000/svg" width="32" height="32" viewBox="0 0 32 32">
<title>add</title>
<path d="M18.462 17.846h10.154c0.492 0 0.923-0.431 0.923-0.923v-1.846c0-0.492-0.431-0.923-0.923-0.923h-10.154c-0.369 0-0.615-0.246-0.615-0.615v-10.154c0-0.492-0.431-0.923-0.923-0.923h-1.846c-0.492 0-0.923 0.431-0.923 0.923v10.154c0 0.369-0.246 0.615-0.615 0.615h-10.154c-0.492 0-0.923 0.431-0.923 0.923v1.846c0 0.492 0.431 0.923 0.923 0.923h10.154c0.369 0 0.615 0.246 0.615 0.615v10.154c0 0.492 0.431 0.923 0.923 0.923h1.846c0.492 0 0.923-0.431 0.923-0.923v-10.154c0-0.369 0.246-0.615 0.615-0.615z"></path>
</svg>
