<!-- Generated by IcoMoon.io -->
<svg version="1.1" xmlns="http://www.w3.org/2000/svg" width="32" height="32" viewBox="0 0 32 32">
<title>alert</title>
<path d="M21.354 19.077l-0.246 0.062c-0.923 0.308-1.908-0.123-2.277-1.046l-2.031-5.415c-1.6-4.308-6.462-6.4-10.708-4.615-4 1.662-5.785 6.338-4.308 10.4l1.908 5.231c0.308 0.923-0.185 1.908-1.046 2.215l-0.246 0.062c-1.046 0.369-1.538 1.6-1.169 2.646l0.246 0.677c0.123 0.308 0.554 0.554 0.923 0.369l21.169-7.815c0.369-0.123 0.554-0.615 0.431-0.985l-0.246-0.677c-0.185-0.985-1.354-1.538-2.4-1.108zM16.185 26.831l-4.615 1.723c-0.308 0.123-0.431 0.492-0.246 0.738 0.738 1.231 2.277 1.723 3.631 1.231s2.154-1.908 1.969-3.262c-0.123-0.308-0.492-0.492-0.738-0.431zM30.277 17.6c1.046-3.508 0.492-7.262-1.415-10.338-1.908-3.138-5.046-5.292-8.615-5.969-0.308-0.062-0.554 0.123-0.554 0.369l-0.308 1.723c-0.062 0.246 0.123 0.431 0.369 0.492 2.769 0.554 5.231 2.277 6.769 4.738s1.908 5.415 1.169 8.185c-0.062 0.246 0.062 0.492 0.308 0.554l1.662 0.554c0.308 0 0.554-0.062 0.615-0.308zM23.508 10.462c-0.985-1.6-2.585-2.646-4.431-3.015-0.246-0.062-0.492 0.123-0.554 0.369l-0.185 1.785c0 0.246 0.123 0.431 0.369 0.492 1.046 0.246 1.969 0.862 2.523 1.785s0.738 2.031 0.431 3.015c-0.062 0.185 0.062 0.431 0.246 0.492l1.662 0.677c0.246 0.123 0.492-0.062 0.615-0.308 0.554-1.785 0.308-3.692-0.677-5.292z"></path>
</svg>
