<!-- Generated by IcoMoon.io -->
<svg version="1.1" xmlns="http://www.w3.org/2000/svg" width="32" height="32" viewBox="0 0 32 32">
<title>animal-and-nature</title>
<path d="M10.702 2.833c1.66-0.624 3.426-0.935 5.298-0.935s3.638 0.311 5.298 0.935c0.527-0.982 1.547-1.638 2.72-1.638 1.7 0 3.077 1.378 3.077 3.077 0 0.527-0.132 1.022-0.365 1.456l0.008-0.016c0.763 0.639 1.286 2.633 1.569 5.981 0.242 1.851 1.838 7.426 1.846 8.615 0.032 4.898-4.686 8.385-14.154 10.462-9.436-2.027-14.154-5.514-14.154-10.462 0.029-1.263 1.538-6.708 1.846-8.615 0.371-3.255 0.905-5.228 1.601-5.919-0.235-0.425-0.374-0.931-0.374-1.47 0-1.7 1.378-3.078 3.078-3.078 1.161 0 2.171 0.643 2.696 1.592l0.008 0.016zM12.903 13.966c-1.008 0.323-1.725 1.252-1.725 2.349 0 0.054 0.002 0.108 0.005 0.161v-0.007l0.24 3.848c0.152 2.409 2.143 4.304 4.577 4.304s4.424-1.896 4.576-4.291l0.001-0.013 0.235-3.766c0.003-0.046 0.005-0.099 0.005-0.153 0-1.102-0.724-2.035-1.722-2.349l-0.017-0.005c-0.985-0.318-2.117-0.503-3.293-0.506h-0.002c-1.010 0-1.969 0.143-2.879 0.428zM22.154 14.154c1.020 0 1.846-1.102 1.846-2.462s-0.826-2.462-1.846-2.462-1.846 1.102-1.846 2.462 0.826 2.462 1.846 2.462zM9.846 14.154c1.020 0 1.846-1.102 1.846-2.462s-0.826-2.462-1.846-2.462-1.846 1.102-1.846 2.462 0.826 2.462 1.846 2.462zM17.892 17.052c-1.088 1.249-2.846 1.244-3.906-0.011s-0.17-2.277 1.978-2.271c2.148 0.006 3.015 1.033 1.928 2.282z"></path>
</svg>
