<!-- Generated by IcoMoon.io -->
<svg version="1.1" xmlns="http://www.w3.org/2000/svg" width="32" height="32" viewBox="0 0 32 32">
<title>answered-twice</title>
<path d="M10.831 7.015c-5.477 0-9.846 4-9.846 9.046 0 1.6 0.431 3.077 1.231 4.431 0.062 0.185 0.123 0.369 0.062 0.554l-0.923 2.831c-0.185 0.554 0.308 0.985 0.862 0.8l2.892-0.985c0.185-0.062 0.431-0.062 0.554 0.062 1.538 0.862 3.262 1.354 5.169 1.354 5.477 0 9.846-4 9.846-9.046s-4.431-9.046-9.846-9.046zM15.569 14.031l-4.985 4.923c-0.185 0.185-0.431 0.308-0.677 0.308s-0.492-0.062-0.677-0.308l-2.462-2.4c-0.185-0.185-0.185-0.492 0-0.677l0.677-0.677c0.185-0.185 0.492-0.185 0.677 0l1.723 1.723 4.308-4.246c0.185-0.185 0.492-0.185 0.677 0l0.677 0.677c0.246 0.185 0.246 0.492 0.062 0.677z"></path>
<path d="M21.108 7.015h-2.585c2.892 2.092 5.046 5.415 5.046 9.046s-2.277 7.077-5.046 9.046h2.585c5.477 0 9.846-4 9.846-9.046-0.062-5.046-4.431-9.046-9.846-9.046z"></path>
</svg>
