<!-- Generated by IcoMoon.io -->
<svg version="1.1" xmlns="http://www.w3.org/2000/svg" width="32" height="32" viewBox="0 0 32 32">
<title>archive</title>
<path d="M27.815 1.415h-23.631c-1.6 0-2.954 1.354-2.954 2.954v2.954c0 0.554 0.431 0.985 0.985 0.985h27.569c0.554 0 0.985-0.431 0.985-0.985v-2.954c0-1.6-1.354-2.954-2.954-2.954zM28.677 10.769h-25.292c-0.554 0-0.985 0.431-0.985 0.985v16.246c0 1.6 1.354 2.954 2.954 2.954h21.415c1.6 0 2.954-1.354 2.954-2.954v-16.246c-0.062-0.554-0.492-0.985-1.046-0.985zM20.185 15.692h-8.369c-0.677 0-1.231-0.554-1.231-1.231s0.554-1.231 1.231-1.231h8.369c0.677 0 1.231 0.554 1.231 1.231s-0.554 1.231-1.231 1.231z"></path>
</svg>
