<!-- Generated by IcoMoon.io -->
<svg version="1.1" xmlns="http://www.w3.org/2000/svg" width="32" height="32" viewBox="0 0 32 32">
<title>arrow-top</title>
<path d="M5.945 6.258c-0.68 0-1.231-0.551-1.231-1.231v0-2.566c0-0.68 0.551-1.231 1.231-1.231v0h20.111c0.68 0 1.231 0.551 1.231 1.231v0 2.542c0 0.68-0.551 1.231-1.231 1.231v0zM14.769 30.769c-0.677-0.022-1.223-0.557-1.261-1.227v-10.711c0-0.004 0-0.009 0-0.014 0-0.442-0.358-0.8-0.8-0.8-0.227 0-0.433 0.095-0.578 0.247v0l-2.954 2.886c-0.224 0.229-0.535 0.37-0.88 0.37s-0.656-0.142-0.88-0.37v0l-1.785-1.692c-0.232-0.21-0.377-0.513-0.377-0.849s0.145-0.639 0.376-0.848l0.001-0.001 9.489-9.231c0.224-0.229 0.535-0.37 0.88-0.37s0.656 0.142 0.88 0.37v0l9.428 9.231c0.232 0.21 0.377 0.513 0.377 0.849s-0.145 0.639-0.376 0.848l-1.693 1.693c-0.224 0.229-0.535 0.37-0.88 0.37s-0.656-0.142-0.88-0.37v0l-2.954-2.886c-0.146-0.153-0.351-0.247-0.579-0.247-0.442 0-0.8 0.358-0.8 0.8 0 0.005 0 0.010 0 0.014v-0.001 10.708c-0.060 0.675-0.61 1.204-1.29 1.231h-2.465z"></path>
</svg>
