<!-- Generated by IcoMoon.io -->
<svg version="1.1" xmlns="http://www.w3.org/2000/svg" width="32" height="32" viewBox="0 0 32 32">
<title>arrowdown</title>
<path d="M5.908 19.077c-0.492 0.492-0.492 1.169 0 1.662l9.231 9.046c0.492 0.492 1.231 0.492 1.723 0l9.292-9.046c0.492-0.492 0.492-1.169 0-1.662l-1.723-1.662c-0.492-0.492-1.231-0.492-1.723 0l-2.892 2.831c-0.492 0.492-1.354 0.185-1.354-0.554v-16.615c0-0.615-0.554-1.231-1.231-1.231h-2.462c-0.677 0-1.231 0.677-1.231 1.231v16.615c0 0.738-0.862 1.046-1.354 0.554l-2.892-2.831c-0.492-0.492-1.231-0.492-1.723 0l-1.662 1.662z"></path>
</svg>
