<!-- Generated by IcoMoon.io -->
<svg version="1.1" xmlns="http://www.w3.org/2000/svg" width="32" height="32" viewBox="0 0 32 32">
<title>attach</title>
<path d="M10.831 22.585c0.369 0.369 0.923 0.308 1.292 0l6.154-6.154c0.431-0.431 1.169-0.492 1.723 0s0.492 1.354 0 1.846l-7.569 7.446c-1.662 1.662-4.431 1.662-6.092 0l-0.062-0.062c-1.662-1.662-1.662-4.431 0-6.092l13.354-13.354c1.662-1.662 4.431-1.662 6.092 0l0.062 0.062c1.662 1.662 1.662 4.431 0 6.092l-0.062 0.062c-0.308 0.308-0.369 0.738-0.123 1.108 0.369 0.677 0.677 1.415 0.862 2.154 0.123 0.492 0.677 0.615 1.046 0.308 0.492-0.492 0.923-0.985 0.923-0.985 3.138-3.138 3.138-8.246 0-11.385h-0.123c-3.138-3.138-8.246-3.138-11.385 0l-13.354 13.292c-3.138 3.138-3.138 8.246 0 11.385l0.123 0.123c3.138 3.138 8.185 3.138 11.323 0l7.631-7.569c1.969-1.969 1.908-5.169-0.123-7.138-1.969-1.908-5.169-1.785-7.077 0.185l-6.031 6.031c-0.369 0.369-0.369 0.985 0 1.354l1.415 1.292z"></path>
</svg>
