<!-- Generated by IcoMoon.io -->
<svg version="1.1" xmlns="http://www.w3.org/2000/svg" width="32" height="32" viewBox="0 0 32 32">
<title>automate</title>
<path d="M16.062 10.092c-3.262 0-5.969 2.646-5.969 5.969s2.646 5.969 5.969 5.969c3.262 0 5.969-2.646 5.969-5.969s-2.708-5.969-5.969-5.969zM16.062 20.369c-2.4 0-4.369-1.969-4.369-4.369s1.969-4.369 4.369-4.369c2.4 0 4.369 1.969 4.369 4.369-0.062 2.4-2.031 4.369-4.369 4.369z"></path>
<path d="M30.338 19.754c0.308-1.169 0.492-2.462 0.492-3.754s-0.185-2.523-0.492-3.754h-1.662c-0.246-0.923-0.615-1.785-1.046-2.585l1.169-1.169c-1.292-2.154-3.077-4-5.292-5.292l-1.169 1.169c-0.8-0.431-1.662-0.8-2.585-1.046v-1.6c-1.169-0.308-2.462-0.492-3.754-0.492s-2.523 0.185-3.754 0.492v1.662c-0.862 0.246-1.723 0.615-2.523 1.046l-1.231-1.169c-2.215 1.292-4 3.138-5.292 5.292l1.169 1.169c-0.431 0.8-0.8 1.662-1.046 2.585h-1.6c-0.308 1.169-0.492 2.4-0.492 3.692s0.185 2.523 0.492 3.754h1.662c0.246 0.923 0.615 1.785 1.046 2.585l-1.169 1.169c1.292 2.154 3.077 4 5.292 5.292l1.169-1.169c0.8 0.431 1.662 0.8 2.585 1.046v1.662c1.169 0.308 2.462 0.492 3.754 0.492s2.523-0.185 3.754-0.492v-1.662c0.923-0.246 1.785-0.615 2.585-1.046l1.169 1.169c2.154-1.292 4-3.077 5.292-5.292l-1.169-1.169c0.431-0.8 0.8-1.662 1.046-2.585h1.6zM26.769 23.754c-0.431 0.554-0.862 1.108-1.415 1.6-0.492 0.492-1.046 0.985-1.6 1.415l-1.169-1.169c-1.292 0.923-2.831 1.538-4.431 1.846v1.6c-0.677 0.123-1.415 0.185-2.154 0.185s-1.415-0.062-2.154-0.185v-1.6c-1.6-0.308-3.138-0.923-4.431-1.846l-1.169 1.169c-1.134-0.891-2.124-1.882-2.987-2.978l-0.028-0.038 1.169-1.169c-0.923-1.292-1.538-2.831-1.846-4.431h-1.6c-0.123-0.677-0.185-1.415-0.185-2.154s0.062-1.415 0.185-2.154h1.662c0.308-1.6 0.923-3.138 1.846-4.431l-1.169-1.169c0.891-1.134 1.882-2.124 2.978-2.987l0.038-0.028 1.169 1.169c1.292-0.923 2.831-1.538 4.431-1.846v-1.6c0.677-0.123 1.415-0.185 2.154-0.185s1.415 0.062 2.154 0.185v1.662c1.6 0.308 3.138 0.923 4.431 1.846l1.169-1.169c0.554 0.431 1.108 0.862 1.6 1.415 0.492 0.492 0.985 1.046 1.415 1.6l-1.169 1.169c0.923 1.292 1.538 2.831 1.846 4.431h1.662c0.123 0.677 0.185 1.415 0.185 2.154s-0.062 1.415-0.185 2.154h-1.662c-0.308 1.6-0.923 3.138-1.846 4.431l1.108 1.108z"></path>
</svg>
