<!-- Generated by IcoMoon.io -->
<svg version="1.1" xmlns="http://www.w3.org/2000/svg" width="32" height="32" viewBox="0 0 32 32">
<title>back</title>
<path d="M29.908 14.154h-20.431c-0.554 0-0.8-0.677-0.431-1.046l5.908-5.908c0.369-0.369 0.369-0.923 0-1.292l-1.354-1.354c-0.369-0.369-0.923-0.369-1.292 0l-10.769 10.831c-0.369 0.369-0.369 0.923 0 1.292l10.769 10.769c0.369 0.369 0.923 0.369 1.292 0l1.292-1.292c0.369-0.369 0.369-0.923 0-1.292l-5.908-5.908c-0.369-0.431-0.123-1.108 0.431-1.108h20.431c0.492 0 0.923-0.369 0.923-0.862v-1.846c0-0.492-0.369-0.985-0.862-0.985z"></path>
</svg>
