<!-- Generated by IcoMoon.io -->
<svg version="1.1" xmlns="http://www.w3.org/2000/svg" width="32" height="32" viewBox="0 0 32 32">
<title>ban</title>
<path d="M16 1.231c-8.123 0-14.769 6.646-14.769 14.769s6.646 14.769 14.769 14.769 14.769-6.646 14.769-14.769-6.646-14.769-14.769-14.769zM23.323 17.046c-0.062 0.431-0.431 0.8-0.923 0.8h-12.8c-0.492 0-0.862-0.308-0.923-0.8-0.062-0.738-0.062-1.415 0-2.092 0.062-0.431 0.431-0.8 0.923-0.8h12.8c0.492 0 0.862 0.369 0.923 0.8 0.062 0.738 0.062 1.415 0 2.092z"></path>
</svg>
