<!-- Generated by IcoMoon.io -->
<svg version="1.1" xmlns="http://www.w3.org/2000/svg" width="32" height="32" viewBox="0 0 32 32">
<title>block-visitor</title>
<path d="M13.538 22.769c0-1.662 0.554-3.569 1.415-5.046 1.046-1.846 2.215-2.585 3.138-3.938 1.538-2.277 1.846-5.538 0.862-8-0.985-2.523-3.323-4-6.031-3.938s-4.923 1.723-5.785 4.246c-0.985 2.769-0.554 6.092 1.662 8.185 0.923 0.862 1.785 2.215 1.292 3.508-0.431 1.231-1.908 1.785-2.954 2.277-2.4 1.046-5.292 2.523-5.785 5.354-0.492 2.338 1.108 4.738 3.631 4.738h10.462c0.492 0 0.8-0.615 0.492-0.985-1.538-1.785-2.4-4.062-2.4-6.4z"></path>
<path d="M28.615 17.538c-2.892-2.892-7.569-2.892-10.462 0s-2.892 7.569 0 10.462 7.569 2.892 10.462 0 2.892-7.569 0-10.462zM19.877 19.262c1.662-1.662 4.123-1.908 6.031-0.738l-6.769 6.769c-1.169-1.908-0.923-4.369 0.738-6.031zM26.892 26.277c-1.662 1.6-4.123 1.846-6.031 0.8l6.769-6.769c1.108 1.846 0.862 4.308-0.738 5.969z"></path>
</svg>
