<!-- Generated by IcoMoon.io -->
<svg version="1.1" xmlns="http://www.w3.org/2000/svg" width="32" height="32" viewBox="0 0 32 32">
<title>breadcrumbs</title>
<path d="M5.169 25.846c-0.369 0-0.615-0.246-0.615-0.615v-18.523c0-0.369 0.246-0.615 0.615-0.615h4.985c0.246 0 0.554 0.123 0.738 0.308l7.138 8.985c0.246 0.308 0.246 0.8 0 1.169l-7.2 8.985c-0.185 0.246-0.492 0.369-0.8 0.369l-4.862-0.062z"></path>
<path d="M27.262 15.385l-7.2-8.923c-0.308-0.369-0.862-0.492-1.292-0.123l-1.415 1.169c-0.431 0.308-0.492 0.923-0.123 1.292l5.846 7.2-5.846 7.262c-0.308 0.369-0.246 0.985 0.123 1.292l1.415 1.169c0.431 0.308 0.923 0.246 1.292-0.123l7.2-8.985c0.246-0.492 0.246-0.923 0-1.231z"></path>
</svg>
