<!-- Generated by IcoMoon.io -->
<svg version="1.1" xmlns="http://www.w3.org/2000/svg" width="32" height="32" viewBox="0 0 32 32">
<title>broadcast</title>
<path d="M1.231 11.687c0 3.589 1.403 6.949 3.915 9.461 0.555 0.553 1.403 0.553 1.958 0s0.555-1.402 0-1.959c-1.99-1.988-3.099-4.665-3.131-7.502 0.033-2.838 1.142-5.513 3.131-7.503 0.555-0.554 0.555-1.402 0-1.958-0.554-0.554-1.403-0.554-1.958 0-2.419 2.409-3.915 5.741-3.915 9.424 0 0.013 0 0.026 0 0.039v-0.002z"></path>
<path d="M9.060 17.233c0.555 0.555 1.403 0.555 1.958 0 0.554-0.554 0.554-1.402 0-1.958-0.946-0.946-1.5-2.218-1.5-3.588s0.521-2.61 1.5-3.589c0.554-0.554 0.554-1.402 0-1.958-0.555-0.554-1.403-0.554-1.958 0-1.411 1.415-2.283 3.368-2.283 5.524 0 0.008 0 0.015 0 0.023v-0.001c0 2.089 0.815 4.079 2.283 5.546z"></path>
<path d="M26.769 2.226c-0.554-0.554-1.403-0.554-1.958 0-0.554 0.555-0.554 1.403 0 1.958 1.989 1.99 3.098 4.665 3.132 7.503-0.033 2.838-1.142 5.513-3.132 7.502-0.554 0.554-0.554 1.403 0 1.958 0.553 0.554 1.401 0.554 1.958 0 2.418-2.409 3.914-5.741 3.914-9.423 0-0.013 0-0.026 0-0.040v0.002c0-3.588-1.401-6.948-3.914-9.46z"></path>
<path d="M25.138 11.687c-0.001-2.087-0.816-4.078-2.285-5.546-0.554-0.554-1.402-0.554-1.958 0-0.554 0.555-0.553 1.403 0 1.958 0.979 0.978 1.5 2.218 1.5 3.589s-0.554 2.642-1.5 3.588c-0.554 0.555-0.553 1.402 0 1.958s1.403 0.555 1.958 0c1.412-1.416 2.285-3.37 2.285-5.528 0-0.006 0-0.013 0-0.019v0.001z"></path>
<path d="M14.561 14.984c-1.316-0.557-2.222-1.837-2.222-3.329 0-1.991 1.614-3.605 3.605-3.605 0 0 0 0 0 0v0c0.001 0 0.003 0 0.005 0 1.99 0 3.604 1.613 3.604 3.604 0 1.485-0.899 2.761-2.182 3.312l-0.023 0.009-0.018 1.698v12.827c0 0.37-0.322 0.692-0.692 0.647h-1.384c-0.369 0-0.692-0.323-0.692-0.692v-12.827l0.001-1.644z"></path>
</svg>
