<!-- Generated by IcoMoon.io -->
<svg version="1.1" xmlns="http://www.w3.org/2000/svg" width="32" height="32" viewBox="0 0 32 32">
<title>bucket</title>
<path d="M30.154 6.769c0-3.815-6.031-5.538-11.692-5.538s-11.692 1.723-11.692 5.538v0.246c-5.292 1.6-6.154 4.985-6.154 6.892 0 1.846 0.923 3.754 2.523 5.108 1.415 1.169 3.138 1.846 4.862 1.908h0.492c4-0.123 7.938-1.415 9.046-3.631-0.554-0.431-0.923-1.169-0.923-1.908 0-1.354 1.108-2.462 2.462-2.462s2.462 1.108 2.462 2.462c0 1.046-0.615 1.908-1.538 2.277-1.231 3.446-6.154 5.723-12 5.723v3.692c0 2.031 4.677 3.692 10.462 3.692s10.462-1.662 10.462-3.692v-17.662c0.8-0.738 1.231-1.6 1.231-2.646zM18.462 4.923c4.062 0 6.646 0.923 7.631 1.6 0.185 0.123 0.185 0.369 0 0.492-0.985 0.677-3.569 1.6-7.631 1.6s-6.646-0.923-7.631-1.6c-0.185-0.123-0.185-0.369 0-0.492 0.985-0.677 3.569-1.6 7.631-1.6zM4.738 17.108c-1.046-0.862-1.662-2.031-1.662-3.2 0-2.769 2.523-4.062 4.738-4.615l0.185 0.185v8.985c-1.169-0.062-2.338-0.554-3.262-1.354z"></path>
</svg>
