<!-- Generated by IcoMoon.io -->
<svg version="1.1" xmlns="http://www.w3.org/2000/svg" width="32" height="32" viewBox="0 0 32 32">
<title>builder</title>
<path d="M7.077 10.462h-4.923c-0.492 0-0.923 0.431-0.923 0.923v15.692c0 1.354 1.108 2.462 2.462 2.462h3.385c0.492 0 0.923-0.431 0.923-0.923v-17.231c0-0.492-0.431-0.923-0.923-0.923zM29.846 10.462h-18.462c-0.492 0-0.923 0.431-0.923 0.923v17.231c0 0.492 0.431 0.923 0.923 0.923h16.923c1.354 0 2.462-1.108 2.462-2.462v-15.692c0-0.492-0.431-0.923-0.923-0.923zM28.308 2.462h-24.615c-1.354 0-2.462 1.108-2.462 2.462v2.154c0 0.492 0.431 0.923 0.923 0.923h27.692c0.492 0 0.923-0.431 0.923-0.923v-2.154c0-1.354-1.108-2.462-2.462-2.462z"></path>
</svg>
