<!-- Generated by IcoMoon.io -->
<svg version="1.1" xmlns="http://www.w3.org/2000/svg" width="32" height="32" viewBox="0 0 32 32">
<title>cancel-transfer</title>
<path d="M15.446 7.569v-1.846c2.462 0 4.431 1.969 4.431 4.431h-1.846l2.831 3.508c0.185 0.185 0.431 0.185 0.554 0l2.831-3.508h-1.846c0-3.877-3.2-7.015-7.015-7.015v-1.846l-3.508 2.831c-0.185 0.185-0.123 0.431 0.062 0.554l3.508 2.892zM16.185 20.677c-0.738-0.985-2.154-1.662-3.569-2.338-1.477-0.615-1.662-1.231-1.662-1.846s0.369-1.292 0.862-1.723c0.8-0.8 1.292-1.969 1.292-3.262 0-2.462-1.477-4.615-4-4.615h-0.246c-2.523 0-4 2.154-4 4.615 0 1.354 0.431 2.462 1.292 3.262 0.492 0.431 0.862 1.046 0.862 1.723 0 0.615-0.185 1.231-1.662 1.846-2.092 0.923-4.062 1.908-4.123 3.877 0.185 1.415 1.108 2.4 2.338 2.4h11.015c0.185 0 0.431-0.062 0.615-0.123 0.062-1.354 0.369-2.646 0.985-3.815zM19.569 21.292l3.692 3.692-3.692 3.692c-0.369 0.369-0.369 0.985 0 1.292l0.431 0.431c0.369 0.369 0.985 0.369 1.292 0l3.692-3.692 3.692 3.692c0.369 0.369 0.985 0.369 1.292 0l0.431-0.431c0.369-0.369 0.369-0.985 0-1.292l-3.692-3.692 3.692-3.692c0.369-0.369 0.369-0.985 0-1.292l-0.431-0.431c-0.369-0.369-0.985-0.369-1.292 0l-3.692 3.692-3.692-3.692c-0.369-0.369-0.985-0.369-1.292 0l-0.431 0.431c-0.369 0.308-0.369 0.923 0 1.292z"></path>
</svg>
