<!-- Generated by IcoMoon.io -->
<svg version="1.1" xmlns="http://www.w3.org/2000/svg" width="32" height="32" viewBox="0 0 32 32">
<title>capslock</title>
<path d="M26.831 12.985l-10.092-11.446c-0.369-0.431-1.108-0.431-1.477 0l-10.092 11.446c-0.369 0.431-0.062 1.169 0.554 1.169h4.738v7.692c0 0.492 0.431 0.923 0.923 0.923h9.231c0.492 0 0.923-0.431 0.923-0.923v-7.692h4.738c0.615 0 0.923-0.738 0.554-1.169zM20.615 26.462h-9.231c-0.492 0-0.923 0.431-0.923 0.923v2.462c0 0.492 0.431 0.923 0.923 0.923h9.231c0.492 0 0.923-0.431 0.923-0.923v-2.462c0-0.492-0.431-0.923-0.923-0.923z"></path>
</svg>
