<!-- Generated by IcoMoon.io -->
<svg version="1.1" xmlns="http://www.w3.org/2000/svg" width="32" height="32" viewBox="0 0 32 32">
<title>cart</title>
<path d="M12.369 16h14.708c0.431 0 0.862-0.308 0.923-0.738l2.708-9.477c0.185-0.677-0.308-1.231-0.923-1.231h-22.708l-0.369-1.415c-0.185-0.677-0.8-1.108-1.415-1.108h-2.462c-0.8 0-1.538 0.615-1.6 1.415-0.062 0.862 0.677 1.6 1.477 1.6h1.415l4.677 15.815c0.185 0.677 0.738 1.108 1.415 1.108h17.354c0.8 0 1.538-0.615 1.6-1.415 0.062-0.862-0.677-1.6-1.477-1.6h-15.262c-0.677 0-1.231-0.431-1.415-1.046v-0.062c-0.308-0.923 0.431-1.846 1.354-1.846z"></path>
<path d="M15.138 27.446c0 1.359-1.102 2.462-2.462 2.462s-2.462-1.102-2.462-2.462c0-1.359 1.102-2.462 2.462-2.462s2.462 1.102 2.462 2.462z"></path>
<path d="M27.138 27.446c0 1.359-1.102 2.462-2.462 2.462s-2.462-1.102-2.462-2.462c0-1.359 1.102-2.462 2.462-2.462s2.462 1.102 2.462 2.462z"></path>
</svg>
