<!-- Generated by IcoMoon.io -->
<svg version="1.1" xmlns="http://www.w3.org/2000/svg" width="32" height="32" viewBox="0 0 32 32">
<title>cases</title>
<path d="M5.538 2.154c0-0.492-0.431-0.923-0.923-0.923h-2.462c-0.492 0-0.923 0.431-0.923 0.923v19.077c0 0.492 0.431 0.923 0.923 0.923h2.462c0.492 0 0.923-0.431 0.923-0.923v-19.077zM30.769 2.154c0-0.492-0.431-0.923-0.923-0.923h-2.462c-0.492 0-0.923 0.431-0.923 0.923v19.077c0 0.492 0.431 0.923 0.923 0.923h2.462c0.492 0 0.923-0.431 0.923-0.923v-19.077zM23.077 1.231h-1.846c-0.492 0-0.923 0.492-0.923 0.985v7.631c0 0.246 0.123 0.431 0.369 0.554 1.046 0.554 1.969 1.231 2.769 2.031 0.185 0.185 0.554 0.062 0.554-0.185v-10.031c0-0.492-0.431-0.985-0.923-0.985zM14.831 9.354c0.369-0.062 0.8-0.062 1.169-0.062s0.8 0 1.169 0.062 0.677-0.246 0.677-0.615v-6.523c0-0.492-0.431-0.985-0.923-0.985h-1.846c-0.492 0-0.923 0.492-0.923 0.985v6.523c0 0.369 0.308 0.677 0.677 0.615zM8.554 12.431c0.8-0.862 1.785-1.538 2.831-2.031 0.185-0.123 0.308-0.308 0.308-0.554v-7.631c0-0.492-0.431-0.985-0.923-0.985h-1.846c-0.492 0-0.923 0.492-0.923 0.985v10.031c0 0.246 0.308 0.369 0.554 0.185zM16 11.754c-4.431 0-8 3.569-8 8 0 1.354 0.369 2.708 0.985 3.815l-4.369 4.369c-0.369 0.369-0.369 0.923 0 1.292l1.292 1.292c0.369 0.369 0.923 0.369 1.292 0l4.246-4.246c1.292 0.923 2.892 1.477 4.554 1.477 4.431 0 8-3.569 8-8s-3.569-8-8-8zM16 24.062c-2.4 0-4.308-1.908-4.308-4.308s1.908-4.308 4.308-4.308 4.308 1.908 4.308 4.308-1.908 4.308-4.308 4.308z"></path>
</svg>
