<!-- Generated by IcoMoon.io -->
<svg version="1.1" xmlns="http://www.w3.org/2000/svg" width="32" height="32" viewBox="0 0 32 32">
<title>chart</title>
<path d="M28 14.4l-12.615 6.954c-0.862 0.431-1.846-0.185-1.846-1.108v-15.077c0-0.615-0.615-1.108-1.169-0.923-6.154 1.723-10.585 7.692-9.846 14.523 0.677 6.215 5.662 11.262 11.938 11.938 8.185 0.862 15.077-5.477 15.077-13.477 0-0.738-0.062-1.477-0.185-2.215-0.123-0.615-0.8-0.923-1.354-0.615z"></path>
<path d="M17.046 17.231l12.123-6.462c0.738-0.369 0.985-1.354 0.492-2.031-2.769-3.815-7.077-6.585-12-7.385-0.862-0.185-1.662 0.492-1.662 1.354v13.908c0 0.554 0.554 0.862 1.046 0.615z"></path>
</svg>
