<!-- Generated by IcoMoon.io -->
<svg version="1.1" xmlns="http://www.w3.org/2000/svg" width="32" height="32" viewBox="0 0 32 32">
<title>choice</title>
<path d="M22.892 16c0 3.807-3.086 6.892-6.892 6.892s-6.892-3.086-6.892-6.892c0-3.807 3.086-6.892 6.892-6.892s6.892 3.086 6.892 6.892z"></path>
<path d="M16 1.231c-8.123 0-14.769 6.646-14.769 14.769s6.646 14.769 14.769 14.769 14.769-6.646 14.769-14.769-6.646-14.769-14.769-14.769zM16 26.831c-5.969 0-10.831-4.862-10.831-10.831s4.862-10.831 10.831-10.831 10.831 4.862 10.831 10.831-4.862 10.831-10.831 10.831z"></path>
</svg>
