<!-- Generated by IcoMoon.io -->
<svg version="1.1" xmlns="http://www.w3.org/2000/svg" width="32" height="32" viewBox="0 0 32 32">
<title>clear</title>
<path d="M16 1.231c-8.185 0-14.769 6.585-14.769 14.769s6.585 14.769 14.769 14.769 14.769-6.585 14.769-14.769-6.585-14.769-14.769-14.769zM19.015 16.492l4.8 4.8c0.246 0.246 0.246 0.615 0 0.862l-1.723 1.723c-0.246 0.246-0.615 0.246-0.862 0l-4.8-4.8c-0.246-0.246-0.615-0.246-0.862 0l-4.8 4.8c-0.246 0.246-0.615 0.246-0.862 0l-1.723-1.723c-0.246-0.246-0.246-0.615 0-0.862l4.8-4.8c0.246-0.246 0.246-0.615 0-0.862l-4.862-4.862c-0.246-0.246-0.246-0.615 0-0.862l1.723-1.723c0.246-0.246 0.615-0.246 0.862 0l4.862 4.862c0.246 0.246 0.615 0.246 0.862 0l4.8-4.8c0.246-0.246 0.615-0.246 0.862 0l1.723 1.723c0.246 0.246 0.246 0.615 0 0.862l-4.8 4.8c-0.185 0.246-0.185 0.615 0 0.862z"></path>
</svg>
