<!-- Generated by IcoMoon.io -->
<svg version="1.1" xmlns="http://www.w3.org/2000/svg" width="32" height="32" viewBox="0 0 32 32">
<title>clock</title>
<path d="M16 1.231c-8.123 0-14.769 6.646-14.769 14.769s6.646 14.769 14.769 14.769 14.769-6.646 14.769-14.769-6.646-14.769-14.769-14.769zM16 27.077c-6.092 0-11.077-4.985-11.077-11.077s4.985-11.077 11.077-11.077 11.077 4.985 11.077 11.077-4.985 11.077-11.077 11.077z"></path>
<path d="M18.092 16.123c-0.185-0.185-0.246-0.431-0.246-0.677v-5.908c0-0.492-0.431-0.923-0.923-0.923h-1.846c-0.492 0-0.923 0.431-0.923 0.923v7.446c0 0.246 0.123 0.492 0.246 0.677l4.554 4.554c0.369 0.369 0.923 0.369 1.292 0l1.292-1.292c0.369-0.369 0.369-0.923 0-1.292l-3.446-3.508z"></path>
</svg>
