<!-- Generated by IcoMoon.io -->
<svg version="1.1" xmlns="http://www.w3.org/2000/svg" width="32" height="32" viewBox="0 0 32 32">
<title>close</title>
<path d="M19.077 15.631l8-8.062c0.369-0.369 0.369-0.923 0-1.292l-1.231-1.292c-0.369-0.369-0.923-0.369-1.292 0l-8.062 8.062c-0.246 0.246-0.615 0.246-0.862 0l-8.062-8.123c-0.369-0.369-0.923-0.369-1.292 0l-1.292 1.292c-0.369 0.369-0.369 0.923 0 1.292l8.062 8.062c0.246 0.246 0.246 0.615 0 0.862l-8.123 8.123c-0.369 0.369-0.369 0.923 0 1.292l1.292 1.292c0.369 0.369 0.923 0.369 1.292 0l8.062-8.062c0.246-0.246 0.615-0.246 0.862 0l8.062 8.062c0.369 0.369 0.923 0.369 1.292 0l1.292-1.292c0.369-0.369 0.369-0.923 0-1.292l-8-8.062c-0.246-0.246-0.246-0.615 0-0.862z"></path>
</svg>
