<!-- Generated by IcoMoon.io -->
<svg version="1.1" xmlns="http://www.w3.org/2000/svg" width="32" height="32" viewBox="0 0 32 32">
<title>collapse-all</title>
<path d="M29.538 5.846c0-0.492-0.431-0.923-0.923-0.923h-25.231c-0.492 0-0.923 0.431-0.923 0.923v1.846c0 0.492 0.431 0.923 0.923 0.923h25.231c0.492 0 0.923-0.431 0.923-0.923v-1.846zM29.538 24.308c0-0.492-0.431-0.923-0.923-0.923h-25.231c-0.492 0-0.923 0.431-0.923 0.923v1.846c0 0.492 0.431 0.923 0.923 0.923h25.231c0.492 0 0.923-0.431 0.923-0.923v-1.846zM21.231 17.846c0.492 0 0.923-0.431 0.923-0.923v-1.846c0-0.492-0.431-0.923-0.923-0.923h-10.462c-0.492 0-0.923 0.431-0.923 0.923v1.846c0 0.492 0.431 0.923 0.923 0.923h10.462z"></path>
</svg>
