<!-- Generated by IcoMoon.io -->
<svg version="1.1" xmlns="http://www.w3.org/2000/svg" width="32" height="32" viewBox="0 0 32 32">
<title>color-swatch</title>
<path d="M21.806 5.842l4.353 4.35c0.445 0.445 0.721 1.061 0.721 1.741s-0.276 1.295-0.721 1.741l-0.001 0.001-11.388 11.373v-15.655l3.556-3.551c0.445-0.445 1.060-0.72 1.74-0.72s1.295 0.276 1.741 0.721v0l0.001-0.001zM30.769 22.154v6.154c0 1.359-1.102 2.462-2.462 2.462v0h-15.385l11.077-11.077h4.308c1.359 0 2.462 1.102 2.462 2.462v0zM1.231 25.259v-21.567c0-1.359 1.102-2.462 2.462-2.462v0h6.154c1.359 0 2.462 1.102 2.462 2.462v0 21.567c0 3.059-2.48 5.538-5.538 5.538s-5.538-2.48-5.538-5.538v0zM6.769 27.692c1.359 0 2.462-1.102 2.462-2.462s-1.102-2.462-2.462-2.462v0c-1.359 0-2.462 1.102-2.462 2.462s1.102 2.462 2.462 2.462v0z"></path>
</svg>
