<!-- Generated by IcoMoon.io -->
<svg version="1.1" xmlns="http://www.w3.org/2000/svg" width="32" height="32" viewBox="0 0 32 32">
<title>component-customization</title>
<path d="M30.769 3.323c0-2.092-1.723-2.092-1.723-2.092h-26.031c-0.308 0.062-1.785 0.185-1.785 1.846v8.738c0.062 0.369 0.369 1.723 1.846 1.723h25.969c1.908 0 1.723-1.662 1.723-1.662v-8.554zM30.215 21.723c-0.369-0.062-0.738-0.062-1.108-0.123-0.062 0-0.123-0.062-0.123-0.123-0.123-0.431-0.369-0.862-0.492-1.169v-0.185c0.185-0.308 0.492-0.615 0.677-0.923 0.123-0.185 0.123-0.431-0.062-0.615l-1.231-1.231c-0.062-0.062-0.185-0.123-0.308-0.123-0.062 0-0.185 0.062-0.308 0.123-0.308 0.185-0.615 0.492-0.923 0.677-0.062 0-0.062 0.062-0.062 0.062h-0.062c-0.431-0.123-0.738-0.369-1.169-0.492-0.062 0-0.123-0.062-0.123-0.123-0.062-0.369-0.062-0.677-0.123-1.046 0-0.185-0.062-0.369-0.308-0.492-0.062-0.062-0.123-0.062-0.123-0.062h-1.785c-0.123 0-0.185 0-0.308 0.062-0.123 0.123-0.308 0.308-0.308 0.492 0 0.369-0.062 0.677-0.123 1.046 0 0.062-0.062 0.123-0.123 0.123-0.431 0.123-0.738 0.369-1.169 0.492h-0.062c-0.062 0-0.062 0-0.123-0.062-0.308-0.185-0.554-0.492-0.923-0.677-0.062-0.062-0.123-0.123-0.308-0.123s-0.185 0.062-0.369 0.123l-1.231 1.231c-0.185 0.185-0.185 0.431-0.062 0.615 0.185 0.308 0.492 0.554 0.677 0.923 0.062 0.062 0.062 0.123 0 0.185-0.123 0.431-0.369 0.738-0.492 1.169 0 0.062-0.062 0.123-0.123 0.123-0.369 0.062-0.677 0.062-1.046 0.123-0.185 0-0.431 0.123-0.492 0.369v2.092c0.123 0.185 0.308 0.308 0.492 0.369 0.369 0 0.677 0.062 1.046 0.123 0.062 0 0.123 0.062 0.123 0.123 0.123 0.431 0.369 0.738 0.492 1.169 0 0.062 0.062 0.123 0 0.185-0.185 0.308-0.492 0.615-0.677 0.923-0.123 0.185-0.123 0.431 0.062 0.615l1.231 1.231c0.123 0.123 0.185 0.123 0.369 0.123 0.062 0 0.185-0.062 0.308-0.123 0.308-0.185 0.554-0.492 0.923-0.677 0.062 0 0.062-0.062 0.123-0.062h0.062c0.431 0.123 0.738 0.369 1.169 0.492 0.062 0 0.123 0.062 0.123 0.123 0.062 0.369 0.062 0.738 0.123 1.108 0 0.308 0.185 0.431 0.492 0.431h1.785c0.308 0 0.431-0.123 0.492-0.431 0.062-0.369 0.062-0.738 0.123-1.108 0-0.062 0.062-0.123 0.123-0.123 0.431-0.123 0.862-0.369 1.169-0.492h0.062s0.062 0 0.062 0.062c0.308 0.185 0.615 0.492 0.923 0.677 0.062 0.062 0.185 0.123 0.308 0.123s0.185-0.062 0.369-0.123l1.231-1.231c0.185-0.185 0.185-0.431 0.062-0.615-0.185-0.308-0.492-0.554-0.677-0.923-0.062-0.062-0.062-0.123 0-0.185 0.123-0.431 0.369-0.738 0.492-1.169 0-0.062 0.062-0.123 0.123-0.123 0.369-0.062 0.738-0.062 1.108-0.123 0.308 0 0.431-0.185 0.431-0.492v-1.723c0-0.431-0.123-0.554-0.431-0.615zM23.385 25.908c-1.6 0-2.769-1.231-2.769-2.769s1.231-2.769 2.769-2.769 2.769 1.231 2.769 2.769c-0.062 1.477-1.292 2.769-2.769 2.769zM14.4 17.108c-0.062-0.985-0.923-1.108-1.169-1.108h-10.892c-0.308 0-1.108 0.123-1.108 1.231v12.677c0.062 0.308 0.246 0.862 1.231 0.862h10.769c1.231 0 1.231-1.415 1.231-1.415v-1.477c0-0.615 0.123-1.292-0.246-1.908-0.062-0.123-0.123-0.185-0.185-0.308s-0.123-0.185-0.185-0.308c-0.369-0.554-0.308-1.231-0.308-1.908 0-0.615 0-1.292 0.308-1.846 0.123-0.246 0.308-0.492 0.431-0.738 0.246-0.369 0.246-0.862 0.246-1.292l-0.123-2.462z"></path>
</svg>
