<!-- Generated by IcoMoon.io -->
<svg version="1.1" xmlns="http://www.w3.org/2000/svg" width="32" height="32" viewBox="0 0 32 32">
<title>contact-request</title>
<path d="M15.631 16.615c-0.369 0.123-0.554 0.554-0.246 0.862l2.708 2.769c0.308 0.308 0.308 0.738 0 1.046l-1.046 1.046c-0.308 0.308-0.738 0.308-1.046 0l-6.585-6.646c-0.308-0.308-0.308-0.738 0-1.046l6.585-6.585c0.308-0.308 0.738-0.308 1.046 0l1.046 1.046c0.308 0.308 0.308 0.738 0 1.046l-2.769 2.769c-0.308 0.308 0.246 0.862 0.246 0.862 6.277 0.185 11.138 4.308 12.615 9.908 1.6-2.215 2.585-4.862 2.585-7.692-0.062-7.569-6.646-13.538-14.769-13.538s-14.646 6.031-14.646 13.415c0 2.338 0.677 4.554 1.785 6.523 0.185 0.308 0.246 0.677 0.123 1.046l-1.908 5.231c-0.185 0.492 0.308 0.923 0.8 0.8l5.354-2.031c0.308-0.123 0.677-0.062 1.046 0.123 2.215 1.231 4.862 1.969 7.692 1.969 3.631-0.062 7.015-1.292 9.538-3.385-0.677-5.231-4.923-9.292-10.154-9.538z"></path>
</svg>
