<!-- Generated by IcoMoon.io -->
<svg version="1.1" xmlns="http://www.w3.org/2000/svg" width="32" height="32" viewBox="0 0 32 32">
<title>contract</title>
<path d="M18.215 14.769h9.477c0.615 0 0.8-0.677 0.308-1.169l-3.015-3.077 5.538-5.6c0.308-0.308 0.308-0.862 0-1.169l-2.277-2.277c-0.308-0.246-0.8-0.246-1.169 0.062l-5.538 5.538-3.138-3.015c-0.492-0.492-1.169-0.308-1.169 0.308v9.477c0 0.431 0.554 0.923 0.985 0.923zM13.785 17.231h-9.477c-0.615 0-0.8 0.677-0.308 1.169l3.015 3.077-5.538 5.6c-0.308 0.308-0.308 0.862 0 1.169l2.277 2.277c0.308 0.308 0.8 0.308 1.169 0l5.6-5.6 3.138 3.015c0.431 0.554 1.108 0.369 1.108-0.246v-9.415c0-0.431-0.554-1.046-0.985-1.046zM17.231 18.215v9.477c0 0.615 0.677 0.8 1.169 0.308l3.077-3.015 5.6 5.538c0.308 0.308 0.862 0.308 1.169 0l2.277-2.277c0.246-0.308 0.246-0.8-0.062-1.169l-5.538-5.538 3.015-3.138c0.492-0.492 0.308-1.169-0.308-1.169h-9.477c-0.431 0-0.923 0.554-0.923 0.985zM14.769 13.785v-9.477c0-0.615-0.677-0.8-1.169-0.308l-3.077 3.015-5.6-5.538c-0.308-0.308-0.862-0.308-1.169 0l-2.277 2.277c-0.308 0.308-0.308 0.8 0 1.169l5.6 5.6-3.015 3.138c-0.554 0.431-0.369 1.108 0.246 1.108h9.415c0.431 0 1.046-0.554 1.046-0.985z"></path>
</svg>
