<!-- Generated by IcoMoon.io -->
<svg version="1.1" xmlns="http://www.w3.org/2000/svg" width="32" height="32" viewBox="0 0 32 32">
<title>currency-input</title>
<path d="M22.092 23.138c1.662-2.769 1.354-6.4-1.046-8.8-2.769-2.769-7.323-2.769-10.092 0-2.4 2.4-2.708 6.031-1.046 8.8h12.185z"></path>
<path d="M30.462 4.431v23.138c0 1.6-1.292 2.892-2.892 2.892h-23.138c-1.6 0-2.892-1.292-2.892-2.892v-23.138c0-1.6 1.292-2.892 2.892-2.892h23.138c1.6 0 2.892 1.292 2.892 2.892zM6.338 26.585h19.262c0.554 0 0.985-0.431 0.985-0.985v-19.262c0-0.554-0.431-0.985-0.985-0.985h-19.262c-0.554 0-0.985 0.431-0.985 0.985v19.262c0.062 0.554 0.492 0.985 0.985 0.985z"></path>
</svg>
