<!-- Generated by IcoMoon.io -->
<svg version="1.1" xmlns="http://www.w3.org/2000/svg" width="32" height="32" viewBox="0 0 32 32">
<title>currency</title>
<path d="M27.754 6.708h-23.508c-1.477 0-2.708 1.231-2.708 2.708v13.108c0 1.477 1.231 2.708 2.708 2.708h23.508c1.477 0 2.708-1.231 2.708-2.708v-13.046c0-1.538-1.231-2.769-2.708-2.769zM7.385 22.523c0-1.785-1.415-3.138-3.138-3.138v-6.769c1.785 0 3.138-1.415 3.138-3.138h17.231c0 1.785 1.415 3.138 3.138 3.138v6.769c-1.785 0-3.138 1.415-3.138 3.138h-17.231z"></path>
<path d="M20.492 15.754c0 2.481-2.011 4.492-4.492 4.492s-4.492-2.011-4.492-4.492c0-2.481 2.011-4.492 4.492-4.492s4.492 2.011 4.492 4.492z"></path>
</svg>
