<!-- Generated by IcoMoon.io -->
<svg version="1.1" xmlns="http://www.w3.org/2000/svg" width="32" height="32" viewBox="0 0 32 32">
<title>cut</title>
<path d="M25.046 19.323c-1.046-0.246-2.031-0.123-2.892 0.185l-13.6-18.031c-0.185-0.246-0.615-0.308-0.862-0.123l-0.492 0.369c-1.046 0.8-1.231 2.338-0.431 3.446l6.523 8.615c0.246 0.308 0.246 0.8 0 1.108l-3.508 4.615c-0.862-0.308-1.908-0.369-2.892-0.185-2.277 0.492-4.062 2.338-4.369 4.615-0.492 3.631 2.708 6.769 6.462 6.154 2.215-0.369 4-2.092 4.492-4.246 0.308-1.538 0-2.954-0.738-4l2.585-3.446c0.369-0.492 1.108-0.492 1.477 0l2.585 3.446c-0.738 1.169-1.046 2.585-0.738 4 0.431 2.215 2.277 3.877 4.492 4.246 3.754 0.615 6.954-2.523 6.462-6.154-0.554-2.338-2.338-4.185-4.554-4.615zM7.938 26.523c-1.046 0-1.846-0.8-1.846-1.846s0.8-1.846 1.846-1.846 1.846 0.8 1.846 1.846-0.8 1.846-1.846 1.846zM23.938 26.523c-1.046 0-1.846-0.8-1.846-1.846s0.8-1.846 1.846-1.846 1.846 0.8 1.846 1.846c-0.062 1.046-0.862 1.846-1.846 1.846zM19.262 11.631c0.246 0.308 0.738 0.308 0.985 0l4.923-6.462c0.677-0.923 0.615-2.154-0.062-3.015v0c-0.123-0.185-0.923-0.8-0.923-0.8-0.246-0.185-0.677-0.123-0.862 0.123l-5.415 7.2c-0.246 0.308-0.246 0.8 0 1.108l1.354 1.846z"></path>
</svg>
