<!-- Generated by IcoMoon.io -->
<svg version="1.1" xmlns="http://www.w3.org/2000/svg" width="32" height="32" viewBox="0 0 32 32">
<title>datadotcom</title>
<path d="M26.154 30.215h-3.262c-0.185-1.169-0.308-2.215-0.308-3.138h-0.062c-1.538 2.462-4.062 3.692-7.508 3.692-2.954 0-5.231-0.985-6.831-3.015s-2.338-4.677-2.338-7.877c0-2.092 0.369-3.938 1.169-5.6s1.908-3.015 3.385-3.938c1.477-0.985 3.2-1.477 5.169-1.477 2.831 0 5.108 0.923 6.831 2.708v-10.277h3.446v24.369c0 1.477 0.123 3.015 0.308 4.554zM22.338 21.292v-6.585c-0.8-1.046-1.723-1.785-2.769-2.338-1.046-0.492-2.215-0.738-3.569-0.738-2.031 0-3.631 0.738-4.8 2.277s-1.723 3.508-1.723 5.908c0 2.523 0.554 4.492 1.662 5.969s2.708 2.215 4.677 2.215c1.969 0 3.569-0.615 4.738-1.908 1.231-1.231 1.785-2.831 1.785-4.8z"></path>
</svg>
