<!-- Generated by IcoMoon.io -->
<svg version="1.1" xmlns="http://www.w3.org/2000/svg" width="32" height="32" viewBox="0 0 32 32">
<title>date-time</title>
<path d="M26.831 4.185h-2.462v-0.985c0-1.108-0.862-1.969-1.969-1.969s-1.969 0.862-1.969 1.969v0.985h-8.862v-0.985c0-1.108-0.862-1.969-1.969-1.969s-1.969 0.862-1.969 1.969v0.985h-2.462c-1.6 0-2.954 1.354-2.954 2.954v0.985c0 0.554 0.431 0.985 0.985 0.985h25.6c0.554 0 0.985-0.431 0.985-0.985v-0.985c0-1.6-1.354-2.954-2.954-2.954zM28.8 12.062h-25.6c-0.554 0-0.985 0.431-0.985 0.985v14.769c0 1.6 1.354 2.954 2.954 2.954h21.662c1.6 0 2.954-1.354 2.954-2.954v-14.769c0-0.554-0.431-0.985-0.985-0.985zM16 28.738c-4.062 0-7.323-3.323-7.323-7.323 0-4.062 3.323-7.323 7.323-7.323s7.323 3.323 7.323 7.323c0 4.062-3.262 7.323-7.323 7.323z"></path>
<path d="M16.738 21.108v-3.138c0-0.246-0.246-0.492-0.492-0.492h-0.492c-0.246 0-0.492 0.246-0.492 0.492v3.446c0 0.185 0.062 0.369 0.246 0.492l2.338 2.338c0.185 0.185 0.492 0.185 0.677 0l0.369-0.369c0.185-0.185 0.185-0.492 0-0.677l-2.154-2.092z"></path>
</svg>
