<!-- Generated by IcoMoon.io -->
<svg version="1.1" xmlns="http://www.w3.org/2000/svg" width="32" height="32" viewBox="0 0 32 32">
<title>day-view</title>
<path d="M27.077 4.308h-3.077v-1.231c0-0.985-0.8-1.846-1.846-1.846-0.985 0-1.846 0.8-1.846 1.846v1.231h-8.615v-1.231c0-0.985-0.8-1.846-1.846-1.846-0.985 0-1.846 0.8-1.846 1.846v1.231h-3.077c-1.354 0-2.462 1.108-2.462 2.462v1.538c0 0.492 0.431 0.923 0.923 0.923h25.231c0.492 0 0.923-0.431 0.923-0.923v-1.538c0-1.354-1.108-2.462-2.462-2.462zM28.615 12.308h-25.231c-0.492 0-0.923 0.431-0.923 0.923v15.077c0 1.354 1.108 2.462 2.462 2.462h22.154c1.354 0 2.462-1.108 2.462-2.462v-15.077c0-0.492-0.431-0.923-0.923-0.923zM17.846 25.846v0.123c0 0.492-0.615 1.108-1.231 1.108s-1.231-0.615-1.231-1.231v-6.154l-0.923 0.985c-0.185 0.185-0.369 0.246-0.615 0.246-0.492 0-0.923-0.431-0.923-0.923 0-0.246 0.123-0.492 0.308-0.677l2.4-2.4c0.246-0.246 0.554-0.369 0.923-0.369 0.677 0 1.292 0.554 1.292 1.231v8.062z"></path>
</svg>
