<!-- Generated by IcoMoon.io -->
<svg version="1.1" xmlns="http://www.w3.org/2000/svg" width="32" height="32" viewBox="0 0 32 32">
<title>deprecate</title>
<path d="M29.538 4.308h-27.077c-0.677 0-1.231 0.554-1.231 1.231v16c0 0.677 0.554 1.231 1.231 1.231h9.969c0.615 3.508 3.631 6.154 7.262 6.154s6.708-2.646 7.262-6.154h2.585c0.677 0 1.231-0.554 1.231-1.231v-16c0-0.677-0.554-1.231-1.231-1.231zM24.246 24.369l-1.723 1.723-2.831-2.831-2.831 2.831-1.723-1.723 2.831-2.831-2.831-2.831 1.723-1.723 2.831 2.831 2.831-2.831 1.723 1.723-2.831 2.831 2.831 2.831zM28.308 20.308h-1.354c-0.615-3.508-3.631-6.154-7.262-6.154s-6.708 2.646-7.262 6.154h-8.738v-13.538h24.615v13.538z"></path>
</svg>
