<!-- Generated by IcoMoon.io -->
<svg version="1.1" xmlns="http://www.w3.org/2000/svg" width="32" height="32" viewBox="0 0 32 32">
<title>description</title>
<path d="M27.077 2.462h-22.154c-1.354 0-2.462 1.108-2.462 2.462v22.154c0 1.354 1.108 2.462 2.462 2.462h22.154c1.354 0 2.462-1.108 2.462-2.462v-22.154c0-1.354-1.108-2.462-2.462-2.462zM7.385 8.615c0-0.369 0.246-0.615 0.615-0.615h6.154c0.369 0 0.615 0.246 0.615 0.615v6.154c0 0.369-0.246 0.615-0.615 0.615h-6.154c-0.369 0-0.615-0.246-0.615-0.615v-6.154zM22.154 24.615c0 0.369-0.246 0.615-0.615 0.615h-13.538c-0.369 0-0.615-0.246-0.615-0.615v-1.231c0-0.369 0.246-0.615 0.615-0.615h13.538c0.369 0 0.615 0.246 0.615 0.615v1.231zM24.615 19.692c0 0.369-0.246 0.615-0.615 0.615h-16c-0.369 0-0.615-0.246-0.615-0.615v-1.231c0-0.369 0.246-0.615 0.615-0.615h16c0.369 0 0.615 0.246 0.615 0.615v1.231zM24.615 14.769c0 0.369-0.246 0.615-0.615 0.615h-6.154c-0.369 0-0.615-0.246-0.615-0.615v-1.231c0-0.369 0.246-0.615 0.615-0.615h6.154c0.369 0 0.615 0.246 0.615 0.615v1.231zM24.615 9.846c0 0.369-0.246 0.615-0.615 0.615h-6.154c-0.369 0-0.615-0.246-0.615-0.615v-1.231c0-0.369 0.246-0.615 0.615-0.615h6.154c0.369 0 0.615 0.246 0.615 0.615v1.231z"></path>
</svg>
