<!-- Generated by IcoMoon.io -->
<svg version="1.1" xmlns="http://www.w3.org/2000/svg" width="32" height="32" viewBox="0 0 32 32">
<title>desktop-and-phone</title>
<path d="M30.769 12.615c0-0.738-0.615-1.354-1.354-1.354h-8.677c-0.738 0-1.354 0.615-1.354 1.354v14.585c0 0.738 0.615 1.354 1.354 1.354h8.677c0.738 0 1.354-0.615 1.354-1.354v-14.585z"></path>
<path d="M17.046 18.092h-11.877c-0.431 0-0.8-0.431-0.8-0.8v-9.969c0-0.431 0.431-0.8 0.8-0.8h17.292c0.431 0 0.8 0.431 0.8 0.8v1.538h3.138v-3.323c0-1.108-0.985-2.092-2.092-2.092h-20.985c-1.108 0-2.092 0.985-2.092 2.092v13.662c0 1.108 0.985 2.092 2.092 2.092h13.723v-3.2zM17.046 27.2v-1.846h-1.169c-0.308 0-0.554-0.246-0.554-0.554v-1.046c0-0.308-0.246-0.554-0.554-0.554h-2.092c-0.308 0-0.554 0.246-0.554 0.554v1.046c0 0.308-0.246 0.554-0.554 0.554h-1.6c-1.108 0-2.092 0.985-2.092 2.092v0.246c0 0.431 0.431 0.8 0.8 0.8h8.677c-0.246-0.369-0.308-0.8-0.308-1.292z"></path>
<path d="M26.092 26.954c0 0.544-0.441 0.985-0.985 0.985s-0.985-0.441-0.985-0.985c0-0.544 0.441-0.985 0.985-0.985s0.985 0.441 0.985 0.985z"></path>
<path d="M28.738 24.738c0 0.246-0.246 0.554-0.554 0.554h-6.277c-0.246 0-0.554-0.246-0.554-0.554v-10.277c0-0.246 0.246-0.554 0.554-0.554h6.277c0.246 0 0.554 0.246 0.554 0.554v10.277z"></path>
</svg>
