<!-- Generated by IcoMoon.io -->
<svg version="1.1" xmlns="http://www.w3.org/2000/svg" width="32" height="32" viewBox="0 0 32 32">
<title>dislike</title>
<path d="M7.385 18.154v-12.615c0-1.354-1.108-2.462-2.462-2.462h-1.538c-0.492 0-0.923 0.431-0.923 0.923v14.154c0 0.492 0.431 0.923 0.923 0.923h3.077c0.492 0 0.923-0.431 0.923-0.923zM29.538 16v-7.692c0-5.354-4.246-5.846-8.862-5.846-4.369 0-5.785 1.662-9.969 1.846-0.492 0-0.862 0.431-0.862 0.923v12.308c0 0.492 0.431 0.923 0.923 0.923 2.954 0 5.231 3.2 5.231 6.462v3.692c0 0.492 0.431 0.923 0.923 0.923h1.538c1.354 0 2.462-1.108 2.462-2.462v-6.154c0-1.354 1.108-2.462 2.462-2.462h3.692c1.354 0 2.462-1.108 2.462-2.462z"></path>
</svg>
