<!-- Generated by IcoMoon.io -->
<svg version="1.1" xmlns="http://www.w3.org/2000/svg" width="32" height="32" viewBox="0 0 32 32">
<title>display-rich-text</title>
<path d="M2.523 26.523h27.015c0.554 0 0.985 0.431 0.985 0.985v1.908c0 0.554-0.431 0.985-0.985 0.985h-27.015c-0.554 0-0.985-0.431-0.985-0.985v-1.908c0-0.554 0.431-0.985 0.985-0.985zM2.523 17.846h27.015c0.554 0 0.985 0.431 0.985 0.985v1.908c0 0.554-0.431 0.985-0.985 0.985h-27.015c-0.554 0-0.985-0.431-0.985-0.985v-1.908c0-0.554 0.431-0.985 0.985-0.985zM19.692 9.169h9.846c0.554 0 0.985 0.431 0.985 0.985v1.908c0 0.554-0.431 0.985-0.985 0.985h-9.846c-0.554 0-0.985-0.431-0.985-0.985v-1.908c0-0.554 0.431-0.985 0.985-0.985zM14.831 13.292l-4.554-11.262c-0.123-0.185-0.308-0.369-0.554-0.369h-3.508c-0.185 0-0.431 0.123-0.492 0.369l-4.185 11.262c-0.062 0.185 0.062 0.492 0.308 0.492h2.215c0.185 0 0.431-0.185 0.492-0.369l0.862-2.4h5.354l0.923 2.4c0.062 0.185 0.308 0.369 0.492 0.369h2.215c0.308 0 0.492-0.246 0.431-0.492zM6.462 8.062l1.415-3.569h0.308l1.538 3.569h-3.262z"></path>
</svg>
