<!-- Generated by IcoMoon.io -->
<svg version="1.1" xmlns="http://www.w3.org/2000/svg" width="32" height="32" viewBox="0 0 32 32">
<title>dynamic-record-choice</title>
<path d="M12.8 26.462v-0.185c-4.369-1.415-7.569-5.415-7.569-10.277 0-5.908 4.862-10.769 10.769-10.769s10.769 4.862 10.769 10.769c0 0.985-0.123 1.969-0.369 2.892 0.123 0.123 0.308 0.185 0.431 0.308 0.185 0 0.369-0.062 0.554-0.062 0.985 0 1.969 0.308 2.708 0.738 0.369-1.231 0.554-2.523 0.554-3.877-0.062-8.123-6.646-14.708-14.708-14.708s-14.646 6.585-14.646 14.646c0 7.754 6.031 14.092 13.662 14.585-1.231-0.862-2.154-2.4-2.154-4.062z"></path>
<path d="M19.262 17.723c0.923 0 1.785 0.246 2.585 0.615 0.185-0.062 0.369-0.123 0.615-0.123 0.246-0.677 0.369-1.415 0.369-2.215 0-3.754-3.015-6.769-6.769-6.769s-6.769 3.015-6.769 6.769c0 3.015 1.969 5.538 4.677 6.462 0.246-2.708 2.523-4.738 5.292-4.738z"></path>
<path d="M21.662 21.292c0.492-0.492 1.169-0.8 1.969-0.8 1.046 0 1.908 0.554 2.4 1.354 0.369-0.123 0.862-0.308 1.354-0.308 1.785 0 3.323 1.538 3.323 3.262 0 1.785-1.538 3.262-3.323 3.262-0.185 0-0.431 0-0.615-0.062-0.369 0.738-1.231 1.231-2.092 1.231-0.369 0-0.738-0.123-1.046-0.246-0.431 0.985-1.415 1.662-2.523 1.662-1.231 0-2.215-0.738-2.585-1.785-0.123 0-0.369 0.062-0.554 0.062-1.415 0-2.585-1.108-2.585-2.523 0-0.923 0.492-1.785 1.292-2.215-0.123-0.369-0.246-0.738-0.246-1.169 0-1.6 1.354-2.954 2.954-2.954 0.862 0.062 1.723 0.554 2.277 1.231z"></path>
</svg>
