<!-- Generated by IcoMoon.io -->
<svg version="1.1" xmlns="http://www.w3.org/2000/svg" width="32" height="32" viewBox="0 0 32 32">
<title>email-open</title>
<path d="M28.185 17.292c0-0.492-0.615-0.8-1.046-0.431l-8.985 8.308c-0.615 0.554-1.354 0.862-2.215 0.862s-1.6-0.308-2.215-0.8l-8.923-8.369c-0.431-0.369-1.046-0.123-1.046 0.431-0.062-0.123-0.062 11.077-0.062 11.077 0 1.108 0.923 2.031 2.031 2.031h20.369c1.108 0 2.031-0.923 2.031-2.031v-11.077z"></path>
<path d="M28.062 12.677c0.123-0.123 0.185-0.246 0.185-0.369 0-0.185-0.062-0.308-0.185-0.431l-11.569-10.646c-0.308-0.308-0.738-0.308-1.046 0l-11.446 10.585c-0.062 0.062-0.062 0.123-0.123 0.123v0.062c0 0.062-0.062 0.123-0.062 0.185 0 0.185 0.062 0.308 0.185 0.431l11.385 10.585c0.308 0.308 0.738 0.308 1.046 0l11.631-10.523c0 0.062 0 0 0 0z"></path>
</svg>
