<!-- Generated by IcoMoon.io -->
<svg version="1.1" xmlns="http://www.w3.org/2000/svg" width="32" height="32" viewBox="0 0 32 32">
<title>email</title>
<path d="M15.323 18.523c0.369 0.369 0.923 0.369 1.292 0l13.908-12.923c0.246-0.492 0.185-1.292-0.8-1.292l-27.508 0.062c-0.738 0-1.354 0.677-0.8 1.292l13.908 12.862z"></path>
<path d="M30.769 10.646c0-0.615-0.738-0.985-1.231-0.554l-10.892 10.031c-0.738 0.677-1.662 1.046-2.646 1.046s-1.908-0.369-2.646-0.985l-10.831-10.092c-0.492-0.431-1.231-0.123-1.231 0.554-0.062-0.185-0.062 13.969-0.062 13.969 0 1.354 1.108 2.462 2.462 2.462h24.615c1.354 0 2.462-1.108 2.462-2.462v-13.969z"></path>
</svg>
