<!-- Generated by IcoMoon.io -->
<svg version="1.1" xmlns="http://www.w3.org/2000/svg" width="32" height="32" viewBox="0 0 32 32">
<title>end-chat</title>
<path d="M15.138 24.985c0-5.415 4.431-9.846 9.846-9.846 0.923 0 1.785 0.123 2.585 0.369 0.123-0.677 0.185-1.292 0.185-1.969-0.062-6.769-5.969-12.185-13.231-12.185-7.323 0-13.169 5.415-13.169 12.062 0 2.092 0.615 4.062 1.6 5.846 0.185 0.246 0.246 0.615 0.123 0.923l-1.723 4.677c-0.185 0.431 0.246 0.8 0.738 0.738l4.738-1.846c0.246-0.123 0.615-0.062 0.923 0.123 1.969 1.108 4.369 1.785 6.892 1.785h0.492v-0.677zM21.169 11.262c1.231 0 2.215 0.985 2.215 2.215s-0.985 2.215-2.215 2.215-2.215-0.985-2.215-2.215 0.985-2.215 2.215-2.215zM7.938 15.631c-1.231 0-2.215-0.985-2.215-2.215s0.985-2.215 2.215-2.215 2.215 0.985 2.215 2.215-1.046 2.215-2.215 2.215zM14.523 15.631c-1.231 0-2.215-0.985-2.215-2.215s0.985-2.215 2.215-2.215 2.215 0.985 2.215 2.215-0.985 2.215-2.215 2.215z"></path>
<path d="M19.508 21.292l3.692 3.692-3.692 3.692c-0.369 0.369-0.369 0.985 0 1.292l0.431 0.431c0.369 0.369 0.985 0.369 1.292 0l3.692-3.692 3.692 3.692c0.369 0.369 0.985 0.369 1.292 0l0.431-0.431c0.369-0.369 0.369-0.985 0-1.292l-3.692-3.692 3.692-3.692c0.369-0.369 0.369-0.985 0-1.292l-0.431-0.431c-0.369-0.369-0.985-0.369-1.292 0l-3.692 3.692-3.692-3.692c-0.369-0.369-0.985-0.369-1.292 0l-0.431 0.431c-0.308 0.308-0.308 0.923 0 1.292z"></path>
</svg>
