<!-- Generated by IcoMoon.io -->
<svg version="1.1" xmlns="http://www.w3.org/2000/svg" width="32" height="32" viewBox="0 0 32 32">
<title>end-call</title>
<path d="M29.846 3.446l-1.292-1.292c-0.369-0.369-1.046-0.308-1.477 0.185l-14.462 14.462-3.077-3.446c-0.369-0.369-0.369-0.862-0.123-1.292l2.338-3.2c0.677-0.862 0.615-2.092-0.062-2.954l-3.015-3.754c-0.923-1.108-2.585-1.231-3.631-0.185l-3.2 3.2c-0.492 0.492-0.738 1.169-0.738 1.846 0.308 5.662 2.585 11.077 6.154 15.138l-4.923 4.923c-0.431 0.431-0.492 1.108-0.185 1.477l1.292 1.292c0.369 0.369 1.046 0.308 1.477-0.185l24.738-24.738c0.492-0.431 0.554-1.108 0.185-1.477zM29.846 23.323l-3.754-3.015c-0.862-0.677-2.092-0.738-2.954-0.062l-3.2 2.338c-0.369 0.308-0.923 0.246-1.292-0.123l-1.477-1.354-5.231 5.231c3.754 2.523 8.246 4.185 12.923 4.431 0.677 0.062 1.354-0.246 1.846-0.738l3.2-3.2c1.169-0.923 1.108-2.646-0.062-3.508z"></path>
</svg>
