<!-- Generated by IcoMoon.io -->
<svg version="1.1" xmlns="http://www.w3.org/2000/svg" width="32" height="32" viewBox="0 0 32 32">
<title>engage</title>
<path d="M16.308 2.615c7.878 0 14.308 5.777 14.308 12.965s-6.43 12.966-14.308 12.966c-1.023 0-2.033-0.097-3.015-0.289l-0.3-0.062-0.088 0.047c-1.25 0.64-3.265 1.158-6.1 1.598l-0.318 0.049-0.694 0.1c-1.062 0.154-1.67-1.17-0.863-1.876 0.809-0.708 1.424-1.637 1.845-2.803l0.015-0.047-0.195-0.16c-2.828-2.368-4.516-5.687-4.591-9.271l-0.003-0.25c0-7.188 6.43-12.965 14.308-12.965zM20.615 19.077h-8.615c-0.68 0-1.231 0.551-1.231 1.231s0.551 1.231 1.231 1.231v0h8.615c0.68 0 1.231-0.551 1.231-1.231s-0.551-1.231-1.231-1.231v0zM23.077 14.462h-13.538c-0.68 0-1.231 0.551-1.231 1.231s0.551 1.231 1.231 1.231v0h13.538c0.68 0 1.231-0.551 1.231-1.231s-0.551-1.231-1.231-1.231v0zM20.615 9.846h-8.615c-0.68 0-1.231 0.551-1.231 1.231s0.551 1.231 1.231 1.231v0h8.615c0.68 0 1.231-0.551 1.231-1.231s-0.551-1.231-1.231-1.231v0z"></path>
</svg>
