<!-- Generated by IcoMoon.io -->
<svg version="1.1" xmlns="http://www.w3.org/2000/svg" width="32" height="32" viewBox="0 0 32 32">
<title>error</title>
<path d="M16 1.231c-8.123 0-14.769 6.646-14.769 14.769s6.646 14.769 14.769 14.769 14.769-6.646 14.769-14.769-6.646-14.769-14.769-14.769zM4.923 16c0-6.092 4.985-11.077 11.077-11.077 2.4 0 4.615 0.738 6.4 2.031l-15.446 15.446c-1.292-1.785-2.031-4-2.031-6.4zM16 27.077c-2.4 0-4.615-0.738-6.4-2.031l15.446-15.446c1.292 1.785 2.031 4 2.031 6.4 0 6.092-4.985 11.077-11.077 11.077z"></path>
</svg>
