<!-- Generated by IcoMoon.io -->
<svg version="1.1" xmlns="http://www.w3.org/2000/svg" width="32" height="32" viewBox="0 0 32 32">
<title>event</title>
<path d="M28.615 12.308h-25.231c-0.492 0-0.923 0.431-0.923 0.923v15.077c0 1.354 1.108 2.462 2.462 2.462h22.154c1.354 0 2.462-1.108 2.462-2.462v-15.077c0-0.492-0.431-0.923-0.923-0.923zM11.692 25.846c0 0.369-0.246 0.615-0.615 0.615h-2.462c-0.369 0-0.615-0.246-0.615-0.615v-2.462c0-0.369 0.246-0.615 0.615-0.615h2.462c0.369 0 0.615 0.246 0.615 0.615v2.462zM11.692 19.692c0 0.369-0.246 0.615-0.615 0.615h-2.462c-0.369 0-0.615-0.246-0.615-0.615v-2.462c0-0.369 0.246-0.615 0.615-0.615h2.462c0.369 0 0.615 0.246 0.615 0.615v2.462zM17.846 25.846c0 0.369-0.246 0.615-0.615 0.615h-2.462c-0.369 0-0.615-0.246-0.615-0.615v-2.462c0-0.369 0.246-0.615 0.615-0.615h2.462c0.369 0 0.615 0.246 0.615 0.615v2.462zM17.846 19.692c0 0.369-0.246 0.615-0.615 0.615h-2.462c-0.369 0-0.615-0.246-0.615-0.615v-2.462c0-0.369 0.246-0.615 0.615-0.615h2.462c0.369 0 0.615 0.246 0.615 0.615v2.462zM24 25.846c0 0.369-0.246 0.615-0.615 0.615h-2.462c-0.369 0-0.615-0.246-0.615-0.615v-2.462c0-0.369 0.246-0.615 0.615-0.615h2.462c0.369 0 0.615 0.246 0.615 0.615v2.462zM24 19.692c0 0.369-0.246 0.615-0.615 0.615h-2.462c-0.369 0-0.615-0.246-0.615-0.615v-2.462c0-0.369 0.246-0.615 0.615-0.615h2.462c0.369 0 0.615 0.246 0.615 0.615v2.462zM27.077 4.308h-3.077v-1.231c0-0.985-0.8-1.846-1.846-1.846-0.985 0-1.846 0.8-1.846 1.846v1.231h-8.615v-1.231c0-0.985-0.8-1.846-1.846-1.846-0.985 0-1.846 0.8-1.846 1.846v1.231h-3.077c-1.354 0-2.462 1.108-2.462 2.462v1.538c0 0.492 0.431 0.923 0.923 0.923h25.231c0.492 0 0.923-0.431 0.923-0.923v-1.538c0-1.354-1.108-2.462-2.462-2.462z"></path>
</svg>
