<!-- Generated by IcoMoon.io -->
<svg version="1.1" xmlns="http://www.w3.org/2000/svg" width="32" height="32" viewBox="0 0 32 32">
<title>favorite</title>
<path d="M16.862 1.908l2.831 9.231c0.123 0.369 0.492 0.554 0.862 0.554h9.231c0.923 0 1.292 1.231 0.554 1.785l-7.508 5.538c-0.308 0.246-0.431 0.677-0.308 1.046l3.569 9.477c0.246 0.862-0.677 1.6-1.415 1.046l-8.062-6.031c-0.308-0.246-0.738-0.246-1.108 0l-8.123 6.031c-0.738 0.554-1.723-0.185-1.415-1.046l3.446-9.477c0.123-0.369 0-0.8-0.308-1.046l-7.508-5.538c-0.738-0.554-0.308-1.785 0.554-1.785h9.231c0.431 0 0.738-0.123 0.862-0.554l2.892-9.292c0.246-0.862 1.477-0.8 1.723 0.062z"></path>
</svg>
