<!-- Generated by IcoMoon.io -->
<svg version="1.1" xmlns="http://www.w3.org/2000/svg" width="32" height="32" viewBox="0 0 32 32">
<title>file</title>
<path d="M5.969 22.215v-15.262c-1.6 0-2.892 1.292-2.892 2.831v18.092c0 1.6 1.292 2.892 2.892 2.892h14.338c1.6 0 2.892-1.292 2.892-2.831h-11.508c-3.138 0-5.723 0-5.723-5.723z"></path>
<path d="M27.938 9.785h-4.8c-1.6 0-2.892-1.292-2.892-2.831v-4.8c0.062-0.492-0.369-0.923-0.923-0.923h-7.631c-1.6 0-2.892 1.292-2.892 2.831v18.092c0 1.6 1.292 2.831 2.892 2.831h14.338c1.6 0 2.892-1.292 2.892-2.831v-11.385c0-0.554-0.431-0.985-0.985-0.985z"></path>
<path d="M28.738 5.785l-4.431-4.369c-0.123-0.123-0.246-0.185-0.431-0.185-0.369 0-0.677 0.308-0.677 0.677v3.138c0 1.046 0.862 1.908 1.908 1.908h3.138c0.369 0 0.677-0.308 0.677-0.677 0-0.185-0.062-0.308-0.185-0.492z"></path>
</svg>
