<!-- Generated by IcoMoon.io -->
<svg version="1.1" xmlns="http://www.w3.org/2000/svg" width="32" height="32" viewBox="0 0 32 32">
<title>filter-list</title>
<path d="M15.015 19.569c-0.369-0.369-0.923-0.369-1.292 0l-2.215 2.215c-0.369 0.369-1.046 0.123-1.046-0.431v-8.123c0-0.492-0.431-0.923-0.923-0.923h-1.846c-0.492 0-0.923 0.431-0.923 0.923v8.123c0 0.554-0.677 0.8-1.046 0.431l-2.215-2.215c-0.369-0.369-0.923-0.369-1.292 0l-1.354 1.354c-0.369 0.369-0.369 0.923 0 1.292l7.077 7.077c0.369 0.369 0.923 0.369 1.292 0l7.138-7.138c0.369-0.369 0.369-0.923 0-1.292l-1.354-1.292zM31.385 5.846c0-0.492-0.431-0.923-0.923-0.923h-22.769c-0.492 0-0.923 0.431-0.923 0.923v1.846c0 0.492 0.431 0.923 0.923 0.923h22.769c0.492 0 0.923-0.431 0.923-0.923v-1.846zM31.385 13.231c0-0.492-0.431-0.923-0.923-0.923h-16.615c-0.492 0-0.923 0.431-0.923 0.923v1.846c0 0.492 0.431 0.923 0.923 0.923h16.615c0.492 0 0.923-0.431 0.923-0.923v-1.846zM31.385 20.615c0-0.492-0.431-0.923-0.923-0.923h-10.462c-0.492 0-0.923 0.431-0.923 0.923v1.846c0 0.492 0.431 0.923 0.923 0.923h10.462c0.492 0 0.923-0.431 0.923-0.923v-1.846z"></path>
</svg>
