<!-- Generated by IcoMoon.io -->
<svg version="1.1" xmlns="http://www.w3.org/2000/svg" width="32" height="32" viewBox="0 0 32 32">
<title>flow-alt</title>
<path d="M26.031 3.015h-7.323c-0.492-1.046-1.538-1.785-2.708-1.785-1.6 0-2.954 1.354-2.954 2.954s1.354 2.954 2.954 2.954c1.231 0 2.277-0.738 2.708-1.785h7.323c1.292 0 2.338 1.046 2.338 2.338v4.738c0 1.292-1.046 2.338-2.338 2.338h-3.569v-3.569c0-0.985-0.8-1.785-1.785-1.785h-9.415c-0.985 0-1.785 0.8-1.785 1.785v3.569h-3.508c-2.585 0-4.738 2.092-4.738 4.738v4.738c0 2.585 2.092 4.738 4.738 4.738h7.323c0.431 1.046 1.477 1.785 2.708 1.785 1.6 0 2.954-1.354 2.954-2.954s-1.354-2.954-2.954-2.954c-1.231 0-2.277 0.738-2.708 1.785h-7.323c-1.292 0-2.338-1.046-2.338-2.338v-4.738c0-1.292 1.046-2.338 2.338-2.338h3.569v3.569c0 0.985 0.8 1.785 1.785 1.785h9.477c0.985 0 1.785-0.8 1.785-1.785v-3.569h3.569c2.585 0 4.738-2.092 4.738-4.738v-4.738c-0.123-2.646-2.277-4.738-4.862-4.738z"></path>
</svg>
