<!-- Generated by IcoMoon.io -->
<svg version="1.1" xmlns="http://www.w3.org/2000/svg" width="32" height="32" viewBox="0 0 32 32">
<title>global-constant</title>
<path d="M17.6 17.354c1.6-1.231 3.323-1.415 4.492-1.415l4.369-0.062c0.431 0 0.862 0 1.292-0.062 0.554 0 1.108-0.062 1.6-0.062h1.292c0.062-8.062-6.585-14.646-14.646-14.646s-14.708 6.585-14.708 14.646c0 7.077 5.046 12.985 11.692 14.4-0.123-0.492-0.062-0.985 0.062-1.477 0.185-0.862 0.677-1.538 1.169-2.031-1.538-1.538-2.831-5.046-3.077-9.354h3.385v3.938c0.123-0.308 0.185-0.615 0.369-0.862 0.615-0.862 1.292-1.785 2.092-2.585 0.123-0.123 0.308-0.246 0.369-0.369l0.246-0.062zM27.631 14.4h-3.877c-0.123-3.508-0.923-6.523-2.092-8.8 3.262 1.785 5.477 5.046 5.969 8.8zM17.477 4.738c1.662 1.415 3.138 5.046 3.385 9.662h-3.385v-9.662zM14.523 4.738v9.662h-3.385c0.246-4.615 1.723-8.246 3.385-9.662zM4.369 17.354h3.877c0.123 3.508 0.923 6.523 2.092 8.8-3.262-1.785-5.477-5.046-5.969-8.8zM8.185 14.4h-3.815c0.492-3.754 2.769-7.015 5.969-8.8-1.169 2.277-1.908 5.354-2.154 8.8z"></path>
<path d="M15.138 25.785c0.185-0.123 0.369-0.369 0.492-0.431 0.123-0.185 0.369-0.369 0.492-0.615-0.8-0.369-1.354-1.046-1.6-1.846v3.508c0.246-0.308 0.431-0.492 0.615-0.615z"></path>
<path d="M30.523 18.4c-0.123-0.123-0.185-0.123-0.308-0.123-1.231-0.062-2.523 0.062-3.692 0.062l-4.369 0.062c-1.292 0-2.4 0.308-3.446 1.231-0.615 0.615-1.292 1.415-1.785 2.154-0.062 0.123-0.123 0.185-0.123 0.308 0 0.308 0.246 0.492 0.492 0.492 0.308 0 0.369-0.185 0.492-0.369s0.308-0.369 0.492-0.615c0.677-0.615 1.6-0.985 2.523-0.862-0.8 2.154-1.846 4.615-3.446 6.338-0.615 0.677-1.785 1.415-2.031 2.4-0.246 1.046 0.8 1.292 1.538 0.985 0.985-0.369 1.538-1.415 2.092-2.277 0.615-1.108 1.169-2.215 1.6-3.323 0.492-1.108 0.985-2.277 1.415-3.385 0.308-0.677 0.369-0.677 1.108-0.677h1.908c-0.677 1.538-1.354 3.138-2.031 4.738-0.492 1.231-1.354 3.015-0.738 4.308s2.338 0.862 3.262 0.123c0.985-0.677 1.538-1.785 2.092-2.769 0.123-0.185 0.185-0.369 0.123-0.615-0.123-0.185-0.246-0.308-0.431-0.308-0.431 0-0.554 0.554-0.677 0.862-0.246 0.554-0.862 1.046-1.477 0.923-1.415-0.185-0.123-2.769 0.123-3.508s0.554-1.415 0.862-2.092c0.185-0.369 0.369-0.862 0.554-1.231 0.246-0.492 0.246-0.492 0.862-0.554 0.492 0 1.908 0.246 2.338-0.062 0.369-0.246 0.554-1.108 0.738-1.723 0.123-0.185 0.123-0.308-0.062-0.492z"></path>
</svg>
