<!-- Generated by IcoMoon.io -->
<svg version="1.1" xmlns="http://www.w3.org/2000/svg" width="32" height="32" viewBox="0 0 32 32">
<title>hide</title>
<path d="M31.877 15.446c-0.985-1.969-2.277-3.754-3.877-5.169l-5.231 5.169v0.554c0 3.754-3.015 6.769-6.769 6.769h-0.554l-3.323 3.323c1.231 0.246 2.523 0.431 3.815 0.431 6.954 0 12.985-4.062 15.877-9.908 0.246-0.431 0.246-0.8 0.062-1.169zM29.846 3.446l-1.292-1.292c-0.369-0.369-1.046-0.308-1.477 0.185l-4.492 4.492c-2.031-0.862-4.246-1.292-6.585-1.292-6.954 0-12.985 4.062-15.877 9.908-0.185 0.369-0.185 0.8 0 1.108 1.354 2.769 3.385 5.046 5.908 6.769l-3.692 3.754c-0.431 0.431-0.492 1.108-0.185 1.477l1.292 1.292c0.369 0.369 1.046 0.308 1.477-0.185l24.738-24.738c0.492-0.431 0.554-1.108 0.185-1.477zM9.231 16c0-3.754 3.015-6.769 6.769-6.769 1.231 0 2.338 0.308 3.323 0.862l-1.846 1.846c-0.492-0.123-0.985-0.246-1.477-0.246-2.4 0-4.308 1.908-4.308 4.308 0 0.492 0.123 0.985 0.246 1.477l-1.846 1.846c-0.554-0.985-0.862-2.092-0.862-3.323z"></path>
</svg>
