<!-- Generated by IcoMoon.io -->
<svg version="1.1" xmlns="http://www.w3.org/2000/svg" width="32" height="32" viewBox="0 0 32 32">
<title>hide-mobile</title>
<path d="M22.215 15.569v8.677c0 0.431-0.369 0.862-0.862 0.862h-8.677l-5.292 5.292c0.369 0.246 0.8 0.369 1.231 0.369h14.769c1.231 0 2.277-1.046 2.277-2.277v-16.369l-3.446 3.446zM16 29.6c-0.985 0-1.723-0.738-1.723-1.723s0.738-1.723 1.723-1.723 1.723 0.738 1.723 1.723-0.738 1.723-1.723 1.723zM6.338 28.062l3.508-3.508v-0.062l12.431-12.431v0.062l3.385-3.385v-0.062l4.308-4.308c0.431-0.369 0.492-1.046 0.185-1.354l-1.231-1.169c-0.369-0.369-0.985-0.308-1.354 0.185l-1.908 1.908v-0.431c0-1.231-1.046-2.277-2.277-2.277h-14.769c-1.231 0-2.277 1.046-2.277 2.277v19.754l-4.369 4.369c-0.369 0.369-0.431 0.985-0.123 1.292l1.169 1.231c0.369 0.369 0.985 0.308 1.354-0.185l1.969-1.908zM9.723 6.646c0-0.431 0.369-0.862 0.862-0.862h10.769c0.431 0 0.862 0.369 0.862 0.862v0.738l-12.492 12.431v-13.169z"></path>
</svg>
