<!-- Generated by IcoMoon.io -->
<svg version="1.1" xmlns="http://www.w3.org/2000/svg" width="32" height="32" viewBox="0 0 32 32">
<title>high-velocity-sales</title>
<path d="M30.769 1.969c0-0.615-0.369-0.738-0.554-0.738h-12.738c-0.923 0-0.923 0.923-0.923 0.923v1.785c0 0.8 0.492 0.985 0.738 0.985h8.862c0.369 0.062 0.923 0.308 0.923 1.292v8.369c0.062 0.246 0.185 0.8 0.923 0.8h1.969s0.8 0 0.8-0.923v-12.492z"></path>
<path d="M23.077 9.662c0.062-0.615-0.369-0.738-0.554-0.738h-12.738c-0.923 0-0.923 0.923-0.923 0.923v1.785c0 0.8 0.492 0.985 0.738 0.985h8.862c0.369 0.062 0.923 0.308 0.923 1.292v8.369c0.062 0.246 0.185 0.8 0.923 0.8h1.969s0.8 0 0.8-0.923v-12.492z"></path>
<path d="M3.262 30.031c0.123 0.123 0.615 0.492 1.292-0.185l6.4-6.4c0.185-0.185 0.738-0.615 0.738 0.246v6.277c0.062 0.246 0.185 0.8 0.923 0.8h1.969s0.8 0 0.8-0.923v-12.492c0-0.615-0.369-0.677-0.554-0.738h-12.738c-0.923 0-0.923 0.923-0.923 0.923v1.785c0 0.8 0.492 0.985 0.738 0.985h5.908c0.246 0 0.985 0.062 0.308 0.738l-6.154 6.277s-0.738 0.677-0.123 1.292l1.415 1.415z"></path>
</svg>
