<!-- Generated by IcoMoon.io -->
<svg version="1.1" xmlns="http://www.w3.org/2000/svg" width="32" height="32" viewBox="0 0 32 32">
<title>home</title>
<path d="M30.154 16.615h-3.077v13.538c0 0.369-0.246 0.615-0.615 0.615h-6.154c-0.369 0-0.615-0.246-0.615-0.615v-10.462h-7.385v10.462c0 0.369-0.246 0.615-0.615 0.615h-6.154c-0.369 0-0.615-0.246-0.615-0.615v-13.538h-3.077c-0.246 0-0.492-0.123-0.554-0.369-0.123-0.246-0.062-0.492 0.123-0.677l14.154-14.154c0.246-0.246 0.677-0.246 0.862 0l14.154 14.154c0.185 0.185 0.185 0.431 0.123 0.677s-0.308 0.369-0.554 0.369z"></path>
</svg>
