<!-- Generated by IcoMoon.io -->
<svg version="1.1" xmlns="http://www.w3.org/2000/svg" width="32" height="32" viewBox="0 0 32 32">
<title>identity</title>
<path d="M28.308 4.923h-6.831s0.062 0.431 0.062 0.615c0 2.4-1.908 4.308-4.308 4.308h-3.692c-2.4 0-4.308-1.908-4.308-4.308 0-0.185 0-0.615 0.062-0.615h-5.6c-1.354 0-2.462 1.108-2.462 2.462v18.462c0 1.354 1.108 2.462 2.462 2.462h24.615c1.354 0 2.462-1.108 2.462-2.462v-18.462c0-1.354-1.108-2.462-2.462-2.462zM13.354 23.385h-7.015c-0.8 0-1.415-0.738-1.415-1.538 0-1.231 1.292-1.908 2.646-2.462 0.923-0.369 1.046-0.738 1.046-1.169 0-0.369-0.246-0.738-0.554-1.046-0.554-0.492-0.862-1.231-0.862-2.031 0-1.538 0.923-2.831 2.585-2.831s2.585 1.292 2.585 2.831c0 0.8-0.308 1.538-0.862 2.031-0.308 0.308-0.554 0.677-0.554 1.046s0.123 0.738 1.046 1.169c1.354 0.554 2.646 1.231 2.646 2.462 0.123 0.8-0.492 1.538-1.292 1.538zM27.077 20.923c0 0.369-0.246 0.615-0.615 0.615h-8.615c-0.369 0-0.615-0.246-0.615-0.615v-1.231c0-0.369 0.246-0.615 0.615-0.615h8.615c0.369 0 0.615 0.246 0.615 0.615v1.231zM28.308 16c0 0.369-0.246 0.615-0.615 0.615h-9.846c-0.369 0-0.615-0.246-0.615-0.615v-1.231c0-0.369 0.246-0.615 0.615-0.615h9.846c0.369 0 0.615 0.246 0.615 0.615v1.231z"></path>
<path d="M13.538 7.385h3.692c1.046 0 1.846-0.8 1.846-1.846s-0.8-1.846-1.846-1.846h-3.692c-1.046 0-1.846 0.8-1.846 1.846s0.8 1.846 1.846 1.846z"></path>
</svg>
