<!-- Generated by IcoMoon.io -->
<svg version="1.1" xmlns="http://www.w3.org/2000/svg" width="32" height="32" viewBox="0 0 32 32">
<title>image</title>
<path d="M30.769 6.154c0-1.354-1.108-2.462-2.462-2.462h-24.615c-1.354 0-2.462 1.108-2.462 2.462v19.692c0 1.354 1.108 2.462 2.462 2.462h24.615c1.354 0 2.462-1.108 2.462-2.462v-19.692zM24.369 23.385h-17.846c-0.738 0-1.169-0.8-0.8-1.415l5.415-9.415c0.246-0.431 0.8-0.431 1.046 0l3.262 5.6c0.246 0.369 0.8 0.431 1.046 0.062l2.646-3.815c0.246-0.369 0.8-0.369 1.046 0l4.862 7.754c0.369 0.554 0 1.231-0.677 1.231zM22.769 12.308c-1.354 0-2.462-1.108-2.462-2.462s1.108-2.462 2.462-2.462 2.462 1.108 2.462 2.462-1.108 2.462-2.462 2.462z"></path>
</svg>
