<!-- Generated by IcoMoon.io -->
<svg version="1.1" xmlns="http://www.w3.org/2000/svg" width="32" height="32" viewBox="0 0 32 32">
<title>in-app-assistant</title>
<path d="M30.708 20.677l-1.231-2.585 1.231-2.585c0.123-0.185 0-0.492-0.185-0.554-0.062 0-0.123-0.062-0.185-0.062h-4c-0.308-0.8-1.108-2.769-1.846-3.877-0.923-1.477-1.969-2.708-3.2-3.692-1.415-1.169-3.015-2.154-4.862-2.892l-0.431-0.062-0.431 0.123c-0.062 0-0.738 0.246-1.785 0.738-0.862 0.431-1.846 1.046-2.831 1.846-1.908 1.538-3.385 3.385-4.431 5.538-0.308 0.677-0.677 1.477-0.985 2.338h-3.877c-0.062 0-0.123 0-0.185 0.062-0.185 0.062-0.308 0.369-0.246 0.554l1.108 2.585-1.108 2.585v0.123c0 0.246 0.185 0.431 0.431 0.431h2.769v1.108c0 0.431 0 0.923 0.062 1.231v0.8l0.738 0.431c0.062 0 1.231 0.677 3.138 1.354 1.723 0.615 4.492 1.354 7.815 1.354 2.892 0 5.723-0.554 8.431-1.662 0.8-0.308 1.538-0.677 2.215-1.046l0.615-0.308 0.123-0.492 0.062-0.431v-1.292c0-0.246 0-0.369-0.062-0.492 0-0.123-0.062-0.246-0.062-0.615h2.831c0.246 0 0.431-0.185 0.431-0.431 0 0 0-0.062-0.062-0.123zM25.477 22.892c0 0.123 0 0.246-0.062 0.369-0.554 0.308-1.108 0.554-1.662 0.8-2.462 0.985-4.985 1.477-7.631 1.477-3.015 0-5.538-0.677-7.138-1.231-1.169-0.431-2.031-0.8-2.462-1.046v-1.292c0-0.185 0-0.308 0.062-1.6 0.123-1.785 0.554-3.446 0.862-4.369s0.677-1.785 0.985-2.462c0.923-1.908 2.215-3.446 3.877-4.8 1.046-0.862 1.908-1.354 2.4-1.6 0.554-0.246 0.985-0.431 1.231-0.554 1.477 0.615 2.769 1.415 3.938 2.4 1.046 0.862 1.969 1.908 2.769 3.262 0.615 0.985 1.477 3.077 1.723 3.692 0 0 0.8 2.585 0.862 4.308 0.062 1.354 0.062 1.6 0.123 1.908 0 0.123 0 0.185 0.062 0.308v0.431z"></path>
<path d="M15.877 23.385c-0.369 0-0.615-0.123-0.862-0.308-0.246-0.246-0.369-0.554-0.369-0.923s0.123-0.677 0.369-0.862c0.246-0.246 0.554-0.369 0.923-0.369s0.677 0.123 0.862 0.369c0.246 0.246 0.369 0.554 0.369 0.862 0 0.369-0.123 0.677-0.369 0.923-0.308 0.246-0.615 0.308-0.923 0.308zM11.754 14.277c0-0.554 0.185-1.046 0.492-1.6 0.369-0.554 0.862-0.985 1.477-1.354 0.677-0.369 1.415-0.554 2.277-0.554 0.8 0 1.538 0.123 2.154 0.431s1.108 0.677 1.415 1.231c0.308 0.492 0.492 1.046 0.492 1.662 0 0.492-0.123 0.862-0.308 1.231s-0.431 0.677-0.677 0.923c-0.246 0.246-0.738 0.677-1.415 1.292-0.185 0.185-0.369 0.308-0.431 0.431-0.123 0.123-0.185 0.246-0.246 0.369s-0.123 0.246-0.123 0.308c0 0.123-0.062 0.308-0.123 0.554-0.123 0.554-0.431 0.862-0.985 0.862-0.308 0-0.554-0.123-0.738-0.308-0.185-0.062-0.246-0.369-0.246-0.738 0-0.492 0.062-0.862 0.246-1.231 0.123-0.369 0.308-0.615 0.554-0.923 0.246-0.246 0.554-0.554 0.985-0.923 0.369-0.308 0.615-0.554 0.8-0.677 0.185-0.185 0.308-0.308 0.431-0.554 0.123-0.185 0.185-0.431 0.185-0.615 0-0.431-0.185-0.8-0.492-1.108s-0.738-0.431-1.292-0.431c-0.615 0-1.046 0.185-1.354 0.492s-0.554 0.738-0.738 1.354c-0.185 0.615-0.554 0.923-1.108 0.923-0.308 0-0.554-0.123-0.8-0.308-0.308-0.246-0.431-0.492-0.431-0.738z"></path>
</svg>
