<!-- Generated by IcoMoon.io -->
<svg version="1.1" xmlns="http://www.w3.org/2000/svg" width="32" height="32" viewBox="0 0 32 32">
<title>jump-to-top</title>
<path d="M7.015 13.292l8.308-8.431c0.369-0.369 0.985-0.369 1.354 0l8.308 8.431c0.369 0.369 0.369 0.985 0 1.354l-1.354 1.354c-0.369 0.369-0.985 0.369-1.354 0l-5.6-5.785c-0.369-0.369-0.985-0.369-1.354 0l-5.6 5.723c-0.369 0.369-0.985 0.369-1.354 0l-1.354-1.354c-0.308-0.369-0.308-0.923 0-1.292z"></path>
<path d="M7.015 24.431l8.308-8.431c0.369-0.369 0.985-0.369 1.354 0l8.308 8.431c0.369 0.369 0.369 0.985 0 1.354l-1.354 1.354c-0.369 0.369-0.985 0.369-1.354 0l-5.6-5.785c-0.369-0.369-0.985-0.369-1.354 0l-5.6 5.723c-0.369 0.369-0.985 0.369-1.354 0l-1.354-1.354c-0.308-0.369-0.308-0.985 0-1.292z"></path>
</svg>
