<!-- Generated by IcoMoon.io -->
<svg version="1.1" xmlns="http://www.w3.org/2000/svg" width="32" height="32" viewBox="0 0 32 32">
<title>jump-to-bottom</title>
<path d="M24.985 18.708l-8.308 8.369c-0.369 0.369-0.985 0.369-1.354 0l-8.308-8.369c-0.369-0.369-0.369-0.985 0-1.354l1.354-1.354c0.369-0.369 0.985-0.369 1.354 0l5.6 5.785c0.369 0.369 0.985 0.369 1.354 0l5.6-5.723c0.369-0.369 0.985-0.369 1.354 0l1.354 1.354c0.308 0.369 0.308 0.923 0 1.292z"></path>
<path d="M24.985 7.569l-8.308 8.492c-0.369 0.369-0.985 0.369-1.354 0l-8.308-8.492c-0.369-0.369-0.369-0.985 0-1.354l1.354-1.354c0.369-0.369 0.985-0.369 1.354 0l5.6 5.785c0.369 0.369 0.985 0.369 1.354 0l5.6-5.723c0.369-0.369 0.985-0.369 1.354 0l1.354 1.354c0.308 0.369 0.308 0.985 0 1.292z"></path>
</svg>
