<!-- Generated by IcoMoon.io -->
<svg version="1.1" xmlns="http://www.w3.org/2000/svg" width="32" height="32" viewBox="0 0 32 32">
<title>kanban</title>
<path d="M19.692 10.769c0-0.492-0.431-0.923-0.923-0.923h-5.538c-0.492 0-0.923 0.431-0.923 0.923v16.615c0 0.492 0.431 0.923 0.923 0.923h5.538c0.492 0 0.923-0.431 0.923-0.923v-16.615zM8.615 10.769c0-0.492-0.431-0.923-0.923-0.923h-5.538c-0.492 0-0.923 0.431-0.923 0.923v19.077c0 0.492 0.431 0.923 0.923 0.923h5.538c0.492 0 0.923-0.431 0.923-0.923v-19.077zM30.769 10.769c0-0.492-0.431-0.923-0.923-0.923h-5.538c-0.492 0-0.923 0.431-0.923 0.923v14.154c0 0.492 0.431 0.923 0.923 0.923h5.538c0.492 0 0.923-0.431 0.923-0.923v-14.154zM30.769 2.154c0-0.492-0.431-0.923-0.923-0.923h-27.692c-0.492 0-0.923 0.431-0.923 0.923v3.077c0 0.492 0.431 0.923 0.923 0.923h27.692c0.492 0 0.923-0.431 0.923-0.923v-3.077z"></path>
</svg>
