<!-- Generated by IcoMoon.io -->
<svg version="1.1" xmlns="http://www.w3.org/2000/svg" width="32" height="32" viewBox="0 0 32 32">
<title>keyboard-dismiss</title>
<path d="M29.538 20.964c0.677 0 1.231-0.554 1.231-1.231v-16c0-0.677-0.554-1.231-1.231-1.231h-27.077c-0.677 0-1.231 0.554-1.231 1.231v16c0 0.677 0.554 1.231 1.231 1.231h27.077zM3.692 18.502v-13.538h24.615v13.538h-24.615z"></path>
<path d="M8.409 8.245c0 0.492-0.431 0.923-0.923 0.923h-0.614c-0.492 0-0.923-0.431-0.923-0.923v-0.614c0-0.492 0.431-0.923 0.923-0.923h0.614c0.492 0 0.923 0.431 0.923 0.923v0.614zM11.94 7.631c0-0.493-0.431-0.923-0.923-0.923h-0.614c-0.492 0-0.923 0.43-0.923 0.923v0.614c0 0.492 0.431 0.923 0.923 0.923h0.614c0.492 0 0.923-0.431 0.923-0.923v-0.614zM19.002 8.245c0 0.492-0.43 0.923-0.923 0.923h-0.614c-0.492 0-0.923-0.431-0.923-0.923v-0.614c0-0.492 0.431-0.923 0.923-0.923h0.614c0.494 0 0.923 0.431 0.923 0.923v0.614zM15.471 8.245c0 0.492-0.43 0.923-0.923 0.923h-0.614c-0.492 0-0.923-0.431-0.923-0.923v-0.614c0-0.492 0.431-0.923 0.923-0.923h0.614c0.493 0 0.923 0.431 0.923 0.923v0.614zM26.064 7.631c0-0.493-0.43-0.923-0.923-0.923h-0.614c-0.492 0-0.923 0.43-0.923 0.923v0.614c0 0.492 0.431 0.923 0.923 0.923h0.614c0.493 0 0.923-0.431 0.923-0.923v-0.614zM22.532 7.631c0-0.493-0.43-0.923-0.923-0.923h-0.614c-0.492 0-0.923 0.43-0.923 0.923v0.614c0 0.492 0.431 0.923 0.923 0.923h0.614c0.493 0 0.923-0.431 0.923-0.923v-0.614zM8.409 11.94c0 0.492-0.431 0.923-0.923 0.923h-0.614c-0.492 0-0.923-0.431-0.923-0.923v-0.614c0-0.492 0.431-0.923 0.923-0.923h0.614c0.492 0 0.923 0.431 0.923 0.923v0.614zM11.94 11.326c0-0.493-0.431-0.923-0.923-0.923h-0.614c-0.492 0-0.923 0.43-0.923 0.923v0.614c0 0.492 0.431 0.923 0.923 0.923h0.614c0.492 0 0.923-0.431 0.923-0.923v-0.614zM19.002 11.94c0 0.492-0.43 0.923-0.923 0.923h-0.614c-0.492 0-0.923-0.431-0.923-0.923v-0.614c0-0.492 0.431-0.923 0.923-0.923h0.614c0.494 0 0.923 0.431 0.923 0.923v0.614zM15.471 11.94c0 0.492-0.43 0.923-0.923 0.923h-0.614c-0.492 0-0.923-0.431-0.923-0.923v-0.614c0-0.492 0.431-0.923 0.923-0.923h0.614c0.493 0 0.923 0.431 0.923 0.923v0.614zM26.064 11.326c0-0.493-0.43-0.923-0.923-0.923h-0.614c-0.492 0-0.923 0.43-0.923 0.923v0.614c0 0.492 0.431 0.923 0.923 0.923h0.614c0.493 0 0.923-0.431 0.923-0.923v-0.614zM22.532 11.326c0-0.493-0.43-0.923-0.923-0.923h-0.614c-0.492 0-0.923 0.43-0.923 0.923v0.614c0 0.492 0.431 0.923 0.923 0.923h0.614c0.493 0 0.923-0.431 0.923-0.923v-0.614zM8.409 15.636c0 0.493-0.431 0.923-0.923 0.923h-0.614c-0.492 0-0.923-0.431-0.923-0.923v-0.614c0-0.492 0.431-0.923 0.923-0.923h0.614c0.492 0 0.923 0.431 0.923 0.923v0.614zM22.532 15.022c0-0.493-0.431-0.923-0.923-0.923h-11.207c-0.492 0-0.923 0.43-0.923 0.923v0.614c0 0.492 0.431 0.923 0.923 0.923h11.207c0.492 0 0.923-0.431 0.923-0.923v-0.614zM26.064 15.022c0-0.493-0.43-0.923-0.923-0.923h-0.614c-0.492 0-0.923 0.43-0.923 0.923v0.614c0 0.492 0.431 0.923 0.923 0.923h0.614c0.493 0 0.923-0.431 0.923-0.923v-0.614zM11.148 22.909h9.718c0.275 0 0.467 0.357 0.246 0.604l-4.75 5.82c-0.164 0.219-0.521 0.219-0.686 0l-4.804-5.82c-0.191-0.247-0.026-0.604 0.276-0.604z"></path>
</svg>
