<!-- Generated by IcoMoon.io -->
<svg version="1.1" xmlns="http://www.w3.org/2000/svg" width="32" height="32" viewBox="0 0 32 32">
<title>layers</title>
<path d="M22.154 12.308c0-1.354-1.108-2.462-2.462-2.462h-16c-1.354 0-2.462 1.108-2.462 2.462v16c0 1.354 1.108 2.462 2.462 2.462h16c1.354 0 2.462-1.108 2.462-2.462v-16z"></path>
<path d="M26.462 1.231h-16c-2.4 0-4.308 1.908-4.308 4.308v1.846h16c1.354 0 2.462 1.108 2.462 2.462v16h1.846c2.4 0 4.308-1.908 4.308-4.308v-16c0-2.4-1.908-4.308-4.308-4.308z"></path>
</svg>
