<!-- Generated by IcoMoon.io -->
<svg version="1.1" xmlns="http://www.w3.org/2000/svg" width="32" height="32" viewBox="0 0 32 32">
<title>left-align-text</title>
<path d="M29.538 4c0-0.492-0.431-0.923-0.923-0.923h-25.231c-0.492 0-0.923 0.431-0.923 0.923v1.846c0 0.492 0.431 0.923 0.923 0.923h25.231c0.492 0 0.923-0.431 0.923-0.923v-1.846zM24.615 11.385c0-0.492-0.431-0.923-0.923-0.923h-20.308c-0.492 0-0.923 0.431-0.923 0.923v1.846c0 0.492 0.431 0.923 0.923 0.923h20.308c0.492 0 0.923-0.431 0.923-0.923v-1.846zM24.615 26.154c0-0.492-0.431-0.923-0.923-0.923h-20.308c-0.492 0-0.923 0.431-0.923 0.923v1.846c0 0.492 0.431 0.923 0.923 0.923h20.308c0.492 0 0.923-0.431 0.923-0.923v-1.846zM29.538 18.769c0-0.492-0.431-0.923-0.923-0.923h-25.231c-0.492 0-0.923 0.431-0.923 0.923v1.846c0 0.492 0.431 0.923 0.923 0.923h25.231c0.492 0 0.923-0.431 0.923-0.923v-1.846z"></path>
</svg>
