<!-- Generated by IcoMoon.io -->
<svg version="1.1" xmlns="http://www.w3.org/2000/svg" width="32" height="32" viewBox="0 0 32 32">
<title>level-down</title>
<path d="M4.923 7.323c0-0.431-0.431-0.923-0.923-0.923h-1.846c-0.492 0-0.923 0.492-0.923 0.923v9.969c0 0.492 0.492 0.985 0.923 0.985h20.431c0.554 0 0.8 0.615 0.431 1.046l-3.446 3.446c-0.369 0.369-0.369 0.923 0 1.292l1.292 1.292c0.369 0.369 0.923 0.369 1.292 0l8.369-8.308c0.369-0.369 0.369-0.923 0-1.292l-8.308-8.308c-0.369-0.369-0.923-0.369-1.292 0l-1.292 1.292c-0.369 0.369-0.369 0.923 0 1.292l3.446 3.446c0.369 0.369 0.123 1.108-0.431 1.108h-16.8c-0.985 0-0.923-0.985-0.923-0.985v-6.277z"></path>
</svg>
