<!-- Generated by IcoMoon.io -->
<svg version="1.1" xmlns="http://www.w3.org/2000/svg" width="32" height="32" viewBox="0 0 32 32">
<title>light-bulb</title>
<path d="M14.843 1.655c-4.675 0.477-8.364 4.14-8.876 8.761l-0.004 0.045c-0.020 0.237-0.032 0.513-0.032 0.792 0 3.065 1.409 5.8 3.614 7.594l0.018 0.014c0.697 0.554 1.143 1.4 1.151 2.349v0.051c0 0 0 0 0 0 0 1.359 1.102 2.462 2.462 2.462 0.011 0 0.022 0 0.032 0h5.536c0.009 0 0.020 0 0.031 0 1.359 0 2.462-1.102 2.462-2.462 0 0 0 0 0 0v0-0.049c0.008-0.951 0.453-1.796 1.145-2.346l0.006-0.005c2.212-1.789 3.622-4.493 3.649-7.528v-0.005c0.031-5.735-5.114-10.295-11.194-9.674zM20.308 26.56h-8.615c-0.53 0-0.96 0.43-0.96 0.96v0c0.004 1.589 1.291 2.877 2.88 2.88h4.8c1.589-0.003 2.877-1.291 2.88-2.88v0c0 0 0 0 0 0 0-0.53-0.43-0.96-0.96-0.96-0.009 0-0.017 0-0.026 0h0.001z"></path>
</svg>
