<!-- Generated by IcoMoon.io -->
<svg version="1.1" xmlns="http://www.w3.org/2000/svg" width="32" height="32" viewBox="0 0 32 32">
<title>lightning-inspector</title>
<path d="M25.169 14.523h-0.308v-0.492c0-3.077-2.523-5.6-5.6-5.6-1.477 0-2.769 0.554-3.754 1.477-0.8-2.092-2.831-3.631-5.231-3.631-3.077 0-5.6 2.523-5.6 5.6 0 1.046 0.308 1.969 0.738 2.831-2.462 0.615-4.246 2.769-4.246 5.415 0 3.015 2.338 5.415 5.354 5.538h18.585c3.077 0 5.6-2.523 5.6-5.6s-2.462-5.538-5.538-5.538zM10.031 15.015l4.8-2.277c0.185-0.123 0.492-0.123 0.677 0l4.8 2.277c0.308 0.123 0.308 0.492 0 0.677l-4.8 2.277c-0.185 0.123-0.492 0.123-0.677 0l-4.8-2.277c-0.246-0.123-0.246-0.554 0-0.677zM20.369 20.677l-4.8 2.277c-0.185 0.123-0.492 0.123-0.677 0l-4.8-2.277c-0.308-0.123-0.308-0.492 0-0.677l0.615-0.308c0.062-0.062 0.185-0.062 0.308 0l3.877 1.846c0.185 0.123 0.492 0.123 0.677 0l3.815-1.846c0.062-0.062 0.185-0.062 0.308 0l0.615 0.308c0.308 0.123 0.308 0.554 0.062 0.677zM20.369 18.215l-4.8 2.277c-0.185 0.123-0.492 0.123-0.677 0l-4.8-2.277c-0.308-0.123-0.308-0.492 0-0.677l0.677-0.308c0.062-0.062 0.185-0.062 0.308 0l3.815 1.846c0.185 0.123 0.492 0.123 0.677 0l3.815-1.846c0.062-0.062 0.185-0.062 0.308 0l0.677 0.308c0.246 0.123 0.246 0.492 0 0.677z"></path>
</svg>
