<!-- Generated by IcoMoon.io -->
<svg version="1.1" xmlns="http://www.w3.org/2000/svg" width="32" height="32" viewBox="0 0 32 32">
<title>like</title>
<path d="M6.462 12.923h-3.077c-0.492 0-0.923 0.431-0.923 0.923v14.154c0 0.492 0.431 0.923 0.923 0.923h1.538c1.354 0 2.462-1.108 2.462-2.462v-12.615c0-0.492-0.431-0.923-0.923-0.923zM27.077 13.538h-3.692c-1.354 0-2.462-1.108-2.462-2.462v-6.154c0-1.354-1.108-2.462-2.462-2.462h-1.538c-0.492 0-0.923 0.431-0.923 0.923v3.692c0 3.262-2.277 6.462-5.231 6.462-0.492 0-0.923 0.431-0.923 0.923v12.308c0 0.492 0.369 0.923 0.862 0.923 4.185 0.185 5.6 1.846 9.969 1.846 4.615 0 8.862-0.492 8.862-5.846v-7.692c0-1.354-1.108-2.462-2.462-2.462z"></path>
</svg>
