<!-- Generated by IcoMoon.io -->
<svg version="1.1" xmlns="http://www.w3.org/2000/svg" width="32" height="32" viewBox="0 0 32 32">
<title>linked</title>
<path d="M10.646 22.215l-0.677-0.862s-0.431-0.615-0.554-0.985c-0.123-0.185-0.308-0.308-0.554-0.308h-0.369c-2.154 0-4-1.6-4.123-3.692-0.185-2.338 1.723-4.246 4-4.246h5.6c0.738 0 1.415 0.246 1.969 0.492 0.738 0.431 1.354 1.108 1.662 1.908 0.185 0.492 0.308 0.985 0.308 1.6 0 0.308-0.062 0.554-0.123 0.862-0.123 0.431 0.185 0.8 0.615 0.738h2.092c0.308 0 0.492-0.246 0.615-0.492 0.062-0.369 0.062-0.738 0.062-1.108 0-0.492-0.062-1.046-0.185-1.6-0.185-0.862-0.554-1.662-1.046-2.4-0.923-1.354-2.338-2.462-3.938-2.892-0.615-0.185-1.354-0.308-1.969-0.308h-5.415c-3.877 0-7.2 3.015-7.323 6.892-0.185 4.062 3.077 7.446 7.138 7.446h1.846c0.431-0.062 0.677-0.677 0.369-1.046zM30.708 15.754c-0.123-3.877-3.446-6.954-7.323-6.892l-1.662-0.062c-0.492 0-0.8 0.615-0.492 0.985 0.492 0.554 0.862 1.169 1.231 1.846 0.123 0.185 0.308 0.308 0.554 0.308h0.369c2.154 0 4 1.6 4.123 3.692 0.185 2.338-1.723 4.246-4 4.246h-5.6c-0.738 0-1.415-0.246-1.969-0.492-0.738-0.431-1.354-1.108-1.662-1.908-0.185-0.492-0.308-0.985-0.308-1.6 0-0.308 0.062-0.554 0.123-0.862 0.123-0.431-0.185-0.8-0.615-0.738h-2.092c-0.308 0-0.492 0.246-0.615 0.492-0.062 0.369-0.062 0.738-0.062 1.108 0 0.492 0.062 1.108 0.185 1.6 0.185 0.862 0.554 1.662 1.046 2.338 0.923 1.354 2.338 2.462 3.938 2.892 0.615 0.185 1.354 0.308 1.969 0.308h5.6c4.123 0.185 7.385-3.2 7.262-7.262z"></path>
</svg>
