<!-- Generated by IcoMoon.io -->
<svg version="1.1" xmlns="http://www.w3.org/2000/svg" width="32" height="32" viewBox="0 0 32 32">
<title>location</title>
<path d="M30.031 5.846l-8.862-4.431c-0.431-0.185-0.923-0.185-1.292 0l-8.185 4.123-8.246-4.123c-0.492-0.246-1.108-0.246-1.538 0.062-0.431 0.246-0.677 0.738-0.677 1.231v22.154c0 0.554 0.308 1.046 0.8 1.292l8.862 4.431c0.431 0.185 0.923 0.185 1.292 0l8.246-4.123 8.185 4.123c0.185 0.123 0.431 0.185 0.677 0.185s0.554-0.062 0.8-0.246c0.431-0.246 0.677-0.738 0.677-1.231v-22.154c0-0.554-0.246-1.046-0.738-1.292zM27.692 8.677v11.692c0 0.677-0.615 1.169-1.231 0.923-2.277-0.862-0.431-4.677-2.092-6.769-1.538-1.908-3.508 0.062-5.415-2.954-1.785-2.892 0.615-4.985 2.831-6.092 0.308-0.123 0.615-0.123 0.862 0l4.554 2.277c0.369 0.185 0.492 0.554 0.492 0.923zM15.323 25.785c-0.369 0.185-0.8 0.123-1.108-0.123-0.615-0.554-1.108-1.415-1.108-2.277 0-1.477-2.462-0.985-2.462-3.938 0-2.4-2.831-3.015-5.231-2.769-0.615 0.062-1.046-0.369-1.046-0.985v-8.985c0-0.738 0.738-1.231 1.354-0.862l5.292 2.646c0.062 0 0.123 0.062 0.123 0.062l0.185 0.123c2.215 1.292 1.785 2.338 0.862 3.938-1.046 1.785-1.477 0-2.954-0.492s-2.954 0.492-2.462 1.477 1.969 0 2.954 0.985 0.985 2.462 3.938 1.477 3.446-0.492 4.431 0.492c0.985 0.985 1.477 2.954 0 4.431-0.862 0.862-1.231 2.708-1.6 3.938-0.062 0.246-0.246 0.492-0.492 0.615l-0.677 0.246z"></path>
</svg>
