<!-- Generated by IcoMoon.io -->
<svg version="1.1" xmlns="http://www.w3.org/2000/svg" width="32" height="32" viewBox="0 0 32 32">
<title>locker-service-api-viewer</title>
<path d="M11.077 23.692c0 0.492 0.431 0.923 0.923 0.923h1.6c-0.062-0.431-0.062-0.8-0.062-1.231 0-0.862 0.123-1.662 0.308-2.462h-1.846c-0.492 0-0.923 0.431-0.923 0.923v1.846zM17.538 8.615h-5.538c-0.492 0-0.923 0.431-0.923 0.923v1.846c0 0.492 0.431 0.923 0.923 0.923h5.538c0.492 0 0.923-0.431 0.923-0.923v-1.846c0-0.492-0.431-0.923-0.923-0.923zM2.154 6.154h25.231c0.492 0 0.923-0.431 0.923-0.923v-3.077c0-0.492-0.431-0.923-0.923-0.923h-25.231c-0.492 0-0.923 0.431-0.923 0.923v3.077c0 0.492 0.431 0.923 0.923 0.923zM27.385 12.308c0.492 0 0.923-0.431 0.923-0.923v-1.846c0-0.492-0.431-0.923-0.923-0.923h-5.538c-0.492 0-0.923 0.431-0.923 0.923v1.846c0 0.492 0.431 0.923 0.923 0.923h5.538zM11.077 17.538c0 0.492 0.431 0.923 0.923 0.923h2.831c0.8-1.415 1.969-2.585 3.323-3.446-0.185-0.185-0.369-0.246-0.615-0.246h-5.538c-0.492 0-0.923 0.431-0.923 0.923v1.846zM7.692 8.615h-5.538c-0.492 0-0.923 0.431-0.923 0.923v1.846c0 0.492 0.431 0.923 0.923 0.923h5.538c0.492 0 0.923-0.431 0.923-0.923v-1.846c0-0.492-0.431-0.923-0.923-0.923zM14.215 27.077h-2.215c-0.492 0-0.923 0.431-0.923 0.923v1.846c0 0.492 0.431 0.923 0.923 0.923h4.862c-1.169-0.985-2.031-2.277-2.646-3.692zM7.692 20.923h-5.538c-0.492 0-0.923 0.431-0.923 0.923v1.846c0 0.492 0.431 0.923 0.923 0.923h5.538c0.492 0 0.923-0.431 0.923-0.923v-1.846c0-0.492-0.431-0.923-0.923-0.923zM7.692 27.077h-5.538c-0.492 0-0.923 0.431-0.923 0.923v1.846c0 0.492 0.431 0.923 0.923 0.923h5.538c0.492 0 0.923-0.431 0.923-0.923v-1.846c0-0.492-0.431-0.923-0.923-0.923zM7.692 14.769h-5.538c-0.492 0-0.923 0.431-0.923 0.923v1.846c0 0.492 0.431 0.923 0.923 0.923h5.538c0.492 0 0.923-0.431 0.923-0.923v-1.846c0-0.492-0.431-0.923-0.923-0.923zM23.323 16.062c-4.062 0-7.385 3.323-7.385 7.385s3.323 7.385 7.385 7.385 7.385-3.323 7.385-7.385-3.323-7.385-7.385-7.385zM28.185 21.292l-5.908 5.969c-0.123 0.123-0.308 0.123-0.431 0l-3.446-3.446c-0.123-0.123-0.123-0.308 0-0.431l1.292-1.292c0.123-0.123 0.308-0.123 0.431 0l1.785 1.785c0.062 0.062 0.246 0.062 0.308 0l4.246-4.308c0.123-0.123 0.308-0.123 0.431 0l1.292 1.292c0.185 0.123 0.185 0.308 0 0.431z"></path>
</svg>
