<!-- Generated by IcoMoon.io -->
<svg version="1.1" xmlns="http://www.w3.org/2000/svg" width="32" height="32" viewBox="0 0 32 32">
<title>lock</title>
<path d="M6.769 11.692h2.462c0.369 0 0.615-0.185 0.615-0.554v-0.062c0-3.508 3.015-6.4 6.585-6.154 3.262 0.246 5.723 3.077 5.723 6.4v-0.185c0 0.369 0.246 0.554 0.615 0.554h2.462c0.369 0 0.615-0.185 0.615-0.554v-0.062c0-5.6-4.677-10.092-10.338-9.846-5.231 0.246-9.231 4.677-9.354 9.908 0.062 0.308 0.308 0.554 0.615 0.554zM6.154 11.138v0zM28.308 16.615c0-1.354-1.108-2.462-2.462-2.462h-19.692c-1.354 0-2.462 1.108-2.462 2.462v11.692c0 1.354 1.108 2.462 2.462 2.462h19.692c1.354 0 2.462-1.108 2.462-2.462v-11.692zM18.831 26.277c0.123 0.369-0.185 0.8-0.615 0.8h-4.492c-0.431 0-0.677-0.369-0.615-0.8l1.108-3.692c-0.923-0.615-1.477-1.723-1.292-2.954 0.246-1.169 1.169-2.092 2.4-2.338 1.969-0.369 3.692 1.046 3.692 2.892 0 0.985-0.492 1.908-1.292 2.4l1.108 3.692z"></path>
</svg>
