<!-- Generated by IcoMoon.io -->
<svg version="1.1" xmlns="http://www.w3.org/2000/svg" width="32" height="32" viewBox="0 0 32 32">
<title>logout</title>
<path d="M12.923 29.846v-1.846c0-0.492-0.431-0.923-0.923-0.923h-6.154c-0.492 0-0.923-0.431-0.923-0.923v-20.308c0-0.492 0.431-0.923 0.923-0.923h6.154c0.492 0 0.923-0.431 0.923-0.923v-1.846c0-0.492-0.431-0.923-0.923-0.923h-8.308c-1.354 0-2.462 1.108-2.462 2.462v24.615c0 1.354 1.108 2.462 2.462 2.462h8.308c0.492 0 0.923-0.431 0.923-0.923z"></path>
<path d="M30.523 16.615c0.369-0.369 0.369-0.923 0-1.292l-8.308-8.308c-0.369-0.369-0.923-0.369-1.292 0l-1.292 1.292c-0.369 0.369-0.369 0.923 0 1.292l3.446 3.446c0.369 0.369 0.123 1.046-0.431 1.046h-13.108c-0.492 0-0.923 0.369-0.923 0.862v1.846c0 0.492 0.431 0.985 0.923 0.985h13.046c0.554 0 0.8 0.677 0.431 1.046l-3.446 3.446c-0.369 0.369-0.369 0.923 0 1.292l1.292 1.292c0.369 0.369 0.923 0.369 1.292 0l8.369-8.246z"></path>
</svg>
