<!-- Generated by IcoMoon.io -->
<svg version="1.1" xmlns="http://www.w3.org/2000/svg" width="32" height="32" viewBox="0 0 32 32">
<title>macros</title>
<path d="M22.892 24.738c-0.123 0.246-0.369 0.308-0.615 0.308h-2.892c-0.246 0-0.431-0.185-0.431-0.431 0-0.062 0.062-0.185 0.062-0.246l0.185-0.185 6.338-7.692c0.185-0.246 0.246-0.615 0.123-0.862 0-0.062-0.062-0.123-0.062-0.123l-6.585-7.815c-0.062-0.062-0.062-0.185-0.062-0.246 0-0.246 0.246-0.431 0.431-0.431h2.892c0.246 0 0.492 0.062 0.615 0.308l6.831 8.246c0.123 0.123 0.123 0.308 0.123 0.431 0 0.185-0.062 0.369-0.123 0.492l-6.831 8.246z"></path>
<path d="M15.754 24.738c-0.123 0.246-0.369 0.308-0.615 0.308h-2.892c-0.246 0-0.431-0.185-0.431-0.431 0-0.062 0.062-0.185 0.062-0.246l0.185-0.185 6.338-7.692c0.185-0.246 0.246-0.615 0.123-0.862 0-0.062-0.062-0.123-0.062-0.123l-6.585-7.815c-0.062-0.062-0.062-0.185-0.062-0.246 0-0.246 0.246-0.431 0.431-0.431h2.892c0.246 0 0.492 0.062 0.615 0.308l6.831 8.246c0.123 0.123 0.123 0.308 0.123 0.431 0 0.185-0.062 0.369-0.123 0.492l-6.831 8.246z"></path>
<path d="M8.615 24.738c-0.123 0.246-0.369 0.308-0.615 0.308h-5.415c-0.246 0-0.431-0.185-0.431-0.431 0-0.062 0.062-0.185 0.062-0.246l0.185-0.185 6.338-7.692c0.185-0.246 0.246-0.615 0.123-0.862 0-0.062-0.062-0.123-0.062-0.123l-6.585-7.815c-0.062-0.062-0.062-0.185-0.062-0.246 0-0.246 0.246-0.431 0.431-0.431h5.354c0.246 0 0.492 0.062 0.615 0.308l6.831 8.246c0.123 0.123 0.123 0.308 0.123 0.431 0 0.185-0.062 0.369-0.123 0.492l-6.769 8.246z"></path>
</svg>
