<!-- Generated by IcoMoon.io -->
<svg version="1.1" xmlns="http://www.w3.org/2000/svg" width="32" height="32" viewBox="0 0 32 32">
<title>magic-wand</title>
<path d="M17.354 12.923c-0.246-0.246-0.615-0.246-0.862 0l-14.708 14.708c-0.738 0.738-0.738 1.846 0 2.585s1.846 0.738 2.585 0l14.708-14.708c0.246-0.246 0.246-0.615 0-0.862l-1.723-1.723zM21.662 12.923l1.969-1.969c0.369-0.369 0.369-0.923 0-1.292l-1.292-1.292c-0.369-0.369-0.923-0.369-1.292 0l-1.969 1.969c-0.246 0.246-0.246 0.615 0 0.862l1.723 1.723c0.246 0.246 0.615 0.246 0.862 0zM6.4 7.138c2.338 0.738 4.185 2.523 4.923 4.923 0.123 0.369 0.615 0.369 0.738 0 0.738-2.338 2.523-4.185 4.923-4.923 0.369-0.123 0.369-0.615 0-0.738-2.338-0.738-4.185-2.523-4.923-4.923-0.123-0.369-0.615-0.369-0.738 0-0.738 2.338-2.523 4.185-4.923 4.923-0.308 0.123-0.308 0.615 0 0.738zM30.523 18.769c-2.092-0.677-3.692-2.277-4.369-4.369-0.123-0.308-0.554-0.308-0.677 0-0.677 2.092-2.277 3.692-4.369 4.369-0.308 0.123-0.308 0.554 0 0.677 2.092 0.677 3.692 2.277 4.369 4.369 0.123 0.308 0.554 0.308 0.677 0 0.677-2.092 2.277-3.692 4.369-4.369 0.308-0.123 0.308-0.615 0-0.677zM23.569 5.169c1.6 0.492 2.769 1.662 3.262 3.262 0.062 0.246 0.431 0.246 0.492 0 0.492-1.6 1.662-2.769 3.262-3.262 0.246-0.062 0.246-0.431 0-0.492-1.6-0.492-2.769-1.662-3.262-3.262-0.062-0.246-0.431-0.246-0.492 0-0.492 1.6-1.662 2.769-3.262 3.262-0.246 0.062-0.246 0.431 0 0.492z"></path>
</svg>
