<!-- Generated by IcoMoon.io -->
<svg version="1.1" xmlns="http://www.w3.org/2000/svg" width="32" height="32" viewBox="0 0 32 32">
<title>merge</title>
<path d="M26.031 27.077c-3.446-1.662-5.908-4.615-7.138-8-0.492-1.231-0.8-2.646-0.923-3.877v-2.154h6.646c0.492 0 0.862-0.554 0.492-1.108l-8.738-10.462c-0.308-0.369-0.985-0.369-1.231 0l-8.492 10.462c-0.308 0.369 0 1.108 0.492 1.108h6.708v2.154c-0.185 1.292-0.492 2.708-0.923 3.877-1.231 3.385-3.692 6.338-7.138 8-0.492 0.185-0.677 0.8-0.492 1.231l0.8 1.908c0.246 0.492 0.8 0.677 1.292 0.369 3.692-1.785 6.646-4.615 8.431-8 1.846 3.385 4.738 6.215 8.492 8 0.492 0.246 1.108 0.185 1.292-0.369l0.8-1.908c0.369-0.431 0.123-0.985-0.369-1.231z"></path>
</svg>
