<!-- Generated by IcoMoon.io -->
<svg version="1.1" xmlns="http://www.w3.org/2000/svg" width="32" height="32" viewBox="0 0 32 32">
<title>missed-call</title>
<path d="M21.354 24.8c0.431 0 0.738 0.308 0.862 0.677l0.492 3.323c0.123 0.923 0.862 1.6 1.785 1.723l4 0.431c1.231 0.123 2.277-0.8 2.277-2.031v-3.815c0-0.615-0.246-1.108-0.677-1.538-3.938-3.569-9.169-5.415-14.154-5.415s-10.215 1.846-14.154 5.415c-0.369 0.369-0.554 0.985-0.554 1.538v3.815c-0.123 1.231 0.923 2.215 2.154 2.031l4-0.431c0.923-0.123 1.662-0.8 1.785-1.723l0.492-3.323c0.062-0.431 0.431-0.677 0.862-0.677 0 0 5.169-0.431 10.831 0zM24.431 7.754c0.308-0.308 0.862-0.062 0.862 0.369v4.123c0 0.431 0.308 0.738 0.738 0.738h1.538c0.431 0 0.738-0.308 0.738-0.738l0.062-9.908c0-0.431-0.308-0.738-0.738-0.738h-9.846c-0.431 0-0.738 0.308-0.738 0.738v1.538c0 0.431 0.308 0.738 0.738 0.738h4.123c0.431 0 0.677 0.554 0.369 0.862l-5.785 5.785c-0.185 0.185-0.554 0.185-0.8 0l-9.477-9.415c-0.308-0.308-0.8-0.308-1.108 0l-1.169 1.108c-0.308 0.308-0.308 0.8 0 1.169l11.569 11.631c0.308 0.369 0.8 0.369 1.169 0l7.754-8z"></path>
</svg>
