<!-- Generated by IcoMoon.io -->
<svg version="1.1" xmlns="http://www.w3.org/2000/svg" width="32" height="32" viewBox="0 0 32 32">
<title>money</title>
<path d="M18.523 16.062c0-1.415 0.862-2.646 2.031-3.262-0.185-2.4-2.154-4.246-4.615-4.246-2.523 0-4.615 2.092-4.615 4.615s2.092 4.615 4.615 4.615c0.923 0 1.846-0.308 2.523-0.8v-0.923z"></path>
<path d="M18.523 22.4v-1.169c0-0.431 0.062-0.8 0.185-1.169h-10.831c0-1.785-1.415-3.262-3.262-3.262v-6.892c1.785 0 3.262-1.415 3.262-3.262h16.185c0 1.785 1.415 3.262 3.262 3.262v2.462h2.338c0.431 0 0.8 0.062 1.169 0.185v-6.585c0-1.538-1.231-2.769-2.769-2.769h-24.062c-1.538 0-2.769 1.231-2.769 2.769v14.892c0 1.538 1.231 2.769 2.769 2.769h14.769c-0.123-0.369-0.246-0.8-0.246-1.231zM30.769 27.631c0 0.615-0.615 1.169-1.231 1.169h-7.385c-0.615 0-1.169-0.554-1.169-1.169v-1.169c0-0.615 0.554-1.169 1.169-1.169h7.446c0.615 0 1.169 0.554 1.169 1.169v1.169z"></path>
<path d="M30.769 22.462c0 0.615-0.615 1.169-1.231 1.169h-7.385c-0.615 0-1.169-0.554-1.169-1.169v-1.169c0-0.615 0.554-1.169 1.169-1.169h7.446c0.615 0 1.169 0.554 1.169 1.169v1.169zM30.769 17.231c0 0.615-0.615 1.169-1.231 1.169h-7.385c-0.615 0-1.169-0.554-1.169-1.169v-1.169c0-0.615 0.554-1.169 1.169-1.169h7.446c0.615 0 1.169 0.554 1.169 1.169v1.169z"></path>
</svg>
