<!-- Generated by IcoMoon.io -->
<svg version="1.1" xmlns="http://www.w3.org/2000/svg" width="32" height="32" viewBox="0 0 32 32">
<title>move</title>
<path d="M30.585 15.569l-5.108-5.538c-0.369-0.369-0.862-0.062-0.862 0.554v3.569h-6.154c-0.369 0-0.615-0.246-0.615-0.615v-6.154h3.631c0.615 0 0.923-0.554 0.554-0.862l-5.538-5.108c-0.246-0.185-0.615-0.185-0.862 0l-5.538 5.108c-0.369 0.369-0.062 0.862 0.554 0.862h3.508v6.154c0 0.369-0.246 0.615-0.615 0.615h-6.154v-3.631c0-0.615-0.554-0.923-0.862-0.554l-5.108 5.538c-0.185 0.246-0.185 0.615 0 0.862l5.108 5.538c0.369 0.369 0.862 0.062 0.862-0.554v-3.508h6.154c0.369 0 0.615 0.246 0.615 0.615v6.154h-3.631c-0.615 0-0.923 0.554-0.554 0.862l5.538 5.108c0.246 0.185 0.615 0.185 0.862 0l5.538-5.108c0.369-0.369 0.062-0.862-0.554-0.862h-3.508v-6.154c0-0.369 0.246-0.615 0.615-0.615h6.154v3.631c0 0.615 0.554 0.923 0.862 0.554l5.108-5.538c0.246-0.308 0.246-0.677 0-0.923z"></path>
</svg>
