<!-- Generated by IcoMoon.io -->
<svg version="1.1" xmlns="http://www.w3.org/2000/svg" width="32" height="32" viewBox="0 0 32 32">
<title>multi-picklist</title>
<path d="M27.323 1.231h-15.754c-1.6 0-2.954 1.354-2.954 2.954v0.492c0 0.308 0.185 0.492 0.492 0.492h14.277c1.6 0 2.954 1.354 2.954 2.954v15.262c0 0.308 0.185 0.492 0.492 0.492h0.492c1.6 0 2.954-1.354 2.954-2.954v-16.738c0-1.6-1.354-2.954-2.954-2.954z"></path>
<path d="M20.431 8.123h-15.754c-1.6 0-2.954 1.354-2.954 2.954v16.738c0 1.6 1.354 2.954 2.954 2.954h15.754c1.6 0 2.954-1.354 2.954-2.954v-16.738c0-1.6-1.354-2.954-2.954-2.954zM8.615 25.846c0 0.554-0.431 0.985-0.985 0.985h-0.985c-0.554 0-0.985-0.431-0.985-0.985v-0.985c0-0.554 0.431-0.985 0.985-0.985h0.985c0.554 0 0.985 0.431 0.985 0.985v0.985zM8.615 19.938c0 0.554-0.431 0.985-0.985 0.985h-0.985c-0.554 0-0.985-0.431-0.985-0.985v-0.985c0-0.554 0.431-0.985 0.985-0.985h0.985c0.554 0 0.985 0.431 0.985 0.985v0.985zM8.615 14.031c0 0.554-0.431 0.985-0.985 0.985h-0.985c-0.554 0-0.985-0.431-0.985-0.985v-0.985c0-0.554 0.431-0.985 0.985-0.985h0.985c0.554 0 0.985 0.431 0.985 0.985v0.985zM19.446 25.846c0 0.554-0.431 0.985-0.985 0.985h-6.831c-0.554 0-0.985-0.431-0.985-0.985v-0.985c0-0.554 0.431-0.985 0.985-0.985h6.831c0.554 0 0.985 0.431 0.985 0.985v0.985zM19.446 19.938c0 0.554-0.431 0.985-0.985 0.985h-6.831c-0.554 0-0.985-0.431-0.985-0.985v-0.985c0-0.554 0.431-0.985 0.985-0.985h6.831c0.554 0 0.985 0.431 0.985 0.985v0.985zM19.446 14.031c0 0.554-0.431 0.985-0.985 0.985h-6.831c-0.554 0-0.985-0.431-0.985-0.985v-0.985c0-0.554 0.431-0.985 0.985-0.985h6.831c0.554 0 0.985 0.431 0.985 0.985v0.985z"></path>
</svg>
