<!-- Generated by IcoMoon.io -->
<svg version="1.1" xmlns="http://www.w3.org/2000/svg" width="32" height="32" viewBox="0 0 32 32">
<title>notification</title>
<path d="M28.308 20.308h-0.308c-1.169 0-2.154-0.985-2.154-2.154v-7.077c0-5.6-4.677-10.092-10.338-9.846-5.292 0.246-9.354 4.8-9.354 10.154v6.831c0 1.169-0.985 2.092-2.154 2.092h-0.308c-1.354 0-2.462 1.169-2.462 2.523v0.923c0 0.431 0.431 0.862 0.923 0.862h27.692c0.492 0 0.923-0.431 0.923-0.923v-0.923c0-1.354-1.108-2.462-2.462-2.462zM19.015 27.077h-6.031c-0.369 0-0.677 0.369-0.615 0.738 0.308 1.723 1.846 2.954 3.631 2.954s3.323-1.292 3.631-2.954c0.062-0.369-0.246-0.738-0.615-0.738z"></path>
</svg>
