<!-- Generated by IcoMoon.io -->
<svg version="1.1" xmlns="http://www.w3.org/2000/svg" width="32" height="32" viewBox="0 0 32 32">
<title>number-input</title>
<path d="M27.569 30.462h-23.138c-1.6 0-2.892-1.292-2.892-2.892v-23.138c0-1.6 1.292-2.892 2.892-2.892h23.138c1.6 0 2.892 1.292 2.892 2.892v23.138c0 1.6-1.292 2.892-2.892 2.892zM5.415 6.338v19.262c0 0.554 0.431 0.985 0.985 0.985h19.262c0.554 0 0.985-0.431 0.985-0.985v-19.262c0-0.554-0.431-0.985-0.985-0.985h-19.262c-0.554 0.062-0.985 0.492-0.985 0.985z"></path>
<path d="M22.277 12.492h-1.785l0.738-2.954v-0.062c0-0.123-0.062-0.246-0.246-0.246h-1.415c-0.123 0-0.185 0.062-0.246 0.185l-0.738 3.015h-3.569l0.738-2.954v-0.062c0-0.123-0.062-0.246-0.246-0.246h-1.415c-0.123 0-0.185 0.062-0.246 0.185l-0.8 3.015h-1.969c-0.123 0-0.185 0.062-0.246 0.185l-0.369 1.354v0.062c0 0.123 0.062 0.246 0.246 0.246h1.846l-0.862 3.446h-1.908c-0.123 0-0.185 0.062-0.246 0.185l-0.369 1.354v0.062c0 0.123 0.062 0.246 0.246 0.246h1.785l-0.738 2.954v0.062c0 0.123 0.062 0.246 0.246 0.246h1.415c0.123 0 0.185-0.062 0.246-0.185l0.8-3.077h3.508l-0.677 2.892v0.062c0 0.123 0.062 0.246 0.246 0.246h1.415c0.123 0 0.185-0.062 0.246-0.185l0.8-3.077h1.969c0.123 0 0.185-0.062 0.246-0.185l0.369-1.354v-0.062c0-0.123-0.062-0.246-0.246-0.246h-1.846l0.862-3.446h1.908c0.123 0 0.185-0.062 0.246-0.185l0.369-1.354v-0.062c-0.062 0.062-0.185-0.062-0.308-0.062zM17.292 17.723h-3.569l0.862-3.446h3.508l-0.8 3.446z"></path>
</svg>
