<!-- Generated by IcoMoon.io -->
<svg version="1.1" xmlns="http://www.w3.org/2000/svg" width="32" height="32" viewBox="0 0 32 32">
<title>office365</title>
<path d="M18.954 30.462c0.369 0.123 0.8 0.123 1.169 0l7.323-2.4c0.492-0.185 0.862-0.615 0.862-1.169v-22.154c0-0.369-0.246-0.738-0.615-0.862l-7.446-2.523c-0.431-0.123-0.862-0.123-1.231 0l-14.708 5.662c-0.369 0.123-0.615 0.492-0.615 0.862v16.677c0 0.369 0.246 0.738 0.615 0.862l14.646 5.046zM19.692 26.338c0 0.369-0.308 0.677-0.615 0.615l-12.308-1.662c-0.308-0.062-0.554-0.308-0.554-0.615v-0.246c0-0.246 0.123-0.431 0.431-0.554l2.338-1.108c0.246-0.123 0.369-0.308 0.369-0.554v-13.108c0-0.308 0.185-0.554 0.492-0.615l9.231-2.092c0.369-0.062 0.738 0.185 0.738 0.615v19.323z"></path>
</svg>
