<!-- Generated by IcoMoon.io -->
<svg version="1.1" xmlns="http://www.w3.org/2000/svg" width="32" height="32" viewBox="0 0 32 32">
<title>offline</title>
<path d="M21.354 22.215c0.308-0.308 0.308-0.8 0-1.108l-1.108-1.108c-0.308-0.308-0.8-0.308-1.108 0l-2.708 2.708c-0.185 0.185-0.554 0.185-0.738 0l-2.708-2.708c-0.308-0.308-0.8-0.308-1.108 0l-1.108 1.108c-0.308 0.308-0.308 0.8 0 1.108l2.708 2.708c0.185 0.185 0.185 0.554 0 0.738l-2.708 2.708c-0.308 0.308-0.308 0.8 0 1.108l1.108 1.108c0.308 0.308 0.8 0.308 1.108 0l2.708-2.708c0.185-0.185 0.554-0.185 0.738 0l2.708 2.708c0.308 0.308 0.8 0.308 1.108 0l1.108-1.108c0.308-0.308 0.308-0.8 0-1.108l-2.708-2.708c-0.185-0.185-0.185-0.554 0-0.738l2.708-2.708zM29.354 7.138c-3.385-3.754-8.185-5.846-13.292-5.846s-9.908 2.092-13.292 5.846c-0.246 0.246-0.185 0.677 0.062 0.862l1.846 1.6c0.246 0.246 0.615 0.185 0.862-0.062 2.708-2.892 6.523-4.554 10.523-4.554s7.815 1.662 10.523 4.554c0.246 0.246 0.615 0.246 0.862 0.062l1.846-1.6c0.246-0.246 0.308-0.615 0.062-0.862zM16.062 9.908c-2.585 0-5.046 1.108-6.769 3.077-0.246 0.246-0.185 0.677 0.062 0.923l1.969 1.477c0.246 0.185 0.615 0.185 0.8-0.062 1.046-1.108 2.462-1.723 3.938-1.723s2.892 0.615 3.877 1.662c0.185 0.246 0.554 0.246 0.8 0.062l1.969-1.477c0.308-0.246 0.308-0.615 0.062-0.923-1.662-1.908-4.123-3.015-6.708-3.015z"></path>
</svg>
