<!-- Generated by IcoMoon.io -->
<svg version="1.1" xmlns="http://www.w3.org/2000/svg" width="32" height="32" viewBox="0 0 32 32">
<title>open-folder</title>
<path d="M28.308 8.615h-13.969c-0.862 0-1.662-0.492-2.154-1.231l-2.154-3.692c-0.431-0.738-1.231-1.231-2.154-1.231h-4.185c-1.354 0-2.462 1.108-2.462 2.462v22.154c0 1.354 1.108 2.462 2.462 2.462h24.615c1.354 0 2.462-1.108 2.462-2.462v-16c0-1.354-1.108-2.462-2.462-2.462z"></path>
<path d="M28.308 3.692h-14.831c-0.246 0-0.369 0.246-0.246 0.431l0.985 1.662c0.123 0.246 0.308 0.369 0.554 0.369h13.538c0.677 0 1.354 0.123 1.908 0.369 0.246 0.123 0.554-0.062 0.554-0.369 0-1.354-1.108-2.462-2.462-2.462z"></path>
</svg>
