<!-- Generated by IcoMoon.io -->
<svg version="1.1" xmlns="http://www.w3.org/2000/svg" width="32" height="32" viewBox="0 0 32 32">
<title>outcome</title>
<path d="M22.277 7.138l-0.062-0.062c-0.369-0.308-0.923-0.308-1.231 0.062l-1.354 1.292c-0.369 0.369-0.308 0.923 0 1.231l3.446 3.446c0.123 0.123 0.185 0.246 0.185 0.431 0 0.369-0.246 0.677-0.615 0.677h-13.046c-0.492 0-0.923 0.369-0.923 0.862v1.846c0.062 0.492 0.431 0.923 0.923 0.985h13.108c0.123 0 0.246 0.062 0.308 0.123 0.308 0.246 0.308 0.615 0.123 0.923l-3.446 3.508c-0.369 0.369-0.308 0.923 0 1.231l1.292 1.354c0.369 0.369 0.923 0.308 1.231 0l8.308-8.308c0.369-0.369 0.308-0.923 0-1.231l-8.246-8.369z"></path>
<path d="M12.985 10.585h1.846c0.492 0 0.923-0.431 0.923-0.923v-5.908c0-1.354-1.108-2.462-2.462-2.462h-9.538c-1.354 0-2.462 1.108-2.462 2.462v24.615c0 1.354 1.108 2.462 2.462 2.462h9.477c1.354 0 2.462-1.108 2.462-2.462v-5.846c0-0.492-0.431-0.923-0.923-0.923h-1.846c-0.492 0-0.923 0.431-0.923 0.923v3.631c0 0.492-0.431 0.923-0.923 0.923h-5.169c-0.492 0-0.923-0.431-0.923-0.923v-20.308c0-0.492 0.431-0.923 0.923-0.923h5.169c0.492 0 0.923 0.431 0.923 0.923v3.754c0.062 0.554 0.431 0.985 0.985 0.985z"></path>
</svg>
