<!-- Generated by IcoMoon.io -->
<svg version="1.1" xmlns="http://www.w3.org/2000/svg" width="32" height="32" viewBox="0 0 32 32">
<title>package-org-beta</title>
<path d="M27.323 14.154h-3.569c-0.246 0.923-0.677 1.723-1.292 2.462h4.615v3.692h-22.154v-3.692h3.692v-2.462h-3.938c-1.231 0-2.215 0.985-2.215 2.215v11.938c0 1.046 0.8 1.846 1.846 1.846h23.385c1.046 0 1.846-0.8 1.846-1.846v-11.938c0-1.231-0.985-2.215-2.215-2.215z"></path>
<path d="M21.538 6.092c0-2.4-2.092-4.246-4.431-4.246h-5.108c-0.492 0-0.923 0.431-0.923 0.923v12.923c0 0.492 0.431 0.923 0.923 0.923h5.231c2.4 0 4.308-1.969 4.246-4.369 0-1.169-0.492-2.215-1.292-2.954 0.862-0.862 1.354-1.969 1.354-3.2zM13.538 4.308h3.692c0.985 0 1.846 0.8 1.846 1.846 0 0.985-0.8 1.846-1.846 1.846h-3.692v-3.692zM19.077 12.308c0 0.985-0.8 1.846-1.846 1.846h-3.692v-3.692h3.692c1.046 0 1.846 0.8 1.846 1.846z"></path>
</svg>
