<!-- Generated by IcoMoon.io -->
<svg version="1.1" xmlns="http://www.w3.org/2000/svg" width="32" height="32" viewBox="0 0 32 32">
<title>package-org</title>
<path d="M27.323 14.154h-7.692l-2.462 2.462h9.908v3.692h-22.154v-3.692h4.985l-2.462-2.462h-2.769c-1.231 0-2.215 0.985-2.215 2.215v11.938c0 1.046 0.8 1.846 1.846 1.846h23.385c1.046 0 1.846-0.8 1.846-1.846v-11.938c0-1.231-0.985-2.215-2.215-2.215z"></path>
<path d="M12.677 15.877c0.492 0.492 1.231 0.492 1.723 0l11.692-11.692c0.246-0.246 0.246-0.615 0-0.862l-1.723-1.723c-0.246-0.246-0.615-0.246-0.862 0l-9.969 9.969-4.123-4.123c-0.246-0.246-0.615-0.246-0.862 0l-1.723 1.723c-0.246 0.246-0.246 0.615 0 0.862l5.846 5.846z"></path>
</svg>
