<!-- Generated by IcoMoon.io -->
<svg version="1.1" xmlns="http://www.w3.org/2000/svg" width="32" height="32" viewBox="0 0 32 32">
<title>pause</title>
<path d="M18.462 26.462c0 0.615 0.554 1.231 1.231 1.231h2.462c0.677 0 1.231-0.677 1.231-1.231v-20.923c0-0.615-0.554-1.231-1.231-1.231h-2.462c-0.677 0-1.231 0.677-1.231 1.231v20.923zM8.615 26.462c0 0.615 0.554 1.231 1.231 1.231h2.462c0.677 0 1.231-0.677 1.231-1.231v-20.923c0-0.615-0.554-1.231-1.231-1.231h-2.462c-0.677 0-1.231 0.677-1.231 1.231v20.923z"></path>
</svg>
