<!-- Generated by IcoMoon.io -->
<svg version="1.1" xmlns="http://www.w3.org/2000/svg" width="32" height="32" viewBox="0 0 32 32">
<title>people</title>
<path d="M25.846 13.723c-1.723-0.677-1.969-1.354-1.969-2.031s0.492-1.354 1.108-1.846c1.046-0.862 1.6-2.154 1.6-3.569 0-2.708-1.785-5.046-4.923-5.046-2.892 0-4.615 1.969-4.862 4.369 0 0.246 0.123 0.431 0.308 0.554 2.338 1.477 3.754 4.062 3.754 7.2 0 2.338-0.923 4.431-2.585 5.908-0.123 0.123-0.123 0.369 0 0.492 0.431 0.308 1.415 0.738 2.031 1.046 0.185 0.062 0.308 0.123 0.492 0.123h7.446c1.415 0 2.523-1.169 2.523-2.462v-0.369c0-2.154-2.338-3.323-4.923-4.369z"></path>
<path d="M17.6 22.277c-2.092-0.862-2.4-1.6-2.4-2.4s0.615-1.6 1.292-2.215c1.231-1.046 1.908-2.523 1.908-4.246 0-3.2-2.092-5.969-5.908-5.969-3.754 0-5.908 2.769-5.908 5.969 0 1.723 0.677 3.2 1.908 4.246 0.677 0.615 1.292 1.415 1.292 2.215s-0.308 1.6-2.462 2.4c-3.077 1.231-6.092 2.646-6.092 5.231v0.8c0 1.354 1.108 2.462 2.523 2.462h17.046c1.415 0 2.585-1.108 2.585-2.462v-0.862c0-2.523-2.708-3.938-5.785-5.169z"></path>
</svg>
