<!-- Generated by IcoMoon.io -->
<svg version="1.1" xmlns="http://www.w3.org/2000/svg" width="32" height="32" viewBox="0 0 32 32">
<title>phone-portrait</title>
<path d="M26.462 2.462c0-1.354-1.108-2.462-2.462-2.462h-16c-1.354 0-2.462 1.108-2.462 2.462v27.077c0 1.354 1.108 2.462 2.462 2.462h16c1.354 0 2.462-1.108 2.462-2.462v-27.077zM16 30.769c-1.046 0-1.846-0.8-1.846-1.846s0.8-1.846 1.846-1.846 1.846 0.8 1.846 1.846-0.8 1.846-1.846 1.846zM22.769 24.923c0 0.492-0.431 0.923-0.923 0.923h-11.692c-0.492 0-0.923-0.431-0.923-0.923v-19.077c0-0.492 0.431-0.923 0.923-0.923h11.692c0.492 0 0.923 0.431 0.923 0.923v19.077z"></path>
</svg>
