<!-- Generated by IcoMoon.io -->
<svg version="1.1" xmlns="http://www.w3.org/2000/svg" width="32" height="32" viewBox="0 0 32 32">
<title>photo</title>
<path d="M16 12.308c-2.708 0-4.923 2.215-4.923 4.923s2.215 4.923 4.923 4.923 4.923-2.215 4.923-4.923-2.215-4.923-4.923-4.923z"></path>
<path d="M28.308 8.615h-3.2c-0.862 0-1.6-0.431-2.092-1.108l-1.415-2.154c-0.431-1.046-1.477-1.662-2.585-1.662h-6.031c-1.108 0-2.154 0.615-2.646 1.662l-1.415 2.154c-0.431 0.677-1.231 1.108-2.092 1.108h-3.138c-1.354 0-2.462 1.108-2.462 2.462v14.769c0 1.354 1.108 2.462 2.462 2.462h24.615c1.354 0 2.462-1.108 2.462-2.462v-14.769c0-1.354-1.108-2.462-2.462-2.462zM16 24.615c-4.062 0-7.385-3.323-7.385-7.385s3.323-7.385 7.385-7.385 7.385 3.323 7.385 7.385-3.323 7.385-7.385 7.385z"></path>
</svg>
