<!-- Generated by IcoMoon.io -->
<svg version="1.1" xmlns="http://www.w3.org/2000/svg" width="32" height="32" viewBox="0 0 32 32">
<title>picklist-type</title>
<path d="M29.723 9.169h-19.631c-0.554 0-0.985-0.431-0.985-0.985v-1.969c0-0.554 0.431-0.985 0.985-0.985h19.631c0.554 0 0.985 0.431 0.985 0.985v1.969c0 0.554-0.431 0.985-0.985 0.985zM29.723 17.969h-19.631c-0.554 0-0.985-0.431-0.985-0.985v-1.969c0-0.554 0.431-0.985 0.985-0.985h19.631c0.554 0 0.985 0.431 0.985 0.985v1.969c0 0.554-0.431 0.985-0.985 0.985zM4.246 17.969h-1.969c-0.554 0-0.985-0.431-0.985-0.985v-1.969c0-0.554 0.431-0.985 0.985-0.985h1.969c0.554 0 0.985 0.431 0.985 0.985v1.969c0 0.554-0.431 0.985-0.985 0.985zM4.246 9.169h-1.969c-0.554 0-0.985-0.431-0.985-0.985v-1.969c0-0.554 0.431-0.985 0.985-0.985h1.969c0.554 0 0.985 0.431 0.985 0.985v1.969c0 0.554-0.431 0.985-0.985 0.985zM4.246 26.769h-1.969c-0.554 0-0.985-0.431-0.985-0.985v-1.969c0-0.554 0.431-0.985 0.985-0.985h1.969c0.554 0 0.985 0.431 0.985 0.985v1.969c0 0.554-0.431 0.985-0.985 0.985zM29.723 26.769h-19.631c-0.554 0-0.985-0.431-0.985-0.985v-1.969c0-0.554 0.431-0.985 0.985-0.985h19.631c0.554 0 0.985 0.431 0.985 0.985v1.969c0 0.554-0.431 0.985-0.985 0.985z"></path>
</svg>
