<!-- Generated by IcoMoon.io -->
<svg version="1.1" xmlns="http://www.w3.org/2000/svg" width="32" height="32" viewBox="0 0 32 32">
<title>picklist-choice</title>
<path d="M4.246 20.738h-1.969c-0.554 0-0.985 0.431-0.985 0.985v1.969c0 0.554 0.431 0.985 0.985 0.985h2.031c0.554-0.062 0.923-0.492 0.862-0.985v-1.969c0.062-0.554-0.369-0.985-0.923-0.985zM10.154 7.262h19.446c0.554 0 0.985-0.431 0.985-0.985v-1.969c0-0.554-0.431-0.985-0.985-0.985h-19.446c-0.554 0-0.985 0.431-0.985 0.985v1.969c0 0.554 0.431 0.985 0.985 0.985zM10.154 16h19.446c0.554 0 0.985-0.431 0.985-0.985v-1.969c0-0.554-0.431-0.985-0.985-0.985h-19.446c-0.554 0-0.985 0.431-0.985 0.985v1.969c0 0.492 0.431 0.985 0.985 0.985zM4.246 3.323h-1.969c-0.554 0-0.985 0.431-0.985 0.985v1.969c0 0.554 0.431 0.985 0.985 0.985h2.031c0.554-0.062 0.923-0.492 0.862-0.985v-2.031c0.062-0.492-0.369-0.923-0.923-0.923zM4.246 12h-1.969c-0.554 0-0.985 0.431-0.985 0.985v1.969c0 0.554 0.431 0.985 0.985 0.985h2.031c0.554-0.062 0.923-0.492 0.862-0.985v-1.969c0.062-0.492-0.369-0.985-0.923-0.985zM12.862 24.431c0-1.108 0.369-2.215 1.046-3.077v-0.677h-3.754c-0.554 0-0.985 0.431-0.985 0.985v1.969c0 0.554 0.431 0.985 0.985 0.985h2.708v-0.185zM21.662 19.323c0.492-0.492 1.169-0.8 1.969-0.8 1.046 0 1.908 0.554 2.4 1.354 0.369-0.123 0.862-0.308 1.354-0.308 1.785 0 3.323 1.538 3.323 3.262 0 1.785-1.538 3.262-3.323 3.262-0.185 0-0.431 0-0.615-0.062-0.369 0.738-1.231 1.231-2.092 1.231-0.369 0-0.738-0.123-1.046-0.246-0.431 0.985-1.415 1.662-2.523 1.662-1.231 0-2.215-0.738-2.585-1.785-0.123 0-0.369 0.062-0.554 0.062-1.415 0-2.585-1.108-2.585-2.523 0-0.923 0.492-1.785 1.292-2.215-0.123-0.369-0.246-0.738-0.246-1.169 0-1.6 1.354-2.954 2.954-2.954 0.862 0.062 1.785 0.492 2.277 1.231z"></path>
</svg>
