<!-- Generated by IcoMoon.io -->
<svg version="1.1" xmlns="http://www.w3.org/2000/svg" width="32" height="32" viewBox="0 0 32 32">
<title>podcast-webinar</title>
<path d="M29.538 14.031c0-3.015-1.108-5.908-3.077-8.123l-0.246-0.246c-2.462-2.708-6.154-4.431-10.215-4.431-3.877 0-7.446 1.6-9.908 4.062h-0.062c-2.277 2.338-3.569 5.477-3.569 8.738s1.292 6.4 3.631 8.738c0.492 0.492 1.231 0.492 1.723 0s0.492-1.292 0-1.785c-1.785-1.785-2.831-4.308-2.831-6.892 0-2.277 0.8-4.369 2.092-6.092 0.246-0.308 0.431-0.554 0.738-0.8 0.062-0.062 0.123-0.123 0.123-0.185 2.031-2.092 4.923-3.323 8.062-3.323 6.031 0 10.954 4.677 11.015 10.4 0 2.585-1.046 5.108-2.892 6.892-0.492 0.492-0.492 1.292 0 1.785s1.292 0.492 1.785 0c2.338-2.338 3.631-5.415 3.631-8.738z"></path>
<path d="M24.369 14.092c0-0.062 0-0.062 0 0 0-0.062 0-0.062 0 0 0-0.062 0-0.062 0 0 0-4.431-3.754-8-8.369-8-3.815 0-7.015 2.4-8.062 5.662-0.246 0.738-0.369 1.477-0.369 2.277 0 1.908 0.738 3.754 2.092 5.108 0.492 0.492 1.292 0.492 1.785 0s0.492-1.292 0-1.785c-0.862-0.862-1.354-2.031-1.354-3.262 0-3.015 2.769-5.415 5.908-5.415s5.908 2.462 5.908 5.415c0 1.231-0.492 2.4-1.354 3.262-0.492 0.492-0.492 1.292 0 1.785s1.231 0.492 1.723 0c1.354-1.354 2.092-3.138 2.092-5.046zM17.354 19.938h-2.708c-1.046 0-1.969 0.862-1.969 1.969v6.954c0 1.046 0.862 1.969 1.969 1.969h2.708c1.046 0 1.969-0.862 1.969-1.969v-7.015c0-1.046-0.923-1.908-1.969-1.908z"></path>
<path d="M19.323 14.277c0 1.835-1.488 3.323-3.323 3.323s-3.323-1.488-3.323-3.323c0-1.835 1.488-3.323 3.323-3.323s3.323 1.488 3.323 3.323z"></path>
</svg>
