<!-- Generated by IcoMoon.io -->
<svg version="1.1" xmlns="http://www.w3.org/2000/svg" width="32" height="32" viewBox="0 0 32 32">
<title>preview</title>
<path d="M31.877 15.446c-2.892-5.846-8.923-9.908-15.877-9.908s-12.985 4.062-15.877 9.908c-0.185 0.369-0.185 0.8 0 1.108 2.892 5.846 8.923 9.908 15.877 9.908s12.985-4.062 15.877-9.908c0.185-0.369 0.185-0.738 0-1.108zM16 22.769c-3.754 0-6.769-3.015-6.769-6.769s3.015-6.769 6.769-6.769 6.769 3.015 6.769 6.769-3.015 6.769-6.769 6.769z"></path>
<path d="M16 11.692c-2.4 0-4.308 1.908-4.308 4.308s1.908 4.308 4.308 4.308 4.308-1.908 4.308-4.308-1.908-4.308-4.308-4.308z"></path>
</svg>
