<!-- Generated by IcoMoon.io -->
<svg version="1.1" xmlns="http://www.w3.org/2000/svg" width="32" height="32" viewBox="0 0 32 32">
<title>print</title>
<path d="M28.615 10.708h-25.231c-1.354 0-2.462 1.108-2.462 2.462v8.615c0 1.354 1.108 2.462 2.462 2.462h3.631v3.569c0 1.354 1.108 2.462 2.462 2.462h13.108c1.354 0 2.462-1.108 2.462-2.462v-3.569h3.631c1.354 0 2.462-1.108 2.462-2.462v-8.615c-0.062-1.354-1.169-2.462-2.523-2.462zM5.108 17.046c-1.046 0-1.846-0.8-1.846-1.846s0.8-1.846 1.846-1.846 1.846 0.8 1.846 1.846-0.8 1.846-1.846 1.846zM22.092 26.523c0 0.492-0.431 0.923-0.923 0.923h-10.462c-0.492 0-0.923-0.431-0.923-0.923v-6.031c0-0.492 0.431-0.923 0.923-0.923h10.462c0.492 0 0.923 0.431 0.923 0.923v6.031zM24.923 6.831c0 0.492-0.431 0.923-0.923 0.923h-16.123c-0.492 0-0.923-0.431-0.923-0.923v-4.185c0-0.492 0.431-0.923 0.923-0.923h16.123c0.492 0 0.923 0.431 0.923 0.923v4.185z"></path>
</svg>
