<!-- Generated by IcoMoon.io -->
<svg version="1.1" xmlns="http://www.w3.org/2000/svg" width="32" height="32" viewBox="0 0 32 32">
<title>priority</title>
<path d="M5.538 2.154c0-0.492-0.431-0.923-0.923-0.923h-1.846c-0.492 0-0.923 0.431-0.923 0.923v27.692c0 0.492 0.431 0.923 0.923 0.923h1.846c0.492 0 0.923-0.431 0.923-0.923v-27.692zM29.231 4.738c-9.846 5.169-8.738-5.415-20.615-1.292-0.369 0.123-0.615 0.492-0.615 0.862v14.338c0 0.431 0.431 0.738 0.8 0.554 11.815-3.938 10.585 6.892 20.862 1.108 0.308-0.185 0.492-0.492 0.492-0.8v-14.277c0-0.431-0.492-0.738-0.923-0.492z"></path>
</svg>
