<!-- Generated by IcoMoon.io -->
<svg version="1.1" xmlns="http://www.w3.org/2000/svg" width="32" height="32" viewBox="0 0 32 32">
<title>process</title>
<path d="M9.969 14.277l5.231-6.523c0.369-0.492 1.108-0.492 1.477 0l5.231 6.585c0.185 0.246 0.431 0.431 0.738 0.431h5.908c0.492 0 0.985-0.431 0.985-0.923v-8.923c0-1.354-1.169-2.462-2.523-2.462h-22.092c-1.354 0-2.462 1.108-2.462 2.462v8.923c0 0.492 0.431 0.923 0.923 0.923h5.846c0.308 0 0.554-0.246 0.738-0.492zM21.969 17.723l-5.231 6.523c-0.369 0.492-1.108 0.492-1.477 0l-5.231-6.585c-0.246-0.185-0.492-0.431-0.8-0.431h-5.846c-0.492 0-0.923 0.431-0.923 0.923v8.923c0 1.354 1.108 2.462 2.462 2.462h22.154c1.354 0 2.462-1.108 2.462-2.462v-8.923c0-0.492-0.431-0.923-0.923-0.923h-5.908c-0.308 0-0.554 0.246-0.738 0.492z"></path>
</svg>
