<!-- Generated by IcoMoon.io -->
<svg version="1.1" xmlns="http://www.w3.org/2000/svg" width="32" height="32" viewBox="0 0 32 32">
<title>prompt-edit</title>
<path d="M28.923 2.769h-25.846c-1.046 0-1.846 0.8-1.846 1.846v18.831c0 1.046 0.8 1.846 1.846 1.846h8.923l2.215 3.2c0.615 0.862 1.723 1.046 2.585 0.431l0.369-0.369 2.585-3.262h9.169c1.046 0 1.846-0.8 1.846-1.846v-18.831c0-1.046-0.8-1.846-1.846-1.846zM13.108 19.692c-0.123 0.123-0.185 0.185-0.308 0.185l-3.077 0.738c-0.308 0.062-0.554-0.185-0.492-0.492l0.738-3.077c0-0.062 0.062-0.185 0.123-0.246l0.062-0.062c0.062-0.062 0.246-0.062 0.369 0l2.585 2.585c0.062 0.123 0.062 0.308 0 0.369zM20.554 12.123l-6.338 6.338c-0.123 0.123-0.308 0.123-0.369 0l-2.523-2.523c-0.123-0.062-0.123-0.246 0-0.369l6.277-6.338c0.123-0.123 0.308-0.123 0.369 0l2.523 2.523c0.123 0.123 0.123 0.246 0.062 0.369zM22.462 10.277l-0.738 0.738c-0.123 0.123-0.308 0.123-0.369 0l-2.523-2.523c-0.123-0.123-0.123-0.308 0-0.369l0.677-0.738c0.431-0.431 1.169-0.431 1.6 0l1.354 1.354c0.431 0.431 0.431 1.108 0 1.538z"></path>
</svg>
