<!-- Generated by IcoMoon.io -->
<svg version="1.1" xmlns="http://www.w3.org/2000/svg" width="32" height="32" viewBox="0 0 32 32">
<title>push</title>
<path d="M27.077 1.231h-14.769c-1.354 0-2.462 1.108-2.462 2.462v0.062c0 0.431 0.246 0.862 0.615 1.108 0.185 0.123 2.523 2.462 2.523 2.462 0.185 0.185 0.492 0 0.492-0.246 0-0.492 0.431-0.985 0.923-0.985h10.462c0.492 0 0.985 0.492 0.985 0.985v16.615c0 0.492-0.492 0.862-0.985 0.862h-10.462c-0.492 0-0.862-0.369-0.862-0.862v-0.062c0-0.246-0.308-0.369-0.492-0.185 0 0-2.338 2.338-2.585 2.462-0.369 0.246-0.615 0.615-0.615 1.108v1.231c0 1.354 1.046 2.462 2.4 2.462h14.769c1.354 0 2.523-1.108 2.523-2.462v-24.554c0-1.354-1.108-2.462-2.462-2.462zM19.692 29.538c-1.046 0-1.846-0.8-1.846-1.846s0.8-1.846 1.846-1.846 1.846 0.8 1.846 1.846-0.8 1.846-1.846 1.846z"></path>
<path d="M16.985 14.708l-7.692-7.692c-0.369-0.369-0.923-0.369-1.292 0l-1.292 1.292c-0.369 0.369-0.369 0.923 0 1.292l2.831 2.831c0.369 0.369 0.123 1.046-0.431 1.046h-8.185c-0.492 0.062-0.923 0.492-0.923 0.985v1.846c0 0.492 0.431 0.923 0.923 0.923h8.123c0.554 0 0.8 0.677 0.431 1.046l-2.831 2.831c-0.369 0.369-0.369 0.923 0 1.292l1.292 1.292c0.369 0.369 0.923 0.369 1.292 0l7.754-7.692c0.308-0.308 0.308-0.923 0-1.292z"></path>
</svg>
