<!-- Generated by IcoMoon.io -->
<svg version="1.1" xmlns="http://www.w3.org/2000/svg" width="32" height="32" viewBox="0 0 32 32">
<title>question-and-answers</title>
<path d="M30.769 17.231c0-2.4-1.538-4.492-3.692-5.231-0.185-5.969-5.046-10.769-11.077-10.769s-10.892 4.8-11.077 10.769c-2.154 0.738-3.692 2.831-3.692 5.231 0 2.585 1.785 4.738 4.123 5.354 1.354 4.738 5.6 8.185 10.646 8.185s9.292-3.446 10.646-8.185c2.338-0.615 4.123-2.769 4.123-5.354zM24.615 11.692l-0.062-0.062 0.246 0.062h-0.185zM16 28.308c-4.738 0-8.615-4-8.615-8.862 0-1.231 0.246-3.077 0.738-4.185 0.062-0.185 0.185-0.369 0.246-0.554 1.846-0.738 3.446-2.031 4.492-3.692 2.154 2.708 5.538 4.554 9.292 4.554 1.292 0 1.662 0.062 1.785 0 0.246 0.8 0.492 1.785 0.554 2.769-0.369 1.538-2.769 3.015-6.154 3.2-0.123-0.308-0.492-0.615-0.862-0.615h-3.077c-0.492 0-0.862 0.492-0.862 0.985v1.846c0 0.492 0.369 0.862 0.862 0.862h3.077c0.431 0 0.738-0.185 0.862-0.554 2.215-0.062 4.185-0.677 5.723-1.6-1.169 3.385-4.308 5.846-8.062 5.846z"></path>
</svg>
