<!-- Generated by IcoMoon.io -->
<svg version="1.1" xmlns="http://www.w3.org/2000/svg" width="32" height="32" viewBox="0 0 32 32">
<title>question</title>
<path d="M17.477 23.385h-3.077c-0.492 0-0.862-0.369-0.862-0.862v-0.923c0-2.585 1.662-4.923 4.123-5.785 0.738-0.246 1.415-0.677 1.969-1.292 3.077-3.692 0.246-8.123-3.446-8.246-1.354-0.062-2.646 0.431-3.631 1.354-0.8 0.738-1.292 1.662-1.415 2.708-0.062 0.369-0.431 0.677-0.923 0.677h-3.077c-0.554 0-0.985-0.431-0.923-0.985 0.246-2.338 1.292-4.431 2.954-6.092 1.969-1.846 4.492-2.831 7.2-2.769 5.108 0.185 9.292 4.369 9.477 9.477 0.185 4.308-2.462 8.185-6.462 9.662-0.554 0.246-0.923 0.677-0.923 1.231v0.923c0 0.554-0.492 0.923-0.985 0.923zM18.462 29.846c0 0.492-0.431 0.923-0.923 0.923h-3.077c-0.492 0-0.923-0.431-0.923-0.923v-3.077c0-0.492 0.431-0.923 0.923-0.923h3.077c0.492 0 0.923 0.431 0.923 0.923v3.077z"></path>
</svg>
