<!-- Generated by IcoMoon.io -->
<svg version="1.1" xmlns="http://www.w3.org/2000/svg" width="32" height="32" viewBox="0 0 32 32">
<title>quotation-marks</title>
<path d="M27.262 4c-5.538 0-9.785 4.308-9.785 9.846v13.231c0 0.492 0.431 0.923 0.923 0.923h10.462c0.492 0 0.923-0.431 0.923-0.923v-10.462c0-0.492-0.431-0.923-0.923-0.923h-7.692v-1.846c0-3.077 3.015-6.154 6.092-6.154h1.6c0.492 0 0.923-0.431 0.923-0.923v-1.846c0-0.492-0.431-0.923-0.923-0.923h-1.6zM12 4c-5.538 0-9.785 4.308-9.785 9.846v13.231c0 0.492 0.431 0.923 0.923 0.923h10.462c0.492 0 0.923-0.431 0.923-0.923v-10.462c0-0.492-0.431-0.923-0.923-0.923h-7.692v-1.846c0-3.077 3.015-6.154 6.092-6.154h1.6c0.492 0 0.923-0.431 0.923-0.923v-1.846c0-0.492-0.431-0.923-0.923-0.923h-1.6z"></path>
</svg>
