<!-- Generated by IcoMoon.io -->
<svg version="1.1" xmlns="http://www.w3.org/2000/svg" width="32" height="32" viewBox="0 0 32 32">
<title>quote</title>
<path d="M27.815 1.292h-10.769c-0.677-0.062-1.292 0.308-1.785 0.8l-13.169 13.231c-1.108 1.108-1.108 3.015 0 4.185l10.462 10.462c1.108 1.108 3.015 1.108 4.185 0l13.354-13.415c0.492-0.492 0.8-1.292 0.738-1.969v-10.338c-0.062-1.6-1.415-2.954-3.015-2.954zM17.169 22.954l-0.677 0.677c-0.369 0.369-0.985 0.369-1.354 0l-6.708-6.646c-0.369-0.369-0.369-0.985 0-1.354l0.677-0.677c0.369-0.369 0.985-0.369 1.354 0l6.708 6.708c0.431 0.308 0.431 0.923 0 1.292zM21.108 19.015l-0.677 0.677c-0.369 0.369-0.985 0.369-1.354 0l-6.708-6.646c-0.369-0.369-0.369-0.985 0-1.354l0.677-0.677c0.369-0.369 0.985-0.369 1.354 0l6.708 6.708c0.431 0.308 0.431 0.923 0 1.292zM23.877 10.646c-1.354 0-2.462-1.108-2.462-2.462s1.108-2.462 2.462-2.462 2.462 1.108 2.462 2.462-1.108 2.462-2.462 2.462z"></path>
</svg>
