<!-- Generated by IcoMoon.io -->
<svg version="1.1" xmlns="http://www.w3.org/2000/svg" width="32" height="32" viewBox="0 0 32 32">
<title>record-create</title>
<path d="M10.585 7.138h10.831c0.554 0 0.985-0.431 0.985-0.985v-1.969c0-1.6-1.354-2.954-2.954-2.954h-6.892c-1.6 0-2.954 1.354-2.954 2.954v1.969c0 0.554 0.431 0.985 0.985 0.985z"></path>
<path d="M26.831 3.692h-0.985c-0.308 0-0.492 0.185-0.492 0.492v1.969c0 2.154-1.785 3.938-3.938 3.938h-10.831c-2.154 0-3.938-1.785-3.938-3.938v-1.969c0-0.308-0.185-0.492-0.492-0.492h-0.985c-1.6 0-2.954 1.354-2.954 2.954v21.169c0 1.6 1.354 2.954 2.954 2.954h21.662c1.6 0 2.954-1.354 2.954-2.954v-21.169c0-1.6-1.354-2.954-2.954-2.954zM23.2 21.046c0 0.246-0.246 0.492-0.492 0.492h-5.415c-0.185 0-0.308 0.123-0.308 0.308v5.415c0 0.246-0.246 0.492-0.492 0.492h-0.985c-0.246 0-0.492-0.246-0.492-0.492v-5.415c0-0.185-0.123-0.308-0.308-0.308h-5.415c-0.246 0-0.492-0.246-0.492-0.492v-0.985c0-0.246 0.246-0.492 0.492-0.492h5.415c0.185 0 0.308-0.123 0.308-0.308v-5.415c0-0.246 0.246-0.492 0.492-0.492h0.985c0.246 0 0.492 0.246 0.492 0.492v5.415c0 0.185 0.123 0.308 0.308 0.308h5.415c0.246 0 0.492 0.246 0.492 0.492v0.985z"></path>
</svg>
