<!-- Generated by IcoMoon.io -->
<svg version="1.1" xmlns="http://www.w3.org/2000/svg" width="32" height="32" viewBox="0 0 32 32">
<title>record-update</title>
<path d="M10.585 7.138h10.831c0.554 0 0.985-0.431 0.985-0.985v-1.969c0-1.6-1.354-2.954-2.954-2.954h-6.892c-1.6 0-2.954 1.354-2.954 2.954v1.969c0 0.554 0.431 0.985 0.985 0.985z"></path>
<path d="M26.831 3.692h-0.985c-0.308 0-0.492 0.185-0.492 0.492v1.969c0 2.154-1.785 3.938-3.938 3.938h-10.831c-2.154 0-3.938-1.785-3.938-3.938v-1.969c0-0.308-0.185-0.492-0.492-0.492h-0.985c-1.6 0-2.954 1.354-2.954 2.954v21.169c0 1.6 1.354 2.954 2.954 2.954h21.662c1.6 0 2.954-1.354 2.954-2.954v-21.169c0-1.6-1.354-2.954-2.954-2.954zM20.923 18.708l-7.877 7.877-3.446 0.985c-0.308 0.062-0.615-0.246-0.554-0.554l0.985-3.385 7.877-7.877c0.123-0.123 0.308-0.123 0.431 0l2.523 2.585c0.185 0.062 0.185 0.246 0.062 0.369zM23.2 16.431l-0.985 0.985c-0.123 0.123-0.308 0.123-0.431 0l-2.585-2.585c-0.123-0.123-0.123-0.308 0-0.431l0.985-0.985c0.431-0.492 1.231-0.492 1.662 0l1.292 1.292c0.554 0.492 0.554 1.231 0.062 1.723z"></path>
</svg>
