<!-- Generated by IcoMoon.io -->
<svg version="1.1" xmlns="http://www.w3.org/2000/svg" width="32" height="32" viewBox="0 0 32 32">
<title>recurring-exception</title>
<path d="M24 21.538l-7.385-7.323-11.754-11.754c-0.431-0.492-1.108-0.554-1.477-0.185l-1.292 1.292c-0.308 0.308-0.308 0.8-0.062 1.231l24.985 25.046c0.431 0.431 1.108 0.492 1.477 0.185l1.292-1.292c0.369-0.369 0.308-1.046-0.185-1.477l-2.892-2.892-2.708-2.831zM15.323 6.769c2.462 0 4.8 0.985 6.523 2.708 0.308 0.246 0.554 0.554 0.738 0.862 0.185 0.492-0.246 0.738-0.8 0.738h-4.492l3.692 3.692h7.754c0.431 0 0.8-0.369 0.8-0.8v-11.2c-0.123-0.492-0.554-0.923-1.046-0.923h-1.846c-0.492 0-0.923 0.431-0.923 0.923v4.308c0 0.554-0.308 0.8-0.738 0.431-0.185-0.246-0.369-0.431-0.615-0.615-3.077-3.077-7.385-4.369-11.815-3.508-0.8 0.185-1.538 0.369-2.277 0.738l2.954 2.954c0.615-0.246 1.354-0.308 2.092-0.308zM16.554 25.477c-2.462 0-4.8-0.985-6.523-2.708-0.308-0.246-0.554-0.554-0.738-0.862-0.185-0.492 0.246-0.738 0.8-0.738h4.308c0.062 0 0.123 0 0.246-0.062l-3.631-3.631h-7.815c-0.431 0-0.8 0.369-0.8 0.8v11.2c0.062 0.492 0.492 0.923 0.985 0.923h1.846c0.492 0 0.923-0.431 0.923-0.923v-4.308c0-0.554 0.308-0.8 0.738-0.431 0.185 0.246 0.369 0.431 0.615 0.615 3.077 3.077 7.385 4.369 11.815 3.508 0.8-0.185 1.538-0.369 2.277-0.738l-2.954-2.954c-0.677 0.185-1.354 0.308-2.092 0.308z"></path>
</svg>
