<!-- Generated by IcoMoon.io -->
<svg version="1.1" xmlns="http://www.w3.org/2000/svg" width="32" height="32" viewBox="0 0 32 32">
<title>recycle-bin-empty</title>
<path d="M28 6.154h-7.754v-2.462c0-1.354-1.108-2.462-2.462-2.462h-3.692c-1.354 0-2.462 1.108-2.462 2.462v2.462h-7.692c-0.492 0-0.923 0.431-0.923 0.923v1.846c0 0.492 0.431 0.923 0.923 0.923h24c0.492 0 0.923-0.431 0.923-0.923v-1.846c0-0.492-0.369-0.923-0.862-0.923zM17.723 6.154h-3.631v-1.846c0-0.369 0.246-0.615 0.615-0.615h2.462c0.369 0 0.615 0.246 0.615 0.615v1.846zM25.538 12.308h-19.077c-0.492 0-0.923 0.431-0.923 0.923v14.462c0 1.723 1.354 3.077 3.077 3.077h14.769c1.723 0 3.077-1.354 3.077-3.077v-14.462c-0.062-0.492-0.431-0.923-0.923-0.923zM14.277 27.631l-3.077 0.062c-0.123 0-1.292 0-2.092-1.231-0.862-1.354-0.185-2.462 0.738-4.062l-0.862-0.615c-0.123-0.062-0.123-0.123-0.123-0.246s0.062-0.123 0.185-0.185l2.4-0.615 0.185-0.062c0.123 0 0.185 0 0.308 0.185l0.062 0.185 0.554 2.462c0 0.123 0 0.185-0.123 0.246s-0.185 0.062-0.308 0l-0.8-0.492c-0.862 1.415-0.985 1.846-0.738 2.215s0.615 0.431 0.615 0.431l3.077-0.062c0.308 0 0.615 0.123 0.738 0.369 0.123 0.123 0.123 0.308 0.123 0.431 0.062 0.554-0.369 0.985-0.862 0.985zM16.492 18.646c0-0.123 0.062-0.185 0.123-0.246l0.862-0.369c-0.738-1.477-1.046-1.846-1.477-1.846-0.492 0-0.615 0.246-0.677 0.308l-1.6 2.585c-0.123 0.246-0.431 0.369-0.738 0.369-0.123 0-0.308-0.062-0.431-0.123-0.369-0.246-0.554-0.8-0.246-1.169l1.6-2.585c0.062-0.123 0.677-1.108 2.092-1.108 1.6 0 2.154 1.169 3.077 2.831l0.985-0.431c0.123-0.062 0.185 0 0.246 0.062s0.123 0.123 0.062 0.246l-0.862 2.523c0 0.062-0.062 0.123-0.123 0.123-0.123 0.062-0.185 0-0.185 0l-2.523-0.923c-0.123-0.062-0.185-0.123-0.185-0.246zM22.954 26.215c-0.738 1.354-2.092 1.354-3.938 1.354l-0.062 1.108c0 0.123-0.062 0.185-0.123 0.185s-0.123 0.062-0.246-0.062l-1.846-1.908c-0.123-0.123 0-0.308 0-0.308l0.123-0.123 1.969-1.723c0.123-0.062 0.123-0.123 0.246-0.062s0.123 0.123 0.123 0.246v0.923c1.6 0 2.092-0.062 2.338-0.431 0.185-0.369 0.123-0.677 0.062-0.738l-1.538-2.646c-0.123-0.246-0.123-0.615 0-0.862 0.123-0.123 0.185-0.246 0.369-0.369 0.369-0.246 0.923-0.123 1.169 0.369l1.538 2.646c0 0.123 0.492 1.108-0.185 2.4z"></path>
</svg>
