<!-- Generated by IcoMoon.io -->
<svg version="1.1" xmlns="http://www.w3.org/2000/svg" width="32" height="32" viewBox="0 0 32 32">
<title>redo</title>
<path d="M21.846 7.692h0.431c0.615 0 0.615-0.431 0.246-0.8l-3.015-3.015c-0.369-0.308-0.369-0.923 0-1.292l1.292-1.292c0.308-0.369 0.923-0.369 1.292 0l7.938 7.938c0.308 0.308 0.308 0.8 0 1.108l-8 8c-0.369 0.308-0.8 0.308-1.169-0.062l-1.354-1.354c-0.369-0.369-0.431-0.923-0.062-1.292l3.015-3.015c0.431-0.431 0.554-0.8 0.062-1.046-0.185-0.062-0.677-0.062-0.677-0.062h-8.554c-4.369 0-7.877 3.508-7.877 7.877s3.508 7.877 7.877 7.877h4.985c0.492 0 0.862 0.431 0.862 0.923v1.969c0 0.492-0.308 0.862-0.8 0.862h-5.046c-6.4 0-11.631-5.169-11.631-11.631s5.231-11.631 11.631-11.631l8.554-0.062z"></path>
</svg>
