<!-- Generated by IcoMoon.io -->
<svg version="1.1" xmlns="http://www.w3.org/2000/svg" width="32" height="32" viewBox="0 0 32 32">
<title>relate</title>
<path d="M22.154 12.308c0-1.354-1.108-2.462-2.462-2.462h-16c-1.354 0-2.462 1.108-2.462 2.462v16c0 1.354 1.108 2.462 2.462 2.462h16c1.354 0 2.462-1.108 2.462-2.462v-16zM17.231 20.923c0 0.308-0.308 0.615-0.615 0.615h-3.692v3.692c0 0.308-0.308 0.615-0.615 0.615h-1.231c-0.308 0-0.615-0.308-0.615-0.615v-3.692h-3.692c-0.308 0-0.615-0.308-0.615-0.615v-1.231c0-0.308 0.308-0.615 0.615-0.615h3.692v-3.692c0-0.308 0.308-0.615 0.615-0.615h1.231c0.308 0 0.615 0.308 0.615 0.615v3.692h3.692c0.308 0 0.615 0.308 0.615 0.615v1.231z"></path>
<path d="M26.462 25.846h-1.846v-3.692h1.846c0.369 0 0.615-0.246 0.615-0.615v-16c0-0.369-0.246-0.615-0.615-0.615h-16c-0.369 0-0.615 0.246-0.615 0.615v1.846h-3.692v-1.846c0-2.4 1.908-4.308 4.308-4.308h16c2.4 0 4.308 1.908 4.308 4.308v16c0 2.4-1.908 4.308-4.308 4.308z"></path>
</svg>
