<!-- Generated by IcoMoon.io -->
<svg version="1.1" xmlns="http://www.w3.org/2000/svg" width="32" height="32" viewBox="0 0 32 32">
<title>remove-link</title>
<path d="M14.769 22.523c-0.369 0-0.738-0.062-1.108-0.185-0.369-0.062-0.8-0.185-1.169-0.308-0.246-0.062-0.492 0-0.615 0.123l-0.246 0.246c-1.538 1.538-4.062 1.723-5.723 0.308-1.785-1.6-1.908-4.369-0.185-6.031l4.062-4.062c0.554-0.554 1.169-0.862 1.846-1.046 0.862-0.246 1.785-0.185 2.585 0.185 0.492 0.185 0.985 0.492 1.354 0.923 0.185 0.185 0.369 0.431 0.554 0.738 0.185 0.369 0.677 0.431 0.985 0.123l1.538-1.538c0.246-0.246 0.246-0.554 0.062-0.8-0.246-0.308-0.492-0.554-0.738-0.862-0.369-0.369-0.862-0.738-1.292-1.046-0.8-0.492-1.6-0.8-2.523-0.985-1.662-0.308-3.446-0.062-5.046 0.8-0.615 0.308-1.169 0.738-1.662 1.231l-3.938 3.938c-2.831 2.831-3.077 7.446-0.308 10.4 2.892 3.077 7.754 3.2 10.708 0.185l1.354-1.354c0.308-0.308 0.062-0.923-0.492-0.985z"></path>
<path d="M24.923 13.846c2.954-2.954 2.892-7.815-0.185-10.708-2.954-2.708-7.569-2.523-10.4 0.308l-1.231 1.231c-0.369 0.369-0.123 0.985 0.369 1.046 0.738 0.062 1.538 0.185 2.277 0.431 0.246 0.062 0.492 0 0.615-0.123l0.246-0.246c1.538-1.538 4.062-1.723 5.723-0.308 1.785 1.6 1.908 4.369 0.185 6.031l-4.062 4.062c-0.554 0.554-1.169 0.862-1.846 1.046-0.862 0.246-1.785 0.185-2.585-0.185-0.492-0.185-0.985-0.492-1.354-0.923-0.185-0.185-0.369-0.431-0.492-0.677-0.185-0.369-0.677-0.431-0.985-0.123l-1.477 1.477c-0.246 0.246-0.246 0.554-0.062 0.8 0.246 0.308 0.431 0.554 0.738 0.862 0.431 0.431 0.862 0.738 1.292 1.046 0.8 0.492 1.6 0.8 2.523 0.985 1.662 0.308 3.446 0.062 5.046-0.8 0.615-0.308 1.169-0.738 1.662-1.231l4-4zM27.754 25.231l2.831-2.831c0.246-0.246 0.246-0.615 0-0.862l-1.723-1.723c-0.246-0.246-0.615-0.246-0.862 0l-2.769 2.892-2.646-2.646c-0.246-0.246-0.615-0.246-0.862 0l-1.723 1.723c-0.246 0.246-0.246 0.615 0 0.862l2.646 2.646-2.585 2.585c-0.246 0.246-0.246 0.615 0 0.862l1.723 1.723c0.246 0.246 0.615 0.246 0.862 0l2.585-2.585 2.769 2.769c0.246 0.246 0.615 0.246 0.862 0l1.723-1.723c0.246-0.246 0.246-0.615 0-0.862l-2.831-2.831z"></path>
</svg>
