<!-- Generated by IcoMoon.io -->
<svg version="1.1" xmlns="http://www.w3.org/2000/svg" width="32" height="32" viewBox="0 0 32 32">
<title>remove-formatting</title>
<path d="M27.754 25.169l2.831-2.831c0.246-0.246 0.246-0.615 0-0.862l-1.723-1.723c-0.246-0.246-0.615-0.246-0.862 0l-2.769 2.892-2.646-2.646c-0.246-0.246-0.615-0.246-0.862 0l-1.723 1.723c-0.246 0.246-0.246 0.615 0 0.862l2.646 2.646-2.585 2.585c-0.246 0.246-0.246 0.615 0 0.862l1.723 1.723c0.246 0.246 0.615 0.246 0.862 0l2.585-2.585 2.769 2.769c0.246 0.246 0.615 0.246 0.862 0l1.723-1.723c0.246-0.246 0.246-0.615 0-0.862l-2.831-2.831zM2.954 4.923h6.646l-2.523 14.277c-0.123 0.615 0.308 1.108 0.862 1.108h3.138c0.431 0 0.862-0.308 0.923-0.738l2.585-14.646h6.769c0.431 0 0.862-0.308 0.923-0.8l0.308-1.846c0.123-0.554-0.308-1.046-0.923-1.046h-18.462c-0.431 0-0.8 0.308-0.862 0.8l-0.308 1.846c-0.123 0.554 0.308 1.046 0.923 1.046zM17.231 23.692c0-0.492-0.431-0.923-0.923-0.923h-14.154c-0.492 0-0.923 0.431-0.923 0.923v1.846c0 0.492 0.431 0.923 0.923 0.923h14.154c0.492 0 0.923-0.431 0.923-0.923v-1.846z"></path>
</svg>
