<!-- Generated by IcoMoon.io -->
<svg version="1.1" xmlns="http://www.w3.org/2000/svg" width="32" height="32" viewBox="0 0 32 32">
<title>report-issue</title>
<path d="M14.031 28.123v0.615c0 0.738-0.554 1.292-1.292 1.292h-10.215c-0.738 0-1.292-0.554-1.292-1.292v-0.615c0-1.538 1.846-2.523 3.508-3.262 0.062 0 0.123-0.062 0.185-0.123 0.123-0.062 0.308-0.062 0.431 0 0.677 0.431 1.477 0.677 2.338 0.677 0.8 0 1.6-0.246 2.338-0.677 0.123-0.062 0.246-0.062 0.369 0 0.062 0 0.123 0.062 0.185 0.123 1.662 0.8 3.446 1.723 3.446 3.262z"></path>
<path d="M10.831 20.738c0 1.937-1.433 3.508-3.2 3.508s-3.2-1.57-3.2-3.508c0-1.937 1.433-3.508 3.2-3.508s3.2 1.57 3.2 3.508z"></path>
<path d="M21.415 1.969c-5.231 0-9.415 4-9.415 8.923 0 1.538 0.431 3.077 1.231 4.431 0.062 0.123 0.123 0.308 0.123 0.492l-1.046 2.831c-0.123 0.369 0.123 0.677 0.431 0.8 0.123 0.062 0.246 0.062 0.369 0l2.769-0.985c0.185-0.062 0.369-0.062 0.492 0.062 1.477 0.862 3.2 1.354 4.923 1.354 5.231 0 9.415-4.062 9.415-8.985 0.062-4.923-4.185-8.923-9.292-8.923zM20.738 5.477h1.846v4.308l-0.185 2.831h-1.477l-0.123-2.831v-4.308zM21.662 16.123c-0.862 0-1.108-0.492-1.108-1.108s0.246-1.108 1.108-1.108 1.108 0.492 1.108 1.108c0.062 0.615-0.246 1.108-1.108 1.108z"></path>
</svg>
