<!-- Generated by IcoMoon.io -->
<svg version="1.1" xmlns="http://www.w3.org/2000/svg" width="32" height="32" viewBox="0 0 32 32">
<title>resource-absence</title>
<path d="M13.477 22.769c0-1.662 0.554-3.569 1.415-5.046 1.046-1.846 2.215-2.585 3.138-3.938 1.538-2.277 1.846-5.538 0.862-8-0.985-2.523-3.323-4-6.031-3.938s-4.923 1.723-5.785 4.246c-0.985 2.769-0.554 6.092 1.662 8.185 0.923 0.862 1.785 2.215 1.292 3.508-0.431 1.231-1.908 1.785-2.954 2.277-2.4 1.046-5.292 2.523-5.785 5.354-0.492 2.338 1.108 4.738 3.631 4.738h10.462c0.492 0 0.8-0.615 0.492-0.985-1.538-1.785-2.4-4.062-2.4-6.4z"></path>
<path d="M28.554 17.538c-2.892-2.892-7.569-2.892-10.462 0s-2.892 7.569 0 10.462c2.892 2.892 7.569 2.892 10.462 0s2.892-7.569 0-10.462zM26.4 24.062c0.246 0.246 0.246 0.677-0.062 0.923l-0.862 0.862c-0.246 0.246-0.554 0.246-0.8-0.062l-1.292-1.292-1.354 1.354c-0.246 0.246-0.554 0.246-0.8-0.062l-0.923-0.862c-0.246-0.246-0.308-0.554-0.062-0.8l1.354-1.354-1.292-1.354c-0.246-0.246-0.308-0.554-0.062-0.8l0.862-0.862c0.246-0.246 0.677-0.308 0.923-0.062l1.292 1.292 1.292-1.292c0.246-0.246 0.677-0.308 0.923-0.062l0.862 0.862c0.246 0.246 0.246 0.677-0.062 0.923l-1.292 1.292 1.354 1.354z"></path>
</svg>
