<!-- Generated by IcoMoon.io -->
<svg version="1.1" xmlns="http://www.w3.org/2000/svg" width="32" height="32" viewBox="0 0 32 32">
<title>retail-execution</title>
<path d="M10.708 7.138h10.646c0.554 0 0.985-0.431 0.985-0.985v-1.969c0-1.6-1.292-2.954-2.892-2.954h-6.769c-1.6 0-2.892 1.354-2.892 2.954v1.969c-0.062 0.554 0.369 0.985 0.923 0.985z"></path>
<path d="M26.646 3.692h-0.985c-0.308 0-0.492 0.185-0.492 0.492v1.969c0 2.154-1.723 3.938-3.877 3.938h-10.585c-2.154 0-3.877-1.785-3.877-3.938v-1.969c0-0.308-0.185-0.492-0.492-0.492h-0.985c-1.6 0-2.892 1.354-2.892 2.954v21.169c0 1.6 1.292 2.954 2.892 2.954h21.292c1.6 0 2.892-1.354 2.892-2.954v-21.169c0-1.6-1.292-2.954-2.892-2.954zM22.585 16.677l-7.385 7.385c-0.308 0.308-0.615 0.431-0.985 0.431-0.308 0-0.738-0.123-0.985-0.431l-3.569-3.569c-0.308-0.308-0.308-0.738 0-0.985l0.985-0.985c0.308-0.308 0.738-0.308 0.985 0l2.585 2.585 6.338-6.338c0.308-0.308 0.738-0.308 0.985 0l0.985 0.985c0.308 0.185 0.308 0.677 0.062 0.923z"></path>
</svg>
