<!-- Generated by IcoMoon.io -->
<svg version="1.1" xmlns="http://www.w3.org/2000/svg" width="32" height="32" viewBox="0 0 32 32">
<title>retweet</title>
<path d="M31.754 17.723l-1.292-1.292c-0.369-0.369-0.923-0.369-1.292 0l-1.662 1.662c-0.431 0.431-1.046 0.123-1.046-0.431v-10.277c0-1.354-1.108-2.462-2.462-2.462h-8.923c-0.492 0-0.923 0.431-0.923 0.923v1.846c0 0.492 0.431 0.923 0.923 0.923h6.769c0.492 0 0.923 0.431 0.923 0.923v8.123c0 0.554-0.677 0.8-1.108 0.431l-1.6-1.6c-0.369-0.369-0.985-0.369-1.292 0l-1.292 1.354c-0.369 0.369-0.369 0.923 0 1.292l6.462 6.462c0.369 0.369 0.923 0.369 1.292 0l6.523-6.523c0.308-0.369 0.308-0.985 0-1.354zM16.923 23.385h-6.769c-0.492 0-0.923-0.431-0.923-0.923v-8.123c0-0.554 0.677-0.8 1.108-0.431l1.6 1.6c0.369 0.369 0.985 0.369 1.292 0l1.292-1.292c0.369-0.369 0.369-0.923 0-1.292l-6.4-6.523c-0.369-0.369-0.923-0.369-1.292 0l-6.585 6.523c-0.369 0.369-0.369 0.923 0 1.292l1.292 1.292c0.369 0.369 0.923 0.369 1.292 0l1.662-1.662c0.369-0.369 1.046-0.123 1.046 0.431v10.338c0 1.354 1.169 2.462 2.523 2.462h8.923c0.492 0 0.923-0.431 0.923-0.923v-1.846c-0.062-0.492-0.492-0.923-0.985-0.923z"></path>
</svg>
