<!-- Generated by IcoMoon.io -->
<svg version="1.1" xmlns="http://www.w3.org/2000/svg" width="32" height="32" viewBox="0 0 32 32">
<title>rotate</title>
<path d="M29.846 1.231h-1.846c-0.492 0-0.923 0.431-0.923 0.923v4.308c0 0.554-0.615 0.923-0.985 0.492-2.892-3.2-7.015-4.862-11.508-4.431-1.6 0.123-3.138 0.615-4.554 1.354-0.738 0.369-1.477 0.8-2.092 1.292-0.431 0.308-0.492 0.985-0.123 1.415l1.292 1.292c0.308 0.308 0.8 0.369 1.169 0.123 0.738-0.492 1.538-0.923 2.4-1.292 0.369-0.123 0.8-0.246 1.231-0.369 3.877-0.738 7.569 0.8 9.662 3.323 0.738 0.862 0.185 1.415-0.431 1.415h-4.308c-0.492 0-0.985 0.431-0.985 0.923v1.846c0 0.492 0.492 0.923 0.985 0.923h11.2c0.431 0 0.738-0.369 0.738-0.8v-11.815c0-0.492-0.431-0.923-0.923-0.923zM24.246 23.015c-0.369-0.369-0.923-0.369-1.292 0-0.985 0.985-2.215 1.785-3.569 2.277-0.369 0.123-0.8 0.246-1.231 0.369-3.877 0.738-7.569-0.8-9.662-3.323-0.738-0.862-0.185-1.415 0.431-1.415h4.308c0.492 0 0.923-0.431 0.923-0.923v-1.846c0-0.492-0.431-0.923-0.923-0.923h-11.2c-0.431 0-0.8 0.369-0.8 0.8v11.815c0 0.492 0.431 0.923 0.923 0.923h1.846c0.492 0 0.923-0.431 0.923-0.923v-4.308c0-0.554 0.615-0.923 0.985-0.492 2.831 3.2 7.015 4.862 11.508 4.431 1.6-0.123 3.138-0.615 4.554-1.354 1.354-0.677 2.523-1.538 3.508-2.523 0.369-0.369 0.369-0.985 0-1.292l-1.231-1.292z"></path>
</svg>
