<!-- Generated by IcoMoon.io -->
<svg version="1.1" xmlns="http://www.w3.org/2000/svg" width="32" height="32" viewBox="0 0 32 32">
<title>rows</title>
<path d="M28.615 8.615h-25.231c-0.492 0-0.923-0.431-0.923-0.923v-1.846c0-0.492 0.431-0.923 0.923-0.923h25.231c0.492 0 0.923 0.431 0.923 0.923v1.846c0 0.492-0.431 0.923-0.923 0.923zM28.615 17.785h-25.231c-0.492 0-0.923-0.431-0.923-0.923v-1.846c0-0.431 0.431-0.862 0.923-0.862h25.231c0.492 0 0.923 0.431 0.923 0.923v1.846c0 0.431-0.431 0.862-0.923 0.862zM28.615 27.077h-25.231c-0.492 0-0.923-0.431-0.923-0.923v-1.846c0-0.492 0.431-0.923 0.923-0.923h25.231c0.492 0 0.923 0.431 0.923 0.923v1.846c0 0.492-0.431 0.923-0.923 0.923z"></path>
</svg>
