<!-- Generated by IcoMoon.io -->
<svg version="1.1" xmlns="http://www.w3.org/2000/svg" width="32" height="32" viewBox="0 0 32 32">
<title>salesforce1</title>
<path d="M13.354 7.323c1.046-1.046 2.462-1.723 4.062-1.723 2.092 0 3.938 1.169 4.923 2.892 0.862-0.369 1.785-0.615 2.769-0.615 3.815 0 6.892 3.077 6.892 6.892s-3.077 6.892-6.892 6.892c-0.492 0-0.923-0.062-1.354-0.123-0.862 1.538-2.523 2.585-4.431 2.585-0.8 0-1.538-0.185-2.215-0.492-0.862 2.031-2.892 3.446-5.292 3.446-2.462 0-4.615-1.538-5.415-3.754-0.369 0.062-0.738 0.123-1.108 0.123-2.954 0-5.354-2.4-5.354-5.354 0-1.969 1.046-3.692 2.646-4.615-0.308-0.738-0.492-1.6-0.492-2.462 0-3.385 2.769-6.154 6.215-6.154 2.154 0.062 3.938 0.985 5.046 2.462z"></path>
</svg>
