<!-- Generated by IcoMoon.io -->
<svg version="1.1" xmlns="http://www.w3.org/2000/svg" width="32" height="32" viewBox="0 0 32 32">
<title>save</title>
<path d="M22.831 2.462v8.369c0 0.615-0.492 1.169-1.169 1.169h-13.108c-0.615 0-1.169-0.492-1.169-1.169v-8.369h-2.462c-1.354 0-2.462 1.108-2.462 2.462v22.154c0 1.354 1.108 2.462 2.462 2.462h22.154c1.354 0 2.462-1.108 2.462-2.462v-20.185l-4.431-4.431h-2.277zM27.138 25.908c0 0.615-0.492 1.169-1.169 1.169h-19.877c-0.615 0-1.169-0.492-1.169-1.169v-10.277c0-0.615 0.492-1.169 1.169-1.169h19.877c0.615 0 1.169 0.492 1.169 1.169v10.277z"></path>
<path d="M15.262 8.369c0 0.615 0.492 1.169 1.169 1.169h2.831c0.615 0 1.169-0.492 1.169-1.169v-5.908h-5.108l-0.062 5.908z"></path>
</svg>
