<!-- Generated by IcoMoon.io -->
<svg version="1.1" xmlns="http://www.w3.org/2000/svg" width="32" height="32" viewBox="0 0 32 32">
<title>screen</title>
<path d="M30.769 3.692c0-1.354-1.108-2.462-2.462-2.462h-24.615c-1.354 0-2.462 1.108-2.462 2.462v17.046c0 1.354 1.108 2.462 2.462 2.462h24.615c1.354 0 2.462-1.108 2.462-2.462v-17.046zM27.077 18.585c0 0.492-0.431 0.923-0.923 0.923h-20.308c-0.492 0-0.923-0.431-0.923-0.923v-12.738c0-0.492 0.431-0.923 0.923-0.923h20.308c0.492 0 0.923 0.431 0.923 0.923v12.738zM11.692 27.077c-1.354 0-2.462 1.108-2.462 2.462v0.308c0 0.492 0.431 0.923 0.923 0.923h11.692c0.492 0 0.923-0.431 0.923-0.923v-0.308c0-1.354-1.108-2.462-2.462-2.462h-8.615z"></path>
<path d="M11.077 16.431h-2.523c-0.369 0-0.615-0.308-0.615-0.615v-7.2c0-0.369 0.246-0.615 0.615-0.615h2.523c0.308 0 0.615 0.246 0.615 0.615v7.2c0 0.369-0.308 0.615-0.615 0.615zM23.446 16.431h-8.185c-0.369 0-0.615-0.246-0.615-0.615v-7.2c0-0.369 0.246-0.615 0.615-0.615h8.185c0.308 0 0.615 0.246 0.615 0.615v7.2c0 0.369-0.308 0.615-0.615 0.615z"></path>
</svg>
