<!-- Generated by IcoMoon.io -->
<svg version="1.1" xmlns="http://www.w3.org/2000/svg" width="32" height="32" viewBox="0 0 32 32">
<title>sentiment-negative</title>
<path d="M16 1.231c-8.123 0-14.769 6.646-14.769 14.831s6.646 14.831 14.769 14.831 14.769-6.646 14.769-14.831-6.646-14.831-14.769-14.831zM10.462 9.231c1.046 0 1.846 1.108 1.846 2.462s-0.8 2.462-1.846 2.462-1.846-1.108-1.846-2.462 0.8-2.462 1.846-2.462zM8.615 23.815c0.308-3.754 3.077-6.892 7.446-6.892 4.308 0 7.015 3.138 7.323 6.892h-14.769zM21.538 14.154c-1.046 0-1.846-1.108-1.846-2.462s0.8-2.462 1.846-2.462 1.846 1.108 1.846 2.462-0.8 2.462-1.846 2.462z"></path>
</svg>
