<!-- Generated by IcoMoon.io -->
<svg version="1.1" xmlns="http://www.w3.org/2000/svg" width="32" height="32" viewBox="0 0 32 32">
<title>settings</title>
<path d="M16.062 11.754c-2.4 0-4.308 1.908-4.308 4.308s1.908 4.308 4.308 4.308 4.308-1.908 4.308-4.308-1.908-4.308-4.308-4.308z"></path>
<path d="M28.985 19.938l-2.277-1.908c0.123-0.677 0.185-1.415 0.185-2.092s-0.062-1.415-0.185-2.092l2.277-1.908c0.738-0.615 0.985-1.723 0.492-2.585l-0.985-1.723c-0.369-0.615-1.046-0.985-1.785-0.985-0.246 0-0.492 0.062-0.677 0.123l-2.831 1.046c-1.108-0.985-2.338-1.662-3.631-2.092l-0.492-2.892c-0.185-0.985-1.046-1.538-2.031-1.538h-1.969c-0.985 0-1.846 0.554-2.031 1.538l-0.492 2.831c-1.354 0.431-2.585 1.169-3.692 2.092l-2.831-1.046c-0.246-0.062-0.431-0.123-0.677-0.123-0.738 0-1.415 0.369-1.785 0.985l-0.985 1.723c-0.492 0.862-0.308 1.969 0.492 2.585l2.277 1.908c-0.123 0.677-0.185 1.415-0.185 2.092 0 0.738 0.062 1.415 0.185 2.092l-2.277 1.908c-0.738 0.615-0.985 1.723-0.492 2.585l0.985 1.723c0.369 0.615 1.046 0.985 1.785 0.985 0.246 0 0.492-0.062 0.677-0.123l2.831-1.046c1.108 0.985 2.338 1.662 3.631 2.092l0.492 2.954c0.185 0.985 0.985 1.662 2.031 1.662h1.969c0.985 0 1.846-0.738 2.031-1.723l0.492-2.954c1.415-0.492 2.708-1.231 3.815-2.277l2.646 1.046c0.246 0.062 0.492 0.123 0.738 0.123 0.738 0 1.415-0.369 1.785-0.985l0.923-1.6c0.554-0.677 0.308-1.785-0.431-2.4zM16.062 22.831c-3.754 0-6.769-3.015-6.769-6.769s3.015-6.769 6.769-6.769 6.769 3.015 6.769 6.769-3.015 6.769-6.769 6.769z"></path>
</svg>
