<!-- Generated by IcoMoon.io -->
<svg version="1.1" xmlns="http://www.w3.org/2000/svg" width="32" height="32" viewBox="0 0 32 32">
<title>setup</title>
<path d="M28.8 19.938l-2.277-1.908c0.123-0.677 0.185-1.415 0.185-2.092s-0.062-1.415-0.185-2.092l2.277-1.908c0.738-0.615 0.985-1.723 0.492-2.585l-0.985-1.785c-0.369-0.615-1.046-0.985-1.785-0.985-0.246 0-0.492 0.062-0.677 0.123l-2.769 1.046c-1.108-0.985-2.338-1.662-3.569-2.092l-0.492-2.892c-0.185-0.985-1.046-1.538-2.031-1.538h-1.969c-0.985 0-1.846 0.554-2.031 1.538l-0.492 2.831c-1.354 0.431-2.523 1.169-3.631 2.092l-2.708-1.046c-0.246-0.062-0.431-0.123-0.677-0.123-0.738 0-1.415 0.369-1.785 0.985l-0.985 1.723c-0.492 0.862-0.308 1.969 0.492 2.585l2.277 1.908c-0.123 0.677-0.185 1.415-0.185 2.092 0 0.738 0.062 1.415 0.185 2.092l-2.277 1.908c-0.738 0.615-0.985 1.723-0.492 2.585l0.985 1.846c0.369 0.615 1.046 0.985 1.785 0.985 0.246 0 0.492-0.062 0.677-0.123l2.769-1.046c1.108 0.985 2.338 1.662 3.569 2.092l0.492 2.954c0.185 0.985 0.985 1.662 2.031 1.662h1.969c0.985 0 1.846-0.738 2.031-1.723l0.492-2.954c1.415-0.492 2.646-1.231 3.754-2.277l2.585 1.046c0.246 0.062 0.492 0.123 0.738 0.123 0.738 0 1.415-0.369 1.785-0.985l0.923-1.6c0.492-0.738 0.246-1.846-0.492-2.462zM16.062 22.831c-3.692 0-6.708-3.015-6.708-6.769s2.954-6.769 6.708-6.769 6.708 3.015 6.708 6.769-3.015 6.769-6.708 6.769z"></path>
<path d="M17.846 11.077h-2.831c-0.431 0-0.8 0.246-0.923 0.615l-1.723 4.431c-0.123 0.308 0.123 0.677 0.492 0.677h2.892l-1.046 3.692c-0.123 0.369 0.308 0.554 0.554 0.308l4.369-5.108c0.308-0.308 0.062-0.8-0.369-0.8h-2.154l1.908-3.015c0.185-0.308-0.062-0.738-0.431-0.738h-0.738z"></path>
</svg>
