<!-- Generated by IcoMoon.io -->
<svg version="1.1" xmlns="http://www.w3.org/2000/svg" width="32" height="32" viewBox="0 0 32 32">
<title>setup-modal</title>
<path d="M29.846 1.231h-27.692c-0.492 0-0.923 0.431-0.923 0.923v19.938c0 0.492 0.431 0.923 0.923 0.923h27.692c0.492 0 0.923-0.431 0.923-0.923v-19.938c0-0.492-0.431-0.923-0.923-0.923z"></path>
<path d="M14.769 28.308c0 1.359-1.102 2.462-2.462 2.462s-2.462-1.102-2.462-2.462c0-1.359 1.102-2.462 2.462-2.462s2.462 1.102 2.462 2.462z"></path>
<path d="M7.385 28.308c0 1.359-1.102 2.462-2.462 2.462s-2.462-1.102-2.462-2.462c0-1.359 1.102-2.462 2.462-2.462s2.462 1.102 2.462 2.462z"></path>
<path d="M19.692 27.077c0.677 0 1.231 0.554 1.231 1.231s-0.554 1.231-1.231 1.231-1.231-0.554-1.231-1.231 0.554-1.231 1.231-1.231zM19.692 25.846c-1.354 0-2.462 1.108-2.462 2.462s1.108 2.462 2.462 2.462 2.462-1.108 2.462-2.462-1.108-2.462-2.462-2.462z"></path>
<path d="M29.538 28.308c0 1.359-1.102 2.462-2.462 2.462s-2.462-1.102-2.462-2.462c0-1.359 1.102-2.462 2.462-2.462s2.462 1.102 2.462 2.462z"></path>
</svg>
