<!-- Generated by IcoMoon.io -->
<svg version="1.1" xmlns="http://www.w3.org/2000/svg" width="32" height="32" viewBox="0 0 32 32">
<title>setup-assistant-guide</title>
<path d="M7.077 15.323c0-0.246-0.308-0.369-0.492-0.246l-2.769 2.277c-0.123 0.123-0.123 0.308-0.123 0.492v9.785c0 0.615 0.862 0.923 1.415 0.492l4.492-3.508c0.123-0.123 0.185-0.246 0.062-0.431-1.108-1.662-2.215-4.431-2.585-8.862zM13.046 24.492c0.123 0.062 0.246 0.123 0.369 0.123h5.108c0.123 0 0.246-0.062 0.369-0.123 0.738-0.492 3.692-2.954 3.692-11.323 0-3.877-1.108-6.585-2.4-8.431-1.908-2.708-4.185-3.508-4.185-3.508s-2.338 0.8-4.246 3.569c-1.292 1.846-2.338 4.492-2.338 8.369 0 8.369 2.892 10.831 3.631 11.323zM15.938 8c2.031 0 3.692 1.662 3.692 3.692s-1.662 3.692-3.692 3.692-3.692-1.662-3.692-3.692 1.662-3.692 3.692-3.692zM28.123 17.354l-2.708-2.277c-0.185-0.185-0.492-0.062-0.492 0.246-0.369 4.431-1.477 7.2-2.523 8.923-0.062 0.123-0.062 0.308 0.062 0.431l4.492 3.508c0.554 0.431 1.354 0.123 1.354-0.492v-9.846c0-0.185 0-0.369-0.185-0.492zM19.815 27.385c-0.123-0.185-0.308-0.308-0.492-0.308h-6.769c-0.185 0-0.431 0.123-0.492 0.308-0.246 0.369-0.615 1.046-0.862 1.908-0.185 0.738 0.431 1.477 1.231 1.477h7.015c0.8 0 1.415-0.738 1.231-1.477-0.246-0.923-0.615-1.6-0.862-1.908z"></path>
</svg>
