<!-- Generated by IcoMoon.io -->
<svg version="1.1" xmlns="http://www.w3.org/2000/svg" width="32" height="32" viewBox="0 0 32 32">
<title>share-mobile</title>
<path d="M25.82 31.039c1.354 0 2.462-1.107 2.462-2.462v-16.57c0-1.354-1.108-2.462-2.462-2.462h-4.615c-0.492 0-0.923 0.431-0.923 0.923v1.846c0 0.492 0.431 0.923 0.923 0.923h2.462c0.493 0 0.923 0.431 0.923 0.924v12.261c0 0.492-0.43 0.923-0.923 0.923h-15.38c-0.492 0-0.923-0.431-0.923-0.923v-12.261c0-0.493 0.431-0.924 0.923-0.924h2.462c0.492 0 0.923-0.43 0.923-0.923v-1.846c0-0.492-0.431-0.923-0.923-0.923h-4.615c-1.354 0-2.462 1.108-2.462 2.462v16.569c0 1.353 1.108 2.462 2.462 2.462l19.687 0.001z"></path>
<path d="M17.817 19.014v-11.945h3.63c0.615 0 0.923-0.554 0.553-0.862l-5.538-5.108c-0.246-0.185-0.615-0.185-0.861 0l-5.538 5.108c-0.37 0.369-0.062 0.862 0.553 0.862h3.508v11.946c0 0.494 0.431 0.986 0.923 0.986h1.846c0.494-0.001 0.924-0.493 0.924-0.986z"></path>
</svg>
