<!-- Generated by IcoMoon.io -->
<svg version="1.1" xmlns="http://www.w3.org/2000/svg" width="32" height="32" viewBox="0 0 32 32">
<title>share-file</title>
<path d="M25.231 9.785h4.8c0.246 0 0.431-0.308 0.246-0.554l-5.108-5.108c-0.246-0.185-0.554 0-0.554 0.246v4.8c0 0.369 0.246 0.615 0.615 0.615zM30.154 12.246h-6.769c-0.677 0-1.231-0.554-1.231-1.231v-6.769c0-0.369-0.246-0.615-0.615-0.615h-8.308c-0.492 0-0.923 0.431-0.923 0.923v2.462c0 0.246 0.123 0.492 0.246 0.677l3.446 3.446c0.492 0.492 0.862 1.169 0.985 1.908 0.123 0.985-0.185 1.908-0.862 2.646l-0.985 0.923c-0.308 0.308-0.615 0.492-0.985 0.677 0.431 0.185 0.923 0.308 1.415 0.369 1.6 0.123 2.892 1.477 2.892 3.138v1.354c0 0.862-0.431 1.723-1.046 2.277-0.615 0.615-1.538 0.862-2.4 0.8-0.677-0.062-1.292-0.185-1.969-0.308-0.369-0.123-0.738 0.185-0.738 0.615v1.908c0 0.492 0.431 0.923 0.923 0.923h16.615c0.492 0 0.923-0.431 0.923-0.923v-14.523c0-0.369-0.246-0.615-0.615-0.677zM16 22.031v-1.354c0-0.369-0.308-0.615-0.677-0.677-3.323-0.308-6.092-3.138-6.092-6.646v-0.738c0-0.369 0.492-0.615 0.738-0.308l2.462 2.462c0.246 0.246 0.677 0.246 0.923 0l0.923-0.923c0.246-0.246 0.246-0.677 0-0.923l-5.969-5.969c-0.246-0.246-0.677-0.246-0.923 0l-5.969 5.969c-0.246 0.246-0.246 0.677 0 0.923l0.923 0.923c0.246 0.246 0.677 0.308 0.923 0.062l2.585-2.462c0.308-0.308 0.862-0.062 0.862 0.308v1.169c0 4.431 3.877 8.492 8.554 8.862 0.431 0 0.738-0.308 0.738-0.677z"></path>
</svg>
