<!-- Generated by IcoMoon.io -->
<svg version="1.1" xmlns="http://www.w3.org/2000/svg" width="32" height="32" viewBox="0 0 32 32">
<title>shift-ui</title>
<path d="M17.108 25.046h12.431c0.677 0 1.231 0.554 1.231 1.231v3.508c0 0.677-0.554 1.231-1.231 1.231h-12.431c-0.677 0-1.231-0.554-1.231-1.231v-3.508c0-0.677 0.554-1.231 1.231-1.231zM2.462 10.769h27.077c0.677 0 1.231 0.554 1.231 1.231v8.369c0 0.677-0.554 1.231-1.231 1.231h-27.077c-0.677 0-1.231-0.554-1.231-1.231v-8.369c0-0.677 0.554-1.231 1.231-1.231zM2.462 1.415h12.431c0.677 0 1.231 0.554 1.231 1.231v3.508c0 0.677-0.554 1.231-1.231 1.231h-12.431c-0.677 0-1.231-0.554-1.231-1.231v-3.508c0-0.677 0.554-1.231 1.231-1.231z"></path>
</svg>
