<!-- Generated by IcoMoon.io -->
<svg version="1.1" xmlns="http://www.w3.org/2000/svg" width="32" height="32" viewBox="0 0 32 32">
<title>shift-pattern-entry</title>
<path d="M16.862 1.231c0.004 0 0.008 0 0.012 0 0.537 0 0.972 0.435 0.972 0.972 0 0.004 0 0.009 0 0.013v-0.001 6.892c-0.005 0.060-0.008 0.129-0.008 0.199 0 1.322 1.072 2.394 2.394 2.394 0.070 0 0.139-0.003 0.208-0.009l-0.009 0.001h6.892c0.004 0 0.008 0 0.012 0 0.537 0 0.972 0.435 0.972 0.972 0 0.004 0 0.009 0 0.013v-0.001 15.138c-0.024 1.622-1.332 2.93-2.952 2.954h-18.71c-1.622-0.024-2.93-1.332-2.954-2.952v-23.633c0.024-1.622 1.332-2.93 2.952-2.954h10.217zM22.271 25.022h-5.778c-0.316 0-0.572 0.256-0.572 0.572v0 1.631c0 0.316 0.256 0.572 0.572 0.572v0h5.778c0.316 0 0.572-0.256 0.572-0.572v0-1.631c0-0.316-0.256-0.572-0.572-0.572v0zM22.271 18.382h-12.591c-0.316 0-0.572 0.256-0.572 0.572v0 3.889c0 0.316 0.256 0.572 0.572 0.572v0h12.591c0.316 0 0.572-0.256 0.572-0.572v0-3.889c0-0.316-0.256-0.572-0.572-0.572v0zM15.458 14.031h-5.778c-0.316 0-0.572 0.256-0.572 0.572v0 1.631c0 0.316 0.256 0.572 0.572 0.572v0h5.778c0.316 0 0.572-0.256 0.572-0.572v0-1.631c0-0.316-0.256-0.572-0.572-0.572v0zM21.046 1.231c0.006 0 0.013 0 0.021 0 0.202 0 0.388 0.070 0.535 0.186l-0.002-0.001 6.523 6.523c0.115 0.145 0.185 0.331 0.185 0.533 0 0.007 0 0.014 0 0.022v-0.001c0 0.001 0 0.002 0 0.003 0 0.386-0.296 0.703-0.674 0.736h-5.234c-1.142-0.033-2.059-0.95-2.092-2.089v-5.234c0.033-0.381 0.35-0.677 0.736-0.677 0.001 0 0.002 0 0.003 0v0z"></path>
</svg>
