<!-- Generated by IcoMoon.io -->
<svg version="1.1" xmlns="http://www.w3.org/2000/svg" width="32" height="32" viewBox="0 0 32 32">
<title>skip</title>
<path d="M24.308 19.877v0.431c0 0.615 0.431 0.615 0.8 0.246l3.015-3.015c0.308-0.369 0.923-0.369 1.292 0l1.292 1.292c0.369 0.308 0.369 0.923 0 1.292l-7.938 7.938c-0.308 0.308-0.8 0.308-1.108 0l-8-8c-0.308-0.369-0.308-0.8 0.062-1.169l1.354-1.354c0.369-0.369 0.923-0.431 1.292-0.062l3.015 3.015c0.431 0.431 0.8 0.554 1.046 0.062 0.062-0.185 0.062-0.677 0.062-0.677v-4.492c0-4.369-3.508-7.877-7.877-7.877s-7.877 3.446-7.877 7.815v8.185c0 0.492-0.431 0.862-0.923 0.862h-1.969c-0.492 0-0.862-0.308-0.862-0.8v-8.246c0-6.4 5.169-11.631 11.631-11.631s11.631 5.231 11.631 11.631l0.062 4.554z"></path>
</svg>
