<!-- Generated by IcoMoon.io -->
<svg version="1.1" xmlns="http://www.w3.org/2000/svg" width="32" height="32" viewBox="0 0 32 32">
<title>skip-back</title>
<path d="M16 4.862v-3.262c0-0.308-0.369-0.492-0.677-0.308l-6.338 5.231c-0.246 0.185-0.246 0.554 0 0.738l6.338 5.169c0.246 0.246 0.677 0 0.677-0.246v-3.323c4.923 0 8.985 4 8.985 8.985s-4.062 8.923-8.985 8.923-8.985-4-8.985-8.985c0-1.415 0.308-2.769 0.923-4 0 0 0-0.062 0.062-0.123 0.123-0.246 0.246-0.554 0.369-0.738 0.185-0.308 0.369-0.8 0-1.108s-1.908-1.6-2.031-1.662c-0.123-0.062-0.554-0.492-0.985 0.123-0.246 0.369-0.554 0.923-0.8 1.354 0 0.062-0.062 0.062-0.062 0.123-0.123 0.185-0.185 0.369-0.246 0.431-0.8 1.662-1.231 3.569-1.231 5.6 0 7.138 5.785 12.923 12.923 12.923s12.923-5.785 12.923-12.923-5.723-12.923-12.862-12.923z"></path>
</svg>
