<!-- Generated by IcoMoon.io -->
<svg version="1.1" xmlns="http://www.w3.org/2000/svg" width="32" height="32" viewBox="0 0 32 32">
<title>smiley-and-people</title>
<path d="M30.769 16.062c0 8.185-6.618 14.831-14.769 14.831s-14.769-6.646-14.769-14.831 6.618-14.831 14.769-14.831 14.769 6.646 14.769 14.831zM10.462 9.231c-1.030 0-1.846 1.087-1.846 2.462s0.816 2.462 1.846 2.462 1.846-1.087 1.846-2.462-0.816-2.462-1.846-2.462zM21.538 9.231c-1.030 0-1.846 1.087-1.846 2.462s0.816 2.462 1.846 2.462 1.846-1.087 1.846-2.462-0.816-2.462-1.846-2.462zM6.769 17.846c0.389 4.704 3.79 8.615 9.182 8.615s8.89-3.911 9.279-8.615h-18.462z"></path>
</svg>
