<!-- Generated by IcoMoon.io -->
<svg version="1.1" xmlns="http://www.w3.org/2000/svg" width="32" height="32" viewBox="0 0 32 32">
<title>socialshare</title>
<path d="M25.169 19.692c-1.6 0-3.015 0.677-4 1.723l-8.985-4.492c0.062-0.308 0.062-0.615 0.062-0.985 0-0.308-0.062-0.677-0.062-0.985l8.985-4.492c0.985 1.108 2.462 1.785 4.062 1.785 3.077 0 5.538-2.462 5.538-5.538s-2.462-5.538-5.538-5.538-5.538 2.462-5.538 5.538v0.369l-9.292 4.677c-1.046-0.8-2.277-1.292-3.692-1.292-3.077 0-5.538 2.462-5.538 5.538s2.462 5.538 5.538 5.538c1.415 0 2.646-0.492 3.631-1.354l9.292 4.615v0.431c0 3.077 2.462 5.538 5.538 5.538s5.538-2.462 5.538-5.538-2.462-5.538-5.538-5.538z"></path>
</svg>
