<!-- Generated by IcoMoon.io -->
<svg version="1.1" xmlns="http://www.w3.org/2000/svg" width="32" height="32" viewBox="0 0 32 32">
<title>sort</title>
<path d="M16.923 9.846c0.369-0.369 0.369-0.923 0-1.292l-7.015-7.077c-0.369-0.369-0.923-0.369-1.292 0l-7.077 7.077c-0.369 0.369-0.369 0.923 0 1.292l1.292 1.292c0.369 0.369 0.923 0.369 1.292 0l2.215-2.215c0.369-0.369 1.046-0.123 1.046 0.431v13.046c0 0.492 0.431 0.923 0.923 0.923h1.846c0.492 0 0.923-0.492 0.923-0.923v-13.046c0-0.554 0.677-0.8 1.046-0.431l2.215 2.215c0.369 0.369 0.923 0.369 1.292 0l1.292-1.292zM30.462 22.154l-1.292-1.231c-0.369-0.369-0.923-0.369-1.292 0l-2.215 2.215c-0.369 0.369-1.046 0.123-1.046-0.431v-13.169c0-0.492-0.431-0.923-0.923-0.923h-1.846c-0.492 0-0.923 0.492-0.923 0.923v13.046c0 0.554-0.677 0.8-1.046 0.431l-2.215-2.215c-0.369-0.369-0.923-0.369-1.292 0l-1.292 1.354c-0.369 0.369-0.369 0.923 0 1.292l7.077 7.077c0.369 0.369 0.923 0.369 1.292 0l7.077-7.077c0.308-0.369 0.308-0.985-0.062-1.292z"></path>
</svg>
