<!-- Generated by IcoMoon.io -->
<svg version="1.1" xmlns="http://www.w3.org/2000/svg" width="32" height="32" viewBox="0 0 32 32">
<title>stage</title>
<path d="M30.831 16c0 1.156-0.937 2.092-2.092 2.092s-2.092-0.937-2.092-2.092c0-1.156 0.937-2.092 2.092-2.092s2.092 0.937 2.092 2.092z"></path>
<path d="M18.031 16c0 1.156-0.937 2.092-2.092 2.092s-2.092-0.937-2.092-2.092c0-1.156 0.937-2.092 2.092-2.092s2.092 0.937 2.092 2.092z"></path>
<path d="M5.415 16c0 1.156-0.937 2.092-2.092 2.092s-2.092-0.937-2.092-2.092c0-1.156 0.937-2.092 2.092-2.092s2.092 0.937 2.092 2.092z"></path>
<path d="M7.138 16c0 4.862 4 8.862 8.862 8.862s8.8-4 8.8-8.862-3.938-8.862-8.8-8.862-8.862 4-8.862 8.862zM21.846 16c0 3.262-2.646 5.908-5.908 5.908s-5.908-2.646-5.908-5.908 2.646-5.908 5.908-5.908 5.908 2.646 5.908 5.908z"></path>
</svg>
