<!-- Generated by IcoMoon.io -->
<svg version="1.1" xmlns="http://www.w3.org/2000/svg" width="32" height="32" viewBox="0 0 32 32">
<title>standard-objects</title>
<path d="M28.431 23.938l-11.569 6.585c-0.615 0.369-1.415 0.369-2.031 0l-11.508-6.585c-0.492-0.246-0.492-0.862 0-1.108l2.708-1.538c0.185-0.123 0.431-0.123 0.615 0l7.015 4c0.677 0.369 1.415 0.554 2.215 0.554s1.538-0.185 2.215-0.554l7.015-4c0.185-0.123 0.431-0.123 0.615 0l2.708 1.538c0.492 0.246 0.492 0.862 0 1.108z"></path>
<path d="M28.431 16.554l-11.569 6.585c-0.615 0.369-1.415 0.369-2.031 0l-11.508-6.585c-0.492-0.246-0.492-0.862 0-1.108l2.708-1.538c0.185-0.123 0.431-0.123 0.615 0l7.015 4c0.677 0.369 1.415 0.554 2.215 0.554s1.538-0.185 2.215-0.554l7.015-4c0.185-0.123 0.431-0.123 0.615 0l2.708 1.538c0.492 0.246 0.492 0.862 0 1.108z"></path>
<path d="M14.954 15.754l-11.569-6.585c-0.492-0.246-0.492-0.862 0-1.108l11.569-6.585c0.615-0.369 1.415-0.369 2.031 0l11.569 6.585c0.492 0.246 0.492 0.862 0 1.108l-11.569 6.585c-0.615 0.308-1.415 0.308-2.031 0z"></path>
</svg>
