<!-- Generated by IcoMoon.io -->
<svg version="1.1" xmlns="http://www.w3.org/2000/svg" width="32" height="32" viewBox="0 0 32 32">
<title>steps</title>
<path d="M27.323 30.892h-4.308v-2.954h4.308v2.954zM18.646 30.892h-4.308v-2.954h4.308v2.954zM10.031 30.892h-4.308v-2.954h4.308v2.954zM4.246 27.262h-2.954v-4.308h2.954v4.308zM30.708 26.215h-2.954v-4.308h2.954v4.308zM4.246 18.646h-2.954v-4.308h2.954v4.308zM30.708 17.6h-2.954v-4.308h2.954v4.308zM4.246 10.031h-2.954v-4.308h2.954v4.308zM30.708 9.046h-2.954v-4.308h2.954v4.308zM26.215 4.062h-4.308v-2.954h4.308v2.954zM17.6 4.062h-4.308v-2.954h4.308v2.954zM9.046 4.062h-4.308v-2.954h4.308v2.954z"></path>
</svg>
