<!-- Generated by IcoMoon.io -->
<svg version="1.1" xmlns="http://www.w3.org/2000/svg" width="32" height="32" viewBox="0 0 32 32">
<title>strikethrough</title>
<path d="M7.446 11.138c-0.123-0.615-0.185-1.354-0.185-2.092 0-0.8 0.185-1.723 0.554-2.585 0.369-0.923 0.923-1.785 1.723-2.523 0.738-0.738 1.785-1.415 2.954-1.908 1.231-0.492 2.646-0.8 4.369-0.8 1.538 0 3.015 0.185 4.431 0.615 1.108 0.369 2.154 0.985 3.077 1.846 0.369 0.369 0.369 0.985-0.062 1.354l-1.662 1.538c-0.369 0.308-0.923 0.369-1.292 0-0.431-0.431-0.923-0.8-1.477-1.108-0.862-0.431-1.846-0.677-3.015-0.677-1.046 0-1.969 0.123-2.646 0.431s-1.292 0.615-1.723 1.108-0.738 0.923-0.923 1.415-0.246 0.985-0.246 1.354c0 0.677 0.123 1.231 0.308 1.723 0.185 0.431-0.123 0.862-0.554 0.862h-3.015c-0.308 0-0.554-0.308-0.615-0.554zM24.554 20.308h-3.077c-0.431 0-0.738 0.431-0.554 0.8s0.246 0.862 0.246 1.354c0 0.738-0.185 1.415-0.492 2.031-0.369 0.615-0.8 1.046-1.354 1.477-0.554 0.369-1.169 0.677-1.846 0.862s-1.292 0.308-1.969 0.308c-1.169 0-2.277-0.246-3.323-0.738-0.8-0.369-1.477-0.862-2.092-1.538-0.308-0.369-0.923-0.431-1.292-0.123l-1.723 1.477c-0.369 0.308-0.431 0.923-0.062 1.292 0.862 0.985 1.969 1.723 3.262 2.215 1.6 0.615 3.323 0.923 5.169 0.923 1.354 0 2.646-0.185 3.815-0.615 1.169-0.369 2.215-0.985 3.138-1.723 0.862-0.738 1.6-1.662 2.092-2.769s0.8-2.277 0.8-3.631c0-0.492 0-0.8-0.062-1.231-0.123-0.123-0.369-0.369-0.677-0.369zM30.708 14.708c-0.123-0.369-0.492-0.554-0.862-0.554h-27.692c-0.431 0-0.738 0.185-0.862 0.554-0.062 0.123-0.062 0.185-0.062 0.308v1.846c0 0.492 0.431 0.985 0.923 0.985h27.692c0.492 0 0.923-0.492 0.923-0.985v-1.846c0-0.123 0-0.185-0.062-0.308z"></path>
</svg>
