<!-- Generated by IcoMoon.io -->
<svg version="1.1" xmlns="http://www.w3.org/2000/svg" width="32" height="32" viewBox="0 0 32 32">
<title>success</title>
<path d="M16 1.231c-8.185 0-14.769 6.585-14.769 14.769s6.585 14.769 14.769 14.769 14.769-6.585 14.769-14.769-6.585-14.769-14.769-14.769zM24.246 12.308l-9.415 9.538c-0.369 0.369-0.985 0.369-1.354 0l-5.169-5.231c-0.369-0.369-0.369-0.985 0-1.354l1.354-1.354c0.369-0.369 0.985-0.369 1.354 0l2.708 2.769c0.246 0.246 0.677 0.246 0.923 0l6.892-7.138c0.369-0.369 0.985-0.369 1.354 0l1.354 1.354c0.431 0.369 0.431 0.985 0 1.415z"></path>
</svg>
