<!-- Generated by IcoMoon.io -->
<svg version="1.1" xmlns="http://www.w3.org/2000/svg" width="32" height="32" viewBox="0 0 32 32">
<title>survey</title>
<path d="M3.218 1.846h21.871c1.102 0.021 1.988 0.919 1.988 2.024 0 0.009 0 0.018 0 0.026v-0.001 2.055c0 0.007 0 0.016 0 0.025 0 1.105-0.886 2.004-1.986 2.024h-21.873c-1.102-0.021-1.988-0.919-1.988-2.024 0-0.009 0-0.018 0-0.026v0.001-2.055c0-0.007 0-0.016 0-0.025 0-1.105 0.886-2.004 1.986-2.024h0.002zM3.169 11.077h12.123c1.079 0.037 1.939 0.921 1.939 2.005 0 0.016 0 0.031-0.001 0.046v-0.002 2.055c0 0.013 0 0.029 0 0.044 0 1.084-0.86 1.968-1.936 2.005h-12.126c-1.079-0.037-1.939-0.921-1.939-2.005 0-0.016 0-0.031 0.001-0.046v0.002-2.055c0-0.013 0-0.029 0-0.044 0-1.084 0.86-1.968 1.936-2.005h0.003zM24 17.231c3.739 0 6.769 3.031 6.769 6.769s-3.031 6.769-6.769 6.769c-3.739 0-6.769-3.031-6.769-6.769v0c0-3.739 3.031-6.769 6.769-6.769v0zM28.308 22.105c0.063-0.085 0.102-0.192 0.102-0.308s-0.038-0.223-0.103-0.309l0.001 0.001-0.689-0.615c-0.087-0.092-0.209-0.149-0.345-0.149s-0.258 0.057-0.344 0.148v0l-3.692 4.135-1.674-1.674c-0.087-0.092-0.209-0.149-0.345-0.149s-0.258 0.057-0.344 0.148v0l-0.689 0.615c-0.083 0.077-0.135 0.186-0.135 0.308s0.052 0.231 0.135 0.307v0l2.363 2.314c0.175 0.18 0.419 0.293 0.689 0.295v0c0.008 0 0.017 0 0.026 0 0.263 0 0.5-0.114 0.663-0.295l0.001-0.001zM3.2 20.308h11.422c-0.349 0.909-0.571 1.961-0.615 3.058l-0.001 0.019c-0.009 0.162-0.014 0.352-0.014 0.543 0 0.9 0.113 1.773 0.325 2.607l-0.016-0.073h-11.102c-1.093-0.027-1.969-0.92-1.969-2.018 0-0.011 0-0.022 0-0.033v0.002-2.055c0-0.009 0-0.020 0-0.031 0-1.098 0.876-1.99 1.967-2.018h0.003z"></path>
</svg>
