<!-- Generated by IcoMoon.io -->
<svg version="1.1" xmlns="http://www.w3.org/2000/svg" width="32" height="32" viewBox="0 0 32 32">
<title>symbols</title>
<path d="M20.615 17.231l0.615-2.462h1.846l-0.615 2.462h-1.846zM20.154 19.077h1.846l-0.462 1.846h1.846l0.462-1.846h2v-1.846h-1.538l0.615-2.462h1.846v-1.846h-1.385l0.462-1.846h-1.846l-0.462 1.846h-1.846l0.462-1.846h-1.846l-0.462 1.846h-2v1.846h1.538l-0.615 2.462h-2.154v1.846h1.692l-0.462 1.846h1.846l0.462-1.846zM2.462 3.692h27.077c0.68 0 1.231 0.551 1.231 1.231v0 22.154c0 0.68-0.551 1.231-1.231 1.231v0h-27.077c-0.68 0-1.231-0.551-1.231-1.231v0-22.154c0-0.68 0.551-1.231 1.231-1.231v0zM14.669 16.498c0.375-0.274 0.674-0.517 0.901-0.73 0.234-0.22 0.436-0.49 0.606-0.812 0.175-0.33 0.262-0.711 0.262-1.142 0-0.552-0.139-1.048-0.417-1.484s-0.669-0.777-1.172-1.023c-0.5-0.246-1.074-0.368-1.719-0.368-0.763 0-1.428 0.143-1.992 0.43-0.562 0.286-1.062 0.704-1.5 1.253l-0.092 0.115 1.282 1.118 0.102-0.115c0.314-0.357 0.629-0.621 0.946-0.792 0.31-0.168 0.682-0.252 1.118-0.252 0.415 0 0.737 0.109 0.972 0.325 0.234 0.214 0.35 0.497 0.35 0.862 0 0.297-0.089 0.543-0.266 0.745-0.194 0.22-0.495 0.477-0.902 0.769-0.459 0.321-0.809 0.62-1.049 0.898-0.255 0.295-0.383 0.667-0.383 1.109v0.443h1.932v-0.172c0-0.194 0.070-0.364 0.215-0.517 0.163-0.172 0.431-0.392 0.805-0.658zM6.154 11.077v6.769h1.846v-6.769h-1.846zM7.077 21.231c0.68 0 1.231-0.551 1.231-1.231s-0.551-1.231-1.231-1.231v0c-0.68 0-1.231 0.551-1.231 1.231s0.551 1.231 1.231 1.231v0zM12.615 21.231c0.68 0 1.231-0.551 1.231-1.231s-0.551-1.231-1.231-1.231v0c-0.68 0-1.231 0.551-1.231 1.231s0.551 1.231 1.231 1.231v0z"></path>
</svg>
