<!-- Generated by IcoMoon.io -->
<svg version="1.1" xmlns="http://www.w3.org/2000/svg" width="32" height="32" viewBox="0 0 32 32">
<title>system-and-global-variable</title>
<path d="M15.385 28.615c0-1.846 0.862-3.2 2.092-4v-1.846c-0.615-0.431-1.108-1.108-1.354-1.846-0.246-1.046 0.123-2.215 0.738-3.077 0.123-0.185 0.369-0.369 0.554-0.615 0.185-0.185 0.431-0.369 0.677-0.431 1.292-0.677 2.769-1.169 4.246-1.169 1.354 0 2.523 0.554 3.323 1.354 1.169-1.169 2.4-1.415 3.138-1.415 0.677 0 1.354 0.123 1.908 0.431v-0.123c0.062-8-6.585-14.646-14.708-14.646s-14.769 6.646-14.769 14.769 6.585 14.769 14.646 14.769c-0.308-0.615-0.492-1.292-0.492-2.154zM27.692 14.523h-3.877c-0.123-3.446-0.923-6.523-2.092-8.862 3.262 1.846 5.477 5.108 5.969 8.862zM17.477 4.862c1.662 1.415 3.138 5.046 3.385 9.723h-3.385v-9.723zM4.308 17.477h3.877c0.123 3.508 0.923 6.523 2.092 8.862-3.262-1.785-5.477-5.046-5.969-8.862zM8.185 14.523h-3.877c0.492-3.815 2.769-7.015 6.031-8.862-1.231 2.338-1.969 5.415-2.154 8.862zM14.523 27.2c-1.662-1.415-3.138-5.046-3.385-9.723h3.385v9.723zM14.523 14.523h-3.385c0.246-4.615 1.723-8.246 3.385-9.723v9.723z"></path>
<path d="M28.554 22.154c0.615 0 1.908-0.554 1.908-2.215s-1.231-1.785-1.6-1.785c-0.738 0-1.477 0.554-2.092 1.662-0.677 1.108-1.415 2.4-1.415 2.4h-0.062c-0.123-0.8-0.308-1.477-0.369-1.785-0.123-0.677-0.923-2.215-2.585-2.215s-3.2 0.985-3.2 0.985c-0.308 0.185-0.492 0.492-0.492 0.862 0 0.554 0.431 1.046 1.046 1.046 0.123 0 0.308-0.062 0.431-0.123 0 0 1.292-0.677 1.538 0 0.123 0.185 0.123 0.431 0.246 0.677 0.369 1.108 0.615 2.4 0.862 3.569l-1.108 1.538s-1.231-0.431-1.846-0.431-1.908 0.554-1.908 2.215 1.231 1.785 1.6 1.785c0.738 0 1.477-0.554 2.092-1.662s1.354-2.4 1.354-2.4c0.185 1.046 0.369 1.846 0.492 2.215 0.431 1.169 1.354 1.908 2.646 1.908 0 0 1.354 0 2.831-0.862 0.369-0.123 0.615-0.554 0.615-0.923 0-0.554-0.431-1.046-1.046-1.046-0.123 0-0.308 0.062-0.431 0.123 0 0-1.108 0.615-1.477 0.123-0.308-0.492-0.492-1.169-0.677-2.092-0.123-0.738-0.369-1.6-0.554-2.523l1.108-1.6c0.246 0.062 1.477 0.554 2.092 0.554z"></path>
</svg>
