<!-- Generated by IcoMoon.io -->
<svg version="1.1" xmlns="http://www.w3.org/2000/svg" width="32" height="32" viewBox="0 0 32 32">
<title>table-settings</title>
<path d="M13.231 12.308h5.538c0.492 0 0.923-0.431 0.923-0.923v-1.846c0-0.492-0.431-0.923-0.923-0.923h-5.538c-0.492 0-0.923 0.431-0.923 0.923v1.846c0 0.492 0.431 0.923 0.923 0.923zM28.615 8.615h-5.538c-0.492 0-0.923 0.431-0.923 0.923v1.846c0 0.492 0.431 0.923 0.923 0.923h5.538c0.492 0 0.923-0.431 0.923-0.923v-1.846c0-0.492-0.431-0.923-0.923-0.923zM3.385 6.154h25.231c0.492 0 0.923-0.431 0.923-0.923v-3.077c0-0.492-0.431-0.923-0.923-0.923h-25.231c-0.492 0-0.923 0.431-0.923 0.923v3.077c0 0.492 0.431 0.923 0.923 0.923zM29.538 16.862v-1.169c0-0.492-0.431-0.923-0.923-0.923h-1.662c0.8 0.431 1.538 0.985 2.154 1.662 0.185 0.123 0.308 0.308 0.431 0.431zM12.308 15.692v1.846c0 0.492 0.431 0.923 0.923 0.923h0.431c0.431-0.738 0.923-1.415 1.538-2.031 0.677-0.677 1.415-1.231 2.154-1.662h-4.123c-0.492 0-0.923 0.431-0.923 0.923zM15.2 30.338c-0.923-0.923-1.662-2.031-2.154-3.2-0.431 0.062-0.738 0.492-0.738 0.923v1.846c0 0.492 0.431 0.923 0.923 0.923h2.462c-0.185-0.185-0.308-0.369-0.492-0.492zM8.923 8.615h-5.538c-0.492 0-0.923 0.431-0.923 0.923v1.846c0 0.492 0.431 0.923 0.923 0.923h5.538c0.492 0 0.923-0.431 0.923-0.923v-1.846c0-0.492-0.431-0.923-0.923-0.923zM8.923 14.769h-5.538c-0.492 0-0.923 0.431-0.923 0.923v1.846c0 0.492 0.431 0.923 0.923 0.923h5.538c0.492 0 0.923-0.431 0.923-0.923v-1.846c0-0.492-0.431-0.923-0.923-0.923zM8.923 27.077h-5.538c-0.492 0-0.923 0.431-0.923 0.923v1.846c0 0.492 0.431 0.923 0.923 0.923h5.538c0.492 0 0.923-0.431 0.923-0.923v-1.846c0-0.492-0.431-0.923-0.923-0.923zM8.923 20.923h-5.538c-0.492 0-0.923 0.431-0.923 0.923v1.846c0 0.492 0.431 0.923 0.923 0.923h5.538c0.492 0 0.923-0.431 0.923-0.923v-1.846c0-0.492-0.431-0.923-0.923-0.923z"></path>
<path d="M22.215 21.538c-1.046 0-1.846 0.8-1.846 1.846s0.8 1.846 1.846 1.846c0.985 0 1.785-0.862 1.846-1.846-0.062-1.046-0.862-1.846-1.846-1.846z"></path>
<path d="M27.385 18.154c-2.892-2.892-7.569-2.892-10.462 0s-2.892 7.569 0 10.462c2.892 2.892 7.569 2.892 10.462 0s2.892-7.569 0-10.462zM27.015 24c0 0.185-0.062 0.308-0.308 0.308-0.246 0.062-0.492 0.062-0.738 0.062-0.062 0-0.062 0.062-0.062 0.062-0.062 0.308-0.246 0.492-0.308 0.8-0.062 0.062-0.062 0.062 0 0.123 0.123 0.246 0.308 0.431 0.431 0.615 0.062 0.123 0.062 0.308-0.062 0.431l-0.8 0.8c-0.123 0.062-0.185 0.062-0.246 0.062s-0.185-0.062-0.185-0.062c-0.185-0.123-0.431-0.308-0.615-0.431 0-0.062-0.062-0.062-0.062-0.062h-0.062c-0.185 0.062-0.492 0.246-0.8 0.308-0.062 0-0.062 0.062-0.062 0.062-0.062 0.246-0.062 0.492-0.062 0.738-0.062 0.185-0.308 0.308-0.308 0.308h-1.169c-0.185 0-0.308-0.062-0.308-0.308-0.062-0.246-0.062-0.492-0.062-0.738 0-0.062-0.062-0.062-0.062-0.062-0.308-0.062-0.492-0.246-0.8-0.308h-0.062c-0.062 0-0.062 0.062-0.062 0.062-0.246 0.123-0.431 0.308-0.615 0.431-0.062 0.062-0.185 0.062-0.185 0.062-0.123 0-0.185 0-0.246-0.062l-0.8-0.8c-0.123-0.123-0.123-0.308-0.062-0.431 0.123-0.185 0.308-0.431 0.431-0.615 0.062-0.062 0-0.062 0-0.123-0.062-0.308-0.246-0.492-0.308-0.8 0-0.062-0.062-0.062-0.062-0.062-0.246-0.062-0.431-0.062-0.677-0.062-0.123-0.062-0.246-0.123-0.308-0.246v-1.354c0.062-0.185 0.185-0.246 0.308-0.246 0.246-0.062 0.431-0.062 0.677-0.062 0.062 0 0.062-0.062 0.062-0.062 0.062-0.308 0.246-0.492 0.308-0.8 0.062-0.062 0.062-0.062 0-0.123-0.123-0.246-0.308-0.431-0.431-0.615-0.062-0.123-0.062-0.308 0.062-0.431l0.8-0.8c0.123-0.062 0.123-0.062 0.246-0.062s0.185 0.062 0.185 0.062c0.246 0.123 0.431 0.308 0.615 0.431l0.062 0.062c0.308-0.062 0.492-0.246 0.8-0.308 0.062 0 0.062-0.062 0.062-0.062 0.062-0.246 0.062-0.431 0.062-0.677 0-0.123 0.123-0.246 0.185-0.308s0.123-0.062 0.185-0.062h1.169s0.062 0 0.062 0.062c0.185 0.062 0.185 0.185 0.185 0.308 0.062 0.246 0.062 0.431 0.062 0.677 0 0.062 0.062 0.062 0.062 0.062 0.308 0.062 0.492 0.246 0.8 0.308h0.062s0-0.062 0.062-0.062c0.185-0.123 0.431-0.308 0.615-0.431 0.062-0.062 0.185-0.062 0.185-0.062 0.062 0 0.185 0.062 0.185 0.062l0.8 0.8c0.123 0.123 0.123 0.308 0.062 0.431-0.123 0.185-0.308 0.431-0.431 0.615v0.123c0.062 0.185 0.246 0.492 0.308 0.8 0 0.062 0.062 0.062 0.062 0.062 0.246 0.062 0.492 0.062 0.738 0.062 0.185 0.062 0.308 0.123 0.308 0.431v1.108z"></path>
</svg>
