<!-- Generated by IcoMoon.io -->
<svg version="1.1" xmlns="http://www.w3.org/2000/svg" width="32" height="32" viewBox="0 0 32 32">
<title>tabset</title>
<path d="M19.446 1.231h-6.892c-0.431 0-0.738 0.369-0.738 0.8v1.538c0 0.431 0.369 0.8 0.738 0.8h6.892c0.431 0 0.738-0.369 0.738-0.8v-1.538c0.062-0.431-0.308-0.8-0.738-0.8zM29.969 1.231h-6.892c-0.431 0-0.8 0.369-0.8 0.8v1.538c0 0.431 0.369 0.8 0.8 0.8h6.892c0.431-0.062 0.8-0.369 0.8-0.8v-1.538c0-0.431-0.369-0.8-0.8-0.8z"></path>
<path d="M29.969 6.4h-19.508c-0.431 0-0.8-0.369-0.8-0.8v-3.569c0-0.431-0.369-0.8-0.8-0.8h-6.831c-0.431 0-0.8 0.369-0.8 0.8v28c0 0.369 0.369 0.738 0.8 0.738h27.938c0.431 0 0.8-0.369 0.8-0.8v-22.769c0-0.431-0.369-0.8-0.8-0.8z"></path>
</svg>
