<!-- Generated by IcoMoon.io -->
<svg version="1.1" xmlns="http://www.w3.org/2000/svg" width="32" height="32" viewBox="0 0 32 32">
<title>textarea</title>
<path d="M27.569 30.462h-23.138c-1.6 0-2.892-1.292-2.892-2.892v-23.138c0-1.6 1.292-2.892 2.892-2.892h23.138c1.6 0 2.892 1.292 2.892 2.892v23.138c0 1.6-1.292 2.892-2.892 2.892zM5.415 6.338v19.262c0 0.554 0.431 0.985 0.985 0.985h19.262c0.554 0 0.985-0.431 0.985-0.985v-19.262c0-0.554-0.431-0.985-0.985-0.985h-19.262c-0.554 0.062-0.985 0.492-0.985 0.985z"></path>
<path d="M21.723 16.615c0.492 0 0.985 0.431 0.985 0.985v4.185c0 0.554-0.431 0.985-0.985 0.985h-4.431c-0.554 0-0.923-0.431-0.985-0.985 0-0.369 0.185-0.615 0.369-0.862l0.923-0.923c0.615-0.615 1.292-1.169 1.908-1.723 0.431-0.431 0.862-0.8 1.354-1.231 0.123-0.123 0.246-0.246 0.369-0.308 0.246-0.123 0.369-0.123 0.492-0.123z"></path>
</svg>
