<!-- Generated by IcoMoon.io -->
<svg version="1.1" xmlns="http://www.w3.org/2000/svg" width="32" height="32" viewBox="0 0 32 32">
<title>text-background-color</title>
<path d="M15.938 9.846l2.646 6.154h-5.538l2.4-6.154h0.492zM29.538 4.923v22.154c0 1.354-1.108 2.462-2.462 2.462h-22.154c-1.354 0-2.462-1.108-2.462-2.462v-22.154c0-1.354 1.108-2.462 2.462-2.462h22.154c1.354 0 2.462 1.108 2.462 2.462zM26.154 25.046l-7.385-18.277c-0.185-0.369-0.492-0.615-0.923-0.615h-4.369c-0.369 0-0.738 0.246-0.862 0.615l-6.769 18.277c-0.123 0.369 0.123 0.8 0.554 0.8h2.523c0.369 0 0.738-0.308 0.862-0.677l1.969-5.477h8.246l2.154 5.477c0.123 0.369 0.492 0.677 0.862 0.677h2.523c0.431 0 0.738-0.431 0.615-0.8z"></path>
</svg>
