<!-- Generated by IcoMoon.io -->
<svg version="1.1" xmlns="http://www.w3.org/2000/svg" width="32" height="32" viewBox="0 0 32 32">
<title>threedots</title>
<path d="M4.923 12.308c2.031 0 3.692 1.662 3.692 3.692s-1.662 3.692-3.692 3.692-3.692-1.662-3.692-3.692 1.662-3.692 3.692-3.692zM16 12.308c2.031 0 3.692 1.662 3.692 3.692s-1.662 3.692-3.692 3.692-3.692-1.662-3.692-3.692 1.662-3.692 3.692-3.692zM27.077 12.308c2.031 0 3.692 1.662 3.692 3.692s-1.662 3.692-3.692 3.692-3.692-1.662-3.692-3.692 1.662-3.692 3.692-3.692z"></path>
</svg>
