<!-- Generated by IcoMoon.io -->
<svg version="1.1" xmlns="http://www.w3.org/2000/svg" width="32" height="32" viewBox="0 0 32 32">
<title>threedots-vertical</title>
<path d="M12.308 27.077c0-2.031 1.662-3.692 3.692-3.692s3.692 1.662 3.692 3.692-1.662 3.692-3.692 3.692-3.692-1.662-3.692-3.692zM12.308 16c0-2.031 1.662-3.692 3.692-3.692s3.692 1.662 3.692 3.692-1.662 3.692-3.692 3.692-3.692-1.662-3.692-3.692zM12.308 4.923c0-2.031 1.662-3.692 3.692-3.692s3.692 1.662 3.692 3.692-1.662 3.692-3.692 3.692-3.692-1.662-3.692-3.692z"></path>
</svg>
