<!-- Generated by IcoMoon.io -->
<svg version="1.1" xmlns="http://www.w3.org/2000/svg" width="32" height="32" viewBox="0 0 32 32">
<title>thunder</title>
<path d="M18.676 1.894c-0.412-0.409-0.98-0.663-1.607-0.663s-1.195 0.253-1.607 0.663l-13.569 13.569c-0.41 0.412-0.663 0.98-0.663 1.606s0.253 1.195 0.663 1.607l7.226 7.227c0.412 0.41 0.98 0.663 1.607 0.663s1.195-0.253 1.607-0.663l13.569-13.569c0.409-0.412 0.662-0.98 0.662-1.607s-0.253-1.195-0.662-1.607l-7.226-7.226zM7.494 3.082c-0.321-0.321-0.884-0.321-1.205 0l-3.202 3.202c-0.321 0.321-0.321 0.884 0 1.205l1.205 1.205c0.321 0.321 0.884 0.321 1.205 0l3.203-3.203c0.321-0.321 0.321-0.884 0-1.205l-1.206-1.204zM19.115 22.314c-0.321 0.321-0.321 0.884 0 1.205l6.993 7.009c0.321 0.321 0.884 0.321 1.206 0l3.215-3.215c0.321-0.321 0.321-0.884 0-1.206l-6.993-7.008c-0.321-0.321-0.885-0.321-1.206 0l-3.214 3.215z"></path>
</svg>
