<!-- Generated by IcoMoon.io -->
<svg version="1.1" xmlns="http://www.w3.org/2000/svg" width="32" height="32" viewBox="0 0 32 32">
<title>tile-card-list</title>
<path d="M8.923 2.462h-5.538c-0.492 0-0.923 0.431-0.923 0.923v10.462c0 0.492 0.431 0.923 0.923 0.923h5.538c0.492 0 0.923-0.431 0.923-0.923v-10.462c0-0.492-0.431-0.923-0.923-0.923zM18.769 2.462h-5.538c-0.492 0-0.923 0.431-0.923 0.923v10.462c0 0.492 0.431 0.923 0.923 0.923h5.538c0.492 0 0.923-0.431 0.923-0.923v-10.462c0-0.492-0.431-0.923-0.923-0.923zM28.615 2.462h-5.538c-0.492 0-0.923 0.431-0.923 0.923v10.462c0 0.492 0.431 0.923 0.923 0.923h5.538c0.492 0 0.923-0.431 0.923-0.923v-10.462c0-0.492-0.431-0.923-0.923-0.923zM8.923 17.231h-5.538c-0.492 0-0.923 0.431-0.923 0.923v10.462c0 0.492 0.431 0.923 0.923 0.923h5.538c0.492 0 0.923-0.431 0.923-0.923v-10.462c0-0.492-0.431-0.923-0.923-0.923zM18.769 17.231h-5.538c-0.492 0-0.923 0.431-0.923 0.923v10.462c0 0.492 0.431 0.923 0.923 0.923h5.538c0.492 0 0.923-0.431 0.923-0.923v-10.462c0-0.492-0.431-0.923-0.923-0.923zM28.615 17.231h-5.538c-0.492 0-0.923 0.431-0.923 0.923v10.462c0 0.492 0.431 0.923 0.923 0.923h5.538c0.492 0 0.923-0.431 0.923-0.923v-10.462c0-0.492-0.431-0.923-0.923-0.923z"></path>
</svg>
