<!-- Generated by IcoMoon.io -->
<svg version="1.1" xmlns="http://www.w3.org/2000/svg" width="32" height="32" viewBox="0 0 32 32">
<title>toggle-panel-bottom</title>
<path d="M28.308 4.923h-24.615c-0.677 0-1.231 0.554-1.231 1.231v19.692c0 0.677 0.554 1.231 1.231 1.231h24.615c0.677 0 1.231-0.554 1.231-1.231v-19.692c0-0.677-0.554-1.231-1.231-1.231zM27.077 24.615h-22.154v-17.231h22.154v17.231z"></path>
<path d="M25.231 23.385h-18.4c-0.369 0-0.615-0.246-0.615-0.615v-6.154c0-0.369 0.246-0.615 0.615-0.615h18.4c0.369 0 0.615 0.246 0.615 0.615v6.154c0 0.369-0.246 0.615-0.615 0.615z"></path>
</svg>
