<!-- Generated by IcoMoon.io -->
<svg version="1.1" xmlns="http://www.w3.org/2000/svg" width="32" height="32" viewBox="0 0 32 32">
<title>topic</title>
<path d="M10.708 21.723c-0.062-0.185-0.246-0.369-0.431-0.431l-1.354-0.369c-0.246-0.062-0.554 0.062-0.677 0.308l-2.338 4c-0.615 1.108-0.246 1.477 0.862 0.862l4.062-2.338c0.246-0.123 0.369-0.431 0.308-0.677l-0.431-1.354zM21.292 10.277c0.062 0.185 0.246 0.369 0.431 0.431l1.354 0.369c0.246 0.062 0.554-0.062 0.677-0.308l2.338-4.062c0.615-1.108 0.246-1.477-0.862-0.862l-4.062 2.338c-0.246 0.123-0.369 0.431-0.308 0.677l0.431 1.415zM8.246 10.831c0.123 0.246 0.431 0.369 0.677 0.308l1.354-0.369c0.185-0.062 0.369-0.246 0.431-0.431l0.369-1.354c0.062-0.246-0.062-0.554-0.308-0.677l-4-2.4c-1.108-0.615-1.477-0.246-0.862 0.862l2.338 4.062zM23.754 21.169c-0.123-0.246-0.431-0.369-0.677-0.308l-1.354 0.369c-0.185 0.062-0.369 0.246-0.431 0.431l-0.369 1.415c-0.062 0.246 0.062 0.554 0.308 0.677l4.062 2.338c1.108 0.615 1.477 0.246 0.862-0.862l-2.4-4.062z"></path>
<path d="M29.969 15.508l-10.092-2.708c-0.369-0.062-0.615-0.369-0.677-0.677l-2.708-10.092c-0.308-1.046-0.738-1.046-1.046 0l-2.708 10.092c-0.062 0.369-0.369 0.615-0.677 0.677l-10.031 2.708c-1.046 0.308-1.046 0.738 0 1.046l10.092 2.708c0.369 0.062 0.615 0.369 0.677 0.677l2.708 10.092c0.308 1.046 0.738 1.046 1.046 0l2.708-10.092c0.062-0.369 0.369-0.615 0.677-0.677l10.092-2.708c0.985-0.308 0.985-0.8-0.062-1.046zM16 18.462c-1.354 0-2.462-1.108-2.462-2.462s1.108-2.462 2.462-2.462 2.462 1.108 2.462 2.462-1.108 2.462-2.462 2.462z"></path>
</svg>
