<!-- Generated by IcoMoon.io -->
<svg version="1.1" xmlns="http://www.w3.org/2000/svg" width="32" height="32" viewBox="0 0 32 32">
<title>trailhead-alt</title>
<path d="M13.668 22.283c-0.024 0.063-0.047 0.114-0.072 0.163l0.004-0.009c-0.153 0.421-0.242 0.906-0.242 1.413 0 1.398 0.676 2.638 1.72 3.41l0.011 0.008c0.972 0.763 1.163 1.083 1.065 1.797-0.12 0.645-0.356 1.217-0.688 1.722l0.011-0.018c-5.325-0.185-10.226-1.85-14.348-4.593l0.101 0.063v-2.277c0-0.572 0-1.126 0.062-1.68h12.375zM30.708 22.283c0.031 0.554 0.062 1.108 0.062 1.68v2.271c-3.543 2.365-7.797 3.952-12.381 4.421l-0.118 0.010c0.141-0.352 0.256-0.766 0.327-1.195l0.005-0.036c0.326-2.295-1.126-3.428-1.994-4.105-0.472-0.317-0.778-0.848-0.778-1.451 0-0.196 0.033-0.385 0.092-0.561l-0.004 0.012c0.156-0.393 0.34-0.731 0.559-1.044l-0.011 0.016h14.24zM13.846 12.055l2.708 3.982-2.56 3.772h-5.415zM16 1.231c7.615 3.287 13.125 10.166 14.431 18.442l0.018 0.137h-3.618l-5.397-7.938c-0.236-0.313-0.607-0.513-1.025-0.513s-0.789 0.2-1.022 0.51l-0.002 0.003-1.335 1.963-3.182-4.677c-0.237-0.31-0.608-0.509-1.025-0.509s-0.787 0.198-1.022 0.506l-0.002 0.003-7.231 10.652h-4.037c1.325-8.413 6.835-15.292 14.293-18.518l0.156-0.060zM20.412 14.769l3.422 5.040h-6.843z"></path>
</svg>
