<!-- Generated by IcoMoon.io -->
<svg version="1.1" xmlns="http://www.w3.org/2000/svg" width="32" height="32" viewBox="0 0 32 32">
<title>travel-and-places</title>
<path d="M28.923 12.923l-2.782-7.483c-0.443-1.428-1.772-2.363-3.249-2.363h-13.785c-1.477 0-2.806 0.935-3.298 2.363l-2.732 7.483c-1.28 0.345-1.846 1.575-1.846 2.954v7.138c0 1.28 1.329 2.388 2.462 2.831v2.482c0 0.807 0.415 1.21 1.245 1.21h3.094c0.8 0 1.2-0.404 1.2-1.21v-2.482h13.538v2.482c0 0.807 0.408 1.21 1.223 1.21h3.097c0.812 0 1.218-0.404 1.218-1.21v-2.506c1.132-0.394 2.462-1.477 2.462-2.806v-7.138c0-1.378-0.566-2.609-1.846-2.954zM6.769 20.923c-1.378 0-2.462-1.083-2.462-2.462s1.083-2.462 2.462-2.462 2.462 1.083 2.462 2.462-1.083 2.462-2.462 2.462zM16.985 12.923h-9.748c-0.345 0-0.566-0.32-0.468-0.615l1.846-5.538c0.049-0.197 0.178-0.615 0.615-0.615h13.538c0.48 0 0.566 0.468 0.615 0.615l1.846 5.538c0.123 0.395-0.074 0.615-0.566 0.615h-7.68zM25.231 20.923c-1.378 0-2.462-1.083-2.462-2.462s1.083-2.462 2.462-2.462 2.462 1.083 2.462 2.462-1.083 2.462-2.462 2.462z"></path>
</svg>
