<!-- Generated by IcoMoon.io -->
<svg version="1.1" xmlns="http://www.w3.org/2000/svg" width="32" height="32" viewBox="0 0 32 32">
<title>turn-off-notifications</title>
<path d="M14.4 16.369c0.369 0.369 0.862 0.369 1.231 0l13.169-12.123c0.246-0.431 0.185-1.169-0.738-1.169h-25.969c-0.677 0-1.231 0.677-0.738 1.231l13.046 12.062z"></path>
<path d="M18.523 23.138c0.308-3.446 3.077-6.277 6.585-6.646 0.308 0 0.615-0.062 0.862-0.062 1.108 0 2.092 0.246 3.015 0.615v-7.631c0-0.615-0.738-0.923-1.169-0.492l-10.215 9.477c-0.677 0.615-1.6 0.985-2.523 0.985s-1.846-0.369-2.523-0.985l-10.215-9.477c-0.492-0.431-1.169-0.123-1.169 0.492v12.062c0 1.538 1.292 2.831 2.831 2.831h14.585c-0.062-0.369-0.062-0.8-0.062-1.169z"></path>
<path d="M25.908 19.077c-2.708 0-4.923 2.215-4.923 4.923s2.215 4.923 4.923 4.923 4.923-2.215 4.923-4.923-2.215-4.923-4.923-4.923zM29.6 24.985c0 0.123-0.123 0.246-0.308 0.246h-6.769c-0.185 0-0.308-0.123-0.308-0.246v-1.969c0-0.123 0.123-0.246 0.308-0.246h6.769c0.185 0 0.308 0.123 0.308 0.246v1.969z"></path>
</svg>
