<!-- Generated by IcoMoon.io -->
<svg version="1.1" xmlns="http://www.w3.org/2000/svg" width="32" height="32" viewBox="0 0 32 32">
<title>type</title>
<path d="M29.538 6.769h-27.077c-0.677 0-1.231 0.554-1.231 1.231v16c0 0.677 0.554 1.231 1.231 1.231h27.077c0.677 0 1.231-0.554 1.231-1.231v-16c0-0.677-0.554-1.231-1.231-1.231zM28.308 22.769h-24.615v-13.538h24.615v13.538z"></path>
<path d="M6.892 13.415h0.615c0.492 0 0.923-0.431 0.923-0.923v-0.615c0-0.492-0.431-0.923-0.923-0.923h-0.615c-0.492 0-0.923 0.431-0.923 0.923v0.615c0 0.492 0.431 0.923 0.923 0.923zM10.4 13.415h0.615c0.492 0 0.923-0.431 0.923-0.923v-0.615c0-0.492-0.431-0.923-0.923-0.923h-0.615c-0.492 0-0.923 0.431-0.923 0.923v0.615c0 0.492 0.431 0.923 0.923 0.923zM17.477 13.415h0.615c0.492 0 0.923-0.431 0.923-0.923v-0.615c0-0.492-0.431-0.923-0.923-0.923h-0.615c-0.492 0-0.923 0.431-0.923 0.923v0.615c0 0.492 0.431 0.923 0.923 0.923zM13.908 13.415h0.615c0.492 0 0.923-0.431 0.923-0.923v-0.615c0-0.492-0.431-0.923-0.923-0.923h-0.615c-0.492 0-0.923 0.431-0.923 0.923v0.615c0 0.492 0.431 0.923 0.923 0.923zM24.554 13.415h0.615c0.492 0 0.923-0.431 0.923-0.923v-0.615c0-0.492-0.431-0.923-0.923-0.923h-0.615c-0.492 0-0.923 0.431-0.923 0.923v0.615c0 0.492 0.431 0.923 0.923 0.923zM20.985 13.415h0.615c0.492 0 0.923-0.431 0.923-0.923v-0.615c0-0.492-0.431-0.923-0.923-0.923h-0.615c-0.492 0-0.923 0.431-0.923 0.923v0.615c0 0.492 0.431 0.923 0.923 0.923zM6.892 17.108h0.615c0.492 0 0.923-0.431 0.923-0.923v-0.615c0-0.492-0.431-0.923-0.923-0.923h-0.615c-0.492 0-0.923 0.431-0.923 0.923v0.615c0 0.492 0.431 0.923 0.923 0.923zM10.4 17.108h0.615c0.492 0 0.923-0.431 0.923-0.923v-0.615c0-0.492-0.431-0.923-0.923-0.923h-0.615c-0.492 0-0.923 0.431-0.923 0.923v0.615c0 0.492 0.431 0.923 0.923 0.923zM17.477 17.108h0.615c0.492 0 0.923-0.431 0.923-0.923v-0.615c0-0.492-0.431-0.923-0.923-0.923h-0.615c-0.492 0-0.923 0.431-0.923 0.923v0.615c0 0.492 0.431 0.923 0.923 0.923zM13.908 17.108h0.615c0.492 0 0.923-0.431 0.923-0.923v-0.615c0-0.492-0.431-0.923-0.923-0.923h-0.615c-0.492 0-0.923 0.431-0.923 0.923v0.615c0 0.492 0.431 0.923 0.923 0.923zM24.554 17.108h0.615c0.492 0 0.923-0.431 0.923-0.923v-0.615c0-0.492-0.431-0.923-0.923-0.923h-0.615c-0.492 0-0.923 0.431-0.923 0.923v0.615c0 0.492 0.431 0.923 0.923 0.923zM20.985 17.108h0.615c0.492 0 0.923-0.431 0.923-0.923v-0.615c0-0.492-0.431-0.923-0.923-0.923h-0.615c-0.492 0-0.923 0.431-0.923 0.923v0.615c0 0.492 0.431 0.923 0.923 0.923zM6.892 20.8h0.615c0.492 0 0.923-0.431 0.923-0.923v-0.615c0-0.492-0.431-0.923-0.923-0.923h-0.615c-0.492 0-0.923 0.431-0.923 0.923v0.615c0 0.492 0.431 0.923 0.923 0.923zM10.4 20.8h11.2c0.492 0 0.923-0.431 0.923-0.923v-0.615c0-0.492-0.431-0.923-0.923-0.923h-11.2c-0.492 0-0.923 0.431-0.923 0.923v0.615c0 0.492 0.431 0.923 0.923 0.923zM24.554 20.8h0.615c0.492 0 0.923-0.431 0.923-0.923v-0.615c0-0.492-0.431-0.923-0.923-0.923h-0.615c-0.492 0-0.923 0.431-0.923 0.923v0.615c0 0.492 0.431 0.923 0.923 0.923z"></path>
</svg>
