<!-- Generated by IcoMoon.io -->
<svg version="1.1" xmlns="http://www.w3.org/2000/svg" width="32" height="32" viewBox="0 0 32 32">
<title>undeprecate</title>
<path d="M29.538 4.308h-27.077c-0.677 0-1.231 0.554-1.231 1.231v16c0 0.677 0.554 1.231 1.231 1.231h9.969c0.615 3.508 3.631 6.154 7.262 6.154s6.708-2.646 7.262-6.154h2.585c0.677 0 1.231-0.554 1.231-1.231v-16c0-0.677-0.554-1.231-1.231-1.231zM18.769 25.415l-3.631-3.631 1.723-1.723 1.908 1.908 4.369-4.369 1.723 1.723-6.092 6.092zM28.308 20.308h-1.354c-0.615-3.508-3.631-6.154-7.262-6.154s-6.708 2.646-7.262 6.154h-8.738v-13.538h24.615v13.538z"></path>
</svg>
