<!-- Generated by IcoMoon.io -->
<svg version="1.1" xmlns="http://www.w3.org/2000/svg" width="32" height="32" viewBox="0 0 32 32">
<title>undelete</title>
<path d="M25.538 12.308h-19.077c-0.492 0-0.923 0.431-0.923 0.923v14.462c0 1.723 1.354 3.077 3.077 3.077h14.769c1.723 0 3.077-1.354 3.077-3.077v-14.462c0-0.492-0.431-0.923-0.923-0.923zM16 28.308v-2.462c2.031 0 3.692-1.662 3.692-3.692s-1.662-3.692-3.692-3.692c-0.985 0-1.908 0.431-2.585 1.108l1.477 1.477c0.185 0.185 0.062 0.554-0.246 0.554h-4.492c-0.185 0-0.308-0.123-0.308-0.308v-4.492c0-0.246 0.308-0.431 0.554-0.246l1.292 1.292c1.169-1.108 2.708-1.785 4.369-1.785 3.385 0 6.154 2.769 6.154 6.154s-2.831 6.092-6.215 6.092zM28 6.154h-7.692v-2.462c0-1.354-1.108-2.462-2.462-2.462h-3.692c-1.354 0-2.462 1.108-2.462 2.462v2.462h-7.692c-0.492 0-0.923 0.431-0.923 0.923v1.846c0 0.492 0.431 0.923 0.923 0.923h24c0.492 0 0.923-0.431 0.923-0.923v-1.846c0-0.492-0.431-0.923-0.923-0.923zM17.846 6.154h-3.692v-1.846c0-0.369 0.246-0.615 0.615-0.615h2.462c0.369 0 0.615 0.246 0.615 0.615v1.846z"></path>
</svg>
