<!-- Generated by IcoMoon.io -->
<svg version="1.1" xmlns="http://www.w3.org/2000/svg" width="32" height="32" viewBox="0 0 32 32">
<title>underline</title>
<path d="M27.385 25.846h-22.769c-0.492 0-0.923 0.431-0.923 0.923v1.846c0 0.492 0.431 0.923 0.923 0.923h22.769c0.492 0 0.923-0.431 0.923-0.923v-1.846c0-0.492-0.431-0.923-0.923-0.923zM15.569 23.385c-4.615-0.246-8.185-4.246-8.185-8.862v-8.369c0-0.677 0.554-1.231 1.231-1.231h1.231c0.677 0 1.231 0.554 1.231 1.231v8.431c0 2.646 1.969 4.923 4.615 5.108 2.892 0.185 5.231-2.092 5.231-4.923v-8.615c0-0.677 0.554-1.231 1.231-1.231h1.231c0.677 0 1.231 0.554 1.231 1.231v8.615c0 4.923-4.123 8.862-9.046 8.615z"></path>
</svg>
