<!-- Generated by IcoMoon.io -->
<svg version="1.1" xmlns="http://www.w3.org/2000/svg" width="32" height="32" viewBox="0 0 32 32">
<title>undo</title>
<path d="M18.646 7.754c6.4 0 11.631 5.169 11.631 11.631s-5.231 11.631-11.631 11.631h-5.046c-0.492 0-0.8-0.369-0.8-0.862v-1.969c0-0.492 0.369-0.923 0.862-0.923h4.985c4.369 0 7.877-3.508 7.877-7.877s-3.508-7.877-7.877-7.877h-8.554s-0.492 0-0.677 0.062c-0.492 0.246-0.369 0.615 0.062 1.046l3.015 3.015c0.369 0.369 0.308 0.923-0.062 1.292l-1.354 1.354c-0.369 0.369-0.8 0.369-1.169 0.062l-8-8c-0.308-0.308-0.308-0.8 0-1.108l7.938-7.938c0.369-0.369 0.985-0.369 1.292 0l1.292 1.292c0.369 0.369 0.369 0.985 0 1.292l-3.015 3.015c-0.369 0.369-0.369 0.8 0.246 0.8h0.431l8.554 0.062z"></path>
</svg>
