<!-- Generated by IcoMoon.io -->
<svg version="1.1" xmlns="http://www.w3.org/2000/svg" width="32" height="32" viewBox="0 0 32 32">
<title>unlock</title>
<path d="M6.154 11.138v0zM25.846 14.154h-16v-2.892c0-3.262 2.462-6.154 5.723-6.338 3.015-0.185 5.538 1.723 6.338 4.431 0.062 0.246 0.308 0.492 0.615 0.492h2.523c0.369 0 0.677-0.369 0.615-0.738-0.985-4.677-5.169-8.123-10.154-7.877-5.231 0.246-9.231 4.738-9.354 9.908v3.015c-1.354 0-2.462 1.108-2.462 2.462v11.692c0 1.354 1.108 2.462 2.462 2.462h19.692c1.354 0 2.462-1.108 2.462-2.462v-11.692c0-1.354-1.108-2.462-2.462-2.462zM18.831 26.277c0.123 0.369-0.185 0.8-0.615 0.8h-4.492c-0.431 0-0.738-0.369-0.615-0.8l1.108-3.692c-0.923-0.615-1.477-1.723-1.231-2.954 0.246-1.169 1.169-2.092 2.4-2.338 1.969-0.369 3.692 1.046 3.692 2.892 0 0.985-0.492 1.908-1.292 2.4l1.046 3.692z"></path>
</svg>
