<!-- Generated by IcoMoon.io -->
<svg version="1.1" xmlns="http://www.w3.org/2000/svg" width="32" height="32" viewBox="0 0 32 32">
<title>user</title>
<path d="M30.769 26.462v1.354c0 1.6-1.354 2.954-2.954 2.954h-23.631c-1.6 0-2.954-1.354-2.954-2.954v-1.354c0-3.569 4.185-5.785 8.123-7.508l0.369-0.185c0.308-0.123 0.615-0.123 0.923 0.062 1.6 1.046 3.385 1.6 5.292 1.6s3.754-0.615 5.292-1.6c0.308-0.185 0.615-0.185 0.923-0.062l0.369 0.185c4.062 1.723 8.246 3.877 8.246 7.508zM16 1.231c4.062 0 7.323 3.631 7.323 8.123s-3.262 8.123-7.323 8.123-7.323-3.631-7.323-8.123 3.262-8.123 7.323-8.123z"></path>
</svg>
