<!-- Generated by IcoMoon.io -->
<svg version="1.1" xmlns="http://www.w3.org/2000/svg" width="32" height="32" viewBox="0 0 32 32">
<title>user-role</title>
<path d="M23.569 16.738c-3.875 0-7.015 3.141-7.015 7.015s3.141 7.015 7.015 7.015c3.875 0 7.015-3.141 7.015-7.015v0c-0.021-3.866-3.149-6.995-7.013-7.015h-0.002zM24.8 24.369c-0.201-0.005-0.391-0.050-0.563-0.127l0.009 0.004-2.646 2.646c-0.143 0.142-0.337 0.234-0.552 0.246h-0.002c-0.018 0.002-0.038 0.003-0.059 0.003-0.202 0-0.381-0.097-0.493-0.247l-0.001-0.002c-0.143-0.153-0.231-0.358-0.231-0.585s0.088-0.432 0.231-0.585v0l2.646-2.646c-0.067-0.163-0.111-0.352-0.123-0.549v-0.005c-0.006-0.061-0.010-0.132-0.010-0.203 0-1.168 0.937-2.116 2.1-2.135h0.002c0.201 0.005 0.391 0.050 0.563 0.127l-0.009-0.004c0.123 0 0.123 0.123 0.062 0.185l-1.231 1.169c-0.057 0.029-0.095 0.087-0.095 0.154s0.038 0.125 0.094 0.153h0.001l0.8 0.8c0.043 0.055 0.11 0.090 0.185 0.090s0.141-0.035 0.184-0.090v0l1.169-1.169c0.062-0.062 0.246-0.062 0.246 0.062 0.060 0.162 0.103 0.349 0.122 0.544l0.001 0.009c-0.019 1.199-0.995 2.163-2.197 2.163-0.072 0-0.142-0.003-0.212-0.010l0.009 0.001z"></path>
<path d="M21.292 9.169c0 4.384-3.554 7.938-7.938 7.938s-7.938-3.554-7.938-7.938c0-4.384 3.554-7.938 7.938-7.938s7.938 3.554 7.938 7.938z"></path>
<path d="M15.508 30.646c1.354 0 0.615-0.923 0.615-0.923-1.303-1.613-2.092-3.689-2.092-5.948 0-0.007 0-0.015 0-0.022v0.001c0-0.013 0-0.029 0-0.044 0-1.413 0.318-2.753 0.886-3.95l-0.024 0.056c0.027-0.073 0.069-0.135 0.123-0.184v0c0.431-0.862-0.431-0.923-0.431-0.923-0.293-0.041-0.631-0.064-0.975-0.064-0.068 0-0.137 0.001-0.204 0.003h0.010c-6.045 0.024-11.044 4.471-11.93 10.271l-0.008 0.067c0 0.615 0.185 1.723 2.092 1.723h11.754c0.123-0.062 0.123-0.062 0.185-0.062z"></path>
</svg>
