<!-- Generated by IcoMoon.io -->
<svg version="1.1" xmlns="http://www.w3.org/2000/svg" width="32" height="32" viewBox="0 0 32 32">
<title>variable</title>
<path d="M26.215 10.954c1.477 0 4.431-1.231 4.431-5.169s-2.831-4.185-3.754-4.185c-1.723 0-3.446 1.231-4.985 3.877-1.538 2.708-3.262 5.6-3.262 5.6h-0.062c-0.369-1.908-0.677-3.446-0.8-4.123-0.308-1.662-2.215-5.169-6.092-5.169-3.938 0-7.508 2.277-7.508 2.277-0.615 0.431-1.046 1.169-1.046 2.031 0 1.292 1.046 2.4 2.4 2.4 0.369 0 0.738-0.123 1.046-0.246 0 0 2.954-1.662 3.631 0 0.185 0.492 0.369 1.046 0.554 1.662 0.738 2.585 1.477 5.6 2.031 8.308l-2.585 3.692s-2.892-1.046-4.369-1.046-4.431 1.231-4.431 5.169 2.831 4.185 3.754 4.185c1.723 0 3.446-1.231 4.985-3.877 1.538-2.708 3.262-5.6 3.262-5.6 0.492 2.462 0.923 4.369 1.169 5.231 0.985 2.769 3.262 4.431 6.215 4.431 0 0 3.077 0 6.708-2.031 0.862-0.369 1.477-1.231 1.477-2.215 0-1.292-1.046-2.4-2.4-2.4-0.369 0-0.738 0.123-1.046 0.246 0 0-2.585 1.477-3.446 0.308-0.615-1.231-1.169-2.831-1.6-4.8-0.369-1.723-0.8-3.815-1.231-5.846l2.646-3.815c-0.062 0.062 2.831 1.108 4.308 1.108z"></path>
</svg>
