<!-- Generated by IcoMoon.io -->
<svg version="1.1" xmlns="http://www.w3.org/2000/svg" width="32" height="32" viewBox="0 0 32 32">
<title>waits</title>
<path d="M30.769 11.323c0-0.492-0.431-0.923-0.923-0.923h-12.923c-0.492 0-0.923 0.431-0.923 0.923v1.846c0 0.492 0.431 0.923 0.923 0.923h8.8l-9.538 11.631v0.062c-0.123 0.123-0.185 0.308-0.185 0.492v1.846c0 0.492 0.431 0.923 0.923 0.923h12.923c0.492 0 0.923-0.431 0.923-0.923v-1.846c0-0.492-0.431-0.923-0.923-0.923h-8.615l9.354-11.446c0.123-0.185 0.185-0.431 0.185-0.615v-1.969zM16 3.877c0-0.492-0.431-0.923-0.923-0.923h-12.923c-0.492 0-0.923 0.431-0.923 0.923v1.846c0 0.492 0.431 0.923 0.923 0.923h8.8l-9.538 11.631v0.062c-0.123 0.123-0.185 0.308-0.185 0.492v1.846c0 0.492 0.431 0.923 0.923 0.923h12.923c0.492 0 0.923-0.431 0.923-0.923v-1.846c0-0.492-0.431-0.923-0.923-0.923h-8.615l9.354-11.446c0.123-0.185 0.185-0.431 0.185-0.615v-1.969z"></path>
</svg>
