<!-- Generated by IcoMoon.io -->
<svg version="1.1" xmlns="http://www.w3.org/2000/svg" width="32" height="32" viewBox="0 0 32 32">
<title>watchlist</title>
<path d="M26.4 4.308h0.123l0.185 0.062c0.36 0.099 0.659 0.318 0.858 0.61l0.003 0.005 0.123 0.185 2.585 4.554c0.923 1.662 0.123 2.092-0.677 2.585s-1.538 0.677-2.4-0.492l-0.062-0.123-0.431-0.8-3.938 15.385c-0.205 0.813-0.93 1.405-1.793 1.405-0.597 0-1.128-0.284-1.466-0.723l-0.003-0.004-0.062-0.062-6.585-10.154-3.385 7.385c-0.288 0.648-0.921 1.095-1.66 1.108h-5.602c-0.246 0-0.923-0.246-0.923-0.862 0.006-0.063 0.009-0.137 0.009-0.211 0-0.209-0.026-0.412-0.074-0.606l0.004 0.017v-1.108c-0.001-0.015-0.001-0.033-0.001-0.050 0-0.5 0.392-0.908 0.885-0.934h4.531l4.308-9.354c0.283-0.652 0.921-1.099 1.664-1.099 0.257 0 0.501 0.054 0.723 0.15l-0.012-0.005c0.345 0.153 0.626 0.396 0.82 0.7l0.004 0.007 6.092 9.415 2.831-11.138-0.554 0.308c-1.169 0.8-1.662 0.431-2.4-0.492l-0.123-0.185c-0.492-0.8-0.677-1.6 0.062-2.154l0.615-0.431 4.554-2.646c0.276-0.162 0.609-0.257 0.963-0.257 0.073 0 0.144 0.004 0.215 0.012l-0.009-0.001z"></path>
</svg>
