<!-- Generated by IcoMoon.io -->
<svg version="1.1" xmlns="http://www.w3.org/2000/svg" width="32" height="32" viewBox="0 0 32 32">
<title>weeklyview</title>
<path d="M27.077 4.308h-3.077v-1.231c0-0.985-0.8-1.846-1.846-1.846-0.985 0-1.846 0.8-1.846 1.846v1.231h-8.615v-1.231c0-0.985-0.8-1.846-1.846-1.846-0.985 0-1.846 0.8-1.846 1.846v1.231h-3.077c-1.354 0-2.462 1.108-2.462 2.462v1.538c0 0.492 0.431 0.923 0.923 0.923h25.231c0.492 0 0.923-0.431 0.923-0.923v-1.538c0-1.354-1.108-2.462-2.462-2.462zM28.615 12.308h-25.231c-0.492 0-0.923 0.431-0.923 0.923v15.077c0 1.354 1.108 2.462 2.462 2.462h22.154c1.354 0 2.462-1.108 2.462-2.462v-15.077c0-0.492-0.431-0.923-0.923-0.923zM20.185 18.154l-3.877 8.246c-0.185 0.431-0.615 0.677-1.108 0.677-0.677 0-1.169-0.554-1.169-1.108 0-0.123 0.062-0.308 0.123-0.492l3.262-7.015h-4.677c-0.554 0-1.046-0.369-1.046-0.923 0-0.492 0.492-0.923 1.046-0.923h6.4c0.615 0 1.169 0.492 1.169 1.108 0 0.185-0.062 0.308-0.123 0.431z"></path>
</svg>
