<!-- Generated by IcoMoon.io -->
<svg version="1.1" xmlns="http://www.w3.org/2000/svg" width="32" height="32" viewBox="0 0 32 32">
<title>world</title>
<path d="M16 1.231c-8.185 0-14.769 6.585-14.769 14.769s6.585 14.769 14.769 14.769 14.769-6.585 14.769-14.769-6.585-14.769-14.769-14.769zM17.231 4.369v0zM16 27.692c-6.462 0-11.692-5.231-11.692-11.692 0-0.615 0.062-1.292 0.185-1.846 0.8 0.123 1.785 0.431 2.277 0.923 1.046 1.108 2.215 2.4 3.323 2.646 0 0-0.123 0.062-0.246 0.246s-0.246 0.554-0.246 1.169c0 2.892 2.708 1.169 2.708 4.062s3.262 4.062 3.262 1.723 2.154-3.446 2.154-5.231-1.662-1.723-2.708-2.338c-1.108-0.554-1.662-1.477-3.754-1.169-1.108-1.046-1.723-1.908-1.231-2.892 0.554-1.046 2.831-1.231 2.831-2.831s-1.538-1.908-2.646-1.908c-0.492 0-1.538-0.369-2.4-0.8 1.046-1.046 2.338-1.908 3.692-2.523 0.985 0.431 2.646 1.108 4.062 1.108 1.662 0 2.523-1.169 2.277-1.908 2.769 0.431 5.231 1.846 7.015 3.815-0.923 0.554-2.154 1.169-4.308 1.169-2.831 0-2.831 2.892-1.169 3.446 1.723 0.554 3.446-1.108 4 0s-4 1.108-2.831 3.938c1.169 2.831 2.277-0.062 3.446 2.769s3.446-0.431 1.723-2.646c-0.738-0.985-0.554-4 1.169-4h0.554c0.246 0.985 0.431 2.031 0.431 3.077-0.185 6.462-5.415 11.692-11.877 11.692z"></path>
</svg>
