<!-- Generated by IcoMoon.io -->
<svg version="1.1" xmlns="http://www.w3.org/2000/svg" width="32" height="32" viewBox="0 0 32 32">
<title>yubi-key</title>
<path d="M23.692 8.677h-22.769c-0.492 0-0.923 0.431-0.923 0.923v12.923c0 0.492 0.431 0.923 0.923 0.923h22.769c0.492 0 0.923-0.431 0.923-0.923v-12.923c0-0.492-0.431-0.923-0.923-0.923zM12.923 19.815c-2.092 0-3.754-1.662-3.754-3.754s1.662-3.754 3.754-3.754 3.754 1.662 3.754 3.754-1.662 3.754-3.754 3.754z"></path>
<path d="M13.662 16.062c0 0.408-0.331 0.738-0.738 0.738s-0.738-0.331-0.738-0.738c0-0.408 0.331-0.738 0.738-0.738s0.738 0.331 0.738 0.738z"></path>
<path d="M31.077 11.077h-8.923c-0.492 0-0.923 0.431-0.923 0.923v8c0 0.492 0.431 0.923 0.923 0.923h8.923c0.492 0 0.923-0.431 0.923-0.923v-8c0-0.492-0.431-0.923-0.923-0.923zM28.985 13.538c0.369 0 0.615 0.246 0.615 0.615v1.169h-4.985v-1.785h4.369zM28.985 18.462h-4.369v-1.662h4.985v1.046c0 0.369-0.246 0.615-0.615 0.615z"></path>
</svg>
