<!-- Generated by IcoMoon.io -->
<svg version="1.1" xmlns="http://www.w3.org/2000/svg" width="32" height="32" viewBox="0 0 32 32">
<title>zoomin</title>
<path d="M19.077 11.692h-3.692v-3.692c0-0.369-0.246-0.615-0.615-0.615h-2.462c-0.369 0-0.615 0.246-0.615 0.615v3.692h-3.692c-0.369 0-0.615 0.246-0.615 0.615v2.462c0 0.369 0.246 0.615 0.615 0.615h3.692v3.692c0 0.369 0.246 0.615 0.615 0.615h2.462c0.369 0 0.615-0.246 0.615-0.615v-3.692h3.692c0.369 0 0.615-0.246 0.615-0.615v-2.462c0-0.369-0.246-0.615-0.615-0.615z"></path>
<path d="M30.523 27.815l-7.077-7.015c1.477-2.031 2.4-4.554 2.4-7.262 0-6.769-5.538-12.308-12.308-12.308s-12.308 5.538-12.308 12.308 5.538 12.308 12.308 12.308c2.708 0 5.231-0.923 7.262-2.4l7.077 7.077c0.369 0.369 0.923 0.369 1.292 0l1.292-1.292c0.369-0.369 0.369-0.985 0.062-1.415zM13.538 22.154c-4.738 0-8.615-3.877-8.615-8.615s3.877-8.615 8.615-8.615 8.615 3.877 8.615 8.615-3.877 8.615-8.615 8.615z"></path>
</svg>
